%TF.GenerationSoftware,KiCad,Pcbnew,(5.99.0-8075-g8416c1fc37)*%
%TF.CreationDate,2021-06-27T17:30:08+01:00*%
%TF.ProjectId,picovga,7069636f-7667-4612-9e6b-696361645f70,rev?*%
%TF.SameCoordinates,Original*%
%TF.FileFunction,Soldermask,Bot*%
%TF.FilePolarity,Negative*%
%FSLAX46Y46*%
G04 Gerber Fmt 4.6, Leading zero omitted, Abs format (unit mm)*
G04 Created by KiCad (PCBNEW (5.99.0-8075-g8416c1fc37)) date 2021-06-27 17:30:08*
%MOMM*%
%LPD*%
G01*
G04 APERTURE LIST*
%ADD10R,1.524000X1.524000*%
%ADD11C,1.524000*%
%ADD12C,4.000000*%
%ADD13R,1.600000X1.600000*%
%ADD14C,1.600000*%
%ADD15R,0.700000X1.200000*%
%ADD16R,1.000000X0.800000*%
%ADD17R,1.300000X1.900000*%
%ADD18R,1.000000X1.200000*%
%ADD19R,1.000000X2.800000*%
G04 APERTURE END LIST*
D10*
%TO.C,U0*%
X160110000Y-62870000D03*
D11*
X160110000Y-65410000D03*
X160110000Y-67950000D03*
X160110000Y-70490000D03*
X160110000Y-73030000D03*
X160110000Y-75570000D03*
X160110000Y-78110000D03*
X160110000Y-80650000D03*
X160110000Y-83190000D03*
X160110000Y-85730000D03*
X160110000Y-88270000D03*
X160110000Y-90810000D03*
X160110000Y-93350000D03*
X160110000Y-95890000D03*
X160110000Y-98430000D03*
X160110000Y-100970000D03*
X160110000Y-103510000D03*
X160110000Y-106050000D03*
X160110000Y-108590000D03*
X160110000Y-111130000D03*
X177890000Y-111130000D03*
X177890000Y-108590000D03*
X177890000Y-106050000D03*
X177890000Y-103510000D03*
X177890000Y-100970000D03*
X177890000Y-98430000D03*
X177890000Y-95890000D03*
X177890000Y-93350000D03*
X177890000Y-90810000D03*
X177890000Y-88270000D03*
X177890000Y-85730000D03*
X177890000Y-83190000D03*
X177890000Y-80650000D03*
X177890000Y-78110000D03*
X177890000Y-75570000D03*
X177890000Y-73030000D03*
X177890000Y-70490000D03*
X177890000Y-67950000D03*
X177890000Y-65410000D03*
X177890000Y-62870000D03*
%TD*%
D12*
%TO.C,J1*%
X156485000Y-118010000D03*
X181485000Y-118010000D03*
D13*
X173300000Y-115960000D03*
D14*
X171010000Y-115960000D03*
X168720000Y-115960000D03*
X166430000Y-115960000D03*
X164140000Y-115960000D03*
X174445000Y-117940000D03*
X172155000Y-117940000D03*
X169865000Y-117940000D03*
X167575000Y-117940000D03*
X165285000Y-117940000D03*
X173300000Y-119920000D03*
X171010000Y-119920000D03*
X168720000Y-119920000D03*
X166430000Y-119920000D03*
X164140000Y-119920000D03*
%TD*%
D15*
%TO.C,J2*%
X171775000Y-77725000D03*
X170675000Y-77725000D03*
X169575000Y-77725000D03*
X168475000Y-77725000D03*
X167375000Y-77725000D03*
X166275000Y-77725000D03*
X165175000Y-77725000D03*
X164075000Y-77725000D03*
X163125000Y-77725000D03*
D16*
X162175000Y-67225000D03*
D17*
X175675000Y-62625000D03*
D18*
X162175000Y-73425000D03*
X173325000Y-77725000D03*
D19*
X162175000Y-63075000D03*
%TD*%
M02*
