%TF.GenerationSoftware,KiCad,Pcbnew,(5.99.0-8075-g8416c1fc37)*%
%TF.CreationDate,2021-06-27T17:30:08+01:00*%
%TF.ProjectId,picovga,7069636f-7667-4612-9e6b-696361645f70,rev?*%
%TF.SameCoordinates,Original*%
%TF.FileFunction,Copper,L2,Bot*%
%TF.FilePolarity,Positive*%
%FSLAX46Y46*%
G04 Gerber Fmt 4.6, Leading zero omitted, Abs format (unit mm)*
G04 Created by KiCad (PCBNEW (5.99.0-8075-g8416c1fc37)) date 2021-06-27 17:30:08*
%MOMM*%
%LPD*%
G01*
G04 APERTURE LIST*
%TA.AperFunction,ComponentPad*%
%ADD10R,1.524000X1.524000*%
%TD*%
%TA.AperFunction,ComponentPad*%
%ADD11C,1.524000*%
%TD*%
%TA.AperFunction,ComponentPad*%
%ADD12C,4.000000*%
%TD*%
%TA.AperFunction,ComponentPad*%
%ADD13R,1.600000X1.600000*%
%TD*%
%TA.AperFunction,ComponentPad*%
%ADD14C,1.600000*%
%TD*%
%TA.AperFunction,SMDPad,CuDef*%
%ADD15R,0.700000X1.200000*%
%TD*%
%TA.AperFunction,SMDPad,CuDef*%
%ADD16R,1.000000X0.800000*%
%TD*%
%TA.AperFunction,SMDPad,CuDef*%
%ADD17R,1.300000X1.900000*%
%TD*%
%TA.AperFunction,SMDPad,CuDef*%
%ADD18R,1.000000X1.200000*%
%TD*%
%TA.AperFunction,SMDPad,CuDef*%
%ADD19R,1.000000X2.800000*%
%TD*%
%TA.AperFunction,ViaPad*%
%ADD20C,0.800000*%
%TD*%
%TA.AperFunction,Conductor*%
%ADD21C,0.250000*%
%TD*%
G04 APERTURE END LIST*
D10*
%TO.P,U0,1,GP0*%
%TO.N,R0*%
X160110000Y-62870000D03*
D11*
%TO.P,U0,2,GP1*%
%TO.N,R1*%
X160110000Y-65410000D03*
%TO.P,U0,3,GND*%
%TO.N,GND*%
X160110000Y-67950000D03*
%TO.P,U0,4,GP2*%
%TO.N,R2*%
X160110000Y-70490000D03*
%TO.P,U0,5,GP3*%
%TO.N,R3*%
X160110000Y-73030000D03*
%TO.P,U0,6,GP4*%
%TO.N,G0*%
X160110000Y-75570000D03*
%TO.P,U0,7,GP5*%
%TO.N,G1*%
X160110000Y-78110000D03*
%TO.P,U0,8,GND*%
%TO.N,GND*%
X160110000Y-80650000D03*
%TO.P,U0,9,GP6*%
%TO.N,G2*%
X160110000Y-83190000D03*
%TO.P,U0,10,GP7*%
%TO.N,G3*%
X160110000Y-85730000D03*
%TO.P,U0,11,GP8*%
%TO.N,B0*%
X160110000Y-88270000D03*
%TO.P,U0,12,GP9*%
%TO.N,B1*%
X160110000Y-90810000D03*
%TO.P,U0,13,GND*%
%TO.N,GND*%
X160110000Y-93350000D03*
%TO.P,U0,14,GP10*%
%TO.N,B2*%
X160110000Y-95890000D03*
%TO.P,U0,15,GP11*%
%TO.N,B3*%
X160110000Y-98430000D03*
%TO.P,U0,16,GP12*%
%TO.N,Net-(R13-Pad2)*%
X160110000Y-100970000D03*
%TO.P,U0,17,GP13*%
%TO.N,Net-(R14-Pad1)*%
X160110000Y-103510000D03*
%TO.P,U0,18,GND*%
%TO.N,GND*%
X160110000Y-106050000D03*
%TO.P,U0,19,GP14*%
%TO.N,no_connect_32*%
X160110000Y-108590000D03*
%TO.P,U0,20,GP15*%
%TO.N,no_connect_33*%
X160110000Y-111130000D03*
%TO.P,U0,21,GP16*%
%TO.N,no_connect_34*%
X177890000Y-111130000D03*
%TO.P,U0,22,GP17*%
%TO.N,GP17*%
X177890000Y-108590000D03*
%TO.P,U0,23,GND*%
%TO.N,GND*%
X177890000Y-106050000D03*
%TO.P,U0,24,GP18*%
%TO.N,GP18*%
X177890000Y-103510000D03*
%TO.P,U0,25,GP19*%
%TO.N,GP19*%
X177890000Y-100970000D03*
%TO.P,U0,26,GP20*%
%TO.N,GP20*%
X177890000Y-98430000D03*
%TO.P,U0,27,GP21*%
%TO.N,GP21*%
X177890000Y-95890000D03*
%TO.P,U0,28,GND*%
%TO.N,GND*%
X177890000Y-93350000D03*
%TO.P,U0,29,GP22*%
%TO.N,GP22*%
X177890000Y-90810000D03*
%TO.P,U0,30,RUN*%
%TO.N,no_connect_35*%
X177890000Y-88270000D03*
%TO.P,U0,31,GP26*%
%TO.N,no_connect_36*%
X177890000Y-85730000D03*
%TO.P,U0,32,GP27*%
%TO.N,no_connect_37*%
X177890000Y-83190000D03*
%TO.P,U0,33,GND*%
%TO.N,GND*%
X177890000Y-80650000D03*
%TO.P,U0,34,GP28*%
%TO.N,no_connect_38*%
X177890000Y-78110000D03*
%TO.P,U0,35,ADC_VREF*%
%TO.N,no_connect_39*%
X177890000Y-75570000D03*
%TO.P,U0,36,3V3*%
%TO.N,+3V3*%
X177890000Y-73030000D03*
%TO.P,U0,37,3V3_EN*%
%TO.N,no_connect_40*%
X177890000Y-70490000D03*
%TO.P,U0,38,GND*%
%TO.N,GND*%
X177890000Y-67950000D03*
%TO.P,U0,39,VSYS*%
%TO.N,no_connect_41*%
X177890000Y-65410000D03*
%TO.P,U0,40,VBUS*%
%TO.N,no_connect_42*%
X177890000Y-62870000D03*
%TD*%
D12*
%TO.P,J1,0*%
%TO.N,GND*%
X156485000Y-118010000D03*
X181485000Y-118010000D03*
D13*
%TO.P,J1,1*%
%TO.N,VGA_R*%
X173300000Y-115960000D03*
D14*
%TO.P,J1,2*%
%TO.N,VGA_G*%
X171010000Y-115960000D03*
%TO.P,J1,3*%
%TO.N,VGA_B*%
X168720000Y-115960000D03*
%TO.P,J1,4*%
%TO.N,no_connect_31*%
X166430000Y-115960000D03*
%TO.P,J1,5*%
%TO.N,GND*%
X164140000Y-115960000D03*
%TO.P,J1,6*%
X174445000Y-117940000D03*
%TO.P,J1,7*%
X172155000Y-117940000D03*
%TO.P,J1,8*%
X169865000Y-117940000D03*
%TO.P,J1,9*%
X167575000Y-117940000D03*
%TO.P,J1,10*%
X165285000Y-117940000D03*
%TO.P,J1,11*%
%TO.N,no_connect_28*%
X173300000Y-119920000D03*
%TO.P,J1,12*%
%TO.N,no_connect_29*%
X171010000Y-119920000D03*
%TO.P,J1,13*%
%TO.N,HSYNC*%
X168720000Y-119920000D03*
%TO.P,J1,14*%
%TO.N,VSYNC*%
X166430000Y-119920000D03*
%TO.P,J1,15*%
%TO.N,no_connect_30*%
X164140000Y-119920000D03*
%TD*%
D15*
%TO.P,J2,1,DAT2*%
%TO.N,GP21*%
X171775000Y-77725000D03*
%TO.P,J2,2,DAT3/CD*%
%TO.N,GP22*%
X170675000Y-77725000D03*
%TO.P,J2,3,CMD*%
%TO.N,GP18*%
X169575000Y-77725000D03*
%TO.P,J2,4,VDD*%
%TO.N,+3V3*%
X168475000Y-77725000D03*
%TO.P,J2,5,CLK*%
%TO.N,GP17*%
X167375000Y-77725000D03*
%TO.P,J2,6,VSS*%
%TO.N,GND*%
X166275000Y-77725000D03*
%TO.P,J2,7,DAT0*%
%TO.N,GP19*%
X165175000Y-77725000D03*
%TO.P,J2,8,DAT1*%
%TO.N,GP20*%
X164075000Y-77725000D03*
%TO.P,J2,9,SHIELD*%
%TO.N,GND*%
X163125000Y-77725000D03*
D16*
%TO.P,J2,10*%
%TO.N,N/C*%
X162175000Y-67225000D03*
D17*
%TO.P,J2,11*%
X175675000Y-62625000D03*
D18*
X162175000Y-73425000D03*
X173325000Y-77725000D03*
D19*
X162175000Y-63075000D03*
%TD*%
D20*
%TO.N,VSYNC*%
X164500000Y-122225000D03*
%TO.N,GND*%
X171500000Y-87250000D03*
%TO.N,+3V3*%
X168500000Y-79450000D03*
%TO.N,GP19*%
X174750000Y-97500000D03*
%TO.N,GP21*%
X174500000Y-79925000D03*
%TO.N,GP20*%
X174250000Y-95000000D03*
X174324980Y-87000000D03*
%TD*%
D21*
%TO.N,GND*%
X165285000Y-117940000D02*
X165285000Y-117105000D01*
X165285000Y-117105000D02*
X164140000Y-115960000D01*
X167575000Y-117940000D02*
X165285000Y-117940000D01*
X169865000Y-117940000D02*
X167575000Y-117940000D01*
X172155000Y-117940000D02*
X169865000Y-117940000D01*
X174445000Y-117940000D02*
X172155000Y-117940000D01*
%TO.N,VSYNC*%
X166430000Y-121570000D02*
X166430000Y-119920000D01*
X164500000Y-122225000D02*
X165775000Y-122225000D01*
X165775000Y-122225000D02*
X166430000Y-121570000D01*
%TO.N,GND*%
X171500000Y-84500000D02*
X171500000Y-87250000D01*
%TO.N,Net-(R15-Pad1)*%
X168475000Y-79425000D02*
X168500000Y-79450000D01*
X168475000Y-77725000D02*
X168475000Y-79425000D01*
%TO.N,GP19*%
X167090559Y-79750000D02*
X169340619Y-82000060D01*
X175049980Y-97200020D02*
X174750000Y-97500000D01*
X165175000Y-78250000D02*
X166675000Y-79750000D01*
X175049980Y-83209252D02*
X175049980Y-97200020D01*
X173840788Y-82000060D02*
X175049980Y-83209252D01*
X166675000Y-79750000D02*
X167090559Y-79750000D01*
X169340619Y-82000060D02*
X173840788Y-82000060D01*
%TO.N,GP17*%
X167375000Y-77725000D02*
X167375000Y-79398017D01*
X174027192Y-81550040D02*
X175500000Y-83022848D01*
X175500000Y-106200000D02*
X177890000Y-108590000D01*
X175500000Y-83022848D02*
X175500000Y-106200000D01*
X167375000Y-79398017D02*
X169527023Y-81550040D01*
X169527023Y-81550040D02*
X174027192Y-81550040D01*
%TO.N,GP18*%
X169575000Y-77725000D02*
X169575000Y-78160020D01*
X171363596Y-81100020D02*
X174213596Y-81100020D01*
X174213596Y-81100020D02*
X176000000Y-82886424D01*
X176000000Y-82886424D02*
X176000000Y-101620000D01*
X169575000Y-79311424D02*
X171363596Y-81100020D01*
X169575000Y-77725000D02*
X169575000Y-79311424D01*
X176000000Y-101620000D02*
X177890000Y-103510000D01*
%TO.N,GP22*%
X170650000Y-79750000D02*
X171550000Y-80650000D01*
X170675000Y-77725000D02*
X170675000Y-78160020D01*
X170650000Y-77750000D02*
X170650000Y-79750000D01*
X176450000Y-90300000D02*
X176960000Y-90810000D01*
X174400000Y-80650000D02*
X176450000Y-82700000D01*
X176450000Y-82700000D02*
X176450000Y-90300000D01*
X170675000Y-77725000D02*
X170650000Y-77750000D01*
X171550000Y-80650000D02*
X174400000Y-80650000D01*
X176960000Y-90810000D02*
X177890000Y-90810000D01*
%TO.N,GP21*%
X174425000Y-80000000D02*
X174500000Y-79925000D01*
X171775000Y-77725000D02*
X171775000Y-77860020D01*
X172000000Y-80000000D02*
X174425000Y-80000000D01*
X171775000Y-77725000D02*
X171775000Y-79775000D01*
X171775000Y-79775000D02*
X172000000Y-80000000D01*
%TO.N,GP20*%
X173654384Y-82450080D02*
X174599960Y-83395656D01*
X174599960Y-87650040D02*
X174599960Y-94650040D01*
X169154215Y-82450080D02*
X173654384Y-82450080D01*
X166200020Y-80200020D02*
X166904155Y-80200020D01*
X174599960Y-94650040D02*
X174250000Y-95000000D01*
X164075000Y-78075000D02*
X166200020Y-80200020D01*
X174599960Y-86400040D02*
X174324980Y-86675020D01*
X166904155Y-80200020D02*
X169154215Y-82450080D01*
X164075000Y-77725000D02*
X164075000Y-78075000D01*
X174324980Y-86675020D02*
X174324980Y-87375060D01*
X174324980Y-87375060D02*
X174599960Y-87650040D01*
X174599960Y-83395656D02*
X174599960Y-86400040D01*
%TD*%
%TA.AperFunction,Conductor*%
%TO.N,GND*%
G36*
X156343698Y-61986342D02*
G01*
X158708600Y-61988228D01*
X158776705Y-62008284D01*
X158823155Y-62061977D01*
X158834500Y-62114228D01*
X158834500Y-63632000D01*
X158839727Y-63705079D01*
X158880904Y-63845316D01*
X158885775Y-63852895D01*
X158955051Y-63960691D01*
X158955053Y-63960694D01*
X158959923Y-63968271D01*
X158966733Y-63974172D01*
X159063569Y-64058082D01*
X159063572Y-64058084D01*
X159070381Y-64063984D01*
X159078579Y-64067728D01*
X159094941Y-64075200D01*
X159203330Y-64124700D01*
X159212245Y-64125982D01*
X159212246Y-64125982D01*
X159238941Y-64129820D01*
X159323917Y-64142037D01*
X159388497Y-64171530D01*
X159426881Y-64231256D01*
X159426881Y-64302253D01*
X159388498Y-64361979D01*
X159382690Y-64366717D01*
X159246645Y-64471108D01*
X159242872Y-64475254D01*
X159242867Y-64475259D01*
X159154244Y-64572655D01*
X159094026Y-64638834D01*
X159091043Y-64643590D01*
X159091041Y-64643592D01*
X159022649Y-64752619D01*
X158973521Y-64830935D01*
X158888939Y-65041340D01*
X158842953Y-65263398D01*
X158837017Y-65490089D01*
X158871318Y-65714249D01*
X158944773Y-65928793D01*
X159055059Y-66126937D01*
X159198690Y-66302421D01*
X159202953Y-66306062D01*
X159202958Y-66306067D01*
X159350467Y-66432051D01*
X159371127Y-66449696D01*
X159450896Y-66496309D01*
X159560466Y-66560336D01*
X159566919Y-66564107D01*
X159572185Y-66566034D01*
X159576554Y-66568090D01*
X159629674Y-66615194D01*
X159648895Y-66683539D01*
X159628114Y-66751427D01*
X159580693Y-66794063D01*
X159431803Y-66870910D01*
X159422372Y-66876895D01*
X159421883Y-66877271D01*
X159413418Y-66888863D01*
X159420050Y-66900839D01*
X160097189Y-67577979D01*
X160111132Y-67585592D01*
X160112966Y-67585461D01*
X160119580Y-67581210D01*
X160797460Y-66903329D01*
X160803682Y-66891935D01*
X160793870Y-66879502D01*
X160728892Y-66835838D01*
X160719098Y-66830454D01*
X160643739Y-66797373D01*
X160589404Y-66751677D01*
X160568399Y-66683859D01*
X160587394Y-66615450D01*
X160640358Y-66568171D01*
X160649828Y-66564142D01*
X160665137Y-66558357D01*
X160683477Y-66547381D01*
X160791336Y-66482828D01*
X160859720Y-66441901D01*
X160863940Y-66438219D01*
X160863945Y-66438216D01*
X161026375Y-66296519D01*
X161030605Y-66292829D01*
X161041882Y-66278753D01*
X161168885Y-66120228D01*
X161168888Y-66120223D01*
X161172391Y-66115851D01*
X161280596Y-65916562D01*
X161351800Y-65701262D01*
X161383752Y-65476755D01*
X161385500Y-65410000D01*
X161365341Y-65184128D01*
X161345174Y-65110410D01*
X161346492Y-65039427D01*
X161385977Y-64980424D01*
X161451094Y-64952134D01*
X161513408Y-64961684D01*
X161513486Y-64961418D01*
X161515465Y-64961999D01*
X161519047Y-64962548D01*
X161522132Y-64963957D01*
X161522138Y-64963959D01*
X161530330Y-64967700D01*
X161539245Y-64968982D01*
X161539246Y-64968982D01*
X161670552Y-64987861D01*
X161670559Y-64987862D01*
X161675000Y-64988500D01*
X162675000Y-64988500D01*
X162748079Y-64983273D01*
X162826213Y-64960331D01*
X162879670Y-64944635D01*
X162879672Y-64944634D01*
X162888316Y-64942096D01*
X162942951Y-64906984D01*
X163003691Y-64867949D01*
X163003694Y-64867947D01*
X163011271Y-64863077D01*
X163034608Y-64836145D01*
X163101082Y-64759431D01*
X163101084Y-64759428D01*
X163106984Y-64752619D01*
X163167700Y-64619670D01*
X163168982Y-64610754D01*
X163187861Y-64479448D01*
X163187862Y-64479441D01*
X163188500Y-64475000D01*
X163188500Y-62117902D01*
X163208502Y-62049781D01*
X163262158Y-62003288D01*
X163314600Y-61991902D01*
X174385600Y-62000731D01*
X174453705Y-62020787D01*
X174500155Y-62074480D01*
X174511500Y-62126731D01*
X174511500Y-63575000D01*
X174516727Y-63648079D01*
X174518631Y-63654562D01*
X174550375Y-63762673D01*
X174557904Y-63788316D01*
X174582426Y-63826472D01*
X174632051Y-63903691D01*
X174632053Y-63903694D01*
X174636923Y-63911271D01*
X174643733Y-63917172D01*
X174740569Y-64001082D01*
X174740572Y-64001084D01*
X174747381Y-64006984D01*
X174755579Y-64010728D01*
X174859270Y-64058082D01*
X174880330Y-64067700D01*
X174889245Y-64068982D01*
X174889246Y-64068982D01*
X175020552Y-64087861D01*
X175020559Y-64087862D01*
X175025000Y-64088500D01*
X176325000Y-64088500D01*
X176398079Y-64083273D01*
X176483872Y-64058082D01*
X176529670Y-64044635D01*
X176529672Y-64044634D01*
X176538316Y-64042096D01*
X176602135Y-64001082D01*
X176653691Y-63967949D01*
X176653694Y-63967947D01*
X176661271Y-63963077D01*
X176701048Y-63917172D01*
X176751082Y-63859431D01*
X176751084Y-63859428D01*
X176756984Y-63852619D01*
X176760728Y-63844422D01*
X176760730Y-63844418D01*
X176779573Y-63803158D01*
X176826066Y-63749503D01*
X176894187Y-63729501D01*
X176962307Y-63749503D01*
X176978475Y-63762673D01*
X176978690Y-63762421D01*
X177151127Y-63909696D01*
X177163921Y-63917172D01*
X177340473Y-64020340D01*
X177346919Y-64024107D01*
X177352196Y-64026038D01*
X177355983Y-64027820D01*
X177409104Y-64074923D01*
X177428327Y-64143268D01*
X177407548Y-64211156D01*
X177360125Y-64253795D01*
X177289943Y-64290019D01*
X177206553Y-64333060D01*
X177026645Y-64471108D01*
X177022872Y-64475254D01*
X177022867Y-64475259D01*
X176934244Y-64572655D01*
X176874026Y-64638834D01*
X176871043Y-64643590D01*
X176871041Y-64643592D01*
X176802649Y-64752619D01*
X176753521Y-64830935D01*
X176668939Y-65041340D01*
X176622953Y-65263398D01*
X176617017Y-65490089D01*
X176651318Y-65714249D01*
X176724773Y-65928793D01*
X176835059Y-66126937D01*
X176978690Y-66302421D01*
X176982953Y-66306062D01*
X176982958Y-66306067D01*
X177130467Y-66432051D01*
X177151127Y-66449696D01*
X177230896Y-66496309D01*
X177340466Y-66560336D01*
X177346919Y-66564107D01*
X177352185Y-66566034D01*
X177356554Y-66568090D01*
X177409674Y-66615194D01*
X177428895Y-66683539D01*
X177408114Y-66751427D01*
X177360693Y-66794063D01*
X177211803Y-66870910D01*
X177202372Y-66876895D01*
X177201883Y-66877271D01*
X177193418Y-66888863D01*
X177200050Y-66900839D01*
X177877189Y-67577979D01*
X177891132Y-67585592D01*
X177892966Y-67585461D01*
X177899580Y-67581210D01*
X178577460Y-66903329D01*
X178583682Y-66891935D01*
X178573870Y-66879502D01*
X178508892Y-66835838D01*
X178499098Y-66830454D01*
X178423739Y-66797373D01*
X178369404Y-66751677D01*
X178348399Y-66683859D01*
X178367394Y-66615450D01*
X178420358Y-66568171D01*
X178429828Y-66564142D01*
X178445137Y-66558357D01*
X178463477Y-66547381D01*
X178571336Y-66482828D01*
X178639720Y-66441901D01*
X178643940Y-66438219D01*
X178643945Y-66438216D01*
X178806375Y-66296519D01*
X178810605Y-66292829D01*
X178821882Y-66278753D01*
X178948885Y-66120228D01*
X178948888Y-66120223D01*
X178952391Y-66115851D01*
X179060596Y-65916562D01*
X179131800Y-65701262D01*
X179163752Y-65476755D01*
X179165500Y-65410000D01*
X179145341Y-65184128D01*
X179106279Y-65041340D01*
X179086985Y-64970812D01*
X179086984Y-64970808D01*
X179085503Y-64965396D01*
X178987876Y-64760718D01*
X178855547Y-64576562D01*
X178755333Y-64479448D01*
X178696726Y-64422653D01*
X178696723Y-64422651D01*
X178692698Y-64418750D01*
X178565178Y-64333060D01*
X178509130Y-64295397D01*
X178509124Y-64295394D01*
X178504477Y-64292271D01*
X178424404Y-64257121D01*
X178370070Y-64211427D01*
X178349065Y-64143608D01*
X178368059Y-64075200D01*
X178421023Y-64027920D01*
X178430513Y-64023883D01*
X178439890Y-64020340D01*
X178439893Y-64020338D01*
X178445137Y-64018357D01*
X178639720Y-63901901D01*
X178643940Y-63898219D01*
X178643945Y-63898216D01*
X178806375Y-63756519D01*
X178810605Y-63752829D01*
X178894526Y-63648079D01*
X178948885Y-63580228D01*
X178948888Y-63580223D01*
X178952391Y-63575851D01*
X179060596Y-63376562D01*
X179131800Y-63161262D01*
X179163752Y-62936755D01*
X179165500Y-62870000D01*
X179145341Y-62644128D01*
X179094258Y-62457399D01*
X179086985Y-62430812D01*
X179086984Y-62430808D01*
X179085503Y-62425396D01*
X178987876Y-62220718D01*
X178975863Y-62204000D01*
X178952355Y-62137008D01*
X178968796Y-62067942D01*
X179019968Y-62018729D01*
X179078283Y-62004474D01*
X183054010Y-62007644D01*
X183416206Y-62007933D01*
X183438425Y-62009927D01*
X183449675Y-62011952D01*
X183506386Y-62013295D01*
X183530828Y-62013874D01*
X183552426Y-62016260D01*
X183629200Y-62031531D01*
X183652836Y-62038701D01*
X183718113Y-62065739D01*
X183739898Y-62077383D01*
X183798649Y-62116639D01*
X183817742Y-62132309D01*
X183867691Y-62182258D01*
X183883360Y-62201350D01*
X183922618Y-62260104D01*
X183934260Y-62281885D01*
X183961299Y-62347165D01*
X183968469Y-62370800D01*
X183983424Y-62445981D01*
X183983740Y-62447572D01*
X183986126Y-62469170D01*
X183987971Y-62547048D01*
X183988710Y-62551460D01*
X183988711Y-62551472D01*
X183990269Y-62560776D01*
X183992000Y-62581587D01*
X183992000Y-116883483D01*
X183971998Y-116951604D01*
X183918342Y-116998097D01*
X183848068Y-117008201D01*
X183783488Y-116978707D01*
X183751992Y-116937131D01*
X183688846Y-116802939D01*
X183685035Y-116796006D01*
X183520186Y-116536246D01*
X183515532Y-116529841D01*
X183440533Y-116439183D01*
X183428015Y-116430728D01*
X183417276Y-116436935D01*
X181857020Y-117997190D01*
X181849408Y-118011131D01*
X181849539Y-118012966D01*
X181853790Y-118019580D01*
X183416174Y-119581963D01*
X183429436Y-119589205D01*
X183439540Y-119582017D01*
X183515532Y-119490159D01*
X183520186Y-119483754D01*
X183685035Y-119223994D01*
X183688846Y-119217061D01*
X183751992Y-119082869D01*
X183799094Y-119029748D01*
X183867439Y-119010525D01*
X183935327Y-119031304D01*
X183981204Y-119085487D01*
X183992000Y-119136517D01*
X183992000Y-122365527D01*
X183971998Y-122433648D01*
X183918342Y-122480141D01*
X183865906Y-122491527D01*
X180543527Y-122489048D01*
X176611989Y-122486114D01*
X166721267Y-122478733D01*
X166653161Y-122458680D01*
X166606708Y-122404990D01*
X166596657Y-122334708D01*
X166626198Y-122270150D01*
X166632266Y-122263638D01*
X166822525Y-122073379D01*
X166830604Y-122066028D01*
X166836994Y-122061973D01*
X166882845Y-122013147D01*
X166885600Y-122010305D01*
X166905938Y-121989967D01*
X166908588Y-121986551D01*
X166916298Y-121977523D01*
X166941130Y-121951080D01*
X166946557Y-121945301D01*
X166950374Y-121938357D01*
X166950378Y-121938352D01*
X166956316Y-121927550D01*
X166967172Y-121911023D01*
X166974724Y-121901287D01*
X166979583Y-121895023D01*
X166997142Y-121854448D01*
X167002357Y-121843802D01*
X167023662Y-121805048D01*
X167028702Y-121785419D01*
X167035101Y-121766729D01*
X167043147Y-121748136D01*
X167050063Y-121704472D01*
X167052470Y-121692851D01*
X167061987Y-121655782D01*
X167061987Y-121655781D01*
X167063465Y-121650025D01*
X167063500Y-121649469D01*
X167063500Y-121629547D01*
X167065051Y-121609836D01*
X167066944Y-121597884D01*
X167068184Y-121590056D01*
X167064059Y-121546417D01*
X167063500Y-121534560D01*
X167063500Y-121139395D01*
X167083502Y-121071274D01*
X167117230Y-121036182D01*
X167269786Y-120929362D01*
X167269792Y-120929357D01*
X167274302Y-120926199D01*
X167436199Y-120764302D01*
X167471787Y-120713477D01*
X167527244Y-120669149D01*
X167597863Y-120661840D01*
X167661224Y-120693871D01*
X167678213Y-120713477D01*
X167713801Y-120764302D01*
X167875698Y-120926199D01*
X167880206Y-120929356D01*
X167880215Y-120929362D01*
X168063250Y-121057524D01*
X168068232Y-121059847D01*
X168068237Y-121059850D01*
X168166465Y-121105654D01*
X168270757Y-121154286D01*
X168276065Y-121155708D01*
X168276067Y-121155709D01*
X168486598Y-121212121D01*
X168486600Y-121212121D01*
X168491913Y-121213545D01*
X168720000Y-121233500D01*
X168948087Y-121213545D01*
X168953400Y-121212121D01*
X168953402Y-121212121D01*
X169163933Y-121155709D01*
X169163935Y-121155708D01*
X169169243Y-121154286D01*
X169273535Y-121105654D01*
X169371763Y-121059850D01*
X169371768Y-121059847D01*
X169376750Y-121057524D01*
X169559785Y-120929362D01*
X169559794Y-120929356D01*
X169564302Y-120926199D01*
X169726199Y-120764302D01*
X169761787Y-120713477D01*
X169817244Y-120669149D01*
X169887863Y-120661840D01*
X169951224Y-120693871D01*
X169968213Y-120713477D01*
X170003801Y-120764302D01*
X170165698Y-120926199D01*
X170170206Y-120929356D01*
X170170215Y-120929362D01*
X170353250Y-121057524D01*
X170358232Y-121059847D01*
X170358237Y-121059850D01*
X170456465Y-121105654D01*
X170560757Y-121154286D01*
X170566065Y-121155708D01*
X170566067Y-121155709D01*
X170776598Y-121212121D01*
X170776600Y-121212121D01*
X170781913Y-121213545D01*
X171010000Y-121233500D01*
X171238087Y-121213545D01*
X171243400Y-121212121D01*
X171243402Y-121212121D01*
X171453933Y-121155709D01*
X171453935Y-121155708D01*
X171459243Y-121154286D01*
X171563535Y-121105654D01*
X171661763Y-121059850D01*
X171661768Y-121059847D01*
X171666750Y-121057524D01*
X171849785Y-120929362D01*
X171849794Y-120929356D01*
X171854302Y-120926199D01*
X172016199Y-120764302D01*
X172051787Y-120713477D01*
X172107244Y-120669149D01*
X172177863Y-120661840D01*
X172241224Y-120693871D01*
X172258213Y-120713477D01*
X172293801Y-120764302D01*
X172455698Y-120926199D01*
X172460206Y-120929356D01*
X172460215Y-120929362D01*
X172643250Y-121057524D01*
X172648232Y-121059847D01*
X172648237Y-121059850D01*
X172746465Y-121105654D01*
X172850757Y-121154286D01*
X172856065Y-121155708D01*
X172856067Y-121155709D01*
X173066598Y-121212121D01*
X173066600Y-121212121D01*
X173071913Y-121213545D01*
X173300000Y-121233500D01*
X173528087Y-121213545D01*
X173533400Y-121212121D01*
X173533402Y-121212121D01*
X173743933Y-121155709D01*
X173743935Y-121155708D01*
X173749243Y-121154286D01*
X173853535Y-121105654D01*
X173951763Y-121059850D01*
X173951768Y-121059847D01*
X173956750Y-121057524D01*
X174139785Y-120929362D01*
X174139794Y-120929356D01*
X174144302Y-120926199D01*
X174306199Y-120764302D01*
X174355516Y-120693871D01*
X174434367Y-120581259D01*
X174434368Y-120581257D01*
X174437524Y-120576750D01*
X174439847Y-120571768D01*
X174439850Y-120571763D01*
X174531963Y-120374225D01*
X174531964Y-120374224D01*
X174534286Y-120369243D01*
X174557683Y-120281927D01*
X174592121Y-120153402D01*
X174592121Y-120153400D01*
X174593545Y-120148087D01*
X174610349Y-119956016D01*
X179903692Y-119956016D01*
X179912521Y-119967636D01*
X180135259Y-120129465D01*
X180141939Y-120133705D01*
X180411555Y-120281927D01*
X180418690Y-120285284D01*
X180704757Y-120398547D01*
X180712282Y-120400992D01*
X181010272Y-120477502D01*
X181018043Y-120478985D01*
X181323276Y-120517544D01*
X181331166Y-120518041D01*
X181638834Y-120518041D01*
X181646724Y-120517544D01*
X181951957Y-120478985D01*
X181959728Y-120477502D01*
X182257718Y-120400992D01*
X182265243Y-120398547D01*
X182551310Y-120285284D01*
X182558445Y-120281927D01*
X182828061Y-120133705D01*
X182834741Y-120129465D01*
X183057852Y-119967366D01*
X183066275Y-119956443D01*
X183059371Y-119943582D01*
X181497810Y-118382020D01*
X181483869Y-118374408D01*
X181482034Y-118374539D01*
X181475420Y-118378790D01*
X179910305Y-119943906D01*
X179903692Y-119956016D01*
X174610349Y-119956016D01*
X174613500Y-119920000D01*
X174593545Y-119691913D01*
X174534286Y-119470757D01*
X174531961Y-119465770D01*
X174509274Y-119417117D01*
X174498613Y-119346926D01*
X174527593Y-119282113D01*
X174587013Y-119243257D01*
X174612488Y-119238347D01*
X174667523Y-119233532D01*
X174678310Y-119231630D01*
X174888761Y-119175239D01*
X174899057Y-119171491D01*
X175096513Y-119079417D01*
X175106008Y-119073934D01*
X175158050Y-119037494D01*
X175166426Y-119027015D01*
X175159358Y-119013569D01*
X174174885Y-118029095D01*
X174140859Y-117966783D01*
X174142693Y-117941132D01*
X174809408Y-117941132D01*
X174809539Y-117942966D01*
X174813790Y-117949580D01*
X175519294Y-118655083D01*
X175531064Y-118661510D01*
X175543078Y-118652216D01*
X175578934Y-118601008D01*
X175584417Y-118591513D01*
X175676491Y-118394057D01*
X175680239Y-118383761D01*
X175736630Y-118173310D01*
X175738532Y-118162523D01*
X175752222Y-118006042D01*
X178972249Y-118006042D01*
X178972249Y-118013958D01*
X178991567Y-118320999D01*
X178992560Y-118328862D01*
X179050207Y-118631057D01*
X179052178Y-118638734D01*
X179147246Y-118931324D01*
X179150161Y-118938687D01*
X179281154Y-119217061D01*
X179284965Y-119223994D01*
X179449814Y-119483754D01*
X179454468Y-119490159D01*
X179529467Y-119580817D01*
X179541985Y-119589272D01*
X179552724Y-119583065D01*
X181112980Y-118022810D01*
X181120592Y-118008869D01*
X181120461Y-118007034D01*
X181116210Y-118000420D01*
X179553826Y-116438037D01*
X179540564Y-116430795D01*
X179530460Y-116437983D01*
X179454468Y-116529841D01*
X179449814Y-116536246D01*
X179284965Y-116796006D01*
X179281154Y-116802939D01*
X179150161Y-117081313D01*
X179147246Y-117088676D01*
X179052178Y-117381266D01*
X179050207Y-117388943D01*
X178992560Y-117691138D01*
X178991567Y-117699001D01*
X178972249Y-118006042D01*
X175752222Y-118006042D01*
X175757521Y-117945475D01*
X175757521Y-117934525D01*
X175738532Y-117717477D01*
X175736630Y-117706690D01*
X175680239Y-117496239D01*
X175676491Y-117485943D01*
X175584417Y-117288487D01*
X175578934Y-117278992D01*
X175542494Y-117226950D01*
X175532015Y-117218574D01*
X175518570Y-117225641D01*
X174817021Y-117927189D01*
X174809408Y-117941132D01*
X174142693Y-117941132D01*
X174145924Y-117895967D01*
X174174885Y-117850905D01*
X174445000Y-117580790D01*
X175160079Y-116865710D01*
X175166509Y-116853935D01*
X175157213Y-116841920D01*
X175106008Y-116806066D01*
X175096513Y-116800583D01*
X174899057Y-116708509D01*
X174888750Y-116704757D01*
X174706888Y-116656026D01*
X174646266Y-116619075D01*
X174615244Y-116555214D01*
X174613500Y-116534320D01*
X174613500Y-116063557D01*
X179903725Y-116063557D01*
X179910629Y-116076418D01*
X181472190Y-117637980D01*
X181486131Y-117645592D01*
X181487966Y-117645461D01*
X181494580Y-117641210D01*
X183059695Y-116076094D01*
X183066308Y-116063984D01*
X183057479Y-116052364D01*
X182834741Y-115890535D01*
X182828061Y-115886295D01*
X182558445Y-115738073D01*
X182551310Y-115734716D01*
X182265243Y-115621453D01*
X182257718Y-115619008D01*
X181959728Y-115542498D01*
X181951957Y-115541015D01*
X181646724Y-115502456D01*
X181638834Y-115501959D01*
X181331166Y-115501959D01*
X181323276Y-115502456D01*
X181018043Y-115541015D01*
X181010272Y-115542498D01*
X180712282Y-115619008D01*
X180704757Y-115621453D01*
X180418690Y-115734716D01*
X180411555Y-115738073D01*
X180141939Y-115886295D01*
X180135259Y-115890535D01*
X179912148Y-116052634D01*
X179903725Y-116063557D01*
X174613500Y-116063557D01*
X174613500Y-115160000D01*
X174608273Y-115086921D01*
X174567096Y-114946684D01*
X174521393Y-114875569D01*
X174492949Y-114831309D01*
X174492947Y-114831306D01*
X174488077Y-114823729D01*
X174481267Y-114817828D01*
X174384431Y-114733918D01*
X174384428Y-114733916D01*
X174377619Y-114728016D01*
X174244670Y-114667300D01*
X174235755Y-114666018D01*
X174235754Y-114666018D01*
X174104448Y-114647139D01*
X174104441Y-114647138D01*
X174100000Y-114646500D01*
X172500000Y-114646500D01*
X172426921Y-114651727D01*
X172373884Y-114667300D01*
X172295330Y-114690365D01*
X172295328Y-114690366D01*
X172286684Y-114692904D01*
X172279105Y-114697775D01*
X172171309Y-114767051D01*
X172171306Y-114767053D01*
X172163729Y-114771923D01*
X172157828Y-114778733D01*
X172073918Y-114875569D01*
X172073916Y-114875572D01*
X172068016Y-114882381D01*
X172064273Y-114890577D01*
X172064271Y-114890580D01*
X172053797Y-114913515D01*
X172007303Y-114967170D01*
X171939182Y-114987171D01*
X171871062Y-114967168D01*
X171858192Y-114957691D01*
X171854302Y-114953801D01*
X171666750Y-114822476D01*
X171661768Y-114820153D01*
X171661763Y-114820150D01*
X171464225Y-114728037D01*
X171464224Y-114728036D01*
X171459243Y-114725714D01*
X171453935Y-114724292D01*
X171453933Y-114724291D01*
X171243402Y-114667879D01*
X171243400Y-114667879D01*
X171238087Y-114666455D01*
X171010000Y-114646500D01*
X170781913Y-114666455D01*
X170776600Y-114667879D01*
X170776598Y-114667879D01*
X170566067Y-114724291D01*
X170566065Y-114724292D01*
X170560757Y-114725714D01*
X170555776Y-114728036D01*
X170555775Y-114728037D01*
X170358237Y-114820150D01*
X170358232Y-114820153D01*
X170353250Y-114822476D01*
X170348743Y-114825632D01*
X170348741Y-114825633D01*
X170170209Y-114950642D01*
X170170206Y-114950644D01*
X170165698Y-114953801D01*
X170003801Y-115115698D01*
X170000644Y-115120206D01*
X170000642Y-115120209D01*
X169968213Y-115166523D01*
X169912756Y-115210851D01*
X169842137Y-115218160D01*
X169778776Y-115186129D01*
X169761787Y-115166523D01*
X169729358Y-115120209D01*
X169729356Y-115120206D01*
X169726199Y-115115698D01*
X169564302Y-114953801D01*
X169559794Y-114950644D01*
X169559791Y-114950642D01*
X169381259Y-114825633D01*
X169381257Y-114825632D01*
X169376750Y-114822476D01*
X169371768Y-114820153D01*
X169371763Y-114820150D01*
X169174225Y-114728037D01*
X169174224Y-114728036D01*
X169169243Y-114725714D01*
X169163935Y-114724292D01*
X169163933Y-114724291D01*
X168953402Y-114667879D01*
X168953400Y-114667879D01*
X168948087Y-114666455D01*
X168720000Y-114646500D01*
X168491913Y-114666455D01*
X168486600Y-114667879D01*
X168486598Y-114667879D01*
X168276067Y-114724291D01*
X168276065Y-114724292D01*
X168270757Y-114725714D01*
X168265776Y-114728036D01*
X168265775Y-114728037D01*
X168068237Y-114820150D01*
X168068232Y-114820153D01*
X168063250Y-114822476D01*
X168058743Y-114825632D01*
X168058741Y-114825633D01*
X167880209Y-114950642D01*
X167880206Y-114950644D01*
X167875698Y-114953801D01*
X167713801Y-115115698D01*
X167710644Y-115120206D01*
X167710642Y-115120209D01*
X167678213Y-115166523D01*
X167622756Y-115210851D01*
X167552137Y-115218160D01*
X167488776Y-115186129D01*
X167471787Y-115166523D01*
X167439358Y-115120209D01*
X167439356Y-115120206D01*
X167436199Y-115115698D01*
X167274302Y-114953801D01*
X167269794Y-114950644D01*
X167269791Y-114950642D01*
X167091259Y-114825633D01*
X167091257Y-114825632D01*
X167086750Y-114822476D01*
X167081768Y-114820153D01*
X167081763Y-114820150D01*
X166884225Y-114728037D01*
X166884224Y-114728036D01*
X166879243Y-114725714D01*
X166873935Y-114724292D01*
X166873933Y-114724291D01*
X166663402Y-114667879D01*
X166663400Y-114667879D01*
X166658087Y-114666455D01*
X166430000Y-114646500D01*
X166201913Y-114666455D01*
X166196600Y-114667879D01*
X166196598Y-114667879D01*
X165986067Y-114724291D01*
X165986065Y-114724292D01*
X165980757Y-114725714D01*
X165975776Y-114728036D01*
X165975775Y-114728037D01*
X165778237Y-114820150D01*
X165778232Y-114820153D01*
X165773250Y-114822476D01*
X165768743Y-114825632D01*
X165768741Y-114825633D01*
X165590209Y-114950642D01*
X165590206Y-114950644D01*
X165585698Y-114953801D01*
X165423801Y-115115698D01*
X165420644Y-115120206D01*
X165420642Y-115120209D01*
X165373648Y-115187323D01*
X165318190Y-115231651D01*
X165257464Y-115240383D01*
X165229149Y-115237453D01*
X165213569Y-115245642D01*
X164140000Y-116319210D01*
X163424919Y-117034292D01*
X163418491Y-117046064D01*
X163427787Y-117058080D01*
X163478992Y-117093934D01*
X163488487Y-117099417D01*
X163685943Y-117191491D01*
X163696239Y-117195239D01*
X163906690Y-117251630D01*
X163917477Y-117253532D01*
X163973040Y-117258393D01*
X164039158Y-117284256D01*
X164080798Y-117341760D01*
X164084739Y-117412647D01*
X164076254Y-117437163D01*
X164053510Y-117485938D01*
X164049761Y-117496239D01*
X163993370Y-117706690D01*
X163991468Y-117717477D01*
X163972479Y-117934525D01*
X163972479Y-117945475D01*
X163991468Y-118162523D01*
X163993370Y-118173310D01*
X164049761Y-118383761D01*
X164053510Y-118394062D01*
X164076030Y-118442357D01*
X164086691Y-118512549D01*
X164057710Y-118577362D01*
X163998290Y-118616217D01*
X163972819Y-118621126D01*
X163950729Y-118623059D01*
X163917394Y-118625975D01*
X163917389Y-118625976D01*
X163911913Y-118626455D01*
X163906600Y-118627879D01*
X163906598Y-118627879D01*
X163696067Y-118684291D01*
X163696065Y-118684292D01*
X163690757Y-118685714D01*
X163685776Y-118688036D01*
X163685775Y-118688037D01*
X163488237Y-118780150D01*
X163488232Y-118780153D01*
X163483250Y-118782476D01*
X163478743Y-118785632D01*
X163478741Y-118785633D01*
X163300209Y-118910642D01*
X163300206Y-118910644D01*
X163295698Y-118913801D01*
X163133801Y-119075698D01*
X163130644Y-119080206D01*
X163130642Y-119080209D01*
X163019913Y-119238347D01*
X163002476Y-119263250D01*
X163000153Y-119268232D01*
X163000150Y-119268237D01*
X162908039Y-119465770D01*
X162905714Y-119470757D01*
X162846455Y-119691913D01*
X162826500Y-119920000D01*
X162846455Y-120148087D01*
X162847879Y-120153400D01*
X162847879Y-120153402D01*
X162882318Y-120281927D01*
X162905714Y-120369243D01*
X162908036Y-120374224D01*
X162908037Y-120374225D01*
X163000150Y-120571763D01*
X163000153Y-120571768D01*
X163002476Y-120576750D01*
X163005632Y-120581257D01*
X163005633Y-120581259D01*
X163084485Y-120693871D01*
X163133801Y-120764302D01*
X163295698Y-120926199D01*
X163300206Y-120929356D01*
X163300215Y-120929362D01*
X163483250Y-121057524D01*
X163488232Y-121059847D01*
X163488237Y-121059850D01*
X163586465Y-121105654D01*
X163690757Y-121154286D01*
X163696065Y-121155708D01*
X163696067Y-121155709D01*
X163906598Y-121212121D01*
X163906600Y-121212121D01*
X163911913Y-121213545D01*
X163917389Y-121214024D01*
X163917394Y-121214025D01*
X163958486Y-121217620D01*
X163964092Y-121218110D01*
X164030211Y-121243973D01*
X164071850Y-121301477D01*
X164075791Y-121372364D01*
X164040782Y-121434129D01*
X164027172Y-121445567D01*
X163894093Y-121542254D01*
X163894091Y-121542256D01*
X163888749Y-121546137D01*
X163884328Y-121551047D01*
X163884327Y-121551048D01*
X163795709Y-121649469D01*
X163760963Y-121688058D01*
X163665476Y-121853446D01*
X163663434Y-121859731D01*
X163614510Y-122010305D01*
X163606462Y-122035073D01*
X163586500Y-122225000D01*
X163587190Y-122231565D01*
X163587190Y-122231566D01*
X163598286Y-122337139D01*
X163585514Y-122406977D01*
X163537012Y-122458824D01*
X163472882Y-122476309D01*
X157019105Y-122471493D01*
X154057310Y-122469283D01*
X153989204Y-122449230D01*
X153942751Y-122395540D01*
X153931404Y-122343283D01*
X153931404Y-119956016D01*
X154903692Y-119956016D01*
X154912521Y-119967636D01*
X155135259Y-120129465D01*
X155141939Y-120133705D01*
X155411555Y-120281927D01*
X155418690Y-120285284D01*
X155704757Y-120398547D01*
X155712282Y-120400992D01*
X156010272Y-120477502D01*
X156018043Y-120478985D01*
X156323276Y-120517544D01*
X156331166Y-120518041D01*
X156638834Y-120518041D01*
X156646724Y-120517544D01*
X156951957Y-120478985D01*
X156959728Y-120477502D01*
X157257718Y-120400992D01*
X157265243Y-120398547D01*
X157551310Y-120285284D01*
X157558445Y-120281927D01*
X157828061Y-120133705D01*
X157834741Y-120129465D01*
X158057852Y-119967366D01*
X158066275Y-119956443D01*
X158059371Y-119943582D01*
X156497810Y-118382020D01*
X156483869Y-118374408D01*
X156482034Y-118374539D01*
X156475420Y-118378790D01*
X154910305Y-119943906D01*
X154903692Y-119956016D01*
X153931404Y-119956016D01*
X153931404Y-119037495D01*
X153951406Y-118969374D01*
X154005062Y-118922881D01*
X154075336Y-118912777D01*
X154139916Y-118942271D01*
X154171412Y-118983847D01*
X154281154Y-119217061D01*
X154284965Y-119223994D01*
X154449814Y-119483754D01*
X154454468Y-119490159D01*
X154529467Y-119580817D01*
X154541985Y-119589272D01*
X154552724Y-119583065D01*
X156112980Y-118022810D01*
X156119356Y-118011131D01*
X156849408Y-118011131D01*
X156849539Y-118012966D01*
X156853790Y-118019580D01*
X158416174Y-119581963D01*
X158429436Y-119589205D01*
X158439540Y-119582017D01*
X158515532Y-119490159D01*
X158520186Y-119483754D01*
X158685035Y-119223994D01*
X158688846Y-119217061D01*
X158819839Y-118938687D01*
X158822754Y-118931324D01*
X158917822Y-118638734D01*
X158919793Y-118631057D01*
X158977440Y-118328862D01*
X158978433Y-118320999D01*
X158997751Y-118013958D01*
X158997751Y-118006042D01*
X158978433Y-117699001D01*
X158977440Y-117691138D01*
X158919793Y-117388943D01*
X158917822Y-117381266D01*
X158822754Y-117088676D01*
X158819839Y-117081313D01*
X158688846Y-116802939D01*
X158685035Y-116796006D01*
X158520186Y-116536246D01*
X158515532Y-116529841D01*
X158440533Y-116439183D01*
X158428015Y-116430728D01*
X158417276Y-116436935D01*
X156857020Y-117997190D01*
X156849408Y-118011131D01*
X156119356Y-118011131D01*
X156120592Y-118008869D01*
X156120461Y-118007034D01*
X156116210Y-118000420D01*
X154553826Y-116438037D01*
X154540564Y-116430795D01*
X154530460Y-116437983D01*
X154454468Y-116529841D01*
X154449814Y-116536246D01*
X154284965Y-116796006D01*
X154281154Y-116802939D01*
X154171412Y-117036153D01*
X154124310Y-117089274D01*
X154055965Y-117108497D01*
X153988077Y-117087718D01*
X153942200Y-117033535D01*
X153931404Y-116982505D01*
X153931404Y-116063557D01*
X154903725Y-116063557D01*
X154910629Y-116076418D01*
X156472190Y-117637980D01*
X156486131Y-117645592D01*
X156487966Y-117645461D01*
X156494580Y-117641210D01*
X158059695Y-116076094D01*
X158066308Y-116063984D01*
X158057479Y-116052364D01*
X157922816Y-115954525D01*
X162827479Y-115954525D01*
X162827479Y-115965475D01*
X162846468Y-116182523D01*
X162848370Y-116193310D01*
X162904761Y-116403761D01*
X162908509Y-116414057D01*
X163000583Y-116611513D01*
X163006066Y-116621008D01*
X163042506Y-116673050D01*
X163052985Y-116681426D01*
X163066430Y-116674359D01*
X163767979Y-115972811D01*
X163775592Y-115958868D01*
X163775461Y-115957034D01*
X163771210Y-115950420D01*
X163065706Y-115244917D01*
X163053936Y-115238490D01*
X163041922Y-115247784D01*
X163006066Y-115298992D01*
X163000583Y-115308487D01*
X162908509Y-115505943D01*
X162904761Y-115516239D01*
X162848370Y-115726690D01*
X162846468Y-115737477D01*
X162827479Y-115954525D01*
X157922816Y-115954525D01*
X157834741Y-115890535D01*
X157828061Y-115886295D01*
X157558445Y-115738073D01*
X157551310Y-115734716D01*
X157265243Y-115621453D01*
X157257718Y-115619008D01*
X156959728Y-115542498D01*
X156951957Y-115541015D01*
X156646724Y-115502456D01*
X156638834Y-115501959D01*
X156331166Y-115501959D01*
X156323276Y-115502456D01*
X156018043Y-115541015D01*
X156010272Y-115542498D01*
X155712282Y-115619008D01*
X155704757Y-115621453D01*
X155418690Y-115734716D01*
X155411555Y-115738073D01*
X155141939Y-115886295D01*
X155135259Y-115890535D01*
X154912148Y-116052634D01*
X154903725Y-116063557D01*
X153931404Y-116063557D01*
X153931404Y-114872985D01*
X163418574Y-114872985D01*
X163425641Y-114886430D01*
X164127189Y-115587979D01*
X164141132Y-115595592D01*
X164142966Y-115595461D01*
X164149580Y-115591210D01*
X164855083Y-114885706D01*
X164861510Y-114873936D01*
X164852216Y-114861922D01*
X164801008Y-114826066D01*
X164791513Y-114820583D01*
X164594057Y-114728509D01*
X164583761Y-114724761D01*
X164373310Y-114668370D01*
X164362523Y-114666468D01*
X164145475Y-114647479D01*
X164134525Y-114647479D01*
X163917477Y-114666468D01*
X163906690Y-114668370D01*
X163696239Y-114724761D01*
X163685943Y-114728509D01*
X163488487Y-114820583D01*
X163478992Y-114826066D01*
X163426950Y-114862506D01*
X163418574Y-114872985D01*
X153931404Y-114872985D01*
X153931404Y-108670089D01*
X158837017Y-108670089D01*
X158871318Y-108894249D01*
X158944773Y-109108793D01*
X159055059Y-109306937D01*
X159198690Y-109482421D01*
X159202953Y-109486062D01*
X159202958Y-109486067D01*
X159352028Y-109613384D01*
X159371127Y-109629696D01*
X159480998Y-109693899D01*
X159560473Y-109740340D01*
X159566919Y-109744107D01*
X159572196Y-109746038D01*
X159575983Y-109747820D01*
X159629104Y-109794923D01*
X159648327Y-109863268D01*
X159627548Y-109931156D01*
X159580125Y-109973795D01*
X159509943Y-110010019D01*
X159426553Y-110053060D01*
X159246645Y-110191108D01*
X159242872Y-110195254D01*
X159242867Y-110195259D01*
X159154244Y-110292655D01*
X159094026Y-110358834D01*
X158973521Y-110550935D01*
X158888939Y-110761340D01*
X158842953Y-110983398D01*
X158837017Y-111210089D01*
X158871318Y-111434249D01*
X158944773Y-111648793D01*
X159055059Y-111846937D01*
X159198690Y-112022421D01*
X159202953Y-112026062D01*
X159202958Y-112026067D01*
X159352028Y-112153384D01*
X159371127Y-112169696D01*
X159469023Y-112226902D01*
X159562072Y-112281275D01*
X159562075Y-112281276D01*
X159566919Y-112284107D01*
X159572189Y-112286036D01*
X159572190Y-112286036D01*
X159774612Y-112360112D01*
X159774616Y-112360113D01*
X159779876Y-112362038D01*
X159785393Y-112363001D01*
X159785397Y-112363002D01*
X159968812Y-112395013D01*
X160003269Y-112401027D01*
X160008875Y-112400998D01*
X160008879Y-112400998D01*
X160112475Y-112400455D01*
X160230035Y-112399839D01*
X160235553Y-112398816D01*
X160235556Y-112398816D01*
X160447488Y-112359537D01*
X160447489Y-112359537D01*
X160453007Y-112358514D01*
X160458252Y-112356532D01*
X160458256Y-112356531D01*
X160577839Y-112311344D01*
X160665137Y-112278357D01*
X160859720Y-112161901D01*
X160863940Y-112158219D01*
X160863945Y-112158216D01*
X161026375Y-112016519D01*
X161030605Y-112012829D01*
X161041882Y-111998753D01*
X161168885Y-111840228D01*
X161168888Y-111840223D01*
X161172391Y-111835851D01*
X161280596Y-111636562D01*
X161351800Y-111421262D01*
X161383752Y-111196755D01*
X161385500Y-111130000D01*
X161365341Y-110904128D01*
X161326279Y-110761340D01*
X161306985Y-110690812D01*
X161306984Y-110690808D01*
X161305503Y-110685396D01*
X161207876Y-110480718D01*
X161075547Y-110296562D01*
X160912698Y-110138750D01*
X160785178Y-110053060D01*
X160729130Y-110015397D01*
X160729124Y-110015394D01*
X160724477Y-110012271D01*
X160644404Y-109977121D01*
X160590070Y-109931427D01*
X160569065Y-109863608D01*
X160588059Y-109795200D01*
X160641023Y-109747920D01*
X160650513Y-109743883D01*
X160659890Y-109740340D01*
X160659893Y-109740338D01*
X160665137Y-109738357D01*
X160859720Y-109621901D01*
X160863940Y-109618219D01*
X160863945Y-109618216D01*
X161026375Y-109476519D01*
X161030605Y-109472829D01*
X161041882Y-109458753D01*
X161168885Y-109300228D01*
X161168888Y-109300223D01*
X161172391Y-109295851D01*
X161280596Y-109096562D01*
X161351800Y-108881262D01*
X161383752Y-108656755D01*
X161385500Y-108590000D01*
X161365341Y-108364128D01*
X161326279Y-108221340D01*
X161306985Y-108150812D01*
X161306984Y-108150808D01*
X161305503Y-108145396D01*
X161207876Y-107940718D01*
X161075547Y-107756562D01*
X160912698Y-107598750D01*
X160785178Y-107513060D01*
X160729130Y-107475397D01*
X160729124Y-107475394D01*
X160724477Y-107472271D01*
X160719345Y-107470018D01*
X160719341Y-107470016D01*
X160643753Y-107436835D01*
X160589417Y-107391139D01*
X160568413Y-107323320D01*
X160587408Y-107254912D01*
X160640372Y-107207633D01*
X160649863Y-107203595D01*
X160659677Y-107199887D01*
X160669734Y-107195025D01*
X160795623Y-107119683D01*
X160805193Y-107109324D01*
X160801650Y-107100861D01*
X160122811Y-106422021D01*
X160108868Y-106414408D01*
X160107034Y-106414539D01*
X160100420Y-106418790D01*
X159421152Y-107098059D01*
X159414395Y-107110434D01*
X159419676Y-107117489D01*
X159562284Y-107200822D01*
X159576544Y-107207532D01*
X159629665Y-107254635D01*
X159648887Y-107322980D01*
X159628108Y-107390868D01*
X159580685Y-107433506D01*
X159509949Y-107470016D01*
X159426553Y-107513060D01*
X159246645Y-107651108D01*
X159242872Y-107655254D01*
X159242867Y-107655259D01*
X159154244Y-107752655D01*
X159094026Y-107818834D01*
X158973521Y-108010935D01*
X158888939Y-108221340D01*
X158878527Y-108271618D01*
X158844092Y-108437900D01*
X158842953Y-108443398D01*
X158837017Y-108670089D01*
X153931404Y-108670089D01*
X153931404Y-106124452D01*
X158837663Y-106124452D01*
X158838365Y-106135604D01*
X158870955Y-106348579D01*
X158873622Y-106359440D01*
X158943413Y-106563281D01*
X158947961Y-106573495D01*
X159039031Y-106737117D01*
X159049084Y-106747008D01*
X159056687Y-106744102D01*
X159737979Y-106062811D01*
X159744355Y-106051132D01*
X160474408Y-106051132D01*
X160474539Y-106052966D01*
X160478790Y-106059580D01*
X161160156Y-106740945D01*
X161172531Y-106747702D01*
X161178796Y-106743013D01*
X161277462Y-106561290D01*
X161281896Y-106551044D01*
X161349553Y-106346469D01*
X161352103Y-106335596D01*
X161382742Y-106120319D01*
X161383348Y-106113103D01*
X161384905Y-106053632D01*
X161384677Y-106046379D01*
X161365348Y-105829812D01*
X161363366Y-105818798D01*
X161306517Y-105610987D01*
X161302619Y-105600506D01*
X161209859Y-105406031D01*
X161204173Y-105396416D01*
X161180719Y-105363776D01*
X161169928Y-105355365D01*
X161156894Y-105362317D01*
X160482021Y-106037189D01*
X160474408Y-106051132D01*
X159744355Y-106051132D01*
X159745592Y-106048868D01*
X159745461Y-106047034D01*
X159741210Y-106040420D01*
X159063095Y-105362306D01*
X159050720Y-105355549D01*
X159042747Y-105361517D01*
X158976952Y-105466403D01*
X158971872Y-105476373D01*
X158891511Y-105676278D01*
X158888280Y-105686978D01*
X158844588Y-105897958D01*
X158843303Y-105909065D01*
X158837663Y-106124452D01*
X153931404Y-106124452D01*
X153931404Y-95970089D01*
X158837017Y-95970089D01*
X158871318Y-96194249D01*
X158944773Y-96408793D01*
X159055059Y-96606937D01*
X159058612Y-96611277D01*
X159058614Y-96611281D01*
X159120835Y-96687300D01*
X159198690Y-96782421D01*
X159202953Y-96786062D01*
X159202958Y-96786067D01*
X159352028Y-96913384D01*
X159371127Y-96929696D01*
X159428220Y-96963058D01*
X159560473Y-97040340D01*
X159566919Y-97044107D01*
X159572196Y-97046038D01*
X159575983Y-97047820D01*
X159629104Y-97094923D01*
X159648327Y-97163268D01*
X159627548Y-97231156D01*
X159580125Y-97273795D01*
X159509943Y-97310019D01*
X159426553Y-97353060D01*
X159246645Y-97491108D01*
X159242872Y-97495254D01*
X159242867Y-97495259D01*
X159110148Y-97641116D01*
X159094026Y-97658834D01*
X159091044Y-97663588D01*
X159091041Y-97663592D01*
X159070583Y-97696206D01*
X158973521Y-97850935D01*
X158888939Y-98061340D01*
X158842953Y-98283398D01*
X158837017Y-98510089D01*
X158871318Y-98734249D01*
X158944773Y-98948793D01*
X159055059Y-99146937D01*
X159058612Y-99151277D01*
X159058614Y-99151281D01*
X159077004Y-99173749D01*
X159198690Y-99322421D01*
X159202953Y-99326062D01*
X159202958Y-99326067D01*
X159352028Y-99453384D01*
X159371127Y-99469696D01*
X159480998Y-99533899D01*
X159560473Y-99580340D01*
X159566919Y-99584107D01*
X159572196Y-99586038D01*
X159575983Y-99587820D01*
X159629104Y-99634923D01*
X159648327Y-99703268D01*
X159627548Y-99771156D01*
X159580125Y-99813795D01*
X159509943Y-99850019D01*
X159426553Y-99893060D01*
X159246645Y-100031108D01*
X159242872Y-100035254D01*
X159242867Y-100035259D01*
X159110148Y-100181116D01*
X159094026Y-100198834D01*
X158973521Y-100390935D01*
X158888939Y-100601340D01*
X158842953Y-100823398D01*
X158837017Y-101050089D01*
X158871318Y-101274249D01*
X158944773Y-101488793D01*
X159055059Y-101686937D01*
X159198690Y-101862421D01*
X159202953Y-101866062D01*
X159202958Y-101866067D01*
X159352028Y-101993384D01*
X159371127Y-102009696D01*
X159480998Y-102073899D01*
X159560473Y-102120340D01*
X159566919Y-102124107D01*
X159572196Y-102126038D01*
X159575983Y-102127820D01*
X159629104Y-102174923D01*
X159648327Y-102243268D01*
X159627548Y-102311156D01*
X159580125Y-102353795D01*
X159509943Y-102390019D01*
X159426553Y-102433060D01*
X159246645Y-102571108D01*
X159242872Y-102575254D01*
X159242867Y-102575259D01*
X159175401Y-102649404D01*
X159094026Y-102738834D01*
X159091043Y-102743590D01*
X159091041Y-102743592D01*
X159002039Y-102885474D01*
X158973521Y-102930935D01*
X158888939Y-103141340D01*
X158878527Y-103191619D01*
X158844092Y-103357899D01*
X158842953Y-103363398D01*
X158837017Y-103590089D01*
X158871318Y-103814249D01*
X158944773Y-104028793D01*
X159055059Y-104226937D01*
X159198690Y-104402421D01*
X159202953Y-104406062D01*
X159202958Y-104406067D01*
X159352028Y-104533384D01*
X159371127Y-104549696D01*
X159499359Y-104624628D01*
X159560466Y-104660336D01*
X159566919Y-104664107D01*
X159572185Y-104666034D01*
X159576554Y-104668090D01*
X159629674Y-104715194D01*
X159648895Y-104783539D01*
X159628114Y-104851427D01*
X159580693Y-104894063D01*
X159431803Y-104970910D01*
X159422372Y-104976895D01*
X159421883Y-104977271D01*
X159413418Y-104988863D01*
X159420050Y-105000839D01*
X160097189Y-105677979D01*
X160111132Y-105685592D01*
X160112966Y-105685461D01*
X160119580Y-105681210D01*
X160797460Y-105003329D01*
X160803682Y-104991935D01*
X160793870Y-104979502D01*
X160728892Y-104935838D01*
X160719098Y-104930454D01*
X160643739Y-104897373D01*
X160589404Y-104851677D01*
X160568399Y-104783859D01*
X160587394Y-104715450D01*
X160640358Y-104668171D01*
X160649828Y-104664142D01*
X160665137Y-104658357D01*
X160859720Y-104541901D01*
X160863940Y-104538219D01*
X160863945Y-104538216D01*
X161026375Y-104396519D01*
X161030605Y-104392829D01*
X161041882Y-104378753D01*
X161168885Y-104220228D01*
X161168888Y-104220223D01*
X161172391Y-104215851D01*
X161280596Y-104016562D01*
X161351800Y-103801262D01*
X161383752Y-103576755D01*
X161385500Y-103510000D01*
X161365341Y-103284128D01*
X161326279Y-103141340D01*
X161306985Y-103070812D01*
X161306984Y-103070808D01*
X161305503Y-103065396D01*
X161207876Y-102860718D01*
X161075547Y-102676562D01*
X160912698Y-102518750D01*
X160785178Y-102433060D01*
X160729130Y-102395397D01*
X160729124Y-102395394D01*
X160724477Y-102392271D01*
X160644404Y-102357121D01*
X160590070Y-102311427D01*
X160569065Y-102243608D01*
X160588059Y-102175200D01*
X160641023Y-102127920D01*
X160650513Y-102123883D01*
X160659890Y-102120340D01*
X160659893Y-102120338D01*
X160665137Y-102118357D01*
X160859720Y-102001901D01*
X160863940Y-101998219D01*
X160863945Y-101998216D01*
X161026375Y-101856519D01*
X161030605Y-101852829D01*
X161041882Y-101838753D01*
X161168885Y-101680228D01*
X161168888Y-101680223D01*
X161172391Y-101675851D01*
X161280596Y-101476562D01*
X161351800Y-101261262D01*
X161383752Y-101036755D01*
X161385500Y-100970000D01*
X161365341Y-100744128D01*
X161326279Y-100601340D01*
X161306985Y-100530812D01*
X161306984Y-100530808D01*
X161305503Y-100525396D01*
X161207876Y-100320718D01*
X161075547Y-100136562D01*
X160912698Y-99978750D01*
X160785178Y-99893060D01*
X160729130Y-99855397D01*
X160729124Y-99855394D01*
X160724477Y-99852271D01*
X160644404Y-99817121D01*
X160590070Y-99771427D01*
X160569065Y-99703608D01*
X160588059Y-99635200D01*
X160641023Y-99587920D01*
X160650513Y-99583883D01*
X160659890Y-99580340D01*
X160659893Y-99580338D01*
X160665137Y-99578357D01*
X160859720Y-99461901D01*
X160863940Y-99458219D01*
X160863945Y-99458216D01*
X161026375Y-99316519D01*
X161030605Y-99312829D01*
X161041882Y-99298753D01*
X161168885Y-99140228D01*
X161168888Y-99140223D01*
X161172391Y-99135851D01*
X161280596Y-98936562D01*
X161351800Y-98721262D01*
X161383752Y-98496755D01*
X161385500Y-98430000D01*
X161365341Y-98204128D01*
X161326279Y-98061340D01*
X161306985Y-97990812D01*
X161306984Y-97990808D01*
X161305503Y-97985396D01*
X161207876Y-97780718D01*
X161075547Y-97596562D01*
X160971011Y-97495259D01*
X160916726Y-97442653D01*
X160916723Y-97442651D01*
X160912698Y-97438750D01*
X160785178Y-97353060D01*
X160729130Y-97315397D01*
X160729124Y-97315394D01*
X160724477Y-97312271D01*
X160644404Y-97277121D01*
X160590070Y-97231427D01*
X160569065Y-97163608D01*
X160588059Y-97095200D01*
X160641023Y-97047920D01*
X160650513Y-97043883D01*
X160659890Y-97040340D01*
X160659893Y-97040338D01*
X160665137Y-97038357D01*
X160859720Y-96921901D01*
X160863940Y-96918219D01*
X160863945Y-96918216D01*
X161026375Y-96776519D01*
X161030605Y-96772829D01*
X161041882Y-96758753D01*
X161168885Y-96600228D01*
X161168888Y-96600223D01*
X161172391Y-96595851D01*
X161280596Y-96396562D01*
X161351800Y-96181262D01*
X161383752Y-95956755D01*
X161385500Y-95890000D01*
X161383730Y-95870162D01*
X161376328Y-95787233D01*
X161365341Y-95664128D01*
X161326279Y-95521340D01*
X161306985Y-95450812D01*
X161306984Y-95450808D01*
X161305503Y-95445396D01*
X161207876Y-95240718D01*
X161075547Y-95056562D01*
X160912698Y-94898750D01*
X160785178Y-94813060D01*
X160729130Y-94775397D01*
X160729124Y-94775394D01*
X160724477Y-94772271D01*
X160719345Y-94770018D01*
X160719341Y-94770016D01*
X160643753Y-94736835D01*
X160589417Y-94691139D01*
X160568413Y-94623320D01*
X160587408Y-94554912D01*
X160640372Y-94507633D01*
X160649863Y-94503595D01*
X160659677Y-94499887D01*
X160669734Y-94495025D01*
X160795623Y-94419683D01*
X160805193Y-94409324D01*
X160801650Y-94400861D01*
X160122811Y-93722021D01*
X160108868Y-93714408D01*
X160107034Y-93714539D01*
X160100420Y-93718790D01*
X159421152Y-94398059D01*
X159414395Y-94410434D01*
X159419676Y-94417489D01*
X159562284Y-94500822D01*
X159576544Y-94507532D01*
X159629665Y-94554635D01*
X159648887Y-94622980D01*
X159628108Y-94690868D01*
X159580685Y-94733506D01*
X159509949Y-94770016D01*
X159426553Y-94813060D01*
X159246645Y-94951108D01*
X159242872Y-94955254D01*
X159242867Y-94955259D01*
X159110148Y-95101116D01*
X159094026Y-95118834D01*
X159091044Y-95123588D01*
X159091041Y-95123592D01*
X159045491Y-95196206D01*
X158973521Y-95310935D01*
X158888939Y-95521340D01*
X158887800Y-95526841D01*
X158856318Y-95678863D01*
X158842953Y-95743398D01*
X158842806Y-95749007D01*
X158842806Y-95749008D01*
X158841633Y-95793799D01*
X158837017Y-95970089D01*
X153931404Y-95970089D01*
X153931404Y-93424452D01*
X158837663Y-93424452D01*
X158838365Y-93435604D01*
X158870955Y-93648579D01*
X158873622Y-93659440D01*
X158943413Y-93863281D01*
X158947961Y-93873495D01*
X159039031Y-94037117D01*
X159049084Y-94047008D01*
X159056687Y-94044102D01*
X159737979Y-93362811D01*
X159744355Y-93351132D01*
X160474408Y-93351132D01*
X160474539Y-93352966D01*
X160478790Y-93359580D01*
X161160156Y-94040945D01*
X161172531Y-94047702D01*
X161178796Y-94043013D01*
X161277462Y-93861290D01*
X161281896Y-93851044D01*
X161349553Y-93646469D01*
X161352103Y-93635596D01*
X161382742Y-93420319D01*
X161383348Y-93413103D01*
X161384905Y-93353632D01*
X161384677Y-93346379D01*
X161365348Y-93129812D01*
X161363366Y-93118798D01*
X161306517Y-92910987D01*
X161302619Y-92900506D01*
X161209859Y-92706031D01*
X161204173Y-92696416D01*
X161180719Y-92663776D01*
X161169928Y-92655365D01*
X161156894Y-92662317D01*
X160482021Y-93337189D01*
X160474408Y-93351132D01*
X159744355Y-93351132D01*
X159745592Y-93348868D01*
X159745461Y-93347034D01*
X159741210Y-93340420D01*
X159063095Y-92662306D01*
X159050720Y-92655549D01*
X159042747Y-92661517D01*
X158976952Y-92766403D01*
X158971872Y-92776373D01*
X158891511Y-92976278D01*
X158888280Y-92986978D01*
X158844588Y-93197958D01*
X158843303Y-93209065D01*
X158837663Y-93424452D01*
X153931404Y-93424452D01*
X153931404Y-83270089D01*
X158837017Y-83270089D01*
X158871318Y-83494249D01*
X158944773Y-83708793D01*
X159055059Y-83906937D01*
X159198690Y-84082421D01*
X159202953Y-84086062D01*
X159202958Y-84086067D01*
X159303500Y-84171937D01*
X159371127Y-84229696D01*
X159465808Y-84285023D01*
X159560473Y-84340340D01*
X159566919Y-84344107D01*
X159572196Y-84346038D01*
X159575983Y-84347820D01*
X159629104Y-84394923D01*
X159648327Y-84463268D01*
X159627548Y-84531156D01*
X159580125Y-84573795D01*
X159512256Y-84608825D01*
X159426553Y-84653060D01*
X159246645Y-84791108D01*
X159242872Y-84795254D01*
X159242867Y-84795259D01*
X159154244Y-84892655D01*
X159094026Y-84958834D01*
X158973521Y-85150935D01*
X158888939Y-85361340D01*
X158842953Y-85583398D01*
X158837017Y-85810089D01*
X158871318Y-86034249D01*
X158944773Y-86248793D01*
X159055059Y-86446937D01*
X159058612Y-86451277D01*
X159058614Y-86451281D01*
X159184327Y-86604873D01*
X159198690Y-86622421D01*
X159202953Y-86626062D01*
X159202958Y-86626067D01*
X159303500Y-86711937D01*
X159371127Y-86769696D01*
X159451457Y-86816637D01*
X159560473Y-86880340D01*
X159566919Y-86884107D01*
X159572196Y-86886038D01*
X159575983Y-86887820D01*
X159629104Y-86934923D01*
X159648327Y-87003268D01*
X159627548Y-87071156D01*
X159580125Y-87113795D01*
X159432623Y-87189927D01*
X159426553Y-87193060D01*
X159246645Y-87331108D01*
X159242872Y-87335254D01*
X159242867Y-87335259D01*
X159204634Y-87377277D01*
X159094026Y-87498834D01*
X159091043Y-87503590D01*
X159091041Y-87503592D01*
X158981094Y-87678863D01*
X158973521Y-87690935D01*
X158888939Y-87901340D01*
X158842953Y-88123398D01*
X158837017Y-88350089D01*
X158871318Y-88574249D01*
X158944773Y-88788793D01*
X159055059Y-88986937D01*
X159198690Y-89162421D01*
X159202953Y-89166062D01*
X159202958Y-89166067D01*
X159303500Y-89251937D01*
X159371127Y-89309696D01*
X159465808Y-89365023D01*
X159560473Y-89420340D01*
X159566919Y-89424107D01*
X159572196Y-89426038D01*
X159575983Y-89427820D01*
X159629104Y-89474923D01*
X159648327Y-89543268D01*
X159627548Y-89611156D01*
X159580125Y-89653795D01*
X159512256Y-89688825D01*
X159426553Y-89733060D01*
X159246645Y-89871108D01*
X159242872Y-89875254D01*
X159242867Y-89875259D01*
X159154244Y-89972655D01*
X159094026Y-90038834D01*
X158973521Y-90230935D01*
X158888939Y-90441340D01*
X158842953Y-90663398D01*
X158837017Y-90890089D01*
X158871318Y-91114249D01*
X158944773Y-91328793D01*
X159055059Y-91526937D01*
X159058612Y-91531277D01*
X159058614Y-91531281D01*
X159077004Y-91553749D01*
X159198690Y-91702421D01*
X159202953Y-91706062D01*
X159202958Y-91706067D01*
X159352028Y-91833384D01*
X159371127Y-91849696D01*
X159499359Y-91924628D01*
X159560466Y-91960336D01*
X159566919Y-91964107D01*
X159572185Y-91966034D01*
X159576554Y-91968090D01*
X159629674Y-92015194D01*
X159648895Y-92083539D01*
X159628114Y-92151427D01*
X159580693Y-92194063D01*
X159431803Y-92270910D01*
X159422372Y-92276895D01*
X159421883Y-92277271D01*
X159413418Y-92288863D01*
X159420050Y-92300839D01*
X160097189Y-92977979D01*
X160111132Y-92985592D01*
X160112966Y-92985461D01*
X160119580Y-92981210D01*
X160797460Y-92303329D01*
X160803682Y-92291935D01*
X160793870Y-92279502D01*
X160728892Y-92235838D01*
X160719098Y-92230454D01*
X160643739Y-92197373D01*
X160589404Y-92151677D01*
X160568399Y-92083859D01*
X160587394Y-92015450D01*
X160640358Y-91968171D01*
X160649828Y-91964142D01*
X160665137Y-91958357D01*
X160859720Y-91841901D01*
X160863940Y-91838219D01*
X160863945Y-91838216D01*
X161026375Y-91696519D01*
X161030605Y-91692829D01*
X161041882Y-91678753D01*
X161168885Y-91520228D01*
X161168888Y-91520223D01*
X161172391Y-91515851D01*
X161280596Y-91316562D01*
X161351800Y-91101262D01*
X161383752Y-90876755D01*
X161385500Y-90810000D01*
X161365341Y-90584128D01*
X161326279Y-90441340D01*
X161306985Y-90370812D01*
X161306984Y-90370808D01*
X161305503Y-90365396D01*
X161207876Y-90160718D01*
X161075547Y-89976562D01*
X160912698Y-89818750D01*
X160785178Y-89733060D01*
X160729130Y-89695397D01*
X160729124Y-89695394D01*
X160724477Y-89692271D01*
X160644404Y-89657121D01*
X160590070Y-89611427D01*
X160569065Y-89543608D01*
X160588059Y-89475200D01*
X160641023Y-89427920D01*
X160650513Y-89423883D01*
X160659890Y-89420340D01*
X160659893Y-89420338D01*
X160665137Y-89418357D01*
X160859720Y-89301901D01*
X160863940Y-89298219D01*
X160863945Y-89298216D01*
X161026375Y-89156519D01*
X161030605Y-89152829D01*
X161041882Y-89138753D01*
X161168885Y-88980228D01*
X161168888Y-88980223D01*
X161172391Y-88975851D01*
X161280596Y-88776562D01*
X161351800Y-88561262D01*
X161383752Y-88336755D01*
X161385500Y-88270000D01*
X161365341Y-88044128D01*
X161326279Y-87901340D01*
X161306985Y-87830812D01*
X161306984Y-87830808D01*
X161305503Y-87825396D01*
X161207876Y-87620718D01*
X161075547Y-87436562D01*
X161007795Y-87370906D01*
X160916726Y-87282653D01*
X160916723Y-87282651D01*
X160912698Y-87278750D01*
X160790257Y-87196473D01*
X160729130Y-87155397D01*
X160729124Y-87155394D01*
X160724477Y-87152271D01*
X160644404Y-87117121D01*
X160590070Y-87071427D01*
X160569065Y-87003608D01*
X160588059Y-86935200D01*
X160641023Y-86887920D01*
X160650513Y-86883883D01*
X160659890Y-86880340D01*
X160659893Y-86880338D01*
X160665137Y-86878357D01*
X160859720Y-86761901D01*
X160863940Y-86758219D01*
X160863945Y-86758216D01*
X161026375Y-86616519D01*
X161030605Y-86612829D01*
X161041882Y-86598753D01*
X161168885Y-86440228D01*
X161168888Y-86440223D01*
X161172391Y-86435851D01*
X161280596Y-86236562D01*
X161351800Y-86021262D01*
X161383752Y-85796755D01*
X161385500Y-85730000D01*
X161365341Y-85504128D01*
X161326279Y-85361340D01*
X161306985Y-85290812D01*
X161306984Y-85290808D01*
X161305503Y-85285396D01*
X161207876Y-85080718D01*
X161075547Y-84896562D01*
X160912698Y-84738750D01*
X160785178Y-84653060D01*
X160729130Y-84615397D01*
X160729124Y-84615394D01*
X160724477Y-84612271D01*
X160644404Y-84577121D01*
X160590070Y-84531427D01*
X160569065Y-84463608D01*
X160588059Y-84395200D01*
X160641023Y-84347920D01*
X160650513Y-84343883D01*
X160659890Y-84340340D01*
X160659893Y-84340338D01*
X160665137Y-84338357D01*
X160859720Y-84221901D01*
X160863940Y-84218219D01*
X160863945Y-84218216D01*
X161026375Y-84076519D01*
X161030605Y-84072829D01*
X161041882Y-84058753D01*
X161168885Y-83900228D01*
X161168888Y-83900223D01*
X161172391Y-83895851D01*
X161280596Y-83696562D01*
X161351800Y-83481262D01*
X161383752Y-83256755D01*
X161385500Y-83190000D01*
X161365341Y-82964128D01*
X161326279Y-82821340D01*
X161306985Y-82750812D01*
X161306984Y-82750808D01*
X161305503Y-82745396D01*
X161207876Y-82540718D01*
X161075547Y-82356562D01*
X160971011Y-82255259D01*
X160916726Y-82202653D01*
X160916723Y-82202651D01*
X160912698Y-82198750D01*
X160785178Y-82113060D01*
X160729130Y-82075397D01*
X160729124Y-82075394D01*
X160724477Y-82072271D01*
X160719345Y-82070018D01*
X160719341Y-82070016D01*
X160643753Y-82036835D01*
X160589417Y-81991139D01*
X160568413Y-81923320D01*
X160587408Y-81854912D01*
X160640372Y-81807633D01*
X160649863Y-81803595D01*
X160659677Y-81799887D01*
X160669734Y-81795025D01*
X160795623Y-81719683D01*
X160805193Y-81709324D01*
X160801650Y-81700861D01*
X160122811Y-81022021D01*
X160108868Y-81014408D01*
X160107034Y-81014539D01*
X160100420Y-81018790D01*
X159421152Y-81698059D01*
X159414395Y-81710434D01*
X159419676Y-81717489D01*
X159562284Y-81800822D01*
X159576544Y-81807532D01*
X159629665Y-81854635D01*
X159648887Y-81922980D01*
X159628108Y-81990868D01*
X159580685Y-82033506D01*
X159509949Y-82070016D01*
X159426553Y-82113060D01*
X159246645Y-82251108D01*
X159242872Y-82255254D01*
X159242867Y-82255259D01*
X159182299Y-82321823D01*
X159094026Y-82418834D01*
X158973521Y-82610935D01*
X158888939Y-82821340D01*
X158887800Y-82826841D01*
X158848375Y-83017218D01*
X158842953Y-83043398D01*
X158842806Y-83049007D01*
X158842806Y-83049008D01*
X158842644Y-83055184D01*
X158837017Y-83270089D01*
X153931404Y-83270089D01*
X153931404Y-80724452D01*
X158837663Y-80724452D01*
X158838365Y-80735604D01*
X158870955Y-80948579D01*
X158873622Y-80959440D01*
X158943413Y-81163281D01*
X158947961Y-81173495D01*
X159039031Y-81337117D01*
X159049084Y-81347008D01*
X159056687Y-81344102D01*
X159737979Y-80662811D01*
X159744355Y-80651132D01*
X160474408Y-80651132D01*
X160474539Y-80652966D01*
X160478790Y-80659580D01*
X161160156Y-81340945D01*
X161172531Y-81347702D01*
X161178796Y-81343013D01*
X161277462Y-81161290D01*
X161281896Y-81151044D01*
X161349553Y-80946469D01*
X161352103Y-80935596D01*
X161382742Y-80720319D01*
X161383348Y-80713103D01*
X161384905Y-80653632D01*
X161384677Y-80646379D01*
X161365348Y-80429812D01*
X161363366Y-80418798D01*
X161306517Y-80210987D01*
X161302619Y-80200506D01*
X161209859Y-80006031D01*
X161204173Y-79996416D01*
X161180719Y-79963776D01*
X161169928Y-79955365D01*
X161156894Y-79962317D01*
X160482021Y-80637189D01*
X160474408Y-80651132D01*
X159744355Y-80651132D01*
X159745592Y-80648868D01*
X159745461Y-80647034D01*
X159741210Y-80640420D01*
X159063095Y-79962306D01*
X159050720Y-79955549D01*
X159042747Y-79961517D01*
X158976952Y-80066403D01*
X158971872Y-80076373D01*
X158891511Y-80276278D01*
X158888280Y-80286978D01*
X158844588Y-80497958D01*
X158843303Y-80509065D01*
X158837663Y-80724452D01*
X153931404Y-80724452D01*
X153931404Y-70570089D01*
X158837017Y-70570089D01*
X158871318Y-70794249D01*
X158944773Y-71008793D01*
X159055059Y-71206937D01*
X159198690Y-71382421D01*
X159202953Y-71386062D01*
X159202958Y-71386067D01*
X159352028Y-71513384D01*
X159371127Y-71529696D01*
X159480998Y-71593899D01*
X159560473Y-71640340D01*
X159566919Y-71644107D01*
X159572196Y-71646038D01*
X159575983Y-71647820D01*
X159629104Y-71694923D01*
X159648327Y-71763268D01*
X159627548Y-71831156D01*
X159580125Y-71873795D01*
X159509943Y-71910019D01*
X159426553Y-71953060D01*
X159246645Y-72091108D01*
X159242872Y-72095254D01*
X159242867Y-72095259D01*
X159154244Y-72192655D01*
X159094026Y-72258834D01*
X159091043Y-72263590D01*
X159091041Y-72263592D01*
X158982311Y-72436923D01*
X158973521Y-72450935D01*
X158888939Y-72661340D01*
X158887800Y-72666841D01*
X158855047Y-72825000D01*
X158842953Y-72883398D01*
X158837017Y-73110089D01*
X158871318Y-73334249D01*
X158944773Y-73548793D01*
X159055059Y-73746937D01*
X159198690Y-73922421D01*
X159202953Y-73926062D01*
X159202958Y-73926067D01*
X159352028Y-74053384D01*
X159371127Y-74069696D01*
X159480998Y-74133899D01*
X159560473Y-74180340D01*
X159566919Y-74184107D01*
X159572196Y-74186038D01*
X159575983Y-74187820D01*
X159629104Y-74234923D01*
X159648327Y-74303268D01*
X159627548Y-74371156D01*
X159580125Y-74413795D01*
X159489195Y-74460728D01*
X159426553Y-74493060D01*
X159246645Y-74631108D01*
X159242872Y-74635254D01*
X159242867Y-74635259D01*
X159154244Y-74732655D01*
X159094026Y-74798834D01*
X158973521Y-74990935D01*
X158888939Y-75201340D01*
X158842953Y-75423398D01*
X158837017Y-75650089D01*
X158871318Y-75874249D01*
X158944773Y-76088793D01*
X159055059Y-76286937D01*
X159198690Y-76462421D01*
X159202953Y-76466062D01*
X159202958Y-76466067D01*
X159352028Y-76593384D01*
X159371127Y-76609696D01*
X159453626Y-76657904D01*
X159560473Y-76720340D01*
X159566919Y-76724107D01*
X159572196Y-76726038D01*
X159575983Y-76727820D01*
X159629104Y-76774923D01*
X159648327Y-76843268D01*
X159627548Y-76911156D01*
X159580125Y-76953795D01*
X159509943Y-76990019D01*
X159426553Y-77033060D01*
X159246645Y-77171108D01*
X159242872Y-77175254D01*
X159242867Y-77175259D01*
X159154244Y-77272655D01*
X159094026Y-77338834D01*
X159091043Y-77343590D01*
X159091041Y-77343592D01*
X159022482Y-77452885D01*
X158973521Y-77530935D01*
X158888939Y-77741340D01*
X158842953Y-77963398D01*
X158837017Y-78190089D01*
X158871318Y-78414249D01*
X158944773Y-78628793D01*
X159055059Y-78826937D01*
X159058612Y-78831277D01*
X159058614Y-78831281D01*
X159064391Y-78838339D01*
X159198690Y-79002421D01*
X159202953Y-79006062D01*
X159202958Y-79006067D01*
X159349472Y-79131201D01*
X159371127Y-79149696D01*
X159499359Y-79224628D01*
X159560466Y-79260336D01*
X159566919Y-79264107D01*
X159572185Y-79266034D01*
X159576554Y-79268090D01*
X159629674Y-79315194D01*
X159648895Y-79383539D01*
X159628114Y-79451427D01*
X159580693Y-79494063D01*
X159431803Y-79570910D01*
X159422372Y-79576895D01*
X159421883Y-79577271D01*
X159413418Y-79588863D01*
X159420050Y-79600839D01*
X160097189Y-80277979D01*
X160111132Y-80285592D01*
X160112966Y-80285461D01*
X160119580Y-80281210D01*
X160797460Y-79603329D01*
X160803682Y-79591935D01*
X160793870Y-79579502D01*
X160728892Y-79535838D01*
X160719098Y-79530454D01*
X160643739Y-79497373D01*
X160589404Y-79451677D01*
X160568399Y-79383859D01*
X160587394Y-79315450D01*
X160640358Y-79268171D01*
X160649828Y-79264142D01*
X160665137Y-79258357D01*
X160677350Y-79251048D01*
X160721950Y-79224355D01*
X160859720Y-79141901D01*
X160863940Y-79138219D01*
X160863945Y-79138216D01*
X161026375Y-78996519D01*
X161030605Y-78992829D01*
X161113292Y-78889619D01*
X161168885Y-78820228D01*
X161168888Y-78820223D01*
X161172391Y-78815851D01*
X161280596Y-78616562D01*
X161351800Y-78401262D01*
X161363294Y-78320503D01*
X161383241Y-78180346D01*
X161383241Y-78180345D01*
X161383752Y-78176755D01*
X161385500Y-78110000D01*
X161375018Y-77992548D01*
X162262000Y-77992548D01*
X162262000Y-78322743D01*
X162262161Y-78327250D01*
X162266740Y-78391269D01*
X162269126Y-78404491D01*
X162305819Y-78529458D01*
X162313233Y-78545692D01*
X162382426Y-78653360D01*
X162394112Y-78666847D01*
X162490840Y-78750662D01*
X162505848Y-78760307D01*
X162622275Y-78813477D01*
X162639388Y-78818502D01*
X162770554Y-78837361D01*
X162779495Y-78838000D01*
X162852885Y-78838000D01*
X162868124Y-78833525D01*
X162869329Y-78832135D01*
X162871000Y-78824452D01*
X162871000Y-77997115D01*
X162866525Y-77981876D01*
X162865135Y-77980671D01*
X162857452Y-77979000D01*
X162280115Y-77979000D01*
X162264876Y-77983475D01*
X162263671Y-77984865D01*
X162262000Y-77992548D01*
X161375018Y-77992548D01*
X161365341Y-77884128D01*
X161326279Y-77741340D01*
X161306985Y-77670812D01*
X161306984Y-77670808D01*
X161305503Y-77665396D01*
X161207876Y-77460718D01*
X161075547Y-77276562D01*
X160923787Y-77129495D01*
X162262000Y-77129495D01*
X162262000Y-77452885D01*
X162266475Y-77468124D01*
X162267865Y-77469329D01*
X162275548Y-77471000D01*
X162852885Y-77471000D01*
X162868124Y-77466525D01*
X162869329Y-77465135D01*
X162871000Y-77457452D01*
X162871000Y-77125000D01*
X163211500Y-77125000D01*
X163211500Y-78325000D01*
X163216727Y-78398079D01*
X163257904Y-78538316D01*
X163336923Y-78661271D01*
X163343733Y-78667172D01*
X163348225Y-78672356D01*
X163377718Y-78736937D01*
X163379000Y-78754868D01*
X163379000Y-78819885D01*
X163383475Y-78835124D01*
X163384865Y-78836329D01*
X163392548Y-78838000D01*
X163472743Y-78838000D01*
X163477250Y-78837839D01*
X163541267Y-78833260D01*
X163554491Y-78830874D01*
X163566803Y-78827259D01*
X163620232Y-78823437D01*
X163720552Y-78837861D01*
X163720559Y-78837862D01*
X163725000Y-78838500D01*
X163890406Y-78838500D01*
X163958527Y-78858502D01*
X163979501Y-78875405D01*
X165696629Y-80592533D01*
X165703989Y-80600621D01*
X165708047Y-80607015D01*
X165713824Y-80612440D01*
X165756898Y-80652889D01*
X165759740Y-80655644D01*
X165780053Y-80675957D01*
X165783184Y-80678386D01*
X165783460Y-80678600D01*
X165792483Y-80686306D01*
X165818943Y-80711154D01*
X165818947Y-80711157D01*
X165824719Y-80716577D01*
X165831659Y-80720393D01*
X165831664Y-80720396D01*
X165842474Y-80726339D01*
X165858994Y-80737191D01*
X165874996Y-80749603D01*
X165915566Y-80767159D01*
X165926227Y-80772382D01*
X165964972Y-80793682D01*
X165972654Y-80795654D01*
X165972655Y-80795655D01*
X165984597Y-80798722D01*
X166003292Y-80805122D01*
X166021884Y-80813167D01*
X166029713Y-80814407D01*
X166065548Y-80820083D01*
X166077169Y-80822490D01*
X166114238Y-80832007D01*
X166119995Y-80833485D01*
X166120551Y-80833520D01*
X166140473Y-80833520D01*
X166160182Y-80835071D01*
X166179964Y-80838204D01*
X166187856Y-80837458D01*
X166223602Y-80834079D01*
X166235460Y-80833520D01*
X166589561Y-80833520D01*
X166657682Y-80853522D01*
X166678656Y-80870425D01*
X168650824Y-82842593D01*
X168658184Y-82850681D01*
X168662242Y-82857075D01*
X168668019Y-82862500D01*
X168711093Y-82902949D01*
X168713935Y-82905704D01*
X168734248Y-82926017D01*
X168737659Y-82928662D01*
X168746679Y-82936366D01*
X168778914Y-82966637D01*
X168785859Y-82970455D01*
X168785862Y-82970457D01*
X168796667Y-82976397D01*
X168813194Y-82987253D01*
X168829191Y-82999662D01*
X168869770Y-83017223D01*
X168880402Y-83022431D01*
X168919167Y-83043742D01*
X168926844Y-83045713D01*
X168926849Y-83045715D01*
X168938781Y-83048778D01*
X168957489Y-83055183D01*
X168961828Y-83057060D01*
X168968807Y-83060081D01*
X168968811Y-83060082D01*
X168976078Y-83063227D01*
X168983902Y-83064466D01*
X168983905Y-83064467D01*
X169004716Y-83067763D01*
X169019752Y-83070144D01*
X169031360Y-83072548D01*
X169074190Y-83083545D01*
X169074746Y-83083580D01*
X169094668Y-83083580D01*
X169114377Y-83085131D01*
X169134159Y-83088264D01*
X169142051Y-83087518D01*
X169177797Y-83084139D01*
X169189655Y-83083580D01*
X173339790Y-83083580D01*
X173407911Y-83103582D01*
X173428885Y-83120485D01*
X173929555Y-83621155D01*
X173963581Y-83683467D01*
X173966460Y-83710250D01*
X173966461Y-86083325D01*
X173946459Y-86151446D01*
X173891712Y-86198431D01*
X173868230Y-86208886D01*
X173862889Y-86212766D01*
X173862888Y-86212767D01*
X173719073Y-86317254D01*
X173719071Y-86317256D01*
X173713729Y-86321137D01*
X173709308Y-86326047D01*
X173709307Y-86326048D01*
X173604877Y-86442030D01*
X173585943Y-86463058D01*
X173582642Y-86468776D01*
X173493935Y-86622421D01*
X173490456Y-86628446D01*
X173488414Y-86634731D01*
X173446159Y-86764780D01*
X173431442Y-86810073D01*
X173430752Y-86816636D01*
X173430752Y-86816637D01*
X173423260Y-86887920D01*
X173411480Y-87000000D01*
X173412170Y-87006565D01*
X173427248Y-87150019D01*
X173431442Y-87189927D01*
X173490456Y-87371554D01*
X173585943Y-87536942D01*
X173590361Y-87541849D01*
X173590362Y-87541850D01*
X173661375Y-87620718D01*
X173713729Y-87678863D01*
X173719069Y-87682742D01*
X173719077Y-87682750D01*
X173790407Y-87734573D01*
X173817921Y-87762096D01*
X173820467Y-87766401D01*
X173820835Y-87766819D01*
X173834918Y-87780902D01*
X173847759Y-87795935D01*
X173859535Y-87812143D01*
X173882102Y-87830812D01*
X173893307Y-87840081D01*
X173902088Y-87848072D01*
X173929555Y-87875539D01*
X173963581Y-87937851D01*
X173966460Y-87964634D01*
X173966461Y-94049942D01*
X173946459Y-94118063D01*
X173891711Y-94165048D01*
X173830516Y-94192294D01*
X173799280Y-94206201D01*
X173799278Y-94206202D01*
X173793250Y-94208886D01*
X173787909Y-94212766D01*
X173787908Y-94212767D01*
X173644093Y-94317254D01*
X173644091Y-94317256D01*
X173638749Y-94321137D01*
X173510963Y-94463058D01*
X173507662Y-94468776D01*
X173423165Y-94615129D01*
X173415476Y-94628446D01*
X173413434Y-94634731D01*
X173368745Y-94772271D01*
X173356462Y-94810073D01*
X173355772Y-94816636D01*
X173355772Y-94816637D01*
X173341998Y-94947693D01*
X173336500Y-95000000D01*
X173337190Y-95006565D01*
X173349490Y-95123588D01*
X173356462Y-95189927D01*
X173358502Y-95196205D01*
X173358502Y-95196206D01*
X173372965Y-95240718D01*
X173415476Y-95371554D01*
X173510963Y-95536942D01*
X173515381Y-95541849D01*
X173515382Y-95541850D01*
X173630520Y-95669724D01*
X173638749Y-95678863D01*
X173644091Y-95682744D01*
X173644093Y-95682746D01*
X173787908Y-95787233D01*
X173793250Y-95791114D01*
X173799278Y-95793798D01*
X173799280Y-95793799D01*
X173961682Y-95866105D01*
X173967713Y-95868790D01*
X174050462Y-95886379D01*
X174148056Y-95907124D01*
X174148061Y-95907124D01*
X174154513Y-95908496D01*
X174290481Y-95908496D01*
X174358602Y-95928498D01*
X174405095Y-95982154D01*
X174416481Y-96034496D01*
X174416481Y-96572194D01*
X174396479Y-96640315D01*
X174341730Y-96687300D01*
X174299288Y-96706197D01*
X174299283Y-96706200D01*
X174293250Y-96708886D01*
X174287909Y-96712766D01*
X174287908Y-96712767D01*
X174144093Y-96817254D01*
X174144091Y-96817256D01*
X174138749Y-96821137D01*
X174134328Y-96826047D01*
X174134327Y-96826048D01*
X174045429Y-96924780D01*
X174010963Y-96963058D01*
X174007662Y-96968776D01*
X173919176Y-97122038D01*
X173915476Y-97128446D01*
X173856462Y-97310073D01*
X173836500Y-97500000D01*
X173837190Y-97506565D01*
X173852758Y-97654681D01*
X173856462Y-97689927D01*
X173915476Y-97871554D01*
X174010963Y-98036942D01*
X174138749Y-98178863D01*
X174144091Y-98182744D01*
X174144093Y-98182746D01*
X174212530Y-98232468D01*
X174293250Y-98291114D01*
X174299278Y-98293798D01*
X174299280Y-98293799D01*
X174461682Y-98366105D01*
X174467713Y-98368790D01*
X174561113Y-98388643D01*
X174648056Y-98407124D01*
X174648061Y-98407124D01*
X174654513Y-98408496D01*
X174740501Y-98408496D01*
X174808622Y-98428498D01*
X174855115Y-98482154D01*
X174866501Y-98534496D01*
X174866501Y-106121600D01*
X174865986Y-106132520D01*
X174864334Y-106139912D01*
X174864583Y-106147835D01*
X174866439Y-106206884D01*
X174866501Y-106210842D01*
X174866501Y-106239578D01*
X174866996Y-106243495D01*
X174867040Y-106243844D01*
X174867972Y-106255678D01*
X174869362Y-106299883D01*
X174871575Y-106307499D01*
X174871575Y-106307501D01*
X174875014Y-106319339D01*
X174879023Y-106338698D01*
X174881561Y-106358788D01*
X174884481Y-106366163D01*
X174897833Y-106399889D01*
X174901678Y-106411118D01*
X174914014Y-106453578D01*
X174918049Y-106460401D01*
X174924327Y-106471017D01*
X174933023Y-106488769D01*
X174940479Y-106507600D01*
X174945141Y-106514016D01*
X174966468Y-106543371D01*
X174972983Y-106553289D01*
X174995487Y-106591341D01*
X174995855Y-106591759D01*
X175009938Y-106605842D01*
X175022779Y-106620875D01*
X175034555Y-106637083D01*
X175040662Y-106642135D01*
X175068330Y-106665024D01*
X175077110Y-106673014D01*
X176613402Y-108209306D01*
X176647428Y-108271618D01*
X176647689Y-108323952D01*
X176624091Y-108437900D01*
X176624091Y-108437901D01*
X176622953Y-108443398D01*
X176617017Y-108670089D01*
X176651318Y-108894249D01*
X176724773Y-109108793D01*
X176835059Y-109306937D01*
X176978690Y-109482421D01*
X176982953Y-109486062D01*
X176982958Y-109486067D01*
X177132028Y-109613384D01*
X177151127Y-109629696D01*
X177260998Y-109693899D01*
X177340473Y-109740340D01*
X177346919Y-109744107D01*
X177352196Y-109746038D01*
X177355983Y-109747820D01*
X177409104Y-109794923D01*
X177428327Y-109863268D01*
X177407548Y-109931156D01*
X177360125Y-109973795D01*
X177289943Y-110010019D01*
X177206553Y-110053060D01*
X177026645Y-110191108D01*
X177022872Y-110195254D01*
X177022867Y-110195259D01*
X176934244Y-110292655D01*
X176874026Y-110358834D01*
X176753521Y-110550935D01*
X176668939Y-110761340D01*
X176622953Y-110983398D01*
X176617017Y-111210089D01*
X176651318Y-111434249D01*
X176724773Y-111648793D01*
X176835059Y-111846937D01*
X176978690Y-112022421D01*
X176982953Y-112026062D01*
X176982958Y-112026067D01*
X177132028Y-112153384D01*
X177151127Y-112169696D01*
X177249023Y-112226902D01*
X177342072Y-112281275D01*
X177342075Y-112281276D01*
X177346919Y-112284107D01*
X177352189Y-112286036D01*
X177352190Y-112286036D01*
X177554612Y-112360112D01*
X177554616Y-112360113D01*
X177559876Y-112362038D01*
X177565393Y-112363001D01*
X177565397Y-112363002D01*
X177748812Y-112395013D01*
X177783269Y-112401027D01*
X177788875Y-112400998D01*
X177788879Y-112400998D01*
X177892475Y-112400455D01*
X178010035Y-112399839D01*
X178015553Y-112398816D01*
X178015556Y-112398816D01*
X178227488Y-112359537D01*
X178227489Y-112359537D01*
X178233007Y-112358514D01*
X178238252Y-112356532D01*
X178238256Y-112356531D01*
X178357839Y-112311344D01*
X178445137Y-112278357D01*
X178639720Y-112161901D01*
X178643940Y-112158219D01*
X178643945Y-112158216D01*
X178806375Y-112016519D01*
X178810605Y-112012829D01*
X178821882Y-111998753D01*
X178948885Y-111840228D01*
X178948888Y-111840223D01*
X178952391Y-111835851D01*
X179060596Y-111636562D01*
X179131800Y-111421262D01*
X179163752Y-111196755D01*
X179165500Y-111130000D01*
X179145341Y-110904128D01*
X179106279Y-110761340D01*
X179086985Y-110690812D01*
X179086984Y-110690808D01*
X179085503Y-110685396D01*
X178987876Y-110480718D01*
X178855547Y-110296562D01*
X178692698Y-110138750D01*
X178565178Y-110053060D01*
X178509130Y-110015397D01*
X178509124Y-110015394D01*
X178504477Y-110012271D01*
X178424404Y-109977121D01*
X178370070Y-109931427D01*
X178349065Y-109863608D01*
X178368059Y-109795200D01*
X178421023Y-109747920D01*
X178430513Y-109743883D01*
X178439890Y-109740340D01*
X178439893Y-109740338D01*
X178445137Y-109738357D01*
X178639720Y-109621901D01*
X178643940Y-109618219D01*
X178643945Y-109618216D01*
X178806375Y-109476519D01*
X178810605Y-109472829D01*
X178821882Y-109458753D01*
X178948885Y-109300228D01*
X178948888Y-109300223D01*
X178952391Y-109295851D01*
X179060596Y-109096562D01*
X179131800Y-108881262D01*
X179163752Y-108656755D01*
X179165500Y-108590000D01*
X179145341Y-108364128D01*
X179106279Y-108221340D01*
X179086985Y-108150812D01*
X179086984Y-108150808D01*
X179085503Y-108145396D01*
X178987876Y-107940718D01*
X178855547Y-107756562D01*
X178692698Y-107598750D01*
X178565178Y-107513060D01*
X178509130Y-107475397D01*
X178509124Y-107475394D01*
X178504477Y-107472271D01*
X178499345Y-107470018D01*
X178499341Y-107470016D01*
X178423753Y-107436835D01*
X178369417Y-107391139D01*
X178348413Y-107323320D01*
X178367408Y-107254912D01*
X178420372Y-107207633D01*
X178429863Y-107203595D01*
X178439677Y-107199887D01*
X178449734Y-107195025D01*
X178575623Y-107119683D01*
X178585193Y-107109324D01*
X178581650Y-107100861D01*
X177531922Y-106051132D01*
X178254408Y-106051132D01*
X178254539Y-106052966D01*
X178258790Y-106059580D01*
X178940156Y-106740945D01*
X178952531Y-106747702D01*
X178958796Y-106743013D01*
X179057462Y-106561290D01*
X179061896Y-106551044D01*
X179129553Y-106346469D01*
X179132103Y-106335596D01*
X179162742Y-106120319D01*
X179163348Y-106113103D01*
X179164905Y-106053632D01*
X179164677Y-106046379D01*
X179145348Y-105829812D01*
X179143366Y-105818798D01*
X179086517Y-105610987D01*
X179082619Y-105600506D01*
X178989859Y-105406031D01*
X178984173Y-105396416D01*
X178960719Y-105363776D01*
X178949928Y-105355365D01*
X178936894Y-105362317D01*
X178262021Y-106037189D01*
X178254408Y-106051132D01*
X177531922Y-106051132D01*
X177530790Y-106050000D01*
X176843097Y-105362308D01*
X176830720Y-105355549D01*
X176822747Y-105361518D01*
X176756952Y-105466403D01*
X176751872Y-105476373D01*
X176671511Y-105676278D01*
X176668280Y-105686978D01*
X176624588Y-105897958D01*
X176623303Y-105909065D01*
X176617753Y-106121001D01*
X176595974Y-106188574D01*
X176541120Y-106233647D01*
X176470606Y-106241907D01*
X176402701Y-106206797D01*
X176170405Y-105974501D01*
X176136379Y-105912189D01*
X176133500Y-105885406D01*
X176133500Y-102953595D01*
X176153502Y-102885474D01*
X176207158Y-102838981D01*
X176277432Y-102828877D01*
X176342012Y-102858371D01*
X176348590Y-102864495D01*
X176613402Y-103129307D01*
X176647427Y-103191619D01*
X176647688Y-103243952D01*
X176638210Y-103289724D01*
X176622953Y-103363398D01*
X176617017Y-103590089D01*
X176651318Y-103814249D01*
X176724773Y-104028793D01*
X176835059Y-104226937D01*
X176978690Y-104402421D01*
X176982953Y-104406062D01*
X176982958Y-104406067D01*
X177132028Y-104533384D01*
X177151127Y-104549696D01*
X177279359Y-104624628D01*
X177340466Y-104660336D01*
X177346919Y-104664107D01*
X177352185Y-104666034D01*
X177356554Y-104668090D01*
X177409674Y-104715194D01*
X177428895Y-104783539D01*
X177408114Y-104851427D01*
X177360693Y-104894063D01*
X177211803Y-104970910D01*
X177202372Y-104976895D01*
X177201883Y-104977271D01*
X177193418Y-104988863D01*
X177200050Y-105000839D01*
X177877189Y-105677979D01*
X177891132Y-105685592D01*
X177892966Y-105685461D01*
X177899580Y-105681210D01*
X178577460Y-105003329D01*
X178583682Y-104991935D01*
X178573870Y-104979502D01*
X178508892Y-104935838D01*
X178499098Y-104930454D01*
X178423739Y-104897373D01*
X178369404Y-104851677D01*
X178348399Y-104783859D01*
X178367394Y-104715450D01*
X178420358Y-104668171D01*
X178429828Y-104664142D01*
X178445137Y-104658357D01*
X178639720Y-104541901D01*
X178643940Y-104538219D01*
X178643945Y-104538216D01*
X178806375Y-104396519D01*
X178810605Y-104392829D01*
X178821882Y-104378753D01*
X178948885Y-104220228D01*
X178948888Y-104220223D01*
X178952391Y-104215851D01*
X179060596Y-104016562D01*
X179131800Y-103801262D01*
X179163752Y-103576755D01*
X179165500Y-103510000D01*
X179145341Y-103284128D01*
X179106279Y-103141340D01*
X179086985Y-103070812D01*
X179086984Y-103070808D01*
X179085503Y-103065396D01*
X178987876Y-102860718D01*
X178855547Y-102676562D01*
X178692698Y-102518750D01*
X178565178Y-102433060D01*
X178509130Y-102395397D01*
X178509124Y-102395394D01*
X178504477Y-102392271D01*
X178424404Y-102357121D01*
X178370070Y-102311427D01*
X178349065Y-102243608D01*
X178368059Y-102175200D01*
X178421023Y-102127920D01*
X178430513Y-102123883D01*
X178439890Y-102120340D01*
X178439893Y-102120338D01*
X178445137Y-102118357D01*
X178639720Y-102001901D01*
X178643940Y-101998219D01*
X178643945Y-101998216D01*
X178806375Y-101856519D01*
X178810605Y-101852829D01*
X178821882Y-101838753D01*
X178948885Y-101680228D01*
X178948888Y-101680223D01*
X178952391Y-101675851D01*
X179060596Y-101476562D01*
X179131800Y-101261262D01*
X179163752Y-101036755D01*
X179165500Y-100970000D01*
X179145341Y-100744128D01*
X179106279Y-100601340D01*
X179086985Y-100530812D01*
X179086984Y-100530808D01*
X179085503Y-100525396D01*
X178987876Y-100320718D01*
X178855547Y-100136562D01*
X178692698Y-99978750D01*
X178565178Y-99893060D01*
X178509130Y-99855397D01*
X178509124Y-99855394D01*
X178504477Y-99852271D01*
X178424404Y-99817121D01*
X178370070Y-99771427D01*
X178349065Y-99703608D01*
X178368059Y-99635200D01*
X178421023Y-99587920D01*
X178430513Y-99583883D01*
X178439890Y-99580340D01*
X178439893Y-99580338D01*
X178445137Y-99578357D01*
X178639720Y-99461901D01*
X178643940Y-99458219D01*
X178643945Y-99458216D01*
X178806375Y-99316519D01*
X178810605Y-99312829D01*
X178821882Y-99298753D01*
X178948885Y-99140228D01*
X178948888Y-99140223D01*
X178952391Y-99135851D01*
X179060596Y-98936562D01*
X179131800Y-98721262D01*
X179163752Y-98496755D01*
X179165500Y-98430000D01*
X179145341Y-98204128D01*
X179106279Y-98061340D01*
X179086985Y-97990812D01*
X179086984Y-97990808D01*
X179085503Y-97985396D01*
X178987876Y-97780718D01*
X178855547Y-97596562D01*
X178751011Y-97495259D01*
X178696726Y-97442653D01*
X178696723Y-97442651D01*
X178692698Y-97438750D01*
X178565178Y-97353060D01*
X178509130Y-97315397D01*
X178509124Y-97315394D01*
X178504477Y-97312271D01*
X178424404Y-97277121D01*
X178370070Y-97231427D01*
X178349065Y-97163608D01*
X178368059Y-97095200D01*
X178421023Y-97047920D01*
X178430513Y-97043883D01*
X178439890Y-97040340D01*
X178439893Y-97040338D01*
X178445137Y-97038357D01*
X178639720Y-96921901D01*
X178643940Y-96918219D01*
X178643945Y-96918216D01*
X178806375Y-96776519D01*
X178810605Y-96772829D01*
X178821882Y-96758753D01*
X178948885Y-96600228D01*
X178948888Y-96600223D01*
X178952391Y-96595851D01*
X179060596Y-96396562D01*
X179131800Y-96181262D01*
X179163752Y-95956755D01*
X179165500Y-95890000D01*
X179163730Y-95870162D01*
X179156328Y-95787233D01*
X179145341Y-95664128D01*
X179106279Y-95521340D01*
X179086985Y-95450812D01*
X179086984Y-95450808D01*
X179085503Y-95445396D01*
X178987876Y-95240718D01*
X178855547Y-95056562D01*
X178692698Y-94898750D01*
X178565178Y-94813060D01*
X178509130Y-94775397D01*
X178509124Y-94775394D01*
X178504477Y-94772271D01*
X178499345Y-94770018D01*
X178499341Y-94770016D01*
X178423753Y-94736835D01*
X178369417Y-94691139D01*
X178348413Y-94623320D01*
X178367408Y-94554912D01*
X178420372Y-94507633D01*
X178429863Y-94503595D01*
X178439677Y-94499887D01*
X178449734Y-94495025D01*
X178575623Y-94419683D01*
X178585193Y-94409324D01*
X178581650Y-94400861D01*
X177902811Y-93722021D01*
X177888868Y-93714408D01*
X177887034Y-93714539D01*
X177880420Y-93718790D01*
X177201152Y-94398059D01*
X177194395Y-94410434D01*
X177199676Y-94417489D01*
X177342284Y-94500822D01*
X177356544Y-94507532D01*
X177409665Y-94554635D01*
X177428887Y-94622980D01*
X177408108Y-94690868D01*
X177360685Y-94733506D01*
X177289949Y-94770016D01*
X177206553Y-94813060D01*
X177026645Y-94951108D01*
X177022872Y-94955254D01*
X177022867Y-94955259D01*
X176890148Y-95101116D01*
X176874026Y-95118834D01*
X176866237Y-95131251D01*
X176813095Y-95178328D01*
X176742936Y-95189202D01*
X176678036Y-95160418D01*
X176639000Y-95101116D01*
X176633500Y-95064295D01*
X176633500Y-94155308D01*
X176653502Y-94087187D01*
X176707158Y-94040694D01*
X176777432Y-94030590D01*
X176804096Y-94042768D01*
X176827419Y-94047644D01*
X176836687Y-94044102D01*
X177517979Y-93362811D01*
X177524355Y-93351132D01*
X178254408Y-93351132D01*
X178254539Y-93352966D01*
X178258790Y-93359580D01*
X178940156Y-94040945D01*
X178952531Y-94047702D01*
X178958796Y-94043013D01*
X179057462Y-93861290D01*
X179061896Y-93851044D01*
X179129553Y-93646469D01*
X179132103Y-93635596D01*
X179162742Y-93420319D01*
X179163348Y-93413103D01*
X179164905Y-93353632D01*
X179164677Y-93346379D01*
X179145348Y-93129812D01*
X179143366Y-93118798D01*
X179086517Y-92910987D01*
X179082619Y-92900506D01*
X178989859Y-92706031D01*
X178984173Y-92696416D01*
X178960719Y-92663776D01*
X178949928Y-92655365D01*
X178936894Y-92662317D01*
X178262021Y-93337189D01*
X178254408Y-93351132D01*
X177524355Y-93351132D01*
X177525592Y-93348868D01*
X177525461Y-93347034D01*
X177521210Y-93340420D01*
X176843095Y-92662306D01*
X176829157Y-92654695D01*
X176828578Y-92654737D01*
X176768489Y-92677149D01*
X176699115Y-92662058D01*
X176648913Y-92611856D01*
X176633500Y-92551470D01*
X176633500Y-91633555D01*
X176653502Y-91565434D01*
X176707158Y-91518941D01*
X176777432Y-91508837D01*
X176842012Y-91538331D01*
X176857004Y-91553749D01*
X176978690Y-91702421D01*
X176982953Y-91706062D01*
X176982958Y-91706067D01*
X177132028Y-91833384D01*
X177151127Y-91849696D01*
X177279359Y-91924628D01*
X177340466Y-91960336D01*
X177346919Y-91964107D01*
X177352185Y-91966034D01*
X177356554Y-91968090D01*
X177409674Y-92015194D01*
X177428895Y-92083539D01*
X177408114Y-92151427D01*
X177360693Y-92194063D01*
X177211803Y-92270910D01*
X177202372Y-92276895D01*
X177201883Y-92277271D01*
X177193418Y-92288863D01*
X177200050Y-92300839D01*
X177877189Y-92977979D01*
X177891132Y-92985592D01*
X177892966Y-92985461D01*
X177899580Y-92981210D01*
X178577460Y-92303329D01*
X178583682Y-92291935D01*
X178573870Y-92279502D01*
X178508892Y-92235838D01*
X178499098Y-92230454D01*
X178423739Y-92197373D01*
X178369404Y-92151677D01*
X178348399Y-92083859D01*
X178367394Y-92015450D01*
X178420358Y-91968171D01*
X178429828Y-91964142D01*
X178445137Y-91958357D01*
X178639720Y-91841901D01*
X178643940Y-91838219D01*
X178643945Y-91838216D01*
X178806375Y-91696519D01*
X178810605Y-91692829D01*
X178821882Y-91678753D01*
X178948885Y-91520228D01*
X178948888Y-91520223D01*
X178952391Y-91515851D01*
X179060596Y-91316562D01*
X179131800Y-91101262D01*
X179163752Y-90876755D01*
X179165500Y-90810000D01*
X179145341Y-90584128D01*
X179106279Y-90441340D01*
X179086985Y-90370812D01*
X179086984Y-90370808D01*
X179085503Y-90365396D01*
X178987876Y-90160718D01*
X178855547Y-89976562D01*
X178692698Y-89818750D01*
X178565178Y-89733060D01*
X178509130Y-89695397D01*
X178509124Y-89695394D01*
X178504477Y-89692271D01*
X178424404Y-89657121D01*
X178370070Y-89611427D01*
X178349065Y-89543608D01*
X178368059Y-89475200D01*
X178421023Y-89427920D01*
X178430513Y-89423883D01*
X178439890Y-89420340D01*
X178439893Y-89420338D01*
X178445137Y-89418357D01*
X178639720Y-89301901D01*
X178643940Y-89298219D01*
X178643945Y-89298216D01*
X178806375Y-89156519D01*
X178810605Y-89152829D01*
X178821882Y-89138753D01*
X178948885Y-88980228D01*
X178948888Y-88980223D01*
X178952391Y-88975851D01*
X179060596Y-88776562D01*
X179131800Y-88561262D01*
X179163752Y-88336755D01*
X179165500Y-88270000D01*
X179145341Y-88044128D01*
X179106279Y-87901340D01*
X179086985Y-87830812D01*
X179086984Y-87830808D01*
X179085503Y-87825396D01*
X178987876Y-87620718D01*
X178855547Y-87436562D01*
X178787795Y-87370906D01*
X178696726Y-87282653D01*
X178696723Y-87282651D01*
X178692698Y-87278750D01*
X178570257Y-87196473D01*
X178509130Y-87155397D01*
X178509124Y-87155394D01*
X178504477Y-87152271D01*
X178424404Y-87117121D01*
X178370070Y-87071427D01*
X178349065Y-87003608D01*
X178368059Y-86935200D01*
X178421023Y-86887920D01*
X178430513Y-86883883D01*
X178439890Y-86880340D01*
X178439893Y-86880338D01*
X178445137Y-86878357D01*
X178639720Y-86761901D01*
X178643940Y-86758219D01*
X178643945Y-86758216D01*
X178806375Y-86616519D01*
X178810605Y-86612829D01*
X178821882Y-86598753D01*
X178948885Y-86440228D01*
X178948888Y-86440223D01*
X178952391Y-86435851D01*
X179060596Y-86236562D01*
X179131800Y-86021262D01*
X179163752Y-85796755D01*
X179165500Y-85730000D01*
X179145341Y-85504128D01*
X179106279Y-85361340D01*
X179086985Y-85290812D01*
X179086984Y-85290808D01*
X179085503Y-85285396D01*
X178987876Y-85080718D01*
X178855547Y-84896562D01*
X178692698Y-84738750D01*
X178565178Y-84653060D01*
X178509130Y-84615397D01*
X178509124Y-84615394D01*
X178504477Y-84612271D01*
X178424404Y-84577121D01*
X178370070Y-84531427D01*
X178349065Y-84463608D01*
X178368059Y-84395200D01*
X178421023Y-84347920D01*
X178430513Y-84343883D01*
X178439890Y-84340340D01*
X178439893Y-84340338D01*
X178445137Y-84338357D01*
X178639720Y-84221901D01*
X178643940Y-84218219D01*
X178643945Y-84218216D01*
X178806375Y-84076519D01*
X178810605Y-84072829D01*
X178821882Y-84058753D01*
X178948885Y-83900228D01*
X178948888Y-83900223D01*
X178952391Y-83895851D01*
X179060596Y-83696562D01*
X179131800Y-83481262D01*
X179163752Y-83256755D01*
X179165500Y-83190000D01*
X179145341Y-82964128D01*
X179106279Y-82821340D01*
X179086985Y-82750812D01*
X179086984Y-82750808D01*
X179085503Y-82745396D01*
X178987876Y-82540718D01*
X178855547Y-82356562D01*
X178751011Y-82255259D01*
X178696726Y-82202653D01*
X178696723Y-82202651D01*
X178692698Y-82198750D01*
X178565178Y-82113060D01*
X178509130Y-82075397D01*
X178509124Y-82075394D01*
X178504477Y-82072271D01*
X178499345Y-82070018D01*
X178499341Y-82070016D01*
X178423753Y-82036835D01*
X178369417Y-81991139D01*
X178348413Y-81923320D01*
X178367408Y-81854912D01*
X178420372Y-81807633D01*
X178429863Y-81803595D01*
X178439677Y-81799887D01*
X178449734Y-81795025D01*
X178575623Y-81719683D01*
X178585193Y-81709324D01*
X178581650Y-81700861D01*
X177902811Y-81022021D01*
X177888868Y-81014408D01*
X177887034Y-81014539D01*
X177880420Y-81018790D01*
X177201152Y-81698059D01*
X177194395Y-81710434D01*
X177199676Y-81717489D01*
X177342284Y-81800822D01*
X177356544Y-81807532D01*
X177409665Y-81854635D01*
X177428887Y-81922980D01*
X177408108Y-81990868D01*
X177360685Y-82033506D01*
X177289949Y-82070016D01*
X177206553Y-82113060D01*
X177202105Y-82116473D01*
X177041206Y-82239935D01*
X176974986Y-82265535D01*
X176905437Y-82251270D01*
X176884199Y-82237067D01*
X176881678Y-82234982D01*
X176872886Y-82226982D01*
X175370356Y-80724452D01*
X176617663Y-80724452D01*
X176618365Y-80735604D01*
X176650955Y-80948579D01*
X176653622Y-80959440D01*
X176723413Y-81163281D01*
X176727961Y-81173495D01*
X176819031Y-81337117D01*
X176829084Y-81347008D01*
X176836687Y-81344102D01*
X177517979Y-80662811D01*
X177524355Y-80651132D01*
X178254408Y-80651132D01*
X178254539Y-80652966D01*
X178258790Y-80659580D01*
X178940156Y-81340945D01*
X178952531Y-81347702D01*
X178958796Y-81343013D01*
X179057462Y-81161290D01*
X179061896Y-81151044D01*
X179129553Y-80946469D01*
X179132103Y-80935596D01*
X179162742Y-80720319D01*
X179163348Y-80713103D01*
X179164905Y-80653632D01*
X179164677Y-80646379D01*
X179145348Y-80429812D01*
X179143366Y-80418798D01*
X179086517Y-80210987D01*
X179082619Y-80200506D01*
X178989859Y-80006031D01*
X178984173Y-79996416D01*
X178960719Y-79963776D01*
X178949928Y-79955365D01*
X178936894Y-79962317D01*
X178262021Y-80637189D01*
X178254408Y-80651132D01*
X177524355Y-80651132D01*
X177525592Y-80648868D01*
X177525461Y-80647034D01*
X177521210Y-80640420D01*
X176843095Y-79962306D01*
X176830720Y-79955549D01*
X176822747Y-79961517D01*
X176756952Y-80066403D01*
X176751872Y-80076373D01*
X176671511Y-80276278D01*
X176668280Y-80286978D01*
X176624588Y-80497958D01*
X176623303Y-80509065D01*
X176617663Y-80724452D01*
X175370356Y-80724452D01*
X175259383Y-80613479D01*
X175225357Y-80551167D01*
X175230422Y-80480352D01*
X175239359Y-80461384D01*
X175331220Y-80302277D01*
X175331221Y-80302276D01*
X175334524Y-80296554D01*
X175393538Y-80114927D01*
X175413500Y-79925000D01*
X175393538Y-79735073D01*
X175334524Y-79553446D01*
X175239037Y-79388058D01*
X175215620Y-79362050D01*
X175115673Y-79251048D01*
X175115672Y-79251047D01*
X175111251Y-79246137D01*
X175105909Y-79242256D01*
X175105907Y-79242254D01*
X174962092Y-79137767D01*
X174962091Y-79137766D01*
X174956750Y-79133886D01*
X174950722Y-79131202D01*
X174950720Y-79131201D01*
X174788318Y-79058895D01*
X174788317Y-79058895D01*
X174782287Y-79056210D01*
X174688887Y-79036357D01*
X174601944Y-79017876D01*
X174601939Y-79017876D01*
X174595487Y-79016504D01*
X174404513Y-79016504D01*
X174398061Y-79017876D01*
X174398056Y-79017876D01*
X174311113Y-79036357D01*
X174217713Y-79056210D01*
X174211683Y-79058895D01*
X174211682Y-79058895D01*
X174049280Y-79131201D01*
X174049278Y-79131202D01*
X174043250Y-79133886D01*
X174037909Y-79137766D01*
X174037908Y-79137767D01*
X173894093Y-79242254D01*
X173894091Y-79242256D01*
X173888749Y-79246137D01*
X173817910Y-79324812D01*
X173757467Y-79362050D01*
X173724276Y-79366500D01*
X172534500Y-79366500D01*
X172466379Y-79346498D01*
X172419886Y-79292842D01*
X172408500Y-79240500D01*
X172408500Y-78889619D01*
X172428502Y-78821498D01*
X172482158Y-78775005D01*
X172552432Y-78764901D01*
X172586843Y-78775006D01*
X172672133Y-78813957D01*
X172672136Y-78813958D01*
X172680330Y-78817700D01*
X172689245Y-78818982D01*
X172689246Y-78818982D01*
X172820552Y-78837861D01*
X172820559Y-78837862D01*
X172825000Y-78838500D01*
X173825000Y-78838500D01*
X173898079Y-78833273D01*
X173976165Y-78810345D01*
X174029670Y-78794635D01*
X174029672Y-78794634D01*
X174038316Y-78792096D01*
X174092951Y-78756984D01*
X174153691Y-78717949D01*
X174153694Y-78717947D01*
X174161271Y-78713077D01*
X174201330Y-78666847D01*
X174251082Y-78609431D01*
X174251084Y-78609428D01*
X174256984Y-78602619D01*
X174317700Y-78469670D01*
X174325668Y-78414249D01*
X174337861Y-78329448D01*
X174337862Y-78329441D01*
X174338500Y-78325000D01*
X174338500Y-77125000D01*
X174333273Y-77051921D01*
X174292096Y-76911684D01*
X174267574Y-76873528D01*
X174217949Y-76796309D01*
X174217947Y-76796306D01*
X174213077Y-76788729D01*
X174161587Y-76744112D01*
X174109431Y-76698918D01*
X174109428Y-76698916D01*
X174102619Y-76693016D01*
X174021169Y-76655819D01*
X173977864Y-76636042D01*
X173977863Y-76636042D01*
X173969670Y-76632300D01*
X173960755Y-76631018D01*
X173960754Y-76631018D01*
X173829448Y-76612139D01*
X173829441Y-76612138D01*
X173825000Y-76611500D01*
X172825000Y-76611500D01*
X172751921Y-76616727D01*
X172685663Y-76636182D01*
X172620330Y-76655365D01*
X172620328Y-76655366D01*
X172611684Y-76657904D01*
X172604103Y-76662776D01*
X172546770Y-76699622D01*
X172478649Y-76719625D01*
X172410526Y-76699622D01*
X172409429Y-76698917D01*
X172402619Y-76693016D01*
X172321169Y-76655819D01*
X172277864Y-76636042D01*
X172277863Y-76636042D01*
X172269670Y-76632300D01*
X172260755Y-76631018D01*
X172260754Y-76631018D01*
X172129448Y-76612139D01*
X172129441Y-76612138D01*
X172125000Y-76611500D01*
X171425000Y-76611500D01*
X171351921Y-76616727D01*
X171265328Y-76642153D01*
X171194332Y-76642153D01*
X171178266Y-76636161D01*
X171177869Y-76636044D01*
X171169670Y-76632300D01*
X171149947Y-76629464D01*
X171029448Y-76612139D01*
X171029441Y-76612138D01*
X171025000Y-76611500D01*
X170325000Y-76611500D01*
X170251921Y-76616727D01*
X170165328Y-76642153D01*
X170094332Y-76642153D01*
X170078266Y-76636161D01*
X170077869Y-76636044D01*
X170069670Y-76632300D01*
X170049947Y-76629464D01*
X169929448Y-76612139D01*
X169929441Y-76612138D01*
X169925000Y-76611500D01*
X169225000Y-76611500D01*
X169151921Y-76616727D01*
X169065328Y-76642153D01*
X168994332Y-76642153D01*
X168978266Y-76636161D01*
X168977869Y-76636044D01*
X168969670Y-76632300D01*
X168949947Y-76629464D01*
X168829448Y-76612139D01*
X168829441Y-76612138D01*
X168825000Y-76611500D01*
X168125000Y-76611500D01*
X168051921Y-76616727D01*
X167965328Y-76642153D01*
X167894332Y-76642153D01*
X167878266Y-76636161D01*
X167877869Y-76636044D01*
X167869670Y-76632300D01*
X167849947Y-76629464D01*
X167729448Y-76612139D01*
X167729441Y-76612138D01*
X167725000Y-76611500D01*
X167025000Y-76611500D01*
X166951921Y-76616727D01*
X166864602Y-76642366D01*
X166793607Y-76642366D01*
X166778737Y-76636820D01*
X166760612Y-76631498D01*
X166629446Y-76612639D01*
X166620505Y-76612000D01*
X166547115Y-76612000D01*
X166531876Y-76616475D01*
X166530671Y-76617865D01*
X166529000Y-76625548D01*
X166529000Y-76994268D01*
X166527718Y-77012199D01*
X166512139Y-77120552D01*
X166512139Y-77120554D01*
X166511500Y-77125000D01*
X166511500Y-77853000D01*
X166491498Y-77921121D01*
X166437842Y-77967614D01*
X166385500Y-77979000D01*
X166164500Y-77979000D01*
X166096379Y-77958998D01*
X166049886Y-77905342D01*
X166038500Y-77853000D01*
X166038500Y-77125000D01*
X166033273Y-77051921D01*
X166026104Y-77027504D01*
X166021000Y-76992008D01*
X166021000Y-76630115D01*
X166016525Y-76614876D01*
X166015135Y-76613671D01*
X166007452Y-76612000D01*
X165927257Y-76612000D01*
X165922750Y-76612161D01*
X165858731Y-76616740D01*
X165845512Y-76619125D01*
X165766017Y-76642467D01*
X165695020Y-76642467D01*
X165678171Y-76636182D01*
X165677866Y-76636043D01*
X165669670Y-76632300D01*
X165660755Y-76631018D01*
X165660754Y-76631018D01*
X165529448Y-76612139D01*
X165529441Y-76612138D01*
X165525000Y-76611500D01*
X164825000Y-76611500D01*
X164751921Y-76616727D01*
X164665328Y-76642153D01*
X164594332Y-76642153D01*
X164578266Y-76636161D01*
X164577869Y-76636044D01*
X164569670Y-76632300D01*
X164549947Y-76629464D01*
X164429448Y-76612139D01*
X164429441Y-76612138D01*
X164425000Y-76611500D01*
X163725000Y-76611500D01*
X163709076Y-76612639D01*
X163658658Y-76616245D01*
X163658657Y-76616245D01*
X163651921Y-76616727D01*
X163630870Y-76622908D01*
X163577440Y-76626729D01*
X163479463Y-76612642D01*
X163470494Y-76612000D01*
X163397115Y-76612000D01*
X163381876Y-76616475D01*
X163380671Y-76617865D01*
X163379000Y-76625548D01*
X163379000Y-76701155D01*
X163358998Y-76769276D01*
X163348224Y-76783668D01*
X163298918Y-76840569D01*
X163298916Y-76840572D01*
X163293016Y-76847381D01*
X163232300Y-76980330D01*
X163231018Y-76989245D01*
X163231018Y-76989246D01*
X163212139Y-77120552D01*
X163212139Y-77120554D01*
X163211500Y-77125000D01*
X162871000Y-77125000D01*
X162871000Y-76630115D01*
X162866525Y-76614876D01*
X162865135Y-76613671D01*
X162857452Y-76612000D01*
X162777257Y-76612000D01*
X162772750Y-76612161D01*
X162708731Y-76616740D01*
X162695509Y-76619126D01*
X162570542Y-76655819D01*
X162554308Y-76663233D01*
X162446640Y-76732426D01*
X162433153Y-76744112D01*
X162349338Y-76840840D01*
X162339693Y-76855848D01*
X162286523Y-76972275D01*
X162281498Y-76989388D01*
X162262639Y-77120554D01*
X162262000Y-77129495D01*
X160923787Y-77129495D01*
X160921477Y-77127257D01*
X160916726Y-77122653D01*
X160916723Y-77122651D01*
X160912698Y-77118750D01*
X160847037Y-77074628D01*
X160729130Y-76995397D01*
X160729124Y-76995394D01*
X160724477Y-76992271D01*
X160644404Y-76957121D01*
X160590070Y-76911427D01*
X160569065Y-76843608D01*
X160588059Y-76775200D01*
X160641023Y-76727920D01*
X160650513Y-76723883D01*
X160659890Y-76720340D01*
X160659893Y-76720338D01*
X160665137Y-76718357D01*
X160859720Y-76601901D01*
X160863940Y-76598219D01*
X160863945Y-76598216D01*
X161026375Y-76456519D01*
X161030605Y-76452829D01*
X161041882Y-76438753D01*
X161168885Y-76280228D01*
X161168888Y-76280223D01*
X161172391Y-76275851D01*
X161280596Y-76076562D01*
X161351800Y-75861262D01*
X161383752Y-75636755D01*
X161385500Y-75570000D01*
X161365341Y-75344128D01*
X161326279Y-75201340D01*
X161306985Y-75130812D01*
X161306984Y-75130808D01*
X161305503Y-75125396D01*
X161207876Y-74920718D01*
X161075547Y-74736562D01*
X160912698Y-74578750D01*
X160845021Y-74533273D01*
X160729130Y-74455397D01*
X160729124Y-74455394D01*
X160724477Y-74452271D01*
X160644404Y-74417121D01*
X160590070Y-74371427D01*
X160569065Y-74303608D01*
X160588059Y-74235200D01*
X160641023Y-74187920D01*
X160650513Y-74183883D01*
X160659890Y-74180340D01*
X160659893Y-74180338D01*
X160665137Y-74178357D01*
X160859720Y-74061901D01*
X160863940Y-74058219D01*
X160863945Y-74058216D01*
X160955786Y-73978098D01*
X161020268Y-73948390D01*
X161090576Y-73958260D01*
X161144386Y-74004574D01*
X161164294Y-74064058D01*
X161166727Y-74098079D01*
X161168631Y-74104562D01*
X161193107Y-74187920D01*
X161207904Y-74238316D01*
X161212775Y-74245895D01*
X161282051Y-74353691D01*
X161282053Y-74353694D01*
X161286923Y-74361271D01*
X161293733Y-74367172D01*
X161390569Y-74451082D01*
X161390572Y-74451084D01*
X161397381Y-74456984D01*
X161405579Y-74460728D01*
X161483850Y-74496473D01*
X161530330Y-74517700D01*
X161539245Y-74518982D01*
X161539246Y-74518982D01*
X161670552Y-74537861D01*
X161670559Y-74537862D01*
X161675000Y-74538500D01*
X162675000Y-74538500D01*
X162748079Y-74533273D01*
X162826165Y-74510345D01*
X162879670Y-74494635D01*
X162879672Y-74494634D01*
X162888316Y-74492096D01*
X162942951Y-74456984D01*
X163003691Y-74417949D01*
X163003694Y-74417947D01*
X163011271Y-74413077D01*
X163051048Y-74367172D01*
X163101082Y-74309431D01*
X163101084Y-74309428D01*
X163106984Y-74302619D01*
X163140299Y-74229670D01*
X163163958Y-74177864D01*
X163163958Y-74177863D01*
X163167700Y-74169670D01*
X163182074Y-74069696D01*
X163187861Y-74029448D01*
X163187862Y-74029441D01*
X163188500Y-74025000D01*
X163188500Y-72825000D01*
X163183273Y-72751921D01*
X163142096Y-72611684D01*
X163079553Y-72514366D01*
X163067949Y-72496309D01*
X163067947Y-72496306D01*
X163063077Y-72488729D01*
X163056267Y-72482828D01*
X162959431Y-72398918D01*
X162959428Y-72398916D01*
X162952619Y-72393016D01*
X162819670Y-72332300D01*
X162810755Y-72331018D01*
X162810754Y-72331018D01*
X162679448Y-72312139D01*
X162679441Y-72312138D01*
X162675000Y-72311500D01*
X161675000Y-72311500D01*
X161601921Y-72316727D01*
X161548884Y-72332300D01*
X161470330Y-72355365D01*
X161470328Y-72355366D01*
X161461684Y-72357904D01*
X161397866Y-72398918D01*
X161377479Y-72412020D01*
X161309359Y-72432022D01*
X161241238Y-72412020D01*
X161207035Y-72379548D01*
X161194983Y-72362775D01*
X161075547Y-72196562D01*
X160912698Y-72038750D01*
X160785178Y-71953060D01*
X160729130Y-71915397D01*
X160729124Y-71915394D01*
X160724477Y-71912271D01*
X160644404Y-71877121D01*
X160590070Y-71831427D01*
X160569065Y-71763608D01*
X160588059Y-71695200D01*
X160641023Y-71647920D01*
X160650513Y-71643883D01*
X160659890Y-71640340D01*
X160659893Y-71640338D01*
X160665137Y-71638357D01*
X160859720Y-71521901D01*
X160863940Y-71518219D01*
X160863945Y-71518216D01*
X161026375Y-71376519D01*
X161030605Y-71372829D01*
X161041882Y-71358753D01*
X161168885Y-71200228D01*
X161168888Y-71200223D01*
X161172391Y-71195851D01*
X161280596Y-70996562D01*
X161351800Y-70781262D01*
X161381854Y-70570089D01*
X176617017Y-70570089D01*
X176651318Y-70794249D01*
X176724773Y-71008793D01*
X176835059Y-71206937D01*
X176978690Y-71382421D01*
X176982953Y-71386062D01*
X176982958Y-71386067D01*
X177132028Y-71513384D01*
X177151127Y-71529696D01*
X177260998Y-71593899D01*
X177340473Y-71640340D01*
X177346919Y-71644107D01*
X177352196Y-71646038D01*
X177355983Y-71647820D01*
X177409104Y-71694923D01*
X177428327Y-71763268D01*
X177407548Y-71831156D01*
X177360125Y-71873795D01*
X177289943Y-71910019D01*
X177206553Y-71953060D01*
X177026645Y-72091108D01*
X177022872Y-72095254D01*
X177022867Y-72095259D01*
X176934244Y-72192655D01*
X176874026Y-72258834D01*
X176871043Y-72263590D01*
X176871041Y-72263592D01*
X176762311Y-72436923D01*
X176753521Y-72450935D01*
X176668939Y-72661340D01*
X176667800Y-72666841D01*
X176635047Y-72825000D01*
X176622953Y-72883398D01*
X176617017Y-73110089D01*
X176651318Y-73334249D01*
X176724773Y-73548793D01*
X176835059Y-73746937D01*
X176978690Y-73922421D01*
X176982953Y-73926062D01*
X176982958Y-73926067D01*
X177132028Y-74053384D01*
X177151127Y-74069696D01*
X177260998Y-74133899D01*
X177340473Y-74180340D01*
X177346919Y-74184107D01*
X177352196Y-74186038D01*
X177355983Y-74187820D01*
X177409104Y-74234923D01*
X177428327Y-74303268D01*
X177407548Y-74371156D01*
X177360125Y-74413795D01*
X177269195Y-74460728D01*
X177206553Y-74493060D01*
X177026645Y-74631108D01*
X177022872Y-74635254D01*
X177022867Y-74635259D01*
X176934244Y-74732655D01*
X176874026Y-74798834D01*
X176753521Y-74990935D01*
X176668939Y-75201340D01*
X176622953Y-75423398D01*
X176617017Y-75650089D01*
X176651318Y-75874249D01*
X176724773Y-76088793D01*
X176835059Y-76286937D01*
X176978690Y-76462421D01*
X176982953Y-76466062D01*
X176982958Y-76466067D01*
X177132028Y-76593384D01*
X177151127Y-76609696D01*
X177233626Y-76657904D01*
X177340473Y-76720340D01*
X177346919Y-76724107D01*
X177352196Y-76726038D01*
X177355983Y-76727820D01*
X177409104Y-76774923D01*
X177428327Y-76843268D01*
X177407548Y-76911156D01*
X177360125Y-76953795D01*
X177289943Y-76990019D01*
X177206553Y-77033060D01*
X177026645Y-77171108D01*
X177022872Y-77175254D01*
X177022867Y-77175259D01*
X176934244Y-77272655D01*
X176874026Y-77338834D01*
X176871043Y-77343590D01*
X176871041Y-77343592D01*
X176802482Y-77452885D01*
X176753521Y-77530935D01*
X176668939Y-77741340D01*
X176622953Y-77963398D01*
X176617017Y-78190089D01*
X176651318Y-78414249D01*
X176724773Y-78628793D01*
X176835059Y-78826937D01*
X176838612Y-78831277D01*
X176838614Y-78831281D01*
X176844391Y-78838339D01*
X176978690Y-79002421D01*
X176982953Y-79006062D01*
X176982958Y-79006067D01*
X177129472Y-79131201D01*
X177151127Y-79149696D01*
X177279359Y-79224628D01*
X177340466Y-79260336D01*
X177346919Y-79264107D01*
X177352185Y-79266034D01*
X177356554Y-79268090D01*
X177409674Y-79315194D01*
X177428895Y-79383539D01*
X177408114Y-79451427D01*
X177360693Y-79494063D01*
X177211803Y-79570910D01*
X177202372Y-79576895D01*
X177201883Y-79577271D01*
X177193418Y-79588863D01*
X177200050Y-79600839D01*
X177877189Y-80277979D01*
X177891132Y-80285592D01*
X177892966Y-80285461D01*
X177899580Y-80281210D01*
X178577460Y-79603329D01*
X178583682Y-79591935D01*
X178573870Y-79579502D01*
X178508892Y-79535838D01*
X178499098Y-79530454D01*
X178423739Y-79497373D01*
X178369404Y-79451677D01*
X178348399Y-79383859D01*
X178367394Y-79315450D01*
X178420358Y-79268171D01*
X178429828Y-79264142D01*
X178445137Y-79258357D01*
X178457350Y-79251048D01*
X178501950Y-79224355D01*
X178639720Y-79141901D01*
X178643940Y-79138219D01*
X178643945Y-79138216D01*
X178806375Y-78996519D01*
X178810605Y-78992829D01*
X178893292Y-78889619D01*
X178948885Y-78820228D01*
X178948888Y-78820223D01*
X178952391Y-78815851D01*
X179060596Y-78616562D01*
X179131800Y-78401262D01*
X179143294Y-78320503D01*
X179163241Y-78180346D01*
X179163241Y-78180345D01*
X179163752Y-78176755D01*
X179165500Y-78110000D01*
X179145341Y-77884128D01*
X179106279Y-77741340D01*
X179086985Y-77670812D01*
X179086984Y-77670808D01*
X179085503Y-77665396D01*
X178987876Y-77460718D01*
X178855547Y-77276562D01*
X178701477Y-77127257D01*
X178696726Y-77122653D01*
X178696723Y-77122651D01*
X178692698Y-77118750D01*
X178627037Y-77074628D01*
X178509130Y-76995397D01*
X178509124Y-76995394D01*
X178504477Y-76992271D01*
X178424404Y-76957121D01*
X178370070Y-76911427D01*
X178349065Y-76843608D01*
X178368059Y-76775200D01*
X178421023Y-76727920D01*
X178430513Y-76723883D01*
X178439890Y-76720340D01*
X178439893Y-76720338D01*
X178445137Y-76718357D01*
X178639720Y-76601901D01*
X178643940Y-76598219D01*
X178643945Y-76598216D01*
X178806375Y-76456519D01*
X178810605Y-76452829D01*
X178821882Y-76438753D01*
X178948885Y-76280228D01*
X178948888Y-76280223D01*
X178952391Y-76275851D01*
X179060596Y-76076562D01*
X179131800Y-75861262D01*
X179163752Y-75636755D01*
X179165500Y-75570000D01*
X179145341Y-75344128D01*
X179106279Y-75201340D01*
X179086985Y-75130812D01*
X179086984Y-75130808D01*
X179085503Y-75125396D01*
X178987876Y-74920718D01*
X178855547Y-74736562D01*
X178692698Y-74578750D01*
X178625021Y-74533273D01*
X178509130Y-74455397D01*
X178509124Y-74455394D01*
X178504477Y-74452271D01*
X178424404Y-74417121D01*
X178370070Y-74371427D01*
X178349065Y-74303608D01*
X178368059Y-74235200D01*
X178421023Y-74187920D01*
X178430513Y-74183883D01*
X178439890Y-74180340D01*
X178439893Y-74180338D01*
X178445137Y-74178357D01*
X178639720Y-74061901D01*
X178643940Y-74058219D01*
X178643945Y-74058216D01*
X178806375Y-73916519D01*
X178810605Y-73912829D01*
X178821882Y-73898753D01*
X178948885Y-73740228D01*
X178948888Y-73740223D01*
X178952391Y-73735851D01*
X179060596Y-73536562D01*
X179131800Y-73321262D01*
X179163752Y-73096755D01*
X179165500Y-73030000D01*
X179145341Y-72804128D01*
X179106279Y-72661340D01*
X179086985Y-72590812D01*
X179086984Y-72590808D01*
X179085503Y-72585396D01*
X178987876Y-72380718D01*
X178855547Y-72196562D01*
X178692698Y-72038750D01*
X178565178Y-71953060D01*
X178509130Y-71915397D01*
X178509124Y-71915394D01*
X178504477Y-71912271D01*
X178424404Y-71877121D01*
X178370070Y-71831427D01*
X178349065Y-71763608D01*
X178368059Y-71695200D01*
X178421023Y-71647920D01*
X178430513Y-71643883D01*
X178439890Y-71640340D01*
X178439893Y-71640338D01*
X178445137Y-71638357D01*
X178639720Y-71521901D01*
X178643940Y-71518219D01*
X178643945Y-71518216D01*
X178806375Y-71376519D01*
X178810605Y-71372829D01*
X178821882Y-71358753D01*
X178948885Y-71200228D01*
X178948888Y-71200223D01*
X178952391Y-71195851D01*
X179060596Y-70996562D01*
X179131800Y-70781262D01*
X179163752Y-70556755D01*
X179165500Y-70490000D01*
X179145341Y-70264128D01*
X179106279Y-70121340D01*
X179086985Y-70050812D01*
X179086984Y-70050808D01*
X179085503Y-70045396D01*
X178987876Y-69840718D01*
X178855547Y-69656562D01*
X178692698Y-69498750D01*
X178565178Y-69413060D01*
X178509130Y-69375397D01*
X178509124Y-69375394D01*
X178504477Y-69372271D01*
X178499345Y-69370018D01*
X178499341Y-69370016D01*
X178423753Y-69336835D01*
X178369417Y-69291139D01*
X178348413Y-69223320D01*
X178367408Y-69154912D01*
X178420372Y-69107633D01*
X178429863Y-69103595D01*
X178439677Y-69099887D01*
X178449734Y-69095025D01*
X178575623Y-69019683D01*
X178585193Y-69009324D01*
X178581650Y-69000861D01*
X177902811Y-68322021D01*
X177888868Y-68314408D01*
X177887034Y-68314539D01*
X177880420Y-68318790D01*
X177201152Y-68998059D01*
X177194395Y-69010434D01*
X177199676Y-69017489D01*
X177342284Y-69100822D01*
X177356544Y-69107532D01*
X177409665Y-69154635D01*
X177428887Y-69222980D01*
X177408108Y-69290868D01*
X177360685Y-69333506D01*
X177289949Y-69370016D01*
X177206553Y-69413060D01*
X177026645Y-69551108D01*
X177022872Y-69555254D01*
X177022867Y-69555259D01*
X176934244Y-69652655D01*
X176874026Y-69718834D01*
X176753521Y-69910935D01*
X176668939Y-70121340D01*
X176622953Y-70343398D01*
X176617017Y-70570089D01*
X161381854Y-70570089D01*
X161383752Y-70556755D01*
X161385500Y-70490000D01*
X161365341Y-70264128D01*
X161326279Y-70121340D01*
X161306985Y-70050812D01*
X161306984Y-70050808D01*
X161305503Y-70045396D01*
X161207876Y-69840718D01*
X161075547Y-69656562D01*
X160912698Y-69498750D01*
X160785178Y-69413060D01*
X160729130Y-69375397D01*
X160729124Y-69375394D01*
X160724477Y-69372271D01*
X160719345Y-69370018D01*
X160719341Y-69370016D01*
X160643753Y-69336835D01*
X160589417Y-69291139D01*
X160568413Y-69223320D01*
X160587408Y-69154912D01*
X160640372Y-69107633D01*
X160649863Y-69103595D01*
X160659677Y-69099887D01*
X160669734Y-69095025D01*
X160795623Y-69019683D01*
X160805193Y-69009324D01*
X160801650Y-69000861D01*
X160122811Y-68322021D01*
X160108868Y-68314408D01*
X160107034Y-68314539D01*
X160100420Y-68318790D01*
X159421152Y-68998059D01*
X159414395Y-69010434D01*
X159419676Y-69017489D01*
X159562284Y-69100822D01*
X159576544Y-69107532D01*
X159629665Y-69154635D01*
X159648887Y-69222980D01*
X159628108Y-69290868D01*
X159580685Y-69333506D01*
X159509949Y-69370016D01*
X159426553Y-69413060D01*
X159246645Y-69551108D01*
X159242872Y-69555254D01*
X159242867Y-69555259D01*
X159154244Y-69652655D01*
X159094026Y-69718834D01*
X158973521Y-69910935D01*
X158888939Y-70121340D01*
X158842953Y-70343398D01*
X158837017Y-70570089D01*
X153931404Y-70570089D01*
X153931404Y-68024452D01*
X158837663Y-68024452D01*
X158838365Y-68035604D01*
X158870955Y-68248579D01*
X158873622Y-68259440D01*
X158943413Y-68463281D01*
X158947961Y-68473495D01*
X159039031Y-68637117D01*
X159049084Y-68647008D01*
X159056687Y-68644102D01*
X159737979Y-67962811D01*
X159744355Y-67951132D01*
X160474408Y-67951132D01*
X160474539Y-67952966D01*
X160478790Y-67959580D01*
X161160156Y-68640945D01*
X161172531Y-68647702D01*
X161178796Y-68643013D01*
X161277462Y-68461290D01*
X161281896Y-68451044D01*
X161349553Y-68246469D01*
X161352103Y-68235597D01*
X161355023Y-68215081D01*
X161384425Y-68150458D01*
X161444097Y-68111990D01*
X161515265Y-68111940D01*
X161522133Y-68113957D01*
X161530330Y-68117700D01*
X161590964Y-68126418D01*
X161670552Y-68137861D01*
X161670559Y-68137862D01*
X161675000Y-68138500D01*
X162675000Y-68138500D01*
X162748079Y-68133273D01*
X162826165Y-68110345D01*
X162879670Y-68094635D01*
X162879672Y-68094634D01*
X162888316Y-68092096D01*
X162976219Y-68035604D01*
X162993572Y-68024452D01*
X176617663Y-68024452D01*
X176618365Y-68035604D01*
X176650955Y-68248579D01*
X176653622Y-68259440D01*
X176723413Y-68463281D01*
X176727961Y-68473495D01*
X176819031Y-68637117D01*
X176829084Y-68647008D01*
X176836687Y-68644102D01*
X177517979Y-67962811D01*
X177524355Y-67951132D01*
X178254408Y-67951132D01*
X178254539Y-67952966D01*
X178258790Y-67959580D01*
X178940156Y-68640945D01*
X178952531Y-68647702D01*
X178958796Y-68643013D01*
X179057462Y-68461290D01*
X179061896Y-68451044D01*
X179129553Y-68246469D01*
X179132103Y-68235596D01*
X179162742Y-68020319D01*
X179163348Y-68013103D01*
X179164905Y-67953632D01*
X179164677Y-67946379D01*
X179145348Y-67729812D01*
X179143366Y-67718798D01*
X179086517Y-67510987D01*
X179082619Y-67500506D01*
X178989859Y-67306031D01*
X178984173Y-67296416D01*
X178960719Y-67263776D01*
X178949928Y-67255365D01*
X178936894Y-67262317D01*
X178262021Y-67937189D01*
X178254408Y-67951132D01*
X177524355Y-67951132D01*
X177525592Y-67948868D01*
X177525461Y-67947034D01*
X177521210Y-67940420D01*
X176843095Y-67262306D01*
X176830720Y-67255549D01*
X176822747Y-67261517D01*
X176756952Y-67366403D01*
X176751872Y-67376373D01*
X176671511Y-67576278D01*
X176668280Y-67586978D01*
X176624588Y-67797958D01*
X176623303Y-67809065D01*
X176617663Y-68024452D01*
X162993572Y-68024452D01*
X163003691Y-68017949D01*
X163003694Y-68017947D01*
X163011271Y-68013077D01*
X163054827Y-67962811D01*
X163101082Y-67909431D01*
X163101084Y-67909428D01*
X163106984Y-67902619D01*
X163167700Y-67769670D01*
X163177993Y-67698079D01*
X163187861Y-67629448D01*
X163187862Y-67629441D01*
X163188500Y-67625000D01*
X163188500Y-66825000D01*
X163183273Y-66751921D01*
X163142096Y-66611684D01*
X163111520Y-66564107D01*
X163067949Y-66496309D01*
X163067947Y-66496306D01*
X163063077Y-66488729D01*
X163013822Y-66446049D01*
X162959431Y-66398918D01*
X162959428Y-66398916D01*
X162952619Y-66393016D01*
X162819670Y-66332300D01*
X162810755Y-66331018D01*
X162810754Y-66331018D01*
X162679448Y-66312139D01*
X162679441Y-66312138D01*
X162675000Y-66311500D01*
X161675000Y-66311500D01*
X161601921Y-66316727D01*
X161548884Y-66332300D01*
X161470330Y-66355365D01*
X161470328Y-66355366D01*
X161461684Y-66357904D01*
X161454105Y-66362775D01*
X161346309Y-66432051D01*
X161346306Y-66432053D01*
X161338729Y-66436923D01*
X161332828Y-66443733D01*
X161248918Y-66540569D01*
X161248916Y-66540572D01*
X161243016Y-66547381D01*
X161182300Y-66680330D01*
X161181018Y-66689245D01*
X161181018Y-66689246D01*
X161162139Y-66820552D01*
X161162138Y-66820559D01*
X161161500Y-66825000D01*
X161161500Y-67205520D01*
X161141498Y-67273641D01*
X161124595Y-67294616D01*
X160482021Y-67937189D01*
X160474408Y-67951132D01*
X159744355Y-67951132D01*
X159745592Y-67948868D01*
X159745461Y-67947034D01*
X159741210Y-67940420D01*
X159063095Y-67262306D01*
X159050720Y-67255549D01*
X159042747Y-67261517D01*
X158976952Y-67366403D01*
X158971872Y-67376373D01*
X158891511Y-67576278D01*
X158888280Y-67586978D01*
X158844588Y-67797958D01*
X158843303Y-67809065D01*
X158837663Y-68024452D01*
X153931404Y-68024452D01*
X153931404Y-62560337D01*
X153933398Y-62538010D01*
X153934493Y-62531928D01*
X153935356Y-62527135D01*
X153936987Y-62458271D01*
X153937278Y-62445981D01*
X153939664Y-62424383D01*
X153954935Y-62347609D01*
X153962105Y-62323972D01*
X153984287Y-62270420D01*
X153989143Y-62258696D01*
X154000787Y-62236912D01*
X154031441Y-62191035D01*
X154040043Y-62178161D01*
X154055713Y-62159068D01*
X154105662Y-62109119D01*
X154124755Y-62093449D01*
X154183508Y-62054192D01*
X154205289Y-62042550D01*
X154270569Y-62015511D01*
X154294204Y-62008341D01*
X154313645Y-62004474D01*
X154370978Y-61993070D01*
X154392574Y-61990684D01*
X154465977Y-61988945D01*
X154470452Y-61988839D01*
X154474868Y-61988099D01*
X154474873Y-61988099D01*
X154483788Y-61986606D01*
X154504699Y-61984875D01*
X156343698Y-61986342D01*
G37*
%TD.AperFunction*%
%TD*%
M02*
