M48
; DRILL file {KiCad (5.99.0-8075-g8416c1fc37)} date 06/30/21 13:11:50
; FORMAT={-:-/ absolute / inch / decimal}
; #@! TF.CreationDate,2021-06-30T13:11:50+01:00
; #@! TF.GenerationSoftware,Kicad,Pcbnew,(5.99.0-8075-g8416c1fc37)
; #@! TF.FileFunction,Plated,1,2,PTH
FMAT,2
INCH
T1C0.0157
T2C0.0300
T3C0.0433
T4C0.1240
%
G90
G05
T1
X6.3937Y-4.811
X6.4173Y-4.1535
X6.422Y-3.196
X6.4764Y-4.1535
X6.5945Y-3.7205
X6.5945Y-3.7795
X6.5988Y-3.2874
X6.6339Y-3.128
X6.6929Y-3.6811
X6.7421Y-4.0256
X6.7717Y-3.6811
X6.8012Y-3.7264
X6.8188Y-3.3548
X6.8209Y-4.0256
X6.8602Y-3.7402
X6.8632Y-3.4252
X6.8701Y-3.1467
X6.8799Y-3.8386
X6.8898Y-4.5945
T2
X6.3035Y-2.4752
X6.3035Y-2.5752
X6.3035Y-2.6752
X6.3035Y-2.7752
X6.3035Y-2.8752
X6.3035Y-2.9752
X6.3035Y-3.0752
X6.3035Y-3.1752
X6.3035Y-3.2752
X6.3035Y-3.3752
X6.3035Y-3.4752
X6.3035Y-3.5752
X6.3035Y-3.6752
X6.3035Y-3.7752
X6.3035Y-3.8752
X6.3035Y-3.9752
X6.3035Y-4.0752
X6.3035Y-4.1752
X6.3035Y-4.2752
X6.3035Y-4.3752
X7.0035Y-2.4752
X7.0035Y-2.5752
X7.0035Y-2.6752
X7.0035Y-2.7752
X7.0035Y-2.8752
X7.0035Y-2.9752
X7.0035Y-3.0752
X7.0035Y-3.1752
X7.0035Y-3.2752
X7.0035Y-3.3752
X7.0035Y-3.4752
X7.0035Y-3.5752
X7.0035Y-3.6752
X7.0035Y-3.7752
X7.0035Y-3.8752
X7.0035Y-3.9752
X7.0035Y-4.0752
X7.0035Y-4.1752
X7.0035Y-4.2752
X7.0035Y-4.3752
T3
X6.4616Y-4.5642
X6.4616Y-4.7642
X6.5067Y-4.6642
X6.5518Y-4.5642
X6.5518Y-4.7642
X6.5969Y-4.6642
X6.6419Y-4.5642
X6.6419Y-4.7642
X6.687Y-4.6642
X6.7321Y-4.5642
X6.7321Y-4.7642
X6.7772Y-4.6642
X6.8222Y-4.5642
X6.8222Y-4.7642
X6.8674Y-4.6642
T4
X6.1598Y-4.6642
X7.1437Y-4.6642
T0
M30
