%TF.GenerationSoftware,KiCad,Pcbnew,(5.99.0-8075-g8416c1fc37)*%
%TF.CreationDate,2021-06-27T17:30:08+01:00*%
%TF.ProjectId,picovga,7069636f-7667-4612-9e6b-696361645f70,rev?*%
%TF.SameCoordinates,Original*%
%TF.FileFunction,Copper,L1,Top*%
%TF.FilePolarity,Positive*%
%FSLAX46Y46*%
G04 Gerber Fmt 4.6, Leading zero omitted, Abs format (unit mm)*
G04 Created by KiCad (PCBNEW (5.99.0-8075-g8416c1fc37)) date 2021-06-27 17:30:08*
%MOMM*%
%LPD*%
G01*
G04 APERTURE LIST*
G04 Aperture macros list*
%AMRoundRect*
0 Rectangle with rounded corners*
0 $1 Rounding radius*
0 $2 $3 $4 $5 $6 $7 $8 $9 X,Y pos of 4 corners*
0 Add a 4 corners polygon primitive as box body*
4,1,4,$2,$3,$4,$5,$6,$7,$8,$9,$2,$3,0*
0 Add four circle primitives for the rounded corners*
1,1,$1+$1,$2,$3,0*
1,1,$1+$1,$4,$5,0*
1,1,$1+$1,$6,$7,0*
1,1,$1+$1,$8,$9,0*
0 Add four rect primitives between the rounded corners*
20,1,$1+$1,$2,$3,$4,$5,0*
20,1,$1+$1,$4,$5,$6,$7,0*
20,1,$1+$1,$6,$7,$8,$9,0*
20,1,$1+$1,$8,$9,$2,$3,0*%
G04 Aperture macros list end*
%TA.AperFunction,ComponentPad*%
%ADD10R,1.524000X1.524000*%
%TD*%
%TA.AperFunction,ComponentPad*%
%ADD11C,1.524000*%
%TD*%
%TA.AperFunction,SMDPad,CuDef*%
%ADD12RoundRect,0.250000X-0.350000X-0.450000X0.350000X-0.450000X0.350000X0.450000X-0.350000X0.450000X0*%
%TD*%
%TA.AperFunction,SMDPad,CuDef*%
%ADD13RoundRect,0.250000X0.350000X0.450000X-0.350000X0.450000X-0.350000X-0.450000X0.350000X-0.450000X0*%
%TD*%
%TA.AperFunction,SMDPad,CuDef*%
%ADD14RoundRect,0.250000X-0.475000X0.337500X-0.475000X-0.337500X0.475000X-0.337500X0.475000X0.337500X0*%
%TD*%
%TA.AperFunction,SMDPad,CuDef*%
%ADD15RoundRect,0.250000X-0.450000X0.350000X-0.450000X-0.350000X0.450000X-0.350000X0.450000X0.350000X0*%
%TD*%
%TA.AperFunction,ComponentPad*%
%ADD16C,4.000000*%
%TD*%
%TA.AperFunction,ComponentPad*%
%ADD17R,1.600000X1.600000*%
%TD*%
%TA.AperFunction,ComponentPad*%
%ADD18C,1.600000*%
%TD*%
%TA.AperFunction,SMDPad,CuDef*%
%ADD19RoundRect,0.250000X0.450000X-0.350000X0.450000X0.350000X-0.450000X0.350000X-0.450000X-0.350000X0*%
%TD*%
%TA.AperFunction,ViaPad*%
%ADD20C,0.800000*%
%TD*%
%TA.AperFunction,Conductor*%
%ADD21C,0.250000*%
%TD*%
G04 APERTURE END LIST*
D10*
%TO.P,U0,1,GP0*%
%TO.N,R0*%
X160110000Y-62870000D03*
D11*
%TO.P,U0,2,GP1*%
%TO.N,R1*%
X160110000Y-65410000D03*
%TO.P,U0,3,GND*%
%TO.N,GND*%
X160110000Y-67950000D03*
%TO.P,U0,4,GP2*%
%TO.N,R2*%
X160110000Y-70490000D03*
%TO.P,U0,5,GP3*%
%TO.N,R3*%
X160110000Y-73030000D03*
%TO.P,U0,6,GP4*%
%TO.N,G0*%
X160110000Y-75570000D03*
%TO.P,U0,7,GP5*%
%TO.N,G1*%
X160110000Y-78110000D03*
%TO.P,U0,8,GND*%
%TO.N,GND*%
X160110000Y-80650000D03*
%TO.P,U0,9,GP6*%
%TO.N,G2*%
X160110000Y-83190000D03*
%TO.P,U0,10,GP7*%
%TO.N,G3*%
X160110000Y-85730000D03*
%TO.P,U0,11,GP8*%
%TO.N,B0*%
X160110000Y-88270000D03*
%TO.P,U0,12,GP9*%
%TO.N,B1*%
X160110000Y-90810000D03*
%TO.P,U0,13,GND*%
%TO.N,GND*%
X160110000Y-93350000D03*
%TO.P,U0,14,GP10*%
%TO.N,B2*%
X160110000Y-95890000D03*
%TO.P,U0,15,GP11*%
%TO.N,B3*%
X160110000Y-98430000D03*
%TO.P,U0,16,GP12*%
%TO.N,Net-(R13-Pad2)*%
X160110000Y-100970000D03*
%TO.P,U0,17,GP13*%
%TO.N,Net-(R14-Pad1)*%
X160110000Y-103510000D03*
%TO.P,U0,18,GND*%
%TO.N,GND*%
X160110000Y-106050000D03*
%TO.P,U0,19,GP14*%
%TO.N,no_connect_32*%
X160110000Y-108590000D03*
%TO.P,U0,20,GP15*%
%TO.N,no_connect_33*%
X160110000Y-111130000D03*
%TO.P,U0,21,GP16*%
%TO.N,no_connect_34*%
X177890000Y-111130000D03*
%TO.P,U0,22,GP17*%
%TO.N,GP17*%
X177890000Y-108590000D03*
%TO.P,U0,23,GND*%
%TO.N,GND*%
X177890000Y-106050000D03*
%TO.P,U0,24,GP18*%
%TO.N,GP18*%
X177890000Y-103510000D03*
%TO.P,U0,25,GP19*%
%TO.N,GP19*%
X177890000Y-100970000D03*
%TO.P,U0,26,GP20*%
%TO.N,GP20*%
X177890000Y-98430000D03*
%TO.P,U0,27,GP21*%
%TO.N,GP21*%
X177890000Y-95890000D03*
%TO.P,U0,28,GND*%
%TO.N,GND*%
X177890000Y-93350000D03*
%TO.P,U0,29,GP22*%
%TO.N,GP22*%
X177890000Y-90810000D03*
%TO.P,U0,30,RUN*%
%TO.N,no_connect_35*%
X177890000Y-88270000D03*
%TO.P,U0,31,GP26*%
%TO.N,no_connect_36*%
X177890000Y-85730000D03*
%TO.P,U0,32,GP27*%
%TO.N,no_connect_37*%
X177890000Y-83190000D03*
%TO.P,U0,33,GND*%
%TO.N,GND*%
X177890000Y-80650000D03*
%TO.P,U0,34,GP28*%
%TO.N,no_connect_38*%
X177890000Y-78110000D03*
%TO.P,U0,35,ADC_VREF*%
%TO.N,no_connect_39*%
X177890000Y-75570000D03*
%TO.P,U0,36,3V3*%
%TO.N,+3V3*%
X177890000Y-73030000D03*
%TO.P,U0,37,3V3_EN*%
%TO.N,no_connect_40*%
X177890000Y-70490000D03*
%TO.P,U0,38,GND*%
%TO.N,GND*%
X177890000Y-67950000D03*
%TO.P,U0,39,VSYS*%
%TO.N,no_connect_41*%
X177890000Y-65410000D03*
%TO.P,U0,40,VBUS*%
%TO.N,no_connect_42*%
X177890000Y-62870000D03*
%TD*%
D12*
%TO.P,R12,1*%
%TO.N,B3*%
X162380343Y-98426662D03*
%TO.P,R12,2*%
%TO.N,VGA_B*%
X164380343Y-98426662D03*
%TD*%
D13*
%TO.P,R13,1*%
%TO.N,HSYNC*%
X164383744Y-100964363D03*
%TO.P,R13,2*%
%TO.N,Net-(R13-Pad2)*%
X162383744Y-100964363D03*
%TD*%
D12*
%TO.P,R6,1*%
%TO.N,G1*%
X162375390Y-78108531D03*
%TO.P,R6,2*%
%TO.N,VGA_G*%
X164375390Y-78108531D03*
%TD*%
%TO.P,R8,1*%
%TO.N,G3*%
X162383299Y-85730358D03*
%TO.P,R8,2*%
%TO.N,VGA_G*%
X164383299Y-85730358D03*
%TD*%
%TO.P,R4,1*%
%TO.N,R3*%
X162378463Y-73019919D03*
%TO.P,R4,2*%
%TO.N,VGA_R*%
X164378463Y-73019919D03*
%TD*%
%TO.P,R11,1*%
%TO.N,B2*%
X162379298Y-95886606D03*
%TO.P,R11,2*%
%TO.N,VGA_B*%
X164379298Y-95886606D03*
%TD*%
D14*
%TO.P,C1,1*%
%TO.N,+3V3*%
X171500000Y-82462500D03*
%TO.P,C1,2*%
%TO.N,GND*%
X171500000Y-84537500D03*
%TD*%
D15*
%TO.P,R16,1*%
%TO.N,+3V3*%
X169250000Y-82500000D03*
%TO.P,R16,2*%
%TO.N,GP20*%
X169250000Y-84500000D03*
%TD*%
D16*
%TO.P,J1,0*%
%TO.N,GND*%
X156485000Y-118010000D03*
X181485000Y-118010000D03*
D17*
%TO.P,J1,1*%
%TO.N,VGA_R*%
X173300000Y-115960000D03*
D18*
%TO.P,J1,2*%
%TO.N,VGA_G*%
X171010000Y-115960000D03*
%TO.P,J1,3*%
%TO.N,VGA_B*%
X168720000Y-115960000D03*
%TO.P,J1,4*%
%TO.N,no_connect_31*%
X166430000Y-115960000D03*
%TO.P,J1,5*%
%TO.N,GND*%
X164140000Y-115960000D03*
%TO.P,J1,6*%
X174445000Y-117940000D03*
%TO.P,J1,7*%
X172155000Y-117940000D03*
%TO.P,J1,8*%
X169865000Y-117940000D03*
%TO.P,J1,9*%
X167575000Y-117940000D03*
%TO.P,J1,10*%
X165285000Y-117940000D03*
%TO.P,J1,11*%
%TO.N,no_connect_28*%
X173300000Y-119920000D03*
%TO.P,J1,12*%
%TO.N,no_connect_29*%
X171010000Y-119920000D03*
%TO.P,J1,13*%
%TO.N,HSYNC*%
X168720000Y-119920000D03*
%TO.P,J1,14*%
%TO.N,VSYNC*%
X166430000Y-119920000D03*
%TO.P,J1,15*%
%TO.N,no_connect_30*%
X164140000Y-119920000D03*
%TD*%
D12*
%TO.P,R2,1*%
%TO.N,R1*%
X162382505Y-65410218D03*
%TO.P,R2,2*%
%TO.N,VGA_R*%
X164382505Y-65410218D03*
%TD*%
%TO.P,R14,1*%
%TO.N,Net-(R14-Pad1)*%
X162390090Y-103521542D03*
%TO.P,R14,2*%
%TO.N,VSYNC*%
X164390090Y-103521542D03*
%TD*%
%TO.P,R3,1*%
%TO.N,R2*%
X162382505Y-70515877D03*
%TO.P,R3,2*%
%TO.N,VGA_R*%
X164382505Y-70515877D03*
%TD*%
%TO.P,R10,1*%
%TO.N,B1*%
X162381824Y-90808651D03*
%TO.P,R10,2*%
%TO.N,VGA_B*%
X164381824Y-90808651D03*
%TD*%
%TO.P,R1,1*%
%TO.N,R0*%
X162382505Y-62880196D03*
%TO.P,R1,2*%
%TO.N,VGA_R*%
X164382505Y-62880196D03*
%TD*%
%TO.P,R5,1*%
%TO.N,G0*%
X162386041Y-75569627D03*
%TO.P,R5,2*%
%TO.N,VGA_G*%
X164386041Y-75569627D03*
%TD*%
%TO.P,R7,1*%
%TO.N,G2*%
X162379871Y-83198224D03*
%TO.P,R7,2*%
%TO.N,VGA_G*%
X164379871Y-83198224D03*
%TD*%
%TO.P,R9,1*%
%TO.N,B0*%
X162380037Y-88273194D03*
%TO.P,R9,2*%
%TO.N,VGA_B*%
X164380037Y-88273194D03*
%TD*%
D19*
%TO.P,R15,1*%
%TO.N,+3V3*%
X174500000Y-84000000D03*
%TO.P,R15,2*%
%TO.N,GP21*%
X174500000Y-82000000D03*
%TD*%
D20*
%TO.N,VSYNC*%
X164500000Y-122225000D03*
%TO.N,GND*%
X171500000Y-87250000D03*
%TO.N,+3V3*%
X168500000Y-79450000D03*
%TO.N,GP19*%
X174750000Y-97500000D03*
%TO.N,GP21*%
X174500000Y-79925000D03*
%TO.N,GP20*%
X174250000Y-95000000D03*
X174324980Y-87000000D03*
%TD*%
D21*
%TO.N,+3V3*%
X176000000Y-78500000D02*
X176000000Y-74000000D01*
X175500000Y-79000000D02*
X176000000Y-78500000D01*
X171750000Y-80250000D02*
X173000000Y-79000000D01*
X173000000Y-79000000D02*
X175500000Y-79000000D01*
X176000000Y-74000000D02*
X176970000Y-73030000D01*
X176970000Y-73030000D02*
X177890000Y-73030000D01*
%TO.N,VGA_B*%
X164380343Y-98426662D02*
X167426662Y-98426662D01*
X167426662Y-98426662D02*
X169419999Y-100419999D01*
X169419999Y-100419999D02*
X169420002Y-112942850D01*
X169420002Y-112942850D02*
X170000000Y-113522848D01*
X170000000Y-113522848D02*
X170000000Y-114680000D01*
X170000000Y-114680000D02*
X169546788Y-115133212D01*
X169546788Y-115133212D02*
X168720000Y-115960000D01*
%TO.N,VGA_G*%
X164383299Y-85730358D02*
X164980358Y-85730358D01*
X164980358Y-85730358D02*
X166250000Y-87000000D01*
X166250000Y-87000000D02*
X166250000Y-96613576D01*
X166250000Y-96613576D02*
X169870019Y-100233595D01*
X169870019Y-100233595D02*
X169870021Y-112756445D01*
X169870021Y-112756445D02*
X170500000Y-113386424D01*
X170500000Y-113386424D02*
X170500000Y-115450000D01*
X170500000Y-115450000D02*
X171010000Y-115960000D01*
%TO.N,VGA_R*%
X170320040Y-112570040D02*
X173300000Y-115550000D01*
X173300000Y-115550000D02*
X173300000Y-115960000D01*
%TO.N,HSYNC*%
X164383744Y-100964363D02*
X166000000Y-102580619D01*
X166000000Y-102580619D02*
X166000000Y-103613576D01*
X166000000Y-103613576D02*
X166450020Y-104063596D01*
X166450020Y-104063596D02*
X166450019Y-111436405D01*
X166450019Y-111436405D02*
X165186404Y-112700020D01*
X163777132Y-112700020D02*
X162500000Y-113977152D01*
X165186404Y-112700020D02*
X163777132Y-112700020D01*
X162500000Y-113977152D02*
X162500001Y-120500001D01*
X162500001Y-120500001D02*
X163500000Y-121500000D01*
X163500000Y-121500000D02*
X168000000Y-121500000D01*
X168720000Y-120780000D02*
X168720000Y-119920000D01*
X168000000Y-121500000D02*
X168720000Y-120780000D01*
%TO.N,VSYNC*%
X164390090Y-103521542D02*
X165271542Y-103521542D01*
X165271542Y-103521542D02*
X166000000Y-104250000D01*
X165000000Y-112250000D02*
X163590728Y-112250000D01*
X166000000Y-104250000D02*
X166000000Y-111250000D01*
X166000000Y-111250000D02*
X165000000Y-112250000D01*
X163590728Y-112250000D02*
X162049980Y-113790748D01*
X162049980Y-113790748D02*
X162049981Y-120686405D01*
X162049981Y-120686405D02*
X163588576Y-122225000D01*
X163588576Y-122225000D02*
X163725000Y-122225000D01*
X163725000Y-122225000D02*
X164500000Y-122225000D01*
%TO.N,Net-(R15-Pad1)*%
X171500000Y-81750000D02*
X171500000Y-82462500D01*
X168750000Y-80250000D02*
X170000000Y-80250000D01*
X168500000Y-80000000D02*
X168750000Y-80250000D01*
X170000000Y-80250000D02*
X171500000Y-81750000D01*
X172000000Y-80500000D02*
X172500000Y-81000000D01*
X170000000Y-80250000D02*
X171750000Y-80250000D01*
X174000000Y-84000000D02*
X174500000Y-84000000D01*
X169250000Y-80750000D02*
X169250000Y-82500000D01*
X173000000Y-83000000D02*
X174000000Y-84000000D01*
X168750000Y-80250000D02*
X169250000Y-80750000D01*
X168500000Y-79450000D02*
X168500000Y-80000000D01*
X171750000Y-80250000D02*
X172000000Y-80500000D01*
X173000000Y-81500000D02*
X173000000Y-83000000D01*
X172000000Y-80500000D02*
X173000000Y-81500000D01*
%TO.N,GP19*%
X174750000Y-97500000D02*
X174750000Y-97830000D01*
X174750000Y-97830000D02*
X177890000Y-100970000D01*
%TO.N,VGA_B*%
X164379298Y-95886606D02*
X164379298Y-98425617D01*
X164381824Y-95884080D02*
X164379298Y-95886606D01*
X164380037Y-88273194D02*
X164380037Y-90806864D01*
X164381824Y-90808651D02*
X164381824Y-95884080D01*
X164380037Y-90806864D02*
X164381824Y-90808651D01*
X164379298Y-98425617D02*
X164380343Y-98426662D01*
%TO.N,VGA_G*%
X164375390Y-78108531D02*
X164375390Y-83193743D01*
X164379871Y-83198224D02*
X164379871Y-85726930D01*
X164386041Y-75569627D02*
X164386041Y-78097880D01*
X164379871Y-85726930D02*
X164383299Y-85730358D01*
X164375390Y-83193743D02*
X164379871Y-83198224D01*
X164386041Y-78097880D02*
X164375390Y-78108531D01*
%TO.N,VGA_R*%
X164382505Y-62880196D02*
X164382505Y-65410218D01*
X170320040Y-112570040D02*
X170320039Y-100047191D01*
X164378463Y-73019919D02*
X164378463Y-70519919D01*
X170320039Y-100047191D02*
X166700020Y-96427172D01*
X164378463Y-70519919D02*
X164382505Y-70515877D01*
X164382505Y-70515877D02*
X164382505Y-65410218D01*
X166700020Y-96427172D02*
X166700020Y-75341476D01*
X166700020Y-75341476D02*
X164378463Y-73019919D01*
%TO.N,R0*%
X160110000Y-62870000D02*
X162372309Y-62870000D01*
X162372309Y-62870000D02*
X162382505Y-62880196D01*
%TO.N,R1*%
X162382287Y-65410000D02*
X162382505Y-65410218D01*
X160110000Y-65410000D02*
X162382287Y-65410000D01*
%TO.N,R2*%
X160110000Y-70490000D02*
X162356628Y-70490000D01*
X162356628Y-70490000D02*
X162382505Y-70515877D01*
%TO.N,R3*%
X162368382Y-73030000D02*
X162378463Y-73019919D01*
X160110000Y-73030000D02*
X162368382Y-73030000D01*
%TO.N,G0*%
X160110000Y-75570000D02*
X162385668Y-75570000D01*
X162385668Y-75570000D02*
X162386041Y-75569627D01*
%TO.N,G1*%
X162373921Y-78110000D02*
X162375390Y-78108531D01*
X160110000Y-78110000D02*
X162373921Y-78110000D01*
%TO.N,G2*%
X160110000Y-83190000D02*
X162371647Y-83190000D01*
X162371647Y-83190000D02*
X162379871Y-83198224D01*
%TO.N,G3*%
X160110000Y-85730000D02*
X162382941Y-85730000D01*
X162382941Y-85730000D02*
X162383299Y-85730358D01*
%TO.N,B0*%
X162376843Y-88270000D02*
X162380037Y-88273194D01*
X160110000Y-88270000D02*
X162376843Y-88270000D01*
%TO.N,B1*%
X162380475Y-90810000D02*
X162381824Y-90808651D01*
X160110000Y-90810000D02*
X162380475Y-90810000D01*
%TO.N,B2*%
X160110000Y-95890000D02*
X162375904Y-95890000D01*
X162375904Y-95890000D02*
X162379298Y-95886606D01*
%TO.N,B3*%
X160110000Y-98430000D02*
X162377005Y-98430000D01*
X162377005Y-98430000D02*
X162380343Y-98426662D01*
%TO.N,Net-(R13-Pad2)*%
X160110000Y-100970000D02*
X162378107Y-100970000D01*
X162378107Y-100970000D02*
X162383744Y-100964363D01*
%TO.N,Net-(R14-Pad1)*%
X160110000Y-103510000D02*
X162378548Y-103510000D01*
X162378548Y-103510000D02*
X162390090Y-103521542D01*
%TO.N,GP21*%
X175500000Y-80000000D02*
X176000000Y-80500000D01*
X174500000Y-79925000D02*
X174575000Y-80000000D01*
X174575000Y-80000000D02*
X175500000Y-80000000D01*
X174500000Y-79925000D02*
X174500000Y-82000000D01*
X176000000Y-94000000D02*
X177890000Y-95890000D01*
X176000000Y-80500000D02*
X176000000Y-94000000D01*
%TO.N,GP20*%
X174025000Y-86025000D02*
X174324980Y-86324980D01*
X174250000Y-95000000D02*
X177680000Y-98430000D01*
X174324980Y-86324980D02*
X174324980Y-87000000D01*
X177680000Y-98430000D02*
X177890000Y-98430000D01*
X169250000Y-84500000D02*
X170775000Y-86025000D01*
X170775000Y-86025000D02*
X174025000Y-86025000D01*
%TD*%
%TA.AperFunction,Conductor*%
%TO.N,GND*%
G36*
X172779128Y-61999450D02*
G01*
X176706727Y-62002582D01*
X176774832Y-62022638D01*
X176821282Y-62076331D01*
X176831330Y-62146613D01*
X176813366Y-62195535D01*
X176753521Y-62290935D01*
X176668939Y-62501340D01*
X176622953Y-62723398D01*
X176617017Y-62950089D01*
X176651318Y-63174249D01*
X176724773Y-63388793D01*
X176835059Y-63586937D01*
X176838612Y-63591277D01*
X176838614Y-63591281D01*
X176937063Y-63711562D01*
X176978690Y-63762421D01*
X176982953Y-63766062D01*
X176982958Y-63766067D01*
X177108750Y-63873503D01*
X177151127Y-63909696D01*
X177197031Y-63936520D01*
X177340473Y-64020340D01*
X177346919Y-64024107D01*
X177352196Y-64026038D01*
X177355983Y-64027820D01*
X177409104Y-64074923D01*
X177428327Y-64143268D01*
X177407548Y-64211156D01*
X177360125Y-64253795D01*
X177289943Y-64290019D01*
X177206553Y-64333060D01*
X177026645Y-64471108D01*
X177022872Y-64475254D01*
X177022867Y-64475259D01*
X176934244Y-64572655D01*
X176874026Y-64638834D01*
X176871043Y-64643590D01*
X176871041Y-64643592D01*
X176778041Y-64791847D01*
X176753521Y-64830935D01*
X176668939Y-65041340D01*
X176622953Y-65263398D01*
X176617017Y-65490089D01*
X176651318Y-65714249D01*
X176724773Y-65928793D01*
X176835059Y-66126937D01*
X176838612Y-66131277D01*
X176838614Y-66131281D01*
X176896564Y-66202082D01*
X176978690Y-66302421D01*
X176982953Y-66306062D01*
X176982958Y-66306067D01*
X177063362Y-66374738D01*
X177151127Y-66449696D01*
X177194863Y-66475253D01*
X177340466Y-66560336D01*
X177346919Y-66564107D01*
X177352185Y-66566034D01*
X177356554Y-66568090D01*
X177409674Y-66615194D01*
X177428895Y-66683539D01*
X177408114Y-66751427D01*
X177360693Y-66794063D01*
X177211803Y-66870910D01*
X177202372Y-66876895D01*
X177201883Y-66877271D01*
X177193418Y-66888863D01*
X177200050Y-66900839D01*
X177877189Y-67577979D01*
X177891132Y-67585592D01*
X177892966Y-67585461D01*
X177899580Y-67581210D01*
X178577460Y-66903329D01*
X178583682Y-66891935D01*
X178573870Y-66879502D01*
X178508892Y-66835838D01*
X178499098Y-66830454D01*
X178423739Y-66797373D01*
X178369404Y-66751677D01*
X178348399Y-66683859D01*
X178367394Y-66615450D01*
X178420358Y-66568171D01*
X178429828Y-66564142D01*
X178445137Y-66558357D01*
X178467270Y-66545111D01*
X178598548Y-66466542D01*
X178639720Y-66441901D01*
X178643940Y-66438219D01*
X178643945Y-66438216D01*
X178806375Y-66296519D01*
X178810605Y-66292829D01*
X178883307Y-66202082D01*
X178948885Y-66120228D01*
X178948888Y-66120223D01*
X178952391Y-66115851D01*
X179060596Y-65916562D01*
X179131800Y-65701262D01*
X179163752Y-65476755D01*
X179165500Y-65410000D01*
X179145341Y-65184128D01*
X179106279Y-65041340D01*
X179086985Y-64970812D01*
X179086984Y-64970808D01*
X179085503Y-64965396D01*
X178987876Y-64760718D01*
X178855547Y-64576562D01*
X178692698Y-64418750D01*
X178596182Y-64353894D01*
X178509130Y-64295397D01*
X178509124Y-64295394D01*
X178504477Y-64292271D01*
X178424404Y-64257121D01*
X178370070Y-64211427D01*
X178349065Y-64143608D01*
X178368059Y-64075200D01*
X178421023Y-64027920D01*
X178430513Y-64023883D01*
X178439890Y-64020340D01*
X178439893Y-64020338D01*
X178445137Y-64018357D01*
X178450598Y-64015089D01*
X178581876Y-63936520D01*
X178639720Y-63901901D01*
X178643940Y-63898219D01*
X178643945Y-63898216D01*
X178806375Y-63756519D01*
X178810605Y-63752829D01*
X178900220Y-63640971D01*
X178948885Y-63580228D01*
X178948888Y-63580223D01*
X178952391Y-63575851D01*
X179060596Y-63376562D01*
X179131800Y-63161262D01*
X179163752Y-62936755D01*
X179165500Y-62870000D01*
X179145341Y-62644128D01*
X179105794Y-62499567D01*
X179086985Y-62430812D01*
X179086984Y-62430808D01*
X179085503Y-62425396D01*
X178987876Y-62220718D01*
X178975863Y-62204000D01*
X178952355Y-62137008D01*
X178968796Y-62067942D01*
X179019968Y-62018729D01*
X179078283Y-62004474D01*
X183054010Y-62007644D01*
X183416206Y-62007933D01*
X183438425Y-62009927D01*
X183449675Y-62011952D01*
X183506386Y-62013295D01*
X183530828Y-62013874D01*
X183552426Y-62016260D01*
X183629200Y-62031531D01*
X183652836Y-62038701D01*
X183718113Y-62065739D01*
X183739898Y-62077383D01*
X183798649Y-62116639D01*
X183817742Y-62132309D01*
X183867691Y-62182258D01*
X183883360Y-62201350D01*
X183922618Y-62260104D01*
X183934260Y-62281885D01*
X183961299Y-62347165D01*
X183968469Y-62370800D01*
X183983424Y-62445981D01*
X183983740Y-62447572D01*
X183986126Y-62469170D01*
X183987384Y-62522269D01*
X183987971Y-62547048D01*
X183988710Y-62551460D01*
X183988711Y-62551472D01*
X183990269Y-62560776D01*
X183992000Y-62581587D01*
X183992000Y-116883483D01*
X183971998Y-116951604D01*
X183918342Y-116998097D01*
X183848068Y-117008201D01*
X183783488Y-116978707D01*
X183751992Y-116937131D01*
X183688846Y-116802939D01*
X183685035Y-116796006D01*
X183520186Y-116536246D01*
X183515532Y-116529841D01*
X183440533Y-116439183D01*
X183428015Y-116430728D01*
X183417276Y-116436935D01*
X181857020Y-117997190D01*
X181849408Y-118011131D01*
X181849539Y-118012966D01*
X181853790Y-118019580D01*
X183416174Y-119581963D01*
X183429436Y-119589205D01*
X183439540Y-119582017D01*
X183515532Y-119490159D01*
X183520186Y-119483754D01*
X183685035Y-119223994D01*
X183688846Y-119217061D01*
X183751992Y-119082869D01*
X183799094Y-119029748D01*
X183867439Y-119010525D01*
X183935327Y-119031304D01*
X183981204Y-119085487D01*
X183992000Y-119136517D01*
X183992000Y-122365527D01*
X183971998Y-122433648D01*
X183918342Y-122480141D01*
X183865906Y-122491527D01*
X181632235Y-122489860D01*
X165526768Y-122477842D01*
X165458663Y-122457789D01*
X165412210Y-122404099D01*
X165401553Y-122338672D01*
X165411258Y-122246330D01*
X165438271Y-122180673D01*
X165496492Y-122140043D01*
X165536568Y-122133500D01*
X167921617Y-122133500D01*
X167932521Y-122134014D01*
X167939912Y-122135666D01*
X167947837Y-122135417D01*
X167947838Y-122135417D01*
X168006853Y-122133562D01*
X168010811Y-122133500D01*
X168039578Y-122133500D01*
X168043502Y-122133004D01*
X168043504Y-122133004D01*
X168043852Y-122132960D01*
X168055698Y-122132027D01*
X168099883Y-122130638D01*
X168119339Y-122124986D01*
X168138679Y-122120981D01*
X168158788Y-122118440D01*
X168166158Y-122115522D01*
X168166162Y-122115521D01*
X168199900Y-122102163D01*
X168211130Y-122098318D01*
X168245968Y-122088197D01*
X168245969Y-122088197D01*
X168253578Y-122085986D01*
X168271012Y-122075676D01*
X168288764Y-122066980D01*
X168300225Y-122062442D01*
X168300224Y-122062442D01*
X168307600Y-122059522D01*
X168343375Y-122033530D01*
X168353294Y-122027014D01*
X168391341Y-122004513D01*
X168391759Y-122004145D01*
X168405842Y-121990062D01*
X168420876Y-121977221D01*
X168430669Y-121970106D01*
X168437083Y-121965446D01*
X168465030Y-121931664D01*
X168473019Y-121922885D01*
X169112525Y-121283379D01*
X169120604Y-121276028D01*
X169126994Y-121271973D01*
X169172845Y-121223147D01*
X169175600Y-121220305D01*
X169195938Y-121199967D01*
X169198588Y-121196551D01*
X169206298Y-121187523D01*
X169231130Y-121161080D01*
X169236557Y-121155301D01*
X169240668Y-121147823D01*
X169241007Y-121147486D01*
X169245037Y-121141939D01*
X169245931Y-121142589D01*
X169291007Y-121097762D01*
X169297821Y-121094329D01*
X169344319Y-121072647D01*
X169371763Y-121059850D01*
X169371768Y-121059847D01*
X169376750Y-121057524D01*
X169409519Y-121034579D01*
X169559791Y-120929358D01*
X169559794Y-120929356D01*
X169564302Y-120926199D01*
X169726199Y-120764302D01*
X169750288Y-120729900D01*
X169761787Y-120713477D01*
X169817244Y-120669149D01*
X169887863Y-120661840D01*
X169951224Y-120693871D01*
X169968213Y-120713477D01*
X169979713Y-120729900D01*
X170003801Y-120764302D01*
X170165698Y-120926199D01*
X170170206Y-120929356D01*
X170170209Y-120929358D01*
X170320481Y-121034579D01*
X170353250Y-121057524D01*
X170358232Y-121059847D01*
X170358237Y-121059850D01*
X170546174Y-121147486D01*
X170560757Y-121154286D01*
X170566065Y-121155708D01*
X170566067Y-121155709D01*
X170776598Y-121212121D01*
X170776600Y-121212121D01*
X170781913Y-121213545D01*
X171010000Y-121233500D01*
X171238087Y-121213545D01*
X171243400Y-121212121D01*
X171243402Y-121212121D01*
X171453933Y-121155709D01*
X171453935Y-121155708D01*
X171459243Y-121154286D01*
X171473826Y-121147486D01*
X171661763Y-121059850D01*
X171661768Y-121059847D01*
X171666750Y-121057524D01*
X171699519Y-121034579D01*
X171849791Y-120929358D01*
X171849794Y-120929356D01*
X171854302Y-120926199D01*
X172016199Y-120764302D01*
X172040288Y-120729900D01*
X172051787Y-120713477D01*
X172107244Y-120669149D01*
X172177863Y-120661840D01*
X172241224Y-120693871D01*
X172258213Y-120713477D01*
X172269713Y-120729900D01*
X172293801Y-120764302D01*
X172455698Y-120926199D01*
X172460206Y-120929356D01*
X172460209Y-120929358D01*
X172610481Y-121034579D01*
X172643250Y-121057524D01*
X172648232Y-121059847D01*
X172648237Y-121059850D01*
X172836174Y-121147486D01*
X172850757Y-121154286D01*
X172856065Y-121155708D01*
X172856067Y-121155709D01*
X173066598Y-121212121D01*
X173066600Y-121212121D01*
X173071913Y-121213545D01*
X173300000Y-121233500D01*
X173528087Y-121213545D01*
X173533400Y-121212121D01*
X173533402Y-121212121D01*
X173743933Y-121155709D01*
X173743935Y-121155708D01*
X173749243Y-121154286D01*
X173763826Y-121147486D01*
X173951763Y-121059850D01*
X173951768Y-121059847D01*
X173956750Y-121057524D01*
X173989519Y-121034579D01*
X174139791Y-120929358D01*
X174139794Y-120929356D01*
X174144302Y-120926199D01*
X174306199Y-120764302D01*
X174330288Y-120729900D01*
X174434367Y-120581259D01*
X174434368Y-120581257D01*
X174437524Y-120576750D01*
X174439847Y-120571768D01*
X174439850Y-120571763D01*
X174531963Y-120374225D01*
X174531964Y-120374224D01*
X174534286Y-120369243D01*
X174557683Y-120281927D01*
X174592121Y-120153402D01*
X174592121Y-120153400D01*
X174593545Y-120148087D01*
X174610349Y-119956016D01*
X179903692Y-119956016D01*
X179912521Y-119967636D01*
X180135259Y-120129465D01*
X180141939Y-120133705D01*
X180411555Y-120281927D01*
X180418690Y-120285284D01*
X180704757Y-120398547D01*
X180712282Y-120400992D01*
X181010272Y-120477502D01*
X181018043Y-120478985D01*
X181323276Y-120517544D01*
X181331166Y-120518041D01*
X181638834Y-120518041D01*
X181646724Y-120517544D01*
X181951957Y-120478985D01*
X181959728Y-120477502D01*
X182257718Y-120400992D01*
X182265243Y-120398547D01*
X182551310Y-120285284D01*
X182558445Y-120281927D01*
X182828061Y-120133705D01*
X182834741Y-120129465D01*
X183057852Y-119967366D01*
X183066275Y-119956443D01*
X183059371Y-119943582D01*
X181497810Y-118382020D01*
X181483869Y-118374408D01*
X181482034Y-118374539D01*
X181475420Y-118378790D01*
X179910305Y-119943906D01*
X179903692Y-119956016D01*
X174610349Y-119956016D01*
X174613500Y-119920000D01*
X174593545Y-119691913D01*
X174534286Y-119470757D01*
X174531961Y-119465770D01*
X174509274Y-119417117D01*
X174498613Y-119346926D01*
X174527593Y-119282113D01*
X174587013Y-119243257D01*
X174612488Y-119238347D01*
X174667523Y-119233532D01*
X174678310Y-119231630D01*
X174888761Y-119175239D01*
X174899057Y-119171491D01*
X175096513Y-119079417D01*
X175106008Y-119073934D01*
X175158050Y-119037494D01*
X175166426Y-119027015D01*
X175159358Y-119013569D01*
X174174885Y-118029095D01*
X174140859Y-117966783D01*
X174142693Y-117941132D01*
X174809408Y-117941132D01*
X174809539Y-117942966D01*
X174813790Y-117949580D01*
X175519294Y-118655083D01*
X175531064Y-118661510D01*
X175543078Y-118652216D01*
X175578934Y-118601008D01*
X175584417Y-118591513D01*
X175676491Y-118394057D01*
X175680239Y-118383761D01*
X175736630Y-118173310D01*
X175738532Y-118162523D01*
X175752222Y-118006042D01*
X178972249Y-118006042D01*
X178972249Y-118013958D01*
X178991567Y-118320999D01*
X178992560Y-118328862D01*
X179050207Y-118631057D01*
X179052178Y-118638734D01*
X179147246Y-118931324D01*
X179150161Y-118938687D01*
X179281154Y-119217061D01*
X179284965Y-119223994D01*
X179449814Y-119483754D01*
X179454468Y-119490159D01*
X179529467Y-119580817D01*
X179541985Y-119589272D01*
X179552724Y-119583065D01*
X181112980Y-118022810D01*
X181120592Y-118008869D01*
X181120461Y-118007034D01*
X181116210Y-118000420D01*
X179553826Y-116438037D01*
X179540564Y-116430795D01*
X179530460Y-116437983D01*
X179454468Y-116529841D01*
X179449814Y-116536246D01*
X179284965Y-116796006D01*
X179281154Y-116802939D01*
X179150161Y-117081313D01*
X179147246Y-117088676D01*
X179052178Y-117381266D01*
X179050207Y-117388943D01*
X178992560Y-117691138D01*
X178991567Y-117699001D01*
X178972249Y-118006042D01*
X175752222Y-118006042D01*
X175757521Y-117945475D01*
X175757521Y-117934525D01*
X175738532Y-117717477D01*
X175736630Y-117706690D01*
X175680239Y-117496239D01*
X175676491Y-117485943D01*
X175584417Y-117288487D01*
X175578934Y-117278992D01*
X175542494Y-117226950D01*
X175532015Y-117218574D01*
X175518570Y-117225641D01*
X174817021Y-117927189D01*
X174809408Y-117941132D01*
X174142693Y-117941132D01*
X174145924Y-117895967D01*
X174174885Y-117850905D01*
X174445000Y-117580790D01*
X175160079Y-116865710D01*
X175166509Y-116853935D01*
X175157213Y-116841920D01*
X175106008Y-116806066D01*
X175096513Y-116800583D01*
X174899057Y-116708509D01*
X174888750Y-116704757D01*
X174706888Y-116656026D01*
X174646266Y-116619075D01*
X174615244Y-116555214D01*
X174613500Y-116534320D01*
X174613500Y-116063557D01*
X179903725Y-116063557D01*
X179910629Y-116076418D01*
X181472190Y-117637980D01*
X181486131Y-117645592D01*
X181487966Y-117645461D01*
X181494580Y-117641210D01*
X183059695Y-116076094D01*
X183066308Y-116063984D01*
X183057479Y-116052364D01*
X182834741Y-115890535D01*
X182828061Y-115886295D01*
X182558445Y-115738073D01*
X182551310Y-115734716D01*
X182265243Y-115621453D01*
X182257718Y-115619008D01*
X181959728Y-115542498D01*
X181951957Y-115541015D01*
X181646724Y-115502456D01*
X181638834Y-115501959D01*
X181331166Y-115501959D01*
X181323276Y-115502456D01*
X181018043Y-115541015D01*
X181010272Y-115542498D01*
X180712282Y-115619008D01*
X180704757Y-115621453D01*
X180418690Y-115734716D01*
X180411555Y-115738073D01*
X180141939Y-115886295D01*
X180135259Y-115890535D01*
X179912148Y-116052634D01*
X179903725Y-116063557D01*
X174613500Y-116063557D01*
X174613500Y-115160000D01*
X174608273Y-115086921D01*
X174567096Y-114946684D01*
X174520342Y-114873934D01*
X174492949Y-114831309D01*
X174492947Y-114831306D01*
X174488077Y-114823729D01*
X174481267Y-114817828D01*
X174384431Y-114733918D01*
X174384428Y-114733916D01*
X174377619Y-114728016D01*
X174369421Y-114724272D01*
X174252864Y-114671042D01*
X174252863Y-114671042D01*
X174244670Y-114667300D01*
X174235755Y-114666018D01*
X174235754Y-114666018D01*
X174104448Y-114647139D01*
X174104441Y-114647138D01*
X174100000Y-114646500D01*
X173344594Y-114646500D01*
X173276473Y-114626498D01*
X173255499Y-114609595D01*
X170990445Y-112344541D01*
X170956419Y-112282229D01*
X170953540Y-112255446D01*
X170953540Y-108670089D01*
X176617017Y-108670089D01*
X176651318Y-108894249D01*
X176724773Y-109108793D01*
X176835059Y-109306937D01*
X176978690Y-109482421D01*
X176982953Y-109486062D01*
X176982958Y-109486067D01*
X177132028Y-109613384D01*
X177151127Y-109629696D01*
X177260998Y-109693899D01*
X177340473Y-109740340D01*
X177346919Y-109744107D01*
X177352196Y-109746038D01*
X177355983Y-109747820D01*
X177409104Y-109794923D01*
X177428327Y-109863268D01*
X177407548Y-109931156D01*
X177360125Y-109973795D01*
X177289943Y-110010019D01*
X177206553Y-110053060D01*
X177026645Y-110191108D01*
X177022872Y-110195254D01*
X177022867Y-110195259D01*
X176934244Y-110292655D01*
X176874026Y-110358834D01*
X176753521Y-110550935D01*
X176668939Y-110761340D01*
X176622953Y-110983398D01*
X176617017Y-111210089D01*
X176651318Y-111434249D01*
X176724773Y-111648793D01*
X176835059Y-111846937D01*
X176838612Y-111851277D01*
X176838614Y-111851281D01*
X176911055Y-111939787D01*
X176978690Y-112022421D01*
X176982953Y-112026062D01*
X176982958Y-112026067D01*
X177132028Y-112153384D01*
X177151127Y-112169696D01*
X177249023Y-112226902D01*
X177342072Y-112281275D01*
X177342075Y-112281276D01*
X177346919Y-112284107D01*
X177352189Y-112286036D01*
X177352190Y-112286036D01*
X177554612Y-112360112D01*
X177554616Y-112360113D01*
X177559876Y-112362038D01*
X177565393Y-112363001D01*
X177565397Y-112363002D01*
X177748812Y-112395013D01*
X177783269Y-112401027D01*
X177788875Y-112400998D01*
X177788879Y-112400998D01*
X177892475Y-112400455D01*
X178010035Y-112399839D01*
X178015553Y-112398816D01*
X178015556Y-112398816D01*
X178227488Y-112359537D01*
X178227489Y-112359537D01*
X178233007Y-112358514D01*
X178238252Y-112356532D01*
X178238256Y-112356531D01*
X178367652Y-112307636D01*
X178445137Y-112278357D01*
X178639720Y-112161901D01*
X178643940Y-112158219D01*
X178643945Y-112158216D01*
X178806375Y-112016519D01*
X178810605Y-112012829D01*
X178882894Y-111922598D01*
X178948885Y-111840228D01*
X178948888Y-111840223D01*
X178952391Y-111835851D01*
X179060596Y-111636562D01*
X179131800Y-111421262D01*
X179163752Y-111196755D01*
X179165500Y-111130000D01*
X179145341Y-110904128D01*
X179106279Y-110761340D01*
X179086985Y-110690812D01*
X179086984Y-110690808D01*
X179085503Y-110685396D01*
X178987876Y-110480718D01*
X178855547Y-110296562D01*
X178692698Y-110138750D01*
X178565178Y-110053060D01*
X178509130Y-110015397D01*
X178509124Y-110015394D01*
X178504477Y-110012271D01*
X178424404Y-109977121D01*
X178370070Y-109931427D01*
X178349065Y-109863608D01*
X178368059Y-109795200D01*
X178421023Y-109747920D01*
X178430513Y-109743883D01*
X178439890Y-109740340D01*
X178439893Y-109740338D01*
X178445137Y-109738357D01*
X178639720Y-109621901D01*
X178643940Y-109618219D01*
X178643945Y-109618216D01*
X178806375Y-109476519D01*
X178810605Y-109472829D01*
X178821882Y-109458753D01*
X178948885Y-109300228D01*
X178948888Y-109300223D01*
X178952391Y-109295851D01*
X179060596Y-109096562D01*
X179131800Y-108881262D01*
X179163752Y-108656755D01*
X179165500Y-108590000D01*
X179145341Y-108364128D01*
X179106279Y-108221340D01*
X179086985Y-108150812D01*
X179086984Y-108150808D01*
X179085503Y-108145396D01*
X178987876Y-107940718D01*
X178855547Y-107756562D01*
X178692698Y-107598750D01*
X178565178Y-107513060D01*
X178509130Y-107475397D01*
X178509124Y-107475394D01*
X178504477Y-107472271D01*
X178499345Y-107470018D01*
X178499341Y-107470016D01*
X178423753Y-107436835D01*
X178369417Y-107391139D01*
X178348413Y-107323320D01*
X178367408Y-107254912D01*
X178420372Y-107207633D01*
X178429863Y-107203595D01*
X178439677Y-107199887D01*
X178449734Y-107195025D01*
X178575623Y-107119683D01*
X178585193Y-107109324D01*
X178581650Y-107100861D01*
X177902811Y-106422021D01*
X177888868Y-106414408D01*
X177887034Y-106414539D01*
X177880420Y-106418790D01*
X177201152Y-107098059D01*
X177194395Y-107110434D01*
X177199676Y-107117489D01*
X177342284Y-107200822D01*
X177356544Y-107207532D01*
X177409665Y-107254635D01*
X177428887Y-107322980D01*
X177408108Y-107390868D01*
X177360685Y-107433506D01*
X177289949Y-107470016D01*
X177206553Y-107513060D01*
X177026645Y-107651108D01*
X177022872Y-107655254D01*
X177022867Y-107655259D01*
X176934244Y-107752655D01*
X176874026Y-107818834D01*
X176753521Y-108010935D01*
X176668939Y-108221340D01*
X176622953Y-108443398D01*
X176617017Y-108670089D01*
X170953540Y-108670089D01*
X170953540Y-106124452D01*
X176617663Y-106124452D01*
X176618365Y-106135604D01*
X176650955Y-106348579D01*
X176653622Y-106359440D01*
X176723413Y-106563281D01*
X176727961Y-106573495D01*
X176819031Y-106737117D01*
X176829084Y-106747008D01*
X176836687Y-106744102D01*
X177517979Y-106062811D01*
X177524355Y-106051132D01*
X178254408Y-106051132D01*
X178254539Y-106052966D01*
X178258790Y-106059580D01*
X178940156Y-106740945D01*
X178952531Y-106747702D01*
X178958796Y-106743013D01*
X179057462Y-106561290D01*
X179061896Y-106551044D01*
X179129553Y-106346469D01*
X179132103Y-106335596D01*
X179162742Y-106120319D01*
X179163348Y-106113103D01*
X179164905Y-106053632D01*
X179164677Y-106046379D01*
X179145348Y-105829812D01*
X179143366Y-105818798D01*
X179086517Y-105610987D01*
X179082619Y-105600506D01*
X178989859Y-105406031D01*
X178984173Y-105396416D01*
X178960719Y-105363776D01*
X178949928Y-105355365D01*
X178936894Y-105362317D01*
X178262021Y-106037189D01*
X178254408Y-106051132D01*
X177524355Y-106051132D01*
X177525592Y-106048868D01*
X177525461Y-106047034D01*
X177521210Y-106040420D01*
X176843095Y-105362306D01*
X176830720Y-105355549D01*
X176822747Y-105361517D01*
X176756952Y-105466403D01*
X176751872Y-105476373D01*
X176671511Y-105676278D01*
X176668280Y-105686978D01*
X176624588Y-105897958D01*
X176623303Y-105909065D01*
X176617663Y-106124452D01*
X170953540Y-106124452D01*
X170953538Y-100125591D01*
X170954053Y-100114671D01*
X170955705Y-100107279D01*
X170953600Y-100040305D01*
X170953538Y-100036348D01*
X170953538Y-100007613D01*
X170952999Y-100003345D01*
X170952066Y-99991502D01*
X170950926Y-99955226D01*
X170950677Y-99947307D01*
X170945024Y-99927847D01*
X170941017Y-99908504D01*
X170938478Y-99888403D01*
X170935560Y-99881033D01*
X170935559Y-99881029D01*
X170922207Y-99847306D01*
X170918362Y-99836076D01*
X170908237Y-99801225D01*
X170908236Y-99801223D01*
X170906025Y-99793612D01*
X170895712Y-99776173D01*
X170887018Y-99758428D01*
X170879560Y-99739591D01*
X170853571Y-99703821D01*
X170847059Y-99693907D01*
X170827567Y-99660948D01*
X170824552Y-99655849D01*
X170824184Y-99655431D01*
X170810095Y-99641342D01*
X170797254Y-99626308D01*
X170790143Y-99616521D01*
X170785484Y-99610108D01*
X170751708Y-99582166D01*
X170742929Y-99574176D01*
X169149084Y-97980331D01*
X167370425Y-96201673D01*
X167336399Y-96139361D01*
X167333520Y-96112578D01*
X167333520Y-79450000D01*
X167586500Y-79450000D01*
X167606462Y-79639927D01*
X167665476Y-79821554D01*
X167760963Y-79986942D01*
X167765381Y-79991849D01*
X167765382Y-79991850D01*
X167849568Y-80085348D01*
X167876342Y-80143826D01*
X167878596Y-80143247D01*
X167880566Y-80150921D01*
X167881560Y-80158788D01*
X167884478Y-80166158D01*
X167884479Y-80166162D01*
X167897837Y-80199900D01*
X167901682Y-80211130D01*
X167914014Y-80253578D01*
X167918048Y-80260399D01*
X167924324Y-80271012D01*
X167933020Y-80288764D01*
X167940478Y-80307600D01*
X167966478Y-80343385D01*
X167972983Y-80353289D01*
X167995487Y-80391341D01*
X167995855Y-80391759D01*
X168009941Y-80405845D01*
X168022781Y-80420878D01*
X168034555Y-80437083D01*
X168040662Y-80442135D01*
X168040663Y-80442136D01*
X168068327Y-80465021D01*
X168077109Y-80473012D01*
X168245849Y-80641753D01*
X168246615Y-80642519D01*
X168253970Y-80650602D01*
X168258027Y-80656995D01*
X168263804Y-80662420D01*
X168306860Y-80702852D01*
X168309703Y-80705607D01*
X168579596Y-80975501D01*
X168613621Y-81037813D01*
X168616500Y-81064596D01*
X168616500Y-81321522D01*
X168596498Y-81389643D01*
X168542842Y-81436136D01*
X168533495Y-81439959D01*
X168458137Y-81467313D01*
X168310254Y-81564269D01*
X168188643Y-81692645D01*
X168099826Y-81845555D01*
X168048567Y-82014796D01*
X168047993Y-82021232D01*
X168047992Y-82021235D01*
X168043437Y-82072271D01*
X168041500Y-82093978D01*
X168041500Y-82892885D01*
X168056978Y-83025642D01*
X168059474Y-83032520D01*
X168059475Y-83032522D01*
X168063423Y-83043398D01*
X168117313Y-83191863D01*
X168214269Y-83339746D01*
X168219581Y-83344778D01*
X168285481Y-83407206D01*
X168321179Y-83468576D01*
X168318031Y-83539502D01*
X168290301Y-83585332D01*
X168188643Y-83692645D01*
X168099826Y-83845555D01*
X168097703Y-83852563D01*
X168097703Y-83852564D01*
X168083657Y-83898941D01*
X168048567Y-84014796D01*
X168047993Y-84021232D01*
X168047992Y-84021235D01*
X168043058Y-84076519D01*
X168041500Y-84093978D01*
X168041500Y-84892885D01*
X168056978Y-85025642D01*
X168059474Y-85032520D01*
X168059475Y-85032522D01*
X168102457Y-85150935D01*
X168117313Y-85191863D01*
X168214269Y-85339746D01*
X168342645Y-85461357D01*
X168495555Y-85550174D01*
X168502563Y-85552297D01*
X168502564Y-85552297D01*
X168563619Y-85570789D01*
X168664796Y-85601433D01*
X168671232Y-85602007D01*
X168671235Y-85602008D01*
X168741185Y-85608251D01*
X168741191Y-85608251D01*
X168743978Y-85608500D01*
X169410405Y-85608500D01*
X169478526Y-85628502D01*
X169499501Y-85645405D01*
X169888344Y-86034249D01*
X170271623Y-86417528D01*
X170278972Y-86425606D01*
X170283027Y-86431995D01*
X170288802Y-86437418D01*
X170331862Y-86477854D01*
X170334704Y-86480609D01*
X170355033Y-86500938D01*
X170358453Y-86503590D01*
X170367476Y-86511297D01*
X170399699Y-86541557D01*
X170406643Y-86545374D01*
X170406648Y-86545378D01*
X170417450Y-86551316D01*
X170433977Y-86562172D01*
X170449977Y-86574583D01*
X170457248Y-86577730D01*
X170457249Y-86577730D01*
X170490551Y-86592141D01*
X170501207Y-86597362D01*
X170539952Y-86618662D01*
X170547635Y-86620634D01*
X170547636Y-86620635D01*
X170559568Y-86623699D01*
X170578272Y-86630103D01*
X170589585Y-86634999D01*
X170589592Y-86635001D01*
X170596864Y-86638148D01*
X170604688Y-86639387D01*
X170604691Y-86639388D01*
X170640535Y-86645065D01*
X170652156Y-86647472D01*
X170689218Y-86656987D01*
X170694975Y-86658465D01*
X170695531Y-86658500D01*
X170715452Y-86658500D01*
X170735162Y-86660051D01*
X170747114Y-86661944D01*
X170747115Y-86661944D01*
X170754944Y-86663184D01*
X170762836Y-86662438D01*
X170798582Y-86659059D01*
X170810440Y-86658500D01*
X173308768Y-86658500D01*
X173376889Y-86678502D01*
X173423382Y-86732158D01*
X173433486Y-86802432D01*
X173432954Y-86805418D01*
X173431442Y-86810073D01*
X173411480Y-87000000D01*
X173412170Y-87006565D01*
X173427248Y-87150019D01*
X173431442Y-87189927D01*
X173490456Y-87371554D01*
X173585943Y-87536942D01*
X173590361Y-87541849D01*
X173590362Y-87541850D01*
X173709307Y-87673952D01*
X173713729Y-87678863D01*
X173719071Y-87682744D01*
X173719073Y-87682746D01*
X173862888Y-87787233D01*
X173868230Y-87791114D01*
X173874258Y-87793798D01*
X173874260Y-87793799D01*
X173957393Y-87830812D01*
X174042693Y-87868790D01*
X174136093Y-87888643D01*
X174223036Y-87907124D01*
X174223041Y-87907124D01*
X174229493Y-87908496D01*
X174420467Y-87908496D01*
X174426919Y-87907124D01*
X174426924Y-87907124D01*
X174513867Y-87888643D01*
X174607267Y-87868790D01*
X174692567Y-87830812D01*
X174775700Y-87793799D01*
X174775702Y-87793798D01*
X174781730Y-87791114D01*
X174787072Y-87787233D01*
X174930887Y-87682746D01*
X174930889Y-87682744D01*
X174936231Y-87678863D01*
X174940653Y-87673952D01*
X175059598Y-87541850D01*
X175059599Y-87541849D01*
X175064017Y-87536942D01*
X175131381Y-87420264D01*
X175182763Y-87371271D01*
X175252477Y-87357835D01*
X175318388Y-87384221D01*
X175359570Y-87442053D01*
X175366500Y-87483264D01*
X175366501Y-93921600D01*
X175365986Y-93932520D01*
X175364334Y-93939912D01*
X175364583Y-93947835D01*
X175366439Y-94006884D01*
X175366501Y-94010842D01*
X175366501Y-94039578D01*
X175366996Y-94043495D01*
X175367040Y-94043844D01*
X175367972Y-94055678D01*
X175369362Y-94099883D01*
X175371575Y-94107499D01*
X175371575Y-94107501D01*
X175375014Y-94119339D01*
X175379023Y-94138698D01*
X175381561Y-94158788D01*
X175384481Y-94166163D01*
X175397833Y-94199889D01*
X175401678Y-94211118D01*
X175414014Y-94253578D01*
X175418049Y-94260401D01*
X175424327Y-94271017D01*
X175433023Y-94288769D01*
X175440479Y-94307600D01*
X175453882Y-94326048D01*
X175466468Y-94343371D01*
X175472983Y-94353289D01*
X175495487Y-94391341D01*
X175495855Y-94391759D01*
X175509938Y-94405842D01*
X175522779Y-94420875D01*
X175534555Y-94437083D01*
X175568330Y-94465024D01*
X175577110Y-94473014D01*
X176613402Y-95509307D01*
X176647428Y-95571619D01*
X176647689Y-95623951D01*
X176622953Y-95743398D01*
X176622806Y-95749007D01*
X176622806Y-95749008D01*
X176621633Y-95793799D01*
X176617017Y-95970089D01*
X176617866Y-95975635D01*
X176649397Y-96181694D01*
X176639929Y-96252057D01*
X176593924Y-96306131D01*
X176525986Y-96326748D01*
X176457688Y-96307363D01*
X176435752Y-96289848D01*
X175197118Y-95051214D01*
X175163092Y-94988902D01*
X175160903Y-94975290D01*
X175144228Y-94816637D01*
X175144228Y-94816636D01*
X175143538Y-94810073D01*
X175131256Y-94772271D01*
X175086566Y-94634731D01*
X175084524Y-94628446D01*
X175076836Y-94615129D01*
X174994785Y-94473014D01*
X174989037Y-94463058D01*
X174959878Y-94430673D01*
X174865673Y-94326048D01*
X174865672Y-94326047D01*
X174861251Y-94321137D01*
X174855909Y-94317256D01*
X174855907Y-94317254D01*
X174712092Y-94212767D01*
X174712091Y-94212766D01*
X174706750Y-94208886D01*
X174700722Y-94206202D01*
X174700720Y-94206201D01*
X174538318Y-94133895D01*
X174538317Y-94133895D01*
X174532287Y-94131210D01*
X174438887Y-94111357D01*
X174351944Y-94092876D01*
X174351939Y-94092876D01*
X174345487Y-94091504D01*
X174154513Y-94091504D01*
X174148061Y-94092876D01*
X174148056Y-94092876D01*
X174061113Y-94111357D01*
X173967713Y-94131210D01*
X173961683Y-94133895D01*
X173961682Y-94133895D01*
X173799280Y-94206201D01*
X173799278Y-94206202D01*
X173793250Y-94208886D01*
X173787909Y-94212766D01*
X173787908Y-94212767D01*
X173644093Y-94317254D01*
X173644091Y-94317256D01*
X173638749Y-94321137D01*
X173634328Y-94326047D01*
X173634327Y-94326048D01*
X173540123Y-94430673D01*
X173510963Y-94463058D01*
X173505215Y-94473014D01*
X173423165Y-94615129D01*
X173415476Y-94628446D01*
X173413434Y-94634731D01*
X173368745Y-94772271D01*
X173356462Y-94810073D01*
X173355772Y-94816636D01*
X173355772Y-94816637D01*
X173344689Y-94922086D01*
X173336500Y-95000000D01*
X173337190Y-95006565D01*
X173352560Y-95152797D01*
X173356462Y-95189927D01*
X173358502Y-95196205D01*
X173358502Y-95196206D01*
X173372965Y-95240718D01*
X173415476Y-95371554D01*
X173418779Y-95377276D01*
X173418780Y-95377277D01*
X173452689Y-95436008D01*
X173510963Y-95536942D01*
X173515381Y-95541849D01*
X173515382Y-95541850D01*
X173630520Y-95669724D01*
X173638749Y-95678863D01*
X173644091Y-95682744D01*
X173644093Y-95682746D01*
X173787908Y-95787233D01*
X173793250Y-95791114D01*
X173799278Y-95793798D01*
X173799280Y-95793799D01*
X173961682Y-95866105D01*
X173967713Y-95868790D01*
X174050462Y-95886379D01*
X174148056Y-95907124D01*
X174148061Y-95907124D01*
X174154513Y-95908496D01*
X174210402Y-95908496D01*
X174278523Y-95928498D01*
X174299497Y-95945401D01*
X174731751Y-96377655D01*
X174765777Y-96439967D01*
X174760712Y-96510782D01*
X174718165Y-96567618D01*
X174657243Y-96591504D01*
X174654513Y-96591504D01*
X174648061Y-96592876D01*
X174648056Y-96592876D01*
X174586828Y-96605891D01*
X174467713Y-96631210D01*
X174461683Y-96633895D01*
X174461682Y-96633895D01*
X174299280Y-96706201D01*
X174299278Y-96706202D01*
X174293250Y-96708886D01*
X174287909Y-96712766D01*
X174287908Y-96712767D01*
X174144093Y-96817254D01*
X174144091Y-96817256D01*
X174138749Y-96821137D01*
X174134328Y-96826047D01*
X174134327Y-96826048D01*
X174045429Y-96924780D01*
X174010963Y-96963058D01*
X173965806Y-97041272D01*
X173919176Y-97122038D01*
X173915476Y-97128446D01*
X173895090Y-97191188D01*
X173860389Y-97297988D01*
X173856462Y-97310073D01*
X173855772Y-97316636D01*
X173855772Y-97316637D01*
X173847405Y-97396243D01*
X173836500Y-97500000D01*
X173837190Y-97506565D01*
X173852758Y-97654681D01*
X173856462Y-97689927D01*
X173915476Y-97871554D01*
X174010963Y-98036942D01*
X174138749Y-98178863D01*
X174144091Y-98182744D01*
X174144093Y-98182746D01*
X174266050Y-98271352D01*
X174293250Y-98291114D01*
X174299277Y-98293797D01*
X174299285Y-98293802D01*
X174311504Y-98299242D01*
X174349349Y-98325253D01*
X176613402Y-100589306D01*
X176647428Y-100651618D01*
X176647689Y-100703952D01*
X176624091Y-100817900D01*
X176624091Y-100817901D01*
X176622953Y-100823398D01*
X176617017Y-101050089D01*
X176651318Y-101274249D01*
X176724773Y-101488793D01*
X176835059Y-101686937D01*
X176838612Y-101691277D01*
X176838614Y-101691281D01*
X176932234Y-101805663D01*
X176978690Y-101862421D01*
X176982953Y-101866062D01*
X176982958Y-101866067D01*
X177132028Y-101993384D01*
X177151127Y-102009696D01*
X177260998Y-102073899D01*
X177340473Y-102120340D01*
X177346919Y-102124107D01*
X177352196Y-102126038D01*
X177355983Y-102127820D01*
X177409104Y-102174923D01*
X177428327Y-102243268D01*
X177407548Y-102311156D01*
X177360125Y-102353795D01*
X177318956Y-102375044D01*
X177206553Y-102433060D01*
X177026645Y-102571108D01*
X177022872Y-102575254D01*
X177022867Y-102575259D01*
X176926541Y-102681121D01*
X176874026Y-102738834D01*
X176871043Y-102743590D01*
X176871041Y-102743592D01*
X176826662Y-102814339D01*
X176753521Y-102930935D01*
X176668939Y-103141340D01*
X176622953Y-103363398D01*
X176617017Y-103590089D01*
X176651318Y-103814249D01*
X176724773Y-104028793D01*
X176835059Y-104226937D01*
X176838612Y-104231277D01*
X176838614Y-104231281D01*
X176946296Y-104362843D01*
X176978690Y-104402421D01*
X176982953Y-104406062D01*
X176982958Y-104406067D01*
X177132028Y-104533384D01*
X177151127Y-104549696D01*
X177229642Y-104595576D01*
X177340466Y-104660336D01*
X177346919Y-104664107D01*
X177352185Y-104666034D01*
X177356554Y-104668090D01*
X177409674Y-104715194D01*
X177428895Y-104783539D01*
X177408114Y-104851427D01*
X177360693Y-104894063D01*
X177211803Y-104970910D01*
X177202372Y-104976895D01*
X177201883Y-104977271D01*
X177193418Y-104988863D01*
X177200050Y-105000839D01*
X177877189Y-105677979D01*
X177891132Y-105685592D01*
X177892966Y-105685461D01*
X177899580Y-105681210D01*
X178577460Y-105003329D01*
X178583682Y-104991935D01*
X178573870Y-104979502D01*
X178508892Y-104935838D01*
X178499098Y-104930454D01*
X178423739Y-104897373D01*
X178369404Y-104851677D01*
X178348399Y-104783859D01*
X178367394Y-104715450D01*
X178420358Y-104668171D01*
X178429828Y-104664142D01*
X178445137Y-104658357D01*
X178452035Y-104654229D01*
X178584494Y-104574953D01*
X178639720Y-104541901D01*
X178643940Y-104538219D01*
X178643945Y-104538216D01*
X178806375Y-104396519D01*
X178810605Y-104392829D01*
X178874235Y-104313406D01*
X178948885Y-104220228D01*
X178948888Y-104220223D01*
X178952391Y-104215851D01*
X179060596Y-104016562D01*
X179131800Y-103801262D01*
X179163752Y-103576755D01*
X179165500Y-103510000D01*
X179145341Y-103284128D01*
X179106279Y-103141340D01*
X179086985Y-103070812D01*
X179086984Y-103070808D01*
X179085503Y-103065396D01*
X178987876Y-102860718D01*
X178855547Y-102676562D01*
X178769029Y-102592720D01*
X178696726Y-102522653D01*
X178696723Y-102522651D01*
X178692698Y-102518750D01*
X178613034Y-102465218D01*
X178509130Y-102395397D01*
X178509124Y-102395394D01*
X178504477Y-102392271D01*
X178424404Y-102357121D01*
X178370070Y-102311427D01*
X178349065Y-102243608D01*
X178368059Y-102175200D01*
X178421023Y-102127920D01*
X178430513Y-102123883D01*
X178439890Y-102120340D01*
X178439893Y-102120338D01*
X178445137Y-102118357D01*
X178487444Y-102093037D01*
X178593776Y-102029398D01*
X178639720Y-102001901D01*
X178643940Y-101998219D01*
X178643945Y-101998216D01*
X178806375Y-101856519D01*
X178810605Y-101852829D01*
X178921084Y-101714929D01*
X178948885Y-101680228D01*
X178948888Y-101680223D01*
X178952391Y-101675851D01*
X179060596Y-101476562D01*
X179131800Y-101261262D01*
X179163752Y-101036755D01*
X179165500Y-100970000D01*
X179145341Y-100744128D01*
X179106279Y-100601340D01*
X179086985Y-100530812D01*
X179086984Y-100530808D01*
X179085503Y-100525396D01*
X178987876Y-100320718D01*
X178855547Y-100136562D01*
X178754183Y-100038333D01*
X178696726Y-99982653D01*
X178696723Y-99982651D01*
X178692698Y-99978750D01*
X178627037Y-99934628D01*
X178509130Y-99855397D01*
X178509124Y-99855394D01*
X178504477Y-99852271D01*
X178424404Y-99817121D01*
X178370070Y-99771427D01*
X178349065Y-99703608D01*
X178368059Y-99635200D01*
X178421023Y-99587920D01*
X178430513Y-99583883D01*
X178439890Y-99580340D01*
X178439893Y-99580338D01*
X178445137Y-99578357D01*
X178639720Y-99461901D01*
X178643940Y-99458219D01*
X178643945Y-99458216D01*
X178806375Y-99316519D01*
X178810605Y-99312829D01*
X178821882Y-99298753D01*
X178948885Y-99140228D01*
X178948888Y-99140223D01*
X178952391Y-99135851D01*
X179060596Y-98936562D01*
X179131800Y-98721262D01*
X179163752Y-98496755D01*
X179165500Y-98430000D01*
X179145341Y-98204128D01*
X179106279Y-98061340D01*
X179086985Y-97990812D01*
X179086984Y-97990808D01*
X179085503Y-97985396D01*
X178987876Y-97780718D01*
X178855547Y-97596562D01*
X178750426Y-97494692D01*
X178696726Y-97442653D01*
X178696723Y-97442651D01*
X178692698Y-97438750D01*
X178565178Y-97353060D01*
X178509130Y-97315397D01*
X178509124Y-97315394D01*
X178504477Y-97312271D01*
X178424404Y-97277121D01*
X178370070Y-97231427D01*
X178349065Y-97163608D01*
X178368059Y-97095200D01*
X178421023Y-97047920D01*
X178430513Y-97043883D01*
X178439890Y-97040340D01*
X178439893Y-97040338D01*
X178445137Y-97038357D01*
X178451664Y-97034451D01*
X178573137Y-96961750D01*
X178639720Y-96921901D01*
X178643940Y-96918219D01*
X178643945Y-96918216D01*
X178806375Y-96776519D01*
X178810605Y-96772829D01*
X178906483Y-96653154D01*
X178948885Y-96600228D01*
X178948888Y-96600223D01*
X178952391Y-96595851D01*
X179060596Y-96396562D01*
X179131800Y-96181262D01*
X179163752Y-95956755D01*
X179165500Y-95890000D01*
X179163730Y-95870162D01*
X179156328Y-95787233D01*
X179145341Y-95664128D01*
X179106279Y-95521340D01*
X179086985Y-95450812D01*
X179086984Y-95450808D01*
X179085503Y-95445396D01*
X178987876Y-95240718D01*
X178855547Y-95056562D01*
X178692698Y-94898750D01*
X178590807Y-94830282D01*
X178509130Y-94775397D01*
X178509124Y-94775394D01*
X178504477Y-94772271D01*
X178499345Y-94770018D01*
X178499341Y-94770016D01*
X178423753Y-94736835D01*
X178369417Y-94691139D01*
X178348413Y-94623320D01*
X178367408Y-94554912D01*
X178420372Y-94507633D01*
X178429863Y-94503595D01*
X178439677Y-94499887D01*
X178449734Y-94495025D01*
X178575623Y-94419683D01*
X178585193Y-94409324D01*
X178581650Y-94400861D01*
X177531922Y-93351132D01*
X178254408Y-93351132D01*
X178254539Y-93352966D01*
X178258790Y-93359580D01*
X178940156Y-94040945D01*
X178952531Y-94047702D01*
X178958796Y-94043013D01*
X179057462Y-93861290D01*
X179061896Y-93851044D01*
X179129553Y-93646469D01*
X179132103Y-93635596D01*
X179162742Y-93420319D01*
X179163348Y-93413103D01*
X179164905Y-93353632D01*
X179164677Y-93346379D01*
X179145348Y-93129812D01*
X179143366Y-93118798D01*
X179086517Y-92910987D01*
X179082619Y-92900506D01*
X178989859Y-92706031D01*
X178984173Y-92696416D01*
X178960719Y-92663776D01*
X178949928Y-92655365D01*
X178936894Y-92662317D01*
X178262021Y-93337189D01*
X178254408Y-93351132D01*
X177531922Y-93351132D01*
X177530790Y-93350000D01*
X176843097Y-92662308D01*
X176829156Y-92654696D01*
X176828578Y-92654737D01*
X176768490Y-92677150D01*
X176699116Y-92662059D01*
X176648913Y-92611858D01*
X176633500Y-92551471D01*
X176633500Y-91633555D01*
X176653502Y-91565434D01*
X176707158Y-91518941D01*
X176777432Y-91508837D01*
X176842012Y-91538331D01*
X176857004Y-91553749D01*
X176922324Y-91633555D01*
X176978690Y-91702421D01*
X176982953Y-91706062D01*
X176982958Y-91706067D01*
X177132028Y-91833384D01*
X177151127Y-91849696D01*
X177279359Y-91924628D01*
X177340466Y-91960336D01*
X177346919Y-91964107D01*
X177352185Y-91966034D01*
X177356554Y-91968090D01*
X177409674Y-92015194D01*
X177428895Y-92083539D01*
X177408114Y-92151427D01*
X177360693Y-92194063D01*
X177211803Y-92270910D01*
X177202372Y-92276895D01*
X177201883Y-92277271D01*
X177193418Y-92288863D01*
X177200050Y-92300839D01*
X177877189Y-92977979D01*
X177891132Y-92985592D01*
X177892966Y-92985461D01*
X177899580Y-92981210D01*
X178577460Y-92303329D01*
X178583682Y-92291935D01*
X178573870Y-92279502D01*
X178508892Y-92235838D01*
X178499098Y-92230454D01*
X178423739Y-92197373D01*
X178369404Y-92151677D01*
X178348399Y-92083859D01*
X178367394Y-92015450D01*
X178420358Y-91968171D01*
X178429828Y-91964142D01*
X178445137Y-91958357D01*
X178469402Y-91943835D01*
X178601166Y-91864975D01*
X178639720Y-91841901D01*
X178643940Y-91838219D01*
X178643945Y-91838216D01*
X178806375Y-91696519D01*
X178810605Y-91692829D01*
X178844956Y-91649952D01*
X178948885Y-91520228D01*
X178948888Y-91520223D01*
X178952391Y-91515851D01*
X179060596Y-91316562D01*
X179131800Y-91101262D01*
X179163752Y-90876755D01*
X179165500Y-90810000D01*
X179145341Y-90584128D01*
X179106279Y-90441340D01*
X179086985Y-90370812D01*
X179086984Y-90370808D01*
X179085503Y-90365396D01*
X178987876Y-90160718D01*
X178855547Y-89976562D01*
X178692698Y-89818750D01*
X178565178Y-89733060D01*
X178509130Y-89695397D01*
X178509124Y-89695394D01*
X178504477Y-89692271D01*
X178424404Y-89657121D01*
X178370070Y-89611427D01*
X178349065Y-89543608D01*
X178368059Y-89475200D01*
X178421023Y-89427920D01*
X178430513Y-89423883D01*
X178439890Y-89420340D01*
X178439893Y-89420338D01*
X178445137Y-89418357D01*
X178639720Y-89301901D01*
X178643940Y-89298219D01*
X178643945Y-89298216D01*
X178806375Y-89156519D01*
X178810605Y-89152829D01*
X178841316Y-89114495D01*
X178948885Y-88980228D01*
X178948888Y-88980223D01*
X178952391Y-88975851D01*
X179060596Y-88776562D01*
X179131800Y-88561262D01*
X179163752Y-88336755D01*
X179165500Y-88270000D01*
X179145341Y-88044128D01*
X179106279Y-87901340D01*
X179086985Y-87830812D01*
X179086984Y-87830808D01*
X179085503Y-87825396D01*
X178987876Y-87620718D01*
X178855547Y-87436562D01*
X178782567Y-87365839D01*
X178696726Y-87282653D01*
X178696723Y-87282651D01*
X178692698Y-87278750D01*
X178600611Y-87216870D01*
X178509130Y-87155397D01*
X178509124Y-87155394D01*
X178504477Y-87152271D01*
X178424404Y-87117121D01*
X178370070Y-87071427D01*
X178349065Y-87003608D01*
X178368059Y-86935200D01*
X178421023Y-86887920D01*
X178430513Y-86883883D01*
X178439890Y-86880340D01*
X178439893Y-86880338D01*
X178445137Y-86878357D01*
X178470722Y-86863045D01*
X178598314Y-86786682D01*
X178639720Y-86761901D01*
X178643940Y-86758219D01*
X178643945Y-86758216D01*
X178806375Y-86616519D01*
X178810605Y-86612829D01*
X178833015Y-86584857D01*
X178948885Y-86440228D01*
X178948888Y-86440223D01*
X178952391Y-86435851D01*
X179060596Y-86236562D01*
X179131800Y-86021262D01*
X179163752Y-85796755D01*
X179165500Y-85730000D01*
X179145341Y-85504128D01*
X179106279Y-85361340D01*
X179086985Y-85290812D01*
X179086984Y-85290808D01*
X179085503Y-85285396D01*
X178987876Y-85080718D01*
X178855547Y-84896562D01*
X178751011Y-84795259D01*
X178696726Y-84742653D01*
X178696723Y-84742651D01*
X178692698Y-84738750D01*
X178565178Y-84653060D01*
X178509130Y-84615397D01*
X178509124Y-84615394D01*
X178504477Y-84612271D01*
X178424404Y-84577121D01*
X178370070Y-84531427D01*
X178349065Y-84463608D01*
X178368059Y-84395200D01*
X178421023Y-84347920D01*
X178430513Y-84343883D01*
X178439890Y-84340340D01*
X178439893Y-84340338D01*
X178445137Y-84338357D01*
X178453405Y-84333409D01*
X178610157Y-84239594D01*
X178639720Y-84221901D01*
X178643940Y-84218219D01*
X178643945Y-84218216D01*
X178806375Y-84076519D01*
X178810605Y-84072829D01*
X178857098Y-84014796D01*
X178948885Y-83900228D01*
X178948888Y-83900223D01*
X178952391Y-83895851D01*
X179060596Y-83696562D01*
X179131800Y-83481262D01*
X179146524Y-83377807D01*
X179163241Y-83260346D01*
X179163241Y-83260345D01*
X179163752Y-83256755D01*
X179165500Y-83190000D01*
X179145341Y-82964128D01*
X179106279Y-82821340D01*
X179086985Y-82750812D01*
X179086984Y-82750808D01*
X179085503Y-82745396D01*
X178987876Y-82540718D01*
X178855547Y-82356562D01*
X178760646Y-82264596D01*
X178696726Y-82202653D01*
X178696723Y-82202651D01*
X178692698Y-82198750D01*
X178595133Y-82133189D01*
X178509130Y-82075397D01*
X178509124Y-82075394D01*
X178504477Y-82072271D01*
X178499345Y-82070018D01*
X178499341Y-82070016D01*
X178423753Y-82036835D01*
X178369417Y-81991139D01*
X178348413Y-81923320D01*
X178367408Y-81854912D01*
X178420372Y-81807633D01*
X178429863Y-81803595D01*
X178439677Y-81799887D01*
X178449734Y-81795025D01*
X178575623Y-81719683D01*
X178585193Y-81709324D01*
X178581650Y-81700861D01*
X177902811Y-81022021D01*
X177888868Y-81014408D01*
X177887034Y-81014539D01*
X177880420Y-81018790D01*
X177201152Y-81698059D01*
X177194395Y-81710434D01*
X177199676Y-81717489D01*
X177342284Y-81800822D01*
X177356544Y-81807532D01*
X177409665Y-81854635D01*
X177428887Y-81922980D01*
X177408108Y-81990868D01*
X177360685Y-82033506D01*
X177238095Y-82096780D01*
X177206553Y-82113060D01*
X177026645Y-82251108D01*
X177022872Y-82255254D01*
X177022867Y-82255259D01*
X176890945Y-82400240D01*
X176874026Y-82418834D01*
X176866237Y-82431251D01*
X176813095Y-82478328D01*
X176742936Y-82489202D01*
X176678036Y-82460418D01*
X176639000Y-82401116D01*
X176633500Y-82364295D01*
X176633500Y-81455308D01*
X176653502Y-81387187D01*
X176707158Y-81340694D01*
X176777432Y-81330590D01*
X176804096Y-81342768D01*
X176827419Y-81347644D01*
X176836687Y-81344102D01*
X177517979Y-80662811D01*
X177524355Y-80651132D01*
X178254408Y-80651132D01*
X178254539Y-80652966D01*
X178258790Y-80659580D01*
X178940156Y-81340945D01*
X178952531Y-81347702D01*
X178958796Y-81343013D01*
X179057462Y-81161290D01*
X179061896Y-81151044D01*
X179129553Y-80946469D01*
X179132103Y-80935596D01*
X179162742Y-80720319D01*
X179163348Y-80713103D01*
X179164905Y-80653632D01*
X179164677Y-80646379D01*
X179145348Y-80429812D01*
X179143366Y-80418798D01*
X179086517Y-80210987D01*
X179082619Y-80200506D01*
X178989859Y-80006031D01*
X178984173Y-79996416D01*
X178960719Y-79963776D01*
X178949928Y-79955365D01*
X178936894Y-79962317D01*
X178262021Y-80637189D01*
X178254408Y-80651132D01*
X177524355Y-80651132D01*
X177525592Y-80648868D01*
X177525461Y-80647034D01*
X177521210Y-80640420D01*
X176843095Y-79962306D01*
X176830720Y-79955549D01*
X176822747Y-79961517D01*
X176756952Y-80066403D01*
X176751870Y-80076377D01*
X176739346Y-80107532D01*
X176695380Y-80163277D01*
X176628255Y-80186402D01*
X176559283Y-80169565D01*
X176513986Y-80124676D01*
X176504513Y-80108658D01*
X176504145Y-80108241D01*
X176490062Y-80094158D01*
X176477228Y-80079133D01*
X176465446Y-80062917D01*
X176431665Y-80034971D01*
X176422886Y-80026982D01*
X176003391Y-79607487D01*
X175996031Y-79599399D01*
X175991973Y-79593005D01*
X175986196Y-79587580D01*
X175981142Y-79581471D01*
X175983050Y-79579892D01*
X175953285Y-79529252D01*
X175956112Y-79458312D01*
X175986404Y-79409500D01*
X176392525Y-79003379D01*
X176400604Y-78996028D01*
X176406994Y-78991973D01*
X176452845Y-78943147D01*
X176455600Y-78940305D01*
X176475938Y-78919967D01*
X176478588Y-78916551D01*
X176486298Y-78907523D01*
X176511130Y-78881080D01*
X176516557Y-78875301D01*
X176520374Y-78868357D01*
X176520378Y-78868352D01*
X176526316Y-78857550D01*
X176537172Y-78841023D01*
X176544724Y-78831287D01*
X176549583Y-78825023D01*
X176567142Y-78784447D01*
X176572364Y-78773789D01*
X176578468Y-78762686D01*
X176628813Y-78712628D01*
X176698230Y-78697735D01*
X176764679Y-78722736D01*
X176798976Y-78762109D01*
X176835059Y-78826937D01*
X176838612Y-78831277D01*
X176838614Y-78831281D01*
X176913503Y-78922778D01*
X176978690Y-79002421D01*
X176982953Y-79006062D01*
X176982958Y-79006067D01*
X177132028Y-79133384D01*
X177151127Y-79149696D01*
X177191976Y-79173566D01*
X177341308Y-79260828D01*
X177346919Y-79264107D01*
X177352185Y-79266034D01*
X177356554Y-79268090D01*
X177409674Y-79315194D01*
X177428895Y-79383539D01*
X177408114Y-79451427D01*
X177360693Y-79494063D01*
X177211803Y-79570910D01*
X177202372Y-79576895D01*
X177201883Y-79577271D01*
X177193418Y-79588863D01*
X177200050Y-79600839D01*
X177877189Y-80277979D01*
X177891132Y-80285592D01*
X177892966Y-80285461D01*
X177899580Y-80281210D01*
X178577460Y-79603329D01*
X178583682Y-79591935D01*
X178573870Y-79579502D01*
X178508892Y-79535838D01*
X178499098Y-79530454D01*
X178423739Y-79497373D01*
X178369404Y-79451677D01*
X178348399Y-79383859D01*
X178367394Y-79315450D01*
X178420358Y-79268171D01*
X178429828Y-79264142D01*
X178445137Y-79258357D01*
X178639720Y-79141901D01*
X178643940Y-79138219D01*
X178643945Y-79138216D01*
X178806375Y-78996519D01*
X178810605Y-78992829D01*
X178852685Y-78940305D01*
X178948885Y-78820228D01*
X178948888Y-78820223D01*
X178952391Y-78815851D01*
X179060596Y-78616562D01*
X179131800Y-78401262D01*
X179163752Y-78176755D01*
X179165500Y-78110000D01*
X179145341Y-77884128D01*
X179106279Y-77741340D01*
X179086985Y-77670812D01*
X179086984Y-77670808D01*
X179085503Y-77665396D01*
X178987876Y-77460718D01*
X178855547Y-77276562D01*
X178743203Y-77167693D01*
X178696726Y-77122653D01*
X178696723Y-77122651D01*
X178692698Y-77118750D01*
X178618347Y-77068788D01*
X178509130Y-76995397D01*
X178509124Y-76995394D01*
X178504477Y-76992271D01*
X178424404Y-76957121D01*
X178370070Y-76911427D01*
X178349065Y-76843608D01*
X178368059Y-76775200D01*
X178421023Y-76727920D01*
X178430513Y-76723883D01*
X178439890Y-76720340D01*
X178439893Y-76720338D01*
X178445137Y-76718357D01*
X178639720Y-76601901D01*
X178643940Y-76598219D01*
X178643945Y-76598216D01*
X178806375Y-76456519D01*
X178810605Y-76452829D01*
X178844174Y-76410928D01*
X178948885Y-76280228D01*
X178948888Y-76280223D01*
X178952391Y-76275851D01*
X179060596Y-76076562D01*
X179131800Y-75861262D01*
X179163752Y-75636755D01*
X179165500Y-75570000D01*
X179145341Y-75344128D01*
X179106279Y-75201340D01*
X179086985Y-75130812D01*
X179086984Y-75130808D01*
X179085503Y-75125396D01*
X178987876Y-74920718D01*
X178855547Y-74736562D01*
X178724870Y-74609927D01*
X178696726Y-74582653D01*
X178696723Y-74582651D01*
X178692698Y-74578750D01*
X178619978Y-74529884D01*
X178509130Y-74455397D01*
X178509124Y-74455394D01*
X178504477Y-74452271D01*
X178424404Y-74417121D01*
X178370070Y-74371427D01*
X178349065Y-74303608D01*
X178368059Y-74235200D01*
X178421023Y-74187920D01*
X178430513Y-74183883D01*
X178439890Y-74180340D01*
X178439893Y-74180338D01*
X178445137Y-74178357D01*
X178458944Y-74170094D01*
X178615756Y-74076243D01*
X178639720Y-74061901D01*
X178643940Y-74058219D01*
X178643945Y-74058216D01*
X178806375Y-73916519D01*
X178810605Y-73912829D01*
X178821882Y-73898753D01*
X178948885Y-73740228D01*
X178948888Y-73740223D01*
X178952391Y-73735851D01*
X179060596Y-73536562D01*
X179131800Y-73321262D01*
X179144431Y-73232515D01*
X179163241Y-73100346D01*
X179163241Y-73100345D01*
X179163752Y-73096755D01*
X179165500Y-73030000D01*
X179145341Y-72804128D01*
X179106279Y-72661340D01*
X179086985Y-72590812D01*
X179086984Y-72590808D01*
X179085503Y-72585396D01*
X178987876Y-72380718D01*
X178855547Y-72196562D01*
X178746716Y-72091097D01*
X178696726Y-72042653D01*
X178696723Y-72042651D01*
X178692698Y-72038750D01*
X178605531Y-71980176D01*
X178509130Y-71915397D01*
X178509124Y-71915394D01*
X178504477Y-71912271D01*
X178424404Y-71877121D01*
X178370070Y-71831427D01*
X178349065Y-71763608D01*
X178368059Y-71695200D01*
X178421023Y-71647920D01*
X178430513Y-71643883D01*
X178439890Y-71640340D01*
X178439893Y-71640338D01*
X178445137Y-71638357D01*
X178639720Y-71521901D01*
X178643940Y-71518219D01*
X178643945Y-71518216D01*
X178806375Y-71376519D01*
X178810605Y-71372829D01*
X178877632Y-71289166D01*
X178948885Y-71200228D01*
X178948888Y-71200223D01*
X178952391Y-71195851D01*
X179060596Y-70996562D01*
X179131800Y-70781262D01*
X179163752Y-70556755D01*
X179165500Y-70490000D01*
X179145341Y-70264128D01*
X179106279Y-70121340D01*
X179086985Y-70050812D01*
X179086984Y-70050808D01*
X179085503Y-70045396D01*
X178987876Y-69840718D01*
X178855547Y-69656562D01*
X178787795Y-69590906D01*
X178696726Y-69502653D01*
X178696723Y-69502651D01*
X178692698Y-69498750D01*
X178565178Y-69413060D01*
X178509130Y-69375397D01*
X178509124Y-69375394D01*
X178504477Y-69372271D01*
X178499345Y-69370018D01*
X178499341Y-69370016D01*
X178423753Y-69336835D01*
X178369417Y-69291139D01*
X178348413Y-69223320D01*
X178367408Y-69154912D01*
X178420372Y-69107633D01*
X178429863Y-69103595D01*
X178439677Y-69099887D01*
X178449734Y-69095025D01*
X178575623Y-69019683D01*
X178585193Y-69009324D01*
X178581650Y-69000861D01*
X177902811Y-68322021D01*
X177888868Y-68314408D01*
X177887034Y-68314539D01*
X177880420Y-68318790D01*
X177201152Y-68998059D01*
X177194395Y-69010434D01*
X177199676Y-69017489D01*
X177342284Y-69100822D01*
X177356544Y-69107532D01*
X177409665Y-69154635D01*
X177428887Y-69222980D01*
X177408108Y-69290868D01*
X177360685Y-69333506D01*
X177211536Y-69410488D01*
X177206553Y-69413060D01*
X177026645Y-69551108D01*
X177022872Y-69555254D01*
X177022867Y-69555259D01*
X176974402Y-69608522D01*
X176874026Y-69718834D01*
X176871043Y-69723590D01*
X176871041Y-69723592D01*
X176766507Y-69890234D01*
X176753521Y-69910935D01*
X176668939Y-70121340D01*
X176622953Y-70343398D01*
X176617017Y-70570089D01*
X176651318Y-70794249D01*
X176724773Y-71008793D01*
X176835059Y-71206937D01*
X176838612Y-71211277D01*
X176838614Y-71211281D01*
X176922575Y-71313861D01*
X176978690Y-71382421D01*
X176982953Y-71386062D01*
X176982958Y-71386067D01*
X177093405Y-71480397D01*
X177151127Y-71529696D01*
X177179535Y-71546296D01*
X177340473Y-71640340D01*
X177346919Y-71644107D01*
X177352196Y-71646038D01*
X177355983Y-71647820D01*
X177409104Y-71694923D01*
X177428327Y-71763268D01*
X177407548Y-71831156D01*
X177360125Y-71873795D01*
X177289943Y-71910019D01*
X177206553Y-71953060D01*
X177026645Y-72091108D01*
X177022872Y-72095254D01*
X177022867Y-72095259D01*
X176902033Y-72228055D01*
X176874026Y-72258834D01*
X176871043Y-72263590D01*
X176871041Y-72263592D01*
X176792600Y-72388638D01*
X176739457Y-72435716D01*
X176728786Y-72439746D01*
X176724035Y-72441802D01*
X176716421Y-72444014D01*
X176698988Y-72454324D01*
X176681241Y-72463018D01*
X176662400Y-72470478D01*
X176655985Y-72475139D01*
X176626629Y-72496467D01*
X176616712Y-72502982D01*
X176578658Y-72525487D01*
X176578240Y-72525855D01*
X176564158Y-72539937D01*
X176549125Y-72552778D01*
X176532917Y-72564554D01*
X176527868Y-72570657D01*
X176527867Y-72570658D01*
X176504975Y-72598330D01*
X176496986Y-72607109D01*
X175607474Y-73496622D01*
X175599395Y-73503972D01*
X175593006Y-73508027D01*
X175587583Y-73513802D01*
X175547148Y-73556861D01*
X175544393Y-73559703D01*
X175524062Y-73580034D01*
X175521628Y-73583171D01*
X175521626Y-73583174D01*
X175521403Y-73583461D01*
X175513707Y-73592471D01*
X175490251Y-73617450D01*
X175483444Y-73624699D01*
X175479628Y-73631640D01*
X175479626Y-73631643D01*
X175473688Y-73642445D01*
X175462834Y-73658968D01*
X175455278Y-73668710D01*
X175450417Y-73674977D01*
X175447269Y-73682252D01*
X175432859Y-73715551D01*
X175427637Y-73726211D01*
X175413855Y-73751281D01*
X175406339Y-73764952D01*
X175401301Y-73784572D01*
X175394902Y-73803264D01*
X175386853Y-73821865D01*
X175385613Y-73829692D01*
X175385613Y-73829693D01*
X175379937Y-73865531D01*
X175377530Y-73877154D01*
X175366536Y-73919975D01*
X175366501Y-73920531D01*
X175366501Y-73940447D01*
X175364950Y-73960157D01*
X175361816Y-73979945D01*
X175362562Y-73987837D01*
X175365942Y-74023593D01*
X175366501Y-74035451D01*
X175366500Y-78185406D01*
X175346498Y-78253527D01*
X175329595Y-78274501D01*
X175274501Y-78329595D01*
X175212189Y-78363621D01*
X175185406Y-78366500D01*
X173078383Y-78366500D01*
X173067479Y-78365986D01*
X173060088Y-78364334D01*
X173052163Y-78364583D01*
X173052162Y-78364583D01*
X172993147Y-78366438D01*
X172989189Y-78366500D01*
X172960422Y-78366500D01*
X172956137Y-78367041D01*
X172944303Y-78367973D01*
X172918286Y-78368791D01*
X172908036Y-78369113D01*
X172908035Y-78369113D01*
X172900116Y-78369362D01*
X172892508Y-78371572D01*
X172892503Y-78371573D01*
X172880661Y-78375013D01*
X172861307Y-78379021D01*
X172849079Y-78380566D01*
X172841212Y-78381560D01*
X172833844Y-78384477D01*
X172833837Y-78384479D01*
X172800099Y-78397837D01*
X172788869Y-78401682D01*
X172754031Y-78411803D01*
X172754030Y-78411804D01*
X172746421Y-78414014D01*
X172728988Y-78424324D01*
X172711241Y-78433018D01*
X172692400Y-78440478D01*
X172685985Y-78445139D01*
X172656629Y-78466467D01*
X172646712Y-78472982D01*
X172608658Y-78495487D01*
X172608240Y-78495855D01*
X172594158Y-78509937D01*
X172579125Y-78522778D01*
X172562917Y-78534554D01*
X172557868Y-78540657D01*
X172557867Y-78540658D01*
X172534970Y-78568336D01*
X172526980Y-78577115D01*
X172019365Y-79084731D01*
X171524501Y-79579595D01*
X171462189Y-79613620D01*
X171435406Y-79616500D01*
X170059546Y-79616500D01*
X170039837Y-79614949D01*
X170020055Y-79611816D01*
X170012163Y-79612562D01*
X169976418Y-79615941D01*
X169964560Y-79616500D01*
X169535938Y-79616500D01*
X169467817Y-79596498D01*
X169421324Y-79542842D01*
X169410628Y-79477331D01*
X169412810Y-79456568D01*
X169412810Y-79456565D01*
X169413500Y-79450000D01*
X169401782Y-79338514D01*
X169394228Y-79266637D01*
X169394228Y-79266636D01*
X169393538Y-79260073D01*
X169388129Y-79243424D01*
X169336566Y-79084731D01*
X169334524Y-79078446D01*
X169328627Y-79068231D01*
X169281263Y-78986195D01*
X169239037Y-78913058D01*
X169200530Y-78870291D01*
X169115673Y-78776048D01*
X169115672Y-78776047D01*
X169111251Y-78771137D01*
X169105909Y-78767256D01*
X169105907Y-78767254D01*
X168962092Y-78662767D01*
X168962091Y-78662766D01*
X168956750Y-78658886D01*
X168950722Y-78656202D01*
X168950720Y-78656201D01*
X168788318Y-78583895D01*
X168788317Y-78583895D01*
X168782287Y-78581210D01*
X168688887Y-78561357D01*
X168601944Y-78542876D01*
X168601939Y-78542876D01*
X168595487Y-78541504D01*
X168404513Y-78541504D01*
X168398061Y-78542876D01*
X168398056Y-78542876D01*
X168311113Y-78561357D01*
X168217713Y-78581210D01*
X168211683Y-78583895D01*
X168211682Y-78583895D01*
X168049280Y-78656201D01*
X168049278Y-78656202D01*
X168043250Y-78658886D01*
X168037909Y-78662766D01*
X168037908Y-78662767D01*
X167894093Y-78767254D01*
X167894091Y-78767256D01*
X167888749Y-78771137D01*
X167884328Y-78776047D01*
X167884327Y-78776048D01*
X167799471Y-78870291D01*
X167760963Y-78913058D01*
X167718737Y-78986195D01*
X167671374Y-79068231D01*
X167665476Y-79078446D01*
X167663434Y-79084731D01*
X167611872Y-79243424D01*
X167606462Y-79260073D01*
X167605772Y-79266636D01*
X167605772Y-79266637D01*
X167598218Y-79338514D01*
X167586500Y-79450000D01*
X167333520Y-79450000D01*
X167333520Y-75419859D01*
X167334034Y-75408955D01*
X167335686Y-75401564D01*
X167334772Y-75372468D01*
X167333582Y-75334623D01*
X167333520Y-75330665D01*
X167333520Y-75301898D01*
X167332979Y-75297613D01*
X167332046Y-75285772D01*
X167330907Y-75249512D01*
X167330907Y-75249511D01*
X167330658Y-75241592D01*
X167328448Y-75233984D01*
X167328447Y-75233979D01*
X167325007Y-75222137D01*
X167320999Y-75202783D01*
X167319454Y-75190555D01*
X167318460Y-75182688D01*
X167315543Y-75175320D01*
X167315541Y-75175313D01*
X167302183Y-75141575D01*
X167298338Y-75130345D01*
X167288217Y-75095507D01*
X167288216Y-75095506D01*
X167286006Y-75087897D01*
X167275696Y-75070464D01*
X167267002Y-75052717D01*
X167259542Y-75033876D01*
X167233553Y-74998105D01*
X167227037Y-74988186D01*
X167207566Y-74955263D01*
X167204533Y-74950134D01*
X167204164Y-74949716D01*
X167190082Y-74935634D01*
X167177248Y-74920609D01*
X167165466Y-74904393D01*
X167131684Y-74876446D01*
X167122905Y-74868457D01*
X165523868Y-73269420D01*
X165489842Y-73207108D01*
X165486963Y-73180325D01*
X165486963Y-72527033D01*
X165471485Y-72394276D01*
X165468401Y-72385778D01*
X165413647Y-72234934D01*
X165411150Y-72228055D01*
X165331947Y-72107250D01*
X165318206Y-72086291D01*
X165318205Y-72086290D01*
X165314194Y-72080172D01*
X165185818Y-71958561D01*
X165074678Y-71894006D01*
X165025819Y-71842495D01*
X165011963Y-71785052D01*
X165011963Y-71756686D01*
X165031965Y-71688565D01*
X165075154Y-71649762D01*
X165074369Y-71648564D01*
X165216133Y-71555620D01*
X165216134Y-71555619D01*
X165222252Y-71551608D01*
X165343863Y-71423232D01*
X165432680Y-71270322D01*
X165483938Y-71101081D01*
X165491005Y-71021899D01*
X165491005Y-70022991D01*
X165475527Y-69890234D01*
X165459391Y-69845778D01*
X165417689Y-69730892D01*
X165415192Y-69724013D01*
X165318236Y-69576130D01*
X165189860Y-69454519D01*
X165078720Y-69389964D01*
X165029861Y-69338453D01*
X165016005Y-69281010D01*
X165016005Y-68024452D01*
X176617663Y-68024452D01*
X176618365Y-68035604D01*
X176650955Y-68248579D01*
X176653622Y-68259440D01*
X176723413Y-68463281D01*
X176727961Y-68473495D01*
X176819031Y-68637117D01*
X176829084Y-68647008D01*
X176836687Y-68644102D01*
X177517979Y-67962811D01*
X177524355Y-67951132D01*
X178254408Y-67951132D01*
X178254539Y-67952966D01*
X178258790Y-67959580D01*
X178940156Y-68640945D01*
X178952531Y-68647702D01*
X178958796Y-68643013D01*
X179057462Y-68461290D01*
X179061896Y-68451044D01*
X179129553Y-68246469D01*
X179132103Y-68235596D01*
X179162742Y-68020319D01*
X179163348Y-68013103D01*
X179164905Y-67953632D01*
X179164677Y-67946379D01*
X179145348Y-67729812D01*
X179143366Y-67718798D01*
X179086517Y-67510987D01*
X179082619Y-67500506D01*
X178989859Y-67306031D01*
X178984173Y-67296416D01*
X178960719Y-67263776D01*
X178949928Y-67255365D01*
X178936894Y-67262317D01*
X178262021Y-67937189D01*
X178254408Y-67951132D01*
X177524355Y-67951132D01*
X177525592Y-67948868D01*
X177525461Y-67947034D01*
X177521210Y-67940420D01*
X176843095Y-67262306D01*
X176830720Y-67255549D01*
X176822747Y-67261517D01*
X176756952Y-67366403D01*
X176751872Y-67376373D01*
X176671511Y-67576278D01*
X176668280Y-67586978D01*
X176624588Y-67797958D01*
X176623303Y-67809065D01*
X176617663Y-68024452D01*
X165016005Y-68024452D01*
X165016005Y-66649003D01*
X165036007Y-66580882D01*
X165075815Y-66545111D01*
X165074369Y-66542905D01*
X165216133Y-66449961D01*
X165216134Y-66449960D01*
X165222252Y-66445949D01*
X165343863Y-66317573D01*
X165432680Y-66164663D01*
X165483938Y-65995422D01*
X165489885Y-65928793D01*
X165490756Y-65919033D01*
X165490756Y-65919027D01*
X165491005Y-65916240D01*
X165491005Y-64917332D01*
X165475527Y-64784575D01*
X165466868Y-64760718D01*
X165417689Y-64625233D01*
X165415192Y-64618354D01*
X165318236Y-64470471D01*
X165189860Y-64348860D01*
X165078720Y-64284305D01*
X165029861Y-64232794D01*
X165016005Y-64175351D01*
X165016005Y-64118981D01*
X165036007Y-64050860D01*
X165075815Y-64015089D01*
X165074369Y-64012883D01*
X165216133Y-63919939D01*
X165216134Y-63919938D01*
X165222252Y-63915927D01*
X165343863Y-63787551D01*
X165432680Y-63634641D01*
X165483938Y-63465400D01*
X165484513Y-63458959D01*
X165490756Y-63389011D01*
X165490756Y-63389005D01*
X165491005Y-63386218D01*
X165491005Y-62387310D01*
X165475527Y-62254553D01*
X165472870Y-62247231D01*
X165447798Y-62178161D01*
X165442180Y-62162683D01*
X165437739Y-62091827D01*
X165472311Y-62029817D01*
X165534921Y-61996341D01*
X165560719Y-61993693D01*
X172779128Y-61999450D01*
G37*
%TD.AperFunction*%
%TA.AperFunction,Conductor*%
G36*
X172840353Y-83751713D02*
G01*
X172884377Y-83780281D01*
X173254595Y-84150499D01*
X173288621Y-84212811D01*
X173291500Y-84239594D01*
X173291500Y-84392885D01*
X173291924Y-84396518D01*
X173291924Y-84396525D01*
X173306130Y-84518370D01*
X173306978Y-84525642D01*
X173309474Y-84532520D01*
X173309475Y-84532522D01*
X173339557Y-84615397D01*
X173367313Y-84691863D01*
X173415813Y-84765838D01*
X173457441Y-84829331D01*
X173464269Y-84839746D01*
X173592645Y-84961358D01*
X173745555Y-85050175D01*
X173914796Y-85101433D01*
X173921236Y-85102008D01*
X173921237Y-85102008D01*
X173991185Y-85108251D01*
X173991191Y-85108251D01*
X173993978Y-85108500D01*
X174992885Y-85108500D01*
X175095811Y-85096500D01*
X175118370Y-85093870D01*
X175118371Y-85093870D01*
X175125642Y-85093022D01*
X175165160Y-85078678D01*
X175197509Y-85066936D01*
X175268367Y-85062495D01*
X175330377Y-85097068D01*
X175363852Y-85159678D01*
X175366500Y-85185375D01*
X175366500Y-86516736D01*
X175346498Y-86584857D01*
X175292842Y-86631350D01*
X175222568Y-86641454D01*
X175157988Y-86611960D01*
X175131381Y-86579736D01*
X175125601Y-86569724D01*
X175064017Y-86463058D01*
X174990844Y-86381791D01*
X174960126Y-86317784D01*
X174958480Y-86297481D01*
X174958480Y-86285402D01*
X174957940Y-86281128D01*
X174957006Y-86269276D01*
X174956363Y-86248793D01*
X174955618Y-86225097D01*
X174949966Y-86205641D01*
X174945961Y-86186301D01*
X174943420Y-86166192D01*
X174940501Y-86158820D01*
X174940500Y-86158815D01*
X174927144Y-86125081D01*
X174923299Y-86113852D01*
X174913178Y-86079015D01*
X174910966Y-86071401D01*
X174900657Y-86053969D01*
X174891960Y-86036216D01*
X174887422Y-86024755D01*
X174884502Y-86017380D01*
X174858511Y-85981606D01*
X174851996Y-85971687D01*
X174832528Y-85938771D01*
X174829493Y-85933639D01*
X174829125Y-85933222D01*
X174815045Y-85919142D01*
X174802204Y-85904108D01*
X174795086Y-85894311D01*
X174790426Y-85887897D01*
X174756647Y-85859953D01*
X174747866Y-85851963D01*
X174528385Y-85632481D01*
X174521030Y-85624398D01*
X174516973Y-85618005D01*
X174468120Y-85572129D01*
X174465279Y-85569375D01*
X174444966Y-85549062D01*
X174441555Y-85546417D01*
X174432533Y-85538711D01*
X174406077Y-85513867D01*
X174400301Y-85508443D01*
X174393357Y-85504626D01*
X174393355Y-85504624D01*
X174382547Y-85498682D01*
X174366023Y-85487828D01*
X174356286Y-85480275D01*
X174356285Y-85480275D01*
X174350023Y-85475417D01*
X174342750Y-85472270D01*
X174342747Y-85472268D01*
X174317532Y-85461357D01*
X174309458Y-85457863D01*
X174298800Y-85452642D01*
X174266994Y-85435156D01*
X174266990Y-85435154D01*
X174260048Y-85431338D01*
X174252373Y-85429368D01*
X174252372Y-85429367D01*
X174240426Y-85426300D01*
X174221719Y-85419895D01*
X174210410Y-85415001D01*
X174210408Y-85415001D01*
X174203135Y-85411853D01*
X174195307Y-85410613D01*
X174195306Y-85410613D01*
X174159473Y-85404938D01*
X174147848Y-85402530D01*
X174110782Y-85393013D01*
X174110780Y-85393013D01*
X174105025Y-85391535D01*
X174104469Y-85391500D01*
X174084546Y-85391500D01*
X174064837Y-85389949D01*
X174045055Y-85386816D01*
X174037163Y-85387562D01*
X174001418Y-85390941D01*
X173989560Y-85391500D01*
X172770329Y-85391500D01*
X172702208Y-85371498D01*
X172655715Y-85317842D01*
X172645611Y-85247568D01*
X172661375Y-85202214D01*
X172671041Y-85185573D01*
X172676838Y-85172241D01*
X172724067Y-85016303D01*
X172726516Y-85003677D01*
X172732751Y-84933816D01*
X172733000Y-84928221D01*
X172733000Y-84809615D01*
X172728525Y-84794376D01*
X172727135Y-84793171D01*
X172719452Y-84791500D01*
X171372000Y-84791499D01*
X171303879Y-84771497D01*
X171257386Y-84717841D01*
X171246000Y-84665499D01*
X171246001Y-84409500D01*
X171266003Y-84341379D01*
X171319659Y-84294886D01*
X171372001Y-84283500D01*
X172714885Y-84283501D01*
X172730124Y-84279026D01*
X172731329Y-84277636D01*
X172733000Y-84269953D01*
X172733000Y-84160778D01*
X172732576Y-84153477D01*
X172718383Y-84031746D01*
X172715037Y-84017591D01*
X172676843Y-83912367D01*
X172672402Y-83841509D01*
X172706975Y-83779499D01*
X172769584Y-83746024D01*
X172840353Y-83751713D01*
G37*
%TD.AperFunction*%
%TA.AperFunction,Conductor*%
G36*
X156343698Y-61986342D02*
G01*
X158708600Y-61988228D01*
X158776705Y-62008284D01*
X158823155Y-62061977D01*
X158834500Y-62114228D01*
X158834500Y-63632000D01*
X158839727Y-63705079D01*
X158880904Y-63845316D01*
X158885775Y-63852895D01*
X158955051Y-63960691D01*
X158955053Y-63960694D01*
X158959923Y-63968271D01*
X158966733Y-63974172D01*
X159063569Y-64058082D01*
X159063572Y-64058084D01*
X159070381Y-64063984D01*
X159078579Y-64067728D01*
X159182224Y-64115061D01*
X159203330Y-64124700D01*
X159212245Y-64125982D01*
X159212246Y-64125982D01*
X159238941Y-64129820D01*
X159323917Y-64142037D01*
X159388497Y-64171530D01*
X159426881Y-64231256D01*
X159426881Y-64302253D01*
X159388498Y-64361979D01*
X159382690Y-64366717D01*
X159246645Y-64471108D01*
X159242872Y-64475254D01*
X159242867Y-64475259D01*
X159154244Y-64572655D01*
X159094026Y-64638834D01*
X159091043Y-64643590D01*
X159091041Y-64643592D01*
X158998041Y-64791847D01*
X158973521Y-64830935D01*
X158888939Y-65041340D01*
X158842953Y-65263398D01*
X158837017Y-65490089D01*
X158871318Y-65714249D01*
X158944773Y-65928793D01*
X159055059Y-66126937D01*
X159058612Y-66131277D01*
X159058614Y-66131281D01*
X159116564Y-66202082D01*
X159198690Y-66302421D01*
X159202953Y-66306062D01*
X159202958Y-66306067D01*
X159283362Y-66374738D01*
X159371127Y-66449696D01*
X159414863Y-66475253D01*
X159560466Y-66560336D01*
X159566919Y-66564107D01*
X159572185Y-66566034D01*
X159576554Y-66568090D01*
X159629674Y-66615194D01*
X159648895Y-66683539D01*
X159628114Y-66751427D01*
X159580693Y-66794063D01*
X159431803Y-66870910D01*
X159422372Y-66876895D01*
X159421883Y-66877271D01*
X159413418Y-66888863D01*
X159420050Y-66900839D01*
X160097189Y-67577979D01*
X160111132Y-67585592D01*
X160112966Y-67585461D01*
X160119580Y-67581210D01*
X160797460Y-66903329D01*
X160803682Y-66891935D01*
X160793870Y-66879502D01*
X160728892Y-66835838D01*
X160719098Y-66830454D01*
X160643739Y-66797373D01*
X160589404Y-66751677D01*
X160568399Y-66683859D01*
X160587394Y-66615450D01*
X160640358Y-66568171D01*
X160649828Y-66564142D01*
X160665137Y-66558357D01*
X160687270Y-66545111D01*
X160818548Y-66466542D01*
X160859720Y-66441901D01*
X160863940Y-66438219D01*
X160863945Y-66438216D01*
X161026375Y-66296519D01*
X161030605Y-66292829D01*
X161034114Y-66288449D01*
X161034119Y-66288444D01*
X161132713Y-66165378D01*
X161190915Y-66124720D01*
X161261859Y-66121983D01*
X161323020Y-66158036D01*
X161342331Y-66189512D01*
X161344042Y-66188655D01*
X161347321Y-66195202D01*
X161349818Y-66202082D01*
X161446774Y-66349965D01*
X161575150Y-66471576D01*
X161728060Y-66560393D01*
X161897301Y-66611651D01*
X161903741Y-66612226D01*
X161903742Y-66612226D01*
X161973690Y-66618469D01*
X161973696Y-66618469D01*
X161976483Y-66618718D01*
X162775391Y-66618718D01*
X162870611Y-66607616D01*
X162900876Y-66604088D01*
X162900877Y-66604088D01*
X162908148Y-66603240D01*
X162915026Y-66600744D01*
X162915028Y-66600743D01*
X163067490Y-66545402D01*
X163074369Y-66542905D01*
X163190842Y-66466542D01*
X163216133Y-66449961D01*
X163216134Y-66449960D01*
X163222252Y-66445949D01*
X163234313Y-66433217D01*
X163289711Y-66374738D01*
X163351081Y-66339040D01*
X163422007Y-66342188D01*
X163467837Y-66369918D01*
X163575150Y-66471576D01*
X163686292Y-66536132D01*
X163735150Y-66587643D01*
X163749006Y-66645086D01*
X163749005Y-69277092D01*
X163729003Y-69345213D01*
X163689195Y-69380984D01*
X163690641Y-69383190D01*
X163574168Y-69459553D01*
X163542758Y-69480146D01*
X163537726Y-69485458D01*
X163475299Y-69551357D01*
X163413929Y-69587055D01*
X163343003Y-69583907D01*
X163297173Y-69556177D01*
X163195174Y-69459553D01*
X163189860Y-69454519D01*
X163036950Y-69365702D01*
X162867709Y-69314444D01*
X162861269Y-69313869D01*
X162861268Y-69313869D01*
X162791320Y-69307626D01*
X162791314Y-69307626D01*
X162788527Y-69307377D01*
X161989619Y-69307377D01*
X161894399Y-69318479D01*
X161864134Y-69322007D01*
X161864133Y-69322007D01*
X161856862Y-69322855D01*
X161849984Y-69325351D01*
X161849982Y-69325352D01*
X161795266Y-69345213D01*
X161690641Y-69383190D01*
X161542758Y-69480146D01*
X161421147Y-69608522D01*
X161348962Y-69732798D01*
X161297453Y-69781656D01*
X161227704Y-69794910D01*
X161161862Y-69768351D01*
X161137686Y-69743038D01*
X161078823Y-69661121D01*
X161075547Y-69656562D01*
X161007795Y-69590906D01*
X160916726Y-69502653D01*
X160916723Y-69502651D01*
X160912698Y-69498750D01*
X160785178Y-69413060D01*
X160729130Y-69375397D01*
X160729124Y-69375394D01*
X160724477Y-69372271D01*
X160719345Y-69370018D01*
X160719341Y-69370016D01*
X160643753Y-69336835D01*
X160589417Y-69291139D01*
X160568413Y-69223320D01*
X160587408Y-69154912D01*
X160640372Y-69107633D01*
X160649863Y-69103595D01*
X160659677Y-69099887D01*
X160669734Y-69095025D01*
X160795623Y-69019683D01*
X160805193Y-69009324D01*
X160801650Y-69000861D01*
X160122811Y-68322021D01*
X160108868Y-68314408D01*
X160107034Y-68314539D01*
X160100420Y-68318790D01*
X159421152Y-68998059D01*
X159414395Y-69010434D01*
X159419676Y-69017489D01*
X159562284Y-69100822D01*
X159576544Y-69107532D01*
X159629665Y-69154635D01*
X159648887Y-69222980D01*
X159628108Y-69290868D01*
X159580685Y-69333506D01*
X159431536Y-69410488D01*
X159426553Y-69413060D01*
X159246645Y-69551108D01*
X159242872Y-69555254D01*
X159242867Y-69555259D01*
X159194402Y-69608522D01*
X159094026Y-69718834D01*
X159091043Y-69723590D01*
X159091041Y-69723592D01*
X158986507Y-69890234D01*
X158973521Y-69910935D01*
X158888939Y-70121340D01*
X158842953Y-70343398D01*
X158837017Y-70570089D01*
X158871318Y-70794249D01*
X158944773Y-71008793D01*
X159055059Y-71206937D01*
X159058612Y-71211277D01*
X159058614Y-71211281D01*
X159142575Y-71313861D01*
X159198690Y-71382421D01*
X159202953Y-71386062D01*
X159202958Y-71386067D01*
X159313405Y-71480397D01*
X159371127Y-71529696D01*
X159399535Y-71546296D01*
X159560473Y-71640340D01*
X159566919Y-71644107D01*
X159572196Y-71646038D01*
X159575983Y-71647820D01*
X159629104Y-71694923D01*
X159648327Y-71763268D01*
X159627548Y-71831156D01*
X159580125Y-71873795D01*
X159509943Y-71910019D01*
X159426553Y-71953060D01*
X159246645Y-72091108D01*
X159242872Y-72095254D01*
X159242867Y-72095259D01*
X159122033Y-72228055D01*
X159094026Y-72258834D01*
X159091043Y-72263590D01*
X159091041Y-72263592D01*
X158977863Y-72444014D01*
X158973521Y-72450935D01*
X158888939Y-72661340D01*
X158842953Y-72883398D01*
X158837017Y-73110089D01*
X158871318Y-73334249D01*
X158944773Y-73548793D01*
X159055059Y-73746937D01*
X159058612Y-73751277D01*
X159058614Y-73751281D01*
X159161641Y-73877156D01*
X159198690Y-73922421D01*
X159202953Y-73926062D01*
X159202958Y-73926067D01*
X159292311Y-74002381D01*
X159371127Y-74069696D01*
X159480998Y-74133899D01*
X159560473Y-74180340D01*
X159566919Y-74184107D01*
X159572196Y-74186038D01*
X159575983Y-74187820D01*
X159629104Y-74234923D01*
X159648327Y-74303268D01*
X159627548Y-74371156D01*
X159580125Y-74413795D01*
X159535283Y-74436940D01*
X159426553Y-74493060D01*
X159246645Y-74631108D01*
X159242872Y-74635254D01*
X159242867Y-74635259D01*
X159110148Y-74781116D01*
X159094026Y-74798834D01*
X159091044Y-74803588D01*
X159091041Y-74803592D01*
X158999378Y-74949716D01*
X158973521Y-74990935D01*
X158888939Y-75201340D01*
X158887800Y-75206841D01*
X158847475Y-75401564D01*
X158842953Y-75423398D01*
X158837017Y-75650089D01*
X158871318Y-75874249D01*
X158944773Y-76088793D01*
X159055059Y-76286937D01*
X159058612Y-76291277D01*
X159058614Y-76291281D01*
X159105584Y-76348667D01*
X159198690Y-76462421D01*
X159202953Y-76466062D01*
X159202958Y-76466067D01*
X159282670Y-76534147D01*
X159371127Y-76609696D01*
X159480998Y-76673899D01*
X159560473Y-76720340D01*
X159566919Y-76724107D01*
X159572196Y-76726038D01*
X159575983Y-76727820D01*
X159629104Y-76774923D01*
X159648327Y-76843268D01*
X159627548Y-76911156D01*
X159580125Y-76953795D01*
X159512297Y-76988804D01*
X159426553Y-77033060D01*
X159422105Y-77036473D01*
X159412950Y-77043498D01*
X159246645Y-77171108D01*
X159242872Y-77175254D01*
X159242867Y-77175259D01*
X159119765Y-77310547D01*
X159094026Y-77338834D01*
X159091044Y-77343588D01*
X159091041Y-77343592D01*
X159003661Y-77482888D01*
X158973521Y-77530935D01*
X158888939Y-77741340D01*
X158842953Y-77963398D01*
X158837017Y-78190089D01*
X158871318Y-78414249D01*
X158944773Y-78628793D01*
X159055059Y-78826937D01*
X159058612Y-78831277D01*
X159058614Y-78831281D01*
X159133503Y-78922778D01*
X159198690Y-79002421D01*
X159202953Y-79006062D01*
X159202958Y-79006067D01*
X159352028Y-79133384D01*
X159371127Y-79149696D01*
X159411976Y-79173566D01*
X159561308Y-79260828D01*
X159566919Y-79264107D01*
X159572185Y-79266034D01*
X159576554Y-79268090D01*
X159629674Y-79315194D01*
X159648895Y-79383539D01*
X159628114Y-79451427D01*
X159580693Y-79494063D01*
X159431803Y-79570910D01*
X159422372Y-79576895D01*
X159421883Y-79577271D01*
X159413418Y-79588863D01*
X159420050Y-79600839D01*
X160097189Y-80277979D01*
X160111132Y-80285592D01*
X160112966Y-80285461D01*
X160119580Y-80281210D01*
X160797460Y-79603329D01*
X160803682Y-79591935D01*
X160793870Y-79579502D01*
X160728892Y-79535838D01*
X160719098Y-79530454D01*
X160643739Y-79497373D01*
X160589404Y-79451677D01*
X160568399Y-79383859D01*
X160587394Y-79315450D01*
X160640358Y-79268171D01*
X160649828Y-79264142D01*
X160665137Y-79258357D01*
X160859720Y-79141901D01*
X160863940Y-79138219D01*
X160863945Y-79138216D01*
X161026375Y-78996519D01*
X161030605Y-78992829D01*
X161034114Y-78988449D01*
X161034119Y-78988444D01*
X161128777Y-78870291D01*
X161186979Y-78829633D01*
X161257923Y-78826896D01*
X161319084Y-78862949D01*
X161339775Y-78892654D01*
X161340204Y-78893512D01*
X161342703Y-78900395D01*
X161346718Y-78906519D01*
X161406231Y-78997291D01*
X161439659Y-79048278D01*
X161568035Y-79169889D01*
X161720945Y-79258706D01*
X161890186Y-79309964D01*
X161896626Y-79310539D01*
X161896627Y-79310539D01*
X161966575Y-79316782D01*
X161966581Y-79316782D01*
X161969368Y-79317031D01*
X162768276Y-79317031D01*
X162863496Y-79305929D01*
X162893761Y-79302401D01*
X162893762Y-79302401D01*
X162901033Y-79301553D01*
X162907911Y-79299057D01*
X162907913Y-79299056D01*
X163060375Y-79243715D01*
X163067254Y-79241218D01*
X163215137Y-79144262D01*
X163277485Y-79078446D01*
X163282596Y-79073051D01*
X163343966Y-79037353D01*
X163414892Y-79040501D01*
X163460722Y-79068231D01*
X163568035Y-79169889D01*
X163679175Y-79234444D01*
X163728034Y-79285955D01*
X163741890Y-79343398D01*
X163741891Y-80653632D01*
X163741891Y-81962152D01*
X163721889Y-82030273D01*
X163684976Y-82067524D01*
X163540124Y-82162493D01*
X163535092Y-82167805D01*
X163472665Y-82233704D01*
X163411295Y-82269402D01*
X163340369Y-82266254D01*
X163294539Y-82238524D01*
X163192540Y-82141900D01*
X163187226Y-82136866D01*
X163034316Y-82048049D01*
X162865075Y-81996791D01*
X162858635Y-81996216D01*
X162858634Y-81996216D01*
X162788686Y-81989973D01*
X162788680Y-81989973D01*
X162785893Y-81989724D01*
X161986985Y-81989724D01*
X161891765Y-82000826D01*
X161861500Y-82004354D01*
X161861499Y-82004354D01*
X161854228Y-82005202D01*
X161847350Y-82007698D01*
X161847348Y-82007699D01*
X161742032Y-82045927D01*
X161688007Y-82065537D01*
X161540124Y-82162493D01*
X161418513Y-82290869D01*
X161344186Y-82418834D01*
X161341836Y-82422879D01*
X161290325Y-82471738D01*
X161220577Y-82484992D01*
X161154735Y-82458433D01*
X161130559Y-82433120D01*
X161129216Y-82431250D01*
X161081104Y-82364295D01*
X161078823Y-82361120D01*
X161078818Y-82361115D01*
X161075547Y-82356562D01*
X160980646Y-82264596D01*
X160916726Y-82202653D01*
X160916723Y-82202651D01*
X160912698Y-82198750D01*
X160815133Y-82133189D01*
X160729130Y-82075397D01*
X160729124Y-82075394D01*
X160724477Y-82072271D01*
X160719345Y-82070018D01*
X160719341Y-82070016D01*
X160643753Y-82036835D01*
X160589417Y-81991139D01*
X160568413Y-81923320D01*
X160587408Y-81854912D01*
X160640372Y-81807633D01*
X160649863Y-81803595D01*
X160659677Y-81799887D01*
X160669734Y-81795025D01*
X160795623Y-81719683D01*
X160805193Y-81709324D01*
X160801650Y-81700861D01*
X160122811Y-81022021D01*
X160108868Y-81014408D01*
X160107034Y-81014539D01*
X160100420Y-81018790D01*
X159421152Y-81698059D01*
X159414395Y-81710434D01*
X159419676Y-81717489D01*
X159562284Y-81800822D01*
X159576544Y-81807532D01*
X159629665Y-81854635D01*
X159648887Y-81922980D01*
X159628108Y-81990868D01*
X159580685Y-82033506D01*
X159458095Y-82096780D01*
X159426553Y-82113060D01*
X159246645Y-82251108D01*
X159242872Y-82255254D01*
X159242867Y-82255259D01*
X159110945Y-82400240D01*
X159094026Y-82418834D01*
X159091044Y-82423588D01*
X159091041Y-82423592D01*
X158993019Y-82579853D01*
X158973521Y-82610935D01*
X158888939Y-82821340D01*
X158842953Y-83043398D01*
X158837017Y-83270089D01*
X158871318Y-83494249D01*
X158944773Y-83708793D01*
X159055059Y-83906937D01*
X159058612Y-83911277D01*
X159058614Y-83911281D01*
X159148610Y-84021235D01*
X159198690Y-84082421D01*
X159202953Y-84086062D01*
X159202958Y-84086067D01*
X159290434Y-84160778D01*
X159371127Y-84229696D01*
X159440019Y-84269953D01*
X159560473Y-84340340D01*
X159566919Y-84344107D01*
X159572196Y-84346038D01*
X159575983Y-84347820D01*
X159629104Y-84394923D01*
X159648327Y-84463268D01*
X159627548Y-84531156D01*
X159580125Y-84573795D01*
X159524600Y-84602454D01*
X159426553Y-84653060D01*
X159422105Y-84656473D01*
X159410342Y-84665499D01*
X159246645Y-84791108D01*
X159242872Y-84795254D01*
X159242867Y-84795259D01*
X159121882Y-84928221D01*
X159094026Y-84958834D01*
X159091044Y-84963588D01*
X159091041Y-84963592D01*
X159000297Y-85108251D01*
X158973521Y-85150935D01*
X158888939Y-85361340D01*
X158882809Y-85390941D01*
X158849394Y-85552297D01*
X158842953Y-85583398D01*
X158837017Y-85810089D01*
X158871318Y-86034249D01*
X158944773Y-86248793D01*
X159055059Y-86446937D01*
X159058612Y-86451277D01*
X159058614Y-86451281D01*
X159142324Y-86553555D01*
X159198690Y-86622421D01*
X159202953Y-86626062D01*
X159202958Y-86626067D01*
X159352028Y-86753384D01*
X159371127Y-86769696D01*
X159451461Y-86816639D01*
X159560803Y-86880533D01*
X159566919Y-86884107D01*
X159572196Y-86886038D01*
X159575983Y-86887820D01*
X159629104Y-86934923D01*
X159648327Y-87003268D01*
X159627548Y-87071156D01*
X159580125Y-87113795D01*
X159432623Y-87189927D01*
X159426553Y-87193060D01*
X159246645Y-87331108D01*
X159242872Y-87335254D01*
X159242867Y-87335259D01*
X159124469Y-87465378D01*
X159094026Y-87498834D01*
X159091044Y-87503588D01*
X159091041Y-87503592D01*
X158981094Y-87678863D01*
X158973521Y-87690935D01*
X158888939Y-87901340D01*
X158842953Y-88123398D01*
X158837017Y-88350089D01*
X158871318Y-88574249D01*
X158944773Y-88788793D01*
X159055059Y-88986937D01*
X159058612Y-88991277D01*
X159058614Y-88991281D01*
X159184327Y-89144873D01*
X159198690Y-89162421D01*
X159202953Y-89166062D01*
X159202958Y-89166067D01*
X159352028Y-89293384D01*
X159371127Y-89309696D01*
X159419956Y-89338229D01*
X159560473Y-89420340D01*
X159566919Y-89424107D01*
X159572196Y-89426038D01*
X159575983Y-89427820D01*
X159629104Y-89474923D01*
X159648327Y-89543268D01*
X159627548Y-89611156D01*
X159580125Y-89653795D01*
X159509943Y-89690019D01*
X159426553Y-89733060D01*
X159246645Y-89871108D01*
X159242872Y-89875254D01*
X159242867Y-89875259D01*
X159131082Y-89998110D01*
X159094026Y-90038834D01*
X159091044Y-90043588D01*
X159091041Y-90043592D01*
X159003586Y-90183008D01*
X158973521Y-90230935D01*
X158888939Y-90441340D01*
X158842953Y-90663398D01*
X158837017Y-90890089D01*
X158871318Y-91114249D01*
X158944773Y-91328793D01*
X159055059Y-91526937D01*
X159058612Y-91531277D01*
X159058614Y-91531281D01*
X159142324Y-91633555D01*
X159198690Y-91702421D01*
X159202953Y-91706062D01*
X159202958Y-91706067D01*
X159352028Y-91833384D01*
X159371127Y-91849696D01*
X159499359Y-91924628D01*
X159560466Y-91960336D01*
X159566919Y-91964107D01*
X159572185Y-91966034D01*
X159576554Y-91968090D01*
X159629674Y-92015194D01*
X159648895Y-92083539D01*
X159628114Y-92151427D01*
X159580693Y-92194063D01*
X159431803Y-92270910D01*
X159422372Y-92276895D01*
X159421883Y-92277271D01*
X159413418Y-92288863D01*
X159420050Y-92300839D01*
X160097189Y-92977979D01*
X160111132Y-92985592D01*
X160112966Y-92985461D01*
X160119580Y-92981210D01*
X160797460Y-92303329D01*
X160803682Y-92291935D01*
X160793870Y-92279502D01*
X160728892Y-92235838D01*
X160719098Y-92230454D01*
X160643739Y-92197373D01*
X160589404Y-92151677D01*
X160568399Y-92083859D01*
X160587394Y-92015450D01*
X160640358Y-91968171D01*
X160649828Y-91964142D01*
X160665137Y-91958357D01*
X160689402Y-91943835D01*
X160821166Y-91864975D01*
X160859720Y-91841901D01*
X160863940Y-91838219D01*
X160863945Y-91838216D01*
X161026375Y-91696519D01*
X161030605Y-91692829D01*
X161034114Y-91688449D01*
X161034119Y-91688444D01*
X161132699Y-91565395D01*
X161190901Y-91524737D01*
X161261844Y-91522000D01*
X161323006Y-91558053D01*
X161343696Y-91587757D01*
X161346640Y-91593635D01*
X161349137Y-91600515D01*
X161446093Y-91748398D01*
X161574469Y-91870009D01*
X161727379Y-91958826D01*
X161896620Y-92010084D01*
X161903060Y-92010659D01*
X161903061Y-92010659D01*
X161973009Y-92016902D01*
X161973015Y-92016902D01*
X161975802Y-92017151D01*
X162774710Y-92017151D01*
X162869930Y-92006049D01*
X162900195Y-92002521D01*
X162900196Y-92002521D01*
X162907467Y-92001673D01*
X162914345Y-91999177D01*
X162914347Y-91999176D01*
X163066809Y-91943835D01*
X163073688Y-91941338D01*
X163190161Y-91864975D01*
X163215452Y-91848394D01*
X163215453Y-91848393D01*
X163221571Y-91844382D01*
X163233632Y-91831650D01*
X163289030Y-91773171D01*
X163350400Y-91737473D01*
X163421326Y-91740621D01*
X163467156Y-91768351D01*
X163574469Y-91870009D01*
X163685609Y-91934564D01*
X163734468Y-91986075D01*
X163748324Y-92043518D01*
X163748325Y-93347034D01*
X163748325Y-94646556D01*
X163728323Y-94714677D01*
X163686399Y-94752341D01*
X163687434Y-94753919D01*
X163570961Y-94830282D01*
X163539551Y-94850875D01*
X163534519Y-94856187D01*
X163472092Y-94922086D01*
X163410722Y-94957784D01*
X163339796Y-94954636D01*
X163293966Y-94926906D01*
X163191967Y-94830282D01*
X163186653Y-94825248D01*
X163033743Y-94736431D01*
X162884200Y-94691139D01*
X162870693Y-94687048D01*
X162870692Y-94687048D01*
X162864502Y-94685173D01*
X162858062Y-94684598D01*
X162858061Y-94684598D01*
X162788113Y-94678355D01*
X162788107Y-94678355D01*
X162785320Y-94678106D01*
X161986412Y-94678106D01*
X161891192Y-94689208D01*
X161860927Y-94692736D01*
X161860926Y-94692736D01*
X161853655Y-94693584D01*
X161846777Y-94696080D01*
X161846775Y-94696081D01*
X161748324Y-94731817D01*
X161687434Y-94753919D01*
X161539551Y-94850875D01*
X161417940Y-94979251D01*
X161342337Y-95109412D01*
X161337787Y-95117245D01*
X161286276Y-95166103D01*
X161216527Y-95179357D01*
X161150686Y-95152797D01*
X161126510Y-95127485D01*
X161078823Y-95061120D01*
X161078818Y-95061115D01*
X161075547Y-95056562D01*
X160912698Y-94898750D01*
X160810807Y-94830282D01*
X160729130Y-94775397D01*
X160729124Y-94775394D01*
X160724477Y-94772271D01*
X160719345Y-94770018D01*
X160719341Y-94770016D01*
X160643753Y-94736835D01*
X160589417Y-94691139D01*
X160568413Y-94623320D01*
X160587408Y-94554912D01*
X160640372Y-94507633D01*
X160649863Y-94503595D01*
X160659677Y-94499887D01*
X160669734Y-94495025D01*
X160795623Y-94419683D01*
X160805193Y-94409324D01*
X160801650Y-94400861D01*
X160122811Y-93722021D01*
X160108868Y-93714408D01*
X160107034Y-93714539D01*
X160100420Y-93718790D01*
X159421152Y-94398059D01*
X159414395Y-94410434D01*
X159419676Y-94417489D01*
X159562284Y-94500822D01*
X159576544Y-94507532D01*
X159629665Y-94554635D01*
X159648887Y-94622980D01*
X159628108Y-94690868D01*
X159580685Y-94733506D01*
X159509949Y-94770016D01*
X159426553Y-94813060D01*
X159422105Y-94816473D01*
X159415461Y-94821571D01*
X159246645Y-94951108D01*
X159242872Y-94955254D01*
X159242867Y-94955259D01*
X159146541Y-95061121D01*
X159094026Y-95118834D01*
X159091043Y-95123590D01*
X159091041Y-95123592D01*
X159045491Y-95196206D01*
X158973521Y-95310935D01*
X158888939Y-95521340D01*
X158878527Y-95571619D01*
X158856318Y-95678863D01*
X158842953Y-95743398D01*
X158842806Y-95749007D01*
X158842806Y-95749008D01*
X158841633Y-95793799D01*
X158837017Y-95970089D01*
X158871318Y-96194249D01*
X158944773Y-96408793D01*
X159055059Y-96606937D01*
X159058612Y-96611277D01*
X159058614Y-96611281D01*
X159154071Y-96727907D01*
X159198690Y-96782421D01*
X159202953Y-96786062D01*
X159202958Y-96786067D01*
X159305888Y-96873977D01*
X159371127Y-96929696D01*
X159425981Y-96961750D01*
X159560709Y-97040478D01*
X159566919Y-97044107D01*
X159572196Y-97046038D01*
X159575983Y-97047820D01*
X159629104Y-97094923D01*
X159648327Y-97163268D01*
X159627548Y-97231156D01*
X159580125Y-97273795D01*
X159509943Y-97310019D01*
X159426553Y-97353060D01*
X159246645Y-97491108D01*
X159242872Y-97495254D01*
X159242867Y-97495259D01*
X159167518Y-97578067D01*
X159094026Y-97658834D01*
X159091043Y-97663590D01*
X159091041Y-97663592D01*
X159055387Y-97720430D01*
X158973521Y-97850935D01*
X158888939Y-98061340D01*
X158887800Y-98066841D01*
X158845448Y-98271352D01*
X158842953Y-98283398D01*
X158842806Y-98289007D01*
X158842806Y-98289008D01*
X158842538Y-98299242D01*
X158837017Y-98510089D01*
X158871318Y-98734249D01*
X158944773Y-98948793D01*
X159055059Y-99146937D01*
X159058612Y-99151277D01*
X159058614Y-99151281D01*
X159118666Y-99224650D01*
X159198690Y-99322421D01*
X159202953Y-99326062D01*
X159202958Y-99326067D01*
X159352028Y-99453384D01*
X159371127Y-99469696D01*
X159480998Y-99533899D01*
X159560473Y-99580340D01*
X159566919Y-99584107D01*
X159572196Y-99586038D01*
X159575983Y-99587820D01*
X159629104Y-99634923D01*
X159648327Y-99703268D01*
X159627548Y-99771156D01*
X159580125Y-99813795D01*
X159435576Y-99888403D01*
X159426553Y-99893060D01*
X159246645Y-100031108D01*
X159242872Y-100035254D01*
X159242867Y-100035259D01*
X159146541Y-100141121D01*
X159094026Y-100198834D01*
X159091043Y-100203590D01*
X159091041Y-100203592D01*
X159006275Y-100338721D01*
X158973521Y-100390935D01*
X158888939Y-100601340D01*
X158879794Y-100645498D01*
X158844092Y-100817900D01*
X158842953Y-100823398D01*
X158837017Y-101050089D01*
X158871318Y-101274249D01*
X158944773Y-101488793D01*
X159055059Y-101686937D01*
X159058612Y-101691277D01*
X159058614Y-101691281D01*
X159152234Y-101805663D01*
X159198690Y-101862421D01*
X159202953Y-101866062D01*
X159202958Y-101866067D01*
X159352028Y-101993384D01*
X159371127Y-102009696D01*
X159480998Y-102073899D01*
X159560473Y-102120340D01*
X159566919Y-102124107D01*
X159572196Y-102126038D01*
X159575983Y-102127820D01*
X159629104Y-102174923D01*
X159648327Y-102243268D01*
X159627548Y-102311156D01*
X159580125Y-102353795D01*
X159538956Y-102375044D01*
X159426553Y-102433060D01*
X159246645Y-102571108D01*
X159242872Y-102575254D01*
X159242867Y-102575259D01*
X159146541Y-102681121D01*
X159094026Y-102738834D01*
X159091043Y-102743590D01*
X159091041Y-102743592D01*
X159046662Y-102814339D01*
X158973521Y-102930935D01*
X158888939Y-103141340D01*
X158842953Y-103363398D01*
X158837017Y-103590089D01*
X158871318Y-103814249D01*
X158944773Y-104028793D01*
X159055059Y-104226937D01*
X159058612Y-104231277D01*
X159058614Y-104231281D01*
X159166296Y-104362843D01*
X159198690Y-104402421D01*
X159202953Y-104406062D01*
X159202958Y-104406067D01*
X159352028Y-104533384D01*
X159371127Y-104549696D01*
X159449642Y-104595576D01*
X159560466Y-104660336D01*
X159566919Y-104664107D01*
X159572185Y-104666034D01*
X159576554Y-104668090D01*
X159629674Y-104715194D01*
X159648895Y-104783539D01*
X159628114Y-104851427D01*
X159580693Y-104894063D01*
X159431803Y-104970910D01*
X159422372Y-104976895D01*
X159421883Y-104977271D01*
X159413418Y-104988863D01*
X159420050Y-105000839D01*
X160097189Y-105677979D01*
X160111132Y-105685592D01*
X160112966Y-105685461D01*
X160119580Y-105681210D01*
X160797460Y-105003329D01*
X160803682Y-104991935D01*
X160793870Y-104979502D01*
X160728892Y-104935838D01*
X160719098Y-104930454D01*
X160643739Y-104897373D01*
X160589404Y-104851677D01*
X160568399Y-104783859D01*
X160587394Y-104715450D01*
X160640358Y-104668171D01*
X160649828Y-104664142D01*
X160665137Y-104658357D01*
X160672035Y-104654229D01*
X160804494Y-104574953D01*
X160859720Y-104541901D01*
X160863940Y-104538219D01*
X160863945Y-104538216D01*
X161026375Y-104396519D01*
X161030605Y-104392829D01*
X161135104Y-104262393D01*
X161193306Y-104221736D01*
X161264250Y-104218999D01*
X161325411Y-104255052D01*
X161351876Y-104298181D01*
X161354754Y-104306108D01*
X161357403Y-104313406D01*
X161454359Y-104461289D01*
X161582735Y-104582900D01*
X161735645Y-104671717D01*
X161904886Y-104722975D01*
X161911326Y-104723550D01*
X161911327Y-104723550D01*
X161981275Y-104729793D01*
X161981281Y-104729793D01*
X161984068Y-104730042D01*
X162782976Y-104730042D01*
X162878196Y-104718940D01*
X162908461Y-104715412D01*
X162908462Y-104715412D01*
X162915733Y-104714564D01*
X162922611Y-104712068D01*
X162922613Y-104712067D01*
X163075075Y-104656726D01*
X163081954Y-104654229D01*
X163198427Y-104577866D01*
X163223718Y-104561285D01*
X163223719Y-104561284D01*
X163229837Y-104557273D01*
X163272342Y-104512404D01*
X163297296Y-104486062D01*
X163358666Y-104450364D01*
X163429592Y-104453512D01*
X163475422Y-104481242D01*
X163582735Y-104582900D01*
X163735645Y-104671717D01*
X163904886Y-104722975D01*
X163911326Y-104723550D01*
X163911327Y-104723550D01*
X163981275Y-104729793D01*
X163981281Y-104729793D01*
X163984068Y-104730042D01*
X164782976Y-104730042D01*
X164878196Y-104718940D01*
X164908461Y-104715412D01*
X164908462Y-104715412D01*
X164915733Y-104714564D01*
X164922611Y-104712068D01*
X164922613Y-104712067D01*
X165075075Y-104656726D01*
X165081954Y-104654229D01*
X165171415Y-104595576D01*
X165239351Y-104574953D01*
X165307651Y-104594333D01*
X165354631Y-104647562D01*
X165366500Y-104700948D01*
X165366501Y-110935405D01*
X165346499Y-111003526D01*
X165329596Y-111024500D01*
X164774501Y-111579595D01*
X164712189Y-111613621D01*
X164685406Y-111616500D01*
X163669111Y-111616500D01*
X163658207Y-111615986D01*
X163650816Y-111614334D01*
X163642890Y-111614583D01*
X163642889Y-111614583D01*
X163583862Y-111616438D01*
X163579904Y-111616500D01*
X163551150Y-111616500D01*
X163546883Y-111617039D01*
X163535041Y-111617972D01*
X163503393Y-111618967D01*
X163498768Y-111619112D01*
X163490845Y-111619361D01*
X163471395Y-111625012D01*
X163452033Y-111629022D01*
X163431940Y-111631560D01*
X163406865Y-111641488D01*
X163390836Y-111647834D01*
X163379606Y-111651679D01*
X163344762Y-111661802D01*
X163344760Y-111661803D01*
X163337149Y-111664014D01*
X163324570Y-111671453D01*
X163319717Y-111674323D01*
X163301964Y-111683020D01*
X163283128Y-111690478D01*
X163276713Y-111695139D01*
X163247354Y-111716469D01*
X163237435Y-111722984D01*
X163204486Y-111742471D01*
X163204483Y-111742473D01*
X163199387Y-111745487D01*
X163198969Y-111745855D01*
X163184886Y-111759938D01*
X163169861Y-111772772D01*
X163153645Y-111784554D01*
X163125699Y-111818335D01*
X163117709Y-111827115D01*
X161657457Y-113287367D01*
X161649379Y-113294718D01*
X161642985Y-113298776D01*
X161637558Y-113304555D01*
X161637557Y-113304556D01*
X161597127Y-113347610D01*
X161594372Y-113350452D01*
X161574042Y-113370782D01*
X161571608Y-113373919D01*
X161571606Y-113373922D01*
X161571383Y-113374209D01*
X161563687Y-113383219D01*
X161562029Y-113384985D01*
X161533423Y-113415448D01*
X161529603Y-113422397D01*
X161523667Y-113433194D01*
X161512816Y-113449713D01*
X161505258Y-113459457D01*
X161505255Y-113459462D01*
X161500397Y-113465725D01*
X161497248Y-113473003D01*
X161482841Y-113506295D01*
X161477618Y-113516956D01*
X161456318Y-113555701D01*
X161454346Y-113563383D01*
X161454345Y-113563384D01*
X161451278Y-113575326D01*
X161444878Y-113594021D01*
X161436833Y-113612613D01*
X161435593Y-113620442D01*
X161429917Y-113656277D01*
X161427510Y-113667898D01*
X161417993Y-113704967D01*
X161416515Y-113710724D01*
X161416480Y-113711280D01*
X161416480Y-113731202D01*
X161414929Y-113750911D01*
X161411796Y-113770693D01*
X161412542Y-113778585D01*
X161415921Y-113814331D01*
X161416480Y-113826189D01*
X161416482Y-118913801D01*
X161416482Y-120608010D01*
X161415968Y-120618924D01*
X161414315Y-120626317D01*
X161414564Y-120634242D01*
X161414564Y-120634243D01*
X161416420Y-120693289D01*
X161416482Y-120697247D01*
X161416482Y-120725983D01*
X161416977Y-120729900D01*
X161417021Y-120730249D01*
X161417953Y-120742083D01*
X161419343Y-120786288D01*
X161421556Y-120793904D01*
X161421556Y-120793906D01*
X161424995Y-120805744D01*
X161429004Y-120825103D01*
X161431542Y-120845193D01*
X161434462Y-120852568D01*
X161447814Y-120886294D01*
X161451659Y-120897523D01*
X161463995Y-120939983D01*
X161468030Y-120946806D01*
X161474308Y-120957422D01*
X161483004Y-120975174D01*
X161490460Y-120994005D01*
X161495122Y-121000421D01*
X161516449Y-121029776D01*
X161522964Y-121039694D01*
X161545468Y-121077746D01*
X161545836Y-121078164D01*
X161559919Y-121092247D01*
X161572760Y-121107280D01*
X161584536Y-121123488D01*
X161614600Y-121148359D01*
X161618311Y-121151429D01*
X161627091Y-121159419D01*
X162728263Y-122260592D01*
X162762289Y-122322904D01*
X162757224Y-122393720D01*
X162714677Y-122450555D01*
X162648157Y-122475366D01*
X162639077Y-122475687D01*
X154057310Y-122469283D01*
X153989204Y-122449230D01*
X153942751Y-122395540D01*
X153931404Y-122343283D01*
X153931404Y-119956016D01*
X154903692Y-119956016D01*
X154912521Y-119967636D01*
X155135259Y-120129465D01*
X155141939Y-120133705D01*
X155411555Y-120281927D01*
X155418690Y-120285284D01*
X155704757Y-120398547D01*
X155712282Y-120400992D01*
X156010272Y-120477502D01*
X156018043Y-120478985D01*
X156323276Y-120517544D01*
X156331166Y-120518041D01*
X156638834Y-120518041D01*
X156646724Y-120517544D01*
X156951957Y-120478985D01*
X156959728Y-120477502D01*
X157257718Y-120400992D01*
X157265243Y-120398547D01*
X157551310Y-120285284D01*
X157558445Y-120281927D01*
X157828061Y-120133705D01*
X157834741Y-120129465D01*
X158057852Y-119967366D01*
X158066275Y-119956443D01*
X158059371Y-119943582D01*
X156497810Y-118382020D01*
X156483869Y-118374408D01*
X156482034Y-118374539D01*
X156475420Y-118378790D01*
X154910305Y-119943906D01*
X154903692Y-119956016D01*
X153931404Y-119956016D01*
X153931404Y-119037495D01*
X153951406Y-118969374D01*
X154005062Y-118922881D01*
X154075336Y-118912777D01*
X154139916Y-118942271D01*
X154171412Y-118983847D01*
X154281154Y-119217061D01*
X154284965Y-119223994D01*
X154449814Y-119483754D01*
X154454468Y-119490159D01*
X154529467Y-119580817D01*
X154541985Y-119589272D01*
X154552724Y-119583065D01*
X156112980Y-118022810D01*
X156119356Y-118011131D01*
X156849408Y-118011131D01*
X156849539Y-118012966D01*
X156853790Y-118019580D01*
X158416174Y-119581963D01*
X158429436Y-119589205D01*
X158439540Y-119582017D01*
X158515532Y-119490159D01*
X158520186Y-119483754D01*
X158685035Y-119223994D01*
X158688846Y-119217061D01*
X158819839Y-118938687D01*
X158822754Y-118931324D01*
X158917822Y-118638734D01*
X158919793Y-118631057D01*
X158977440Y-118328862D01*
X158978433Y-118320999D01*
X158997751Y-118013958D01*
X158997751Y-118006042D01*
X158978433Y-117699001D01*
X158977440Y-117691138D01*
X158919793Y-117388943D01*
X158917822Y-117381266D01*
X158822754Y-117088676D01*
X158819839Y-117081313D01*
X158688846Y-116802939D01*
X158685035Y-116796006D01*
X158520186Y-116536246D01*
X158515532Y-116529841D01*
X158440533Y-116439183D01*
X158428015Y-116430728D01*
X158417276Y-116436935D01*
X156857020Y-117997190D01*
X156849408Y-118011131D01*
X156119356Y-118011131D01*
X156120592Y-118008869D01*
X156120461Y-118007034D01*
X156116210Y-118000420D01*
X154553826Y-116438037D01*
X154540564Y-116430795D01*
X154530460Y-116437983D01*
X154454468Y-116529841D01*
X154449814Y-116536246D01*
X154284965Y-116796006D01*
X154281154Y-116802939D01*
X154171412Y-117036153D01*
X154124310Y-117089274D01*
X154055965Y-117108497D01*
X153988077Y-117087718D01*
X153942200Y-117033535D01*
X153931404Y-116982505D01*
X153931404Y-116063557D01*
X154903725Y-116063557D01*
X154910629Y-116076418D01*
X156472190Y-117637980D01*
X156486131Y-117645592D01*
X156487966Y-117645461D01*
X156494580Y-117641210D01*
X158059695Y-116076094D01*
X158066308Y-116063984D01*
X158057479Y-116052364D01*
X157834741Y-115890535D01*
X157828061Y-115886295D01*
X157558445Y-115738073D01*
X157551310Y-115734716D01*
X157265243Y-115621453D01*
X157257718Y-115619008D01*
X156959728Y-115542498D01*
X156951957Y-115541015D01*
X156646724Y-115502456D01*
X156638834Y-115501959D01*
X156331166Y-115501959D01*
X156323276Y-115502456D01*
X156018043Y-115541015D01*
X156010272Y-115542498D01*
X155712282Y-115619008D01*
X155704757Y-115621453D01*
X155418690Y-115734716D01*
X155411555Y-115738073D01*
X155141939Y-115886295D01*
X155135259Y-115890535D01*
X154912148Y-116052634D01*
X154903725Y-116063557D01*
X153931404Y-116063557D01*
X153931404Y-108670089D01*
X158837017Y-108670089D01*
X158871318Y-108894249D01*
X158944773Y-109108793D01*
X159055059Y-109306937D01*
X159198690Y-109482421D01*
X159202953Y-109486062D01*
X159202958Y-109486067D01*
X159352028Y-109613384D01*
X159371127Y-109629696D01*
X159480998Y-109693899D01*
X159560473Y-109740340D01*
X159566919Y-109744107D01*
X159572196Y-109746038D01*
X159575983Y-109747820D01*
X159629104Y-109794923D01*
X159648327Y-109863268D01*
X159627548Y-109931156D01*
X159580125Y-109973795D01*
X159509943Y-110010019D01*
X159426553Y-110053060D01*
X159246645Y-110191108D01*
X159242872Y-110195254D01*
X159242867Y-110195259D01*
X159154244Y-110292655D01*
X159094026Y-110358834D01*
X158973521Y-110550935D01*
X158888939Y-110761340D01*
X158842953Y-110983398D01*
X158837017Y-111210089D01*
X158871318Y-111434249D01*
X158944773Y-111648793D01*
X159055059Y-111846937D01*
X159058612Y-111851277D01*
X159058614Y-111851281D01*
X159131055Y-111939787D01*
X159198690Y-112022421D01*
X159202953Y-112026062D01*
X159202958Y-112026067D01*
X159352028Y-112153384D01*
X159371127Y-112169696D01*
X159469023Y-112226902D01*
X159562072Y-112281275D01*
X159562075Y-112281276D01*
X159566919Y-112284107D01*
X159572189Y-112286036D01*
X159572190Y-112286036D01*
X159774612Y-112360112D01*
X159774616Y-112360113D01*
X159779876Y-112362038D01*
X159785393Y-112363001D01*
X159785397Y-112363002D01*
X159968812Y-112395013D01*
X160003269Y-112401027D01*
X160008875Y-112400998D01*
X160008879Y-112400998D01*
X160112475Y-112400455D01*
X160230035Y-112399839D01*
X160235553Y-112398816D01*
X160235556Y-112398816D01*
X160447488Y-112359537D01*
X160447489Y-112359537D01*
X160453007Y-112358514D01*
X160458252Y-112356532D01*
X160458256Y-112356531D01*
X160587652Y-112307636D01*
X160665137Y-112278357D01*
X160859720Y-112161901D01*
X160863940Y-112158219D01*
X160863945Y-112158216D01*
X161026375Y-112016519D01*
X161030605Y-112012829D01*
X161102894Y-111922598D01*
X161168885Y-111840228D01*
X161168888Y-111840223D01*
X161172391Y-111835851D01*
X161280596Y-111636562D01*
X161351800Y-111421262D01*
X161383752Y-111196755D01*
X161385500Y-111130000D01*
X161365341Y-110904128D01*
X161326279Y-110761340D01*
X161306985Y-110690812D01*
X161306984Y-110690808D01*
X161305503Y-110685396D01*
X161207876Y-110480718D01*
X161075547Y-110296562D01*
X160912698Y-110138750D01*
X160785178Y-110053060D01*
X160729130Y-110015397D01*
X160729124Y-110015394D01*
X160724477Y-110012271D01*
X160644404Y-109977121D01*
X160590070Y-109931427D01*
X160569065Y-109863608D01*
X160588059Y-109795200D01*
X160641023Y-109747920D01*
X160650513Y-109743883D01*
X160659890Y-109740340D01*
X160659893Y-109740338D01*
X160665137Y-109738357D01*
X160859720Y-109621901D01*
X160863940Y-109618219D01*
X160863945Y-109618216D01*
X161026375Y-109476519D01*
X161030605Y-109472829D01*
X161041882Y-109458753D01*
X161168885Y-109300228D01*
X161168888Y-109300223D01*
X161172391Y-109295851D01*
X161280596Y-109096562D01*
X161351800Y-108881262D01*
X161383752Y-108656755D01*
X161385500Y-108590000D01*
X161365341Y-108364128D01*
X161326279Y-108221340D01*
X161306985Y-108150812D01*
X161306984Y-108150808D01*
X161305503Y-108145396D01*
X161207876Y-107940718D01*
X161075547Y-107756562D01*
X160912698Y-107598750D01*
X160785178Y-107513060D01*
X160729130Y-107475397D01*
X160729124Y-107475394D01*
X160724477Y-107472271D01*
X160719345Y-107470018D01*
X160719341Y-107470016D01*
X160643753Y-107436835D01*
X160589417Y-107391139D01*
X160568413Y-107323320D01*
X160587408Y-107254912D01*
X160640372Y-107207633D01*
X160649863Y-107203595D01*
X160659677Y-107199887D01*
X160669734Y-107195025D01*
X160795623Y-107119683D01*
X160805193Y-107109324D01*
X160801650Y-107100861D01*
X160122811Y-106422021D01*
X160108868Y-106414408D01*
X160107034Y-106414539D01*
X160100420Y-106418790D01*
X159421152Y-107098059D01*
X159414395Y-107110434D01*
X159419676Y-107117489D01*
X159562284Y-107200822D01*
X159576544Y-107207532D01*
X159629665Y-107254635D01*
X159648887Y-107322980D01*
X159628108Y-107390868D01*
X159580685Y-107433506D01*
X159509949Y-107470016D01*
X159426553Y-107513060D01*
X159246645Y-107651108D01*
X159242872Y-107655254D01*
X159242867Y-107655259D01*
X159154244Y-107752655D01*
X159094026Y-107818834D01*
X158973521Y-108010935D01*
X158888939Y-108221340D01*
X158842953Y-108443398D01*
X158837017Y-108670089D01*
X153931404Y-108670089D01*
X153931404Y-106124452D01*
X158837663Y-106124452D01*
X158838365Y-106135604D01*
X158870955Y-106348579D01*
X158873622Y-106359440D01*
X158943413Y-106563281D01*
X158947961Y-106573495D01*
X159039031Y-106737117D01*
X159049084Y-106747008D01*
X159056687Y-106744102D01*
X159737979Y-106062811D01*
X159744355Y-106051132D01*
X160474408Y-106051132D01*
X160474539Y-106052966D01*
X160478790Y-106059580D01*
X161160156Y-106740945D01*
X161172531Y-106747702D01*
X161178796Y-106743013D01*
X161277462Y-106561290D01*
X161281896Y-106551044D01*
X161349553Y-106346469D01*
X161352103Y-106335596D01*
X161382742Y-106120319D01*
X161383348Y-106113103D01*
X161384905Y-106053632D01*
X161384677Y-106046379D01*
X161365348Y-105829812D01*
X161363366Y-105818798D01*
X161306517Y-105610987D01*
X161302619Y-105600506D01*
X161209859Y-105406031D01*
X161204173Y-105396416D01*
X161180719Y-105363776D01*
X161169928Y-105355365D01*
X161156894Y-105362317D01*
X160482021Y-106037189D01*
X160474408Y-106051132D01*
X159744355Y-106051132D01*
X159745592Y-106048868D01*
X159745461Y-106047034D01*
X159741210Y-106040420D01*
X159063095Y-105362306D01*
X159050720Y-105355549D01*
X159042747Y-105361517D01*
X158976952Y-105466403D01*
X158971872Y-105476373D01*
X158891511Y-105676278D01*
X158888280Y-105686978D01*
X158844588Y-105897958D01*
X158843303Y-105909065D01*
X158837663Y-106124452D01*
X153931404Y-106124452D01*
X153931404Y-93424452D01*
X158837663Y-93424452D01*
X158838365Y-93435604D01*
X158870955Y-93648579D01*
X158873622Y-93659440D01*
X158943413Y-93863281D01*
X158947961Y-93873495D01*
X159039031Y-94037117D01*
X159049084Y-94047008D01*
X159056687Y-94044102D01*
X159737979Y-93362811D01*
X159744355Y-93351132D01*
X160474408Y-93351132D01*
X160474539Y-93352966D01*
X160478790Y-93359580D01*
X161160156Y-94040945D01*
X161172531Y-94047702D01*
X161178796Y-94043013D01*
X161277462Y-93861290D01*
X161281896Y-93851044D01*
X161349553Y-93646469D01*
X161352103Y-93635596D01*
X161382742Y-93420319D01*
X161383348Y-93413103D01*
X161384905Y-93353632D01*
X161384677Y-93346379D01*
X161365348Y-93129812D01*
X161363366Y-93118798D01*
X161306517Y-92910987D01*
X161302619Y-92900506D01*
X161209859Y-92706031D01*
X161204173Y-92696416D01*
X161180719Y-92663776D01*
X161169928Y-92655365D01*
X161156894Y-92662317D01*
X160482021Y-93337189D01*
X160474408Y-93351132D01*
X159744355Y-93351132D01*
X159745592Y-93348868D01*
X159745461Y-93347034D01*
X159741210Y-93340420D01*
X159063095Y-92662306D01*
X159050720Y-92655549D01*
X159042747Y-92661517D01*
X158976952Y-92766403D01*
X158971872Y-92776373D01*
X158891511Y-92976278D01*
X158888280Y-92986978D01*
X158844588Y-93197958D01*
X158843303Y-93209065D01*
X158837663Y-93424452D01*
X153931404Y-93424452D01*
X153931404Y-80724452D01*
X158837663Y-80724452D01*
X158838365Y-80735604D01*
X158870955Y-80948579D01*
X158873622Y-80959440D01*
X158943413Y-81163281D01*
X158947961Y-81173495D01*
X159039031Y-81337117D01*
X159049084Y-81347008D01*
X159056687Y-81344102D01*
X159737979Y-80662811D01*
X159744355Y-80651132D01*
X160474408Y-80651132D01*
X160474539Y-80652966D01*
X160478790Y-80659580D01*
X161160156Y-81340945D01*
X161172531Y-81347702D01*
X161178796Y-81343013D01*
X161277462Y-81161290D01*
X161281896Y-81151044D01*
X161349553Y-80946469D01*
X161352103Y-80935596D01*
X161382742Y-80720319D01*
X161383348Y-80713103D01*
X161384905Y-80653632D01*
X161384677Y-80646379D01*
X161365348Y-80429812D01*
X161363366Y-80418798D01*
X161306517Y-80210987D01*
X161302619Y-80200506D01*
X161209859Y-80006031D01*
X161204173Y-79996416D01*
X161180719Y-79963776D01*
X161169928Y-79955365D01*
X161156894Y-79962317D01*
X160482021Y-80637189D01*
X160474408Y-80651132D01*
X159744355Y-80651132D01*
X159745592Y-80648868D01*
X159745461Y-80647034D01*
X159741210Y-80640420D01*
X159063095Y-79962306D01*
X159050720Y-79955549D01*
X159042747Y-79961517D01*
X158976952Y-80066403D01*
X158971872Y-80076373D01*
X158891511Y-80276278D01*
X158888280Y-80286978D01*
X158844588Y-80497958D01*
X158843303Y-80509065D01*
X158837663Y-80724452D01*
X153931404Y-80724452D01*
X153931404Y-68024452D01*
X158837663Y-68024452D01*
X158838365Y-68035604D01*
X158870955Y-68248579D01*
X158873622Y-68259440D01*
X158943413Y-68463281D01*
X158947961Y-68473495D01*
X159039031Y-68637117D01*
X159049084Y-68647008D01*
X159056687Y-68644102D01*
X159737979Y-67962811D01*
X159744355Y-67951132D01*
X160474408Y-67951132D01*
X160474539Y-67952966D01*
X160478790Y-67959580D01*
X161160156Y-68640945D01*
X161172531Y-68647702D01*
X161178796Y-68643013D01*
X161277462Y-68461290D01*
X161281896Y-68451044D01*
X161349553Y-68246469D01*
X161352103Y-68235596D01*
X161382742Y-68020319D01*
X161383348Y-68013103D01*
X161384905Y-67953632D01*
X161384677Y-67946379D01*
X161365348Y-67729812D01*
X161363366Y-67718798D01*
X161306517Y-67510987D01*
X161302619Y-67500506D01*
X161209859Y-67306031D01*
X161204173Y-67296416D01*
X161180719Y-67263776D01*
X161169928Y-67255365D01*
X161156894Y-67262317D01*
X160482021Y-67937189D01*
X160474408Y-67951132D01*
X159744355Y-67951132D01*
X159745592Y-67948868D01*
X159745461Y-67947034D01*
X159741210Y-67940420D01*
X159063095Y-67262306D01*
X159050720Y-67255549D01*
X159042747Y-67261517D01*
X158976952Y-67366403D01*
X158971872Y-67376373D01*
X158891511Y-67576278D01*
X158888280Y-67586978D01*
X158844588Y-67797958D01*
X158843303Y-67809065D01*
X158837663Y-68024452D01*
X153931404Y-68024452D01*
X153931404Y-62560337D01*
X153933398Y-62538010D01*
X153934493Y-62531928D01*
X153935356Y-62527135D01*
X153936987Y-62458271D01*
X153937278Y-62445981D01*
X153939664Y-62424383D01*
X153954935Y-62347609D01*
X153962105Y-62323972D01*
X153987847Y-62261825D01*
X153989143Y-62258696D01*
X154000787Y-62236912D01*
X154031441Y-62191035D01*
X154040043Y-62178161D01*
X154055713Y-62159068D01*
X154105662Y-62109119D01*
X154124755Y-62093449D01*
X154183508Y-62054192D01*
X154205289Y-62042550D01*
X154270569Y-62015511D01*
X154294204Y-62008341D01*
X154313645Y-62004474D01*
X154370978Y-61993070D01*
X154392574Y-61990684D01*
X154465977Y-61988945D01*
X154470452Y-61988839D01*
X154474868Y-61988099D01*
X154474873Y-61988099D01*
X154483788Y-61986606D01*
X154504699Y-61984875D01*
X156343698Y-61986342D01*
G37*
%TD.AperFunction*%
%TA.AperFunction,Conductor*%
G36*
X167180189Y-99080164D02*
G01*
X167201163Y-99097067D01*
X168749594Y-100645498D01*
X168783620Y-100707810D01*
X168786499Y-100734593D01*
X168786503Y-112864455D01*
X168785989Y-112875369D01*
X168784336Y-112882762D01*
X168784585Y-112890687D01*
X168784585Y-112890688D01*
X168786441Y-112949734D01*
X168786503Y-112953692D01*
X168786503Y-112982428D01*
X168786998Y-112986345D01*
X168787042Y-112986694D01*
X168787974Y-112998528D01*
X168789364Y-113042733D01*
X168791577Y-113050349D01*
X168791577Y-113050351D01*
X168795016Y-113062189D01*
X168799025Y-113081548D01*
X168801563Y-113101638D01*
X168804483Y-113109013D01*
X168817835Y-113142739D01*
X168821680Y-113153968D01*
X168828442Y-113177241D01*
X168834016Y-113196428D01*
X168838809Y-113204533D01*
X168844329Y-113213867D01*
X168853025Y-113231619D01*
X168860481Y-113250450D01*
X168875158Y-113270651D01*
X168886470Y-113286221D01*
X168892985Y-113296139D01*
X168915489Y-113334191D01*
X168915857Y-113334609D01*
X168929940Y-113348692D01*
X168942781Y-113363725D01*
X168954557Y-113379933D01*
X168960664Y-113384985D01*
X168988332Y-113407874D01*
X168997112Y-113415864D01*
X169329595Y-113748347D01*
X169363621Y-113810659D01*
X169366500Y-113837442D01*
X169366501Y-114365405D01*
X169346499Y-114433526D01*
X169329596Y-114454500D01*
X169133250Y-114650846D01*
X169070938Y-114684872D01*
X169011544Y-114683458D01*
X168953402Y-114667879D01*
X168953400Y-114667879D01*
X168948087Y-114666455D01*
X168720000Y-114646500D01*
X168491913Y-114666455D01*
X168486600Y-114667879D01*
X168486598Y-114667879D01*
X168276067Y-114724291D01*
X168276065Y-114724292D01*
X168270757Y-114725714D01*
X168265776Y-114728036D01*
X168265775Y-114728037D01*
X168068237Y-114820150D01*
X168068232Y-114820153D01*
X168063250Y-114822476D01*
X168058743Y-114825632D01*
X168058741Y-114825633D01*
X167880209Y-114950642D01*
X167880206Y-114950644D01*
X167875698Y-114953801D01*
X167713801Y-115115698D01*
X167710644Y-115120206D01*
X167710642Y-115120209D01*
X167678213Y-115166523D01*
X167622756Y-115210851D01*
X167552137Y-115218160D01*
X167488776Y-115186129D01*
X167471787Y-115166523D01*
X167439358Y-115120209D01*
X167439356Y-115120206D01*
X167436199Y-115115698D01*
X167274302Y-114953801D01*
X167269794Y-114950644D01*
X167269791Y-114950642D01*
X167091259Y-114825633D01*
X167091257Y-114825632D01*
X167086750Y-114822476D01*
X167081768Y-114820153D01*
X167081763Y-114820150D01*
X166884225Y-114728037D01*
X166884224Y-114728036D01*
X166879243Y-114725714D01*
X166873935Y-114724292D01*
X166873933Y-114724291D01*
X166663402Y-114667879D01*
X166663400Y-114667879D01*
X166658087Y-114666455D01*
X166430000Y-114646500D01*
X166201913Y-114666455D01*
X166196600Y-114667879D01*
X166196598Y-114667879D01*
X165986067Y-114724291D01*
X165986065Y-114724292D01*
X165980757Y-114725714D01*
X165975776Y-114728036D01*
X165975775Y-114728037D01*
X165778237Y-114820150D01*
X165778232Y-114820153D01*
X165773250Y-114822476D01*
X165768743Y-114825632D01*
X165768741Y-114825633D01*
X165590209Y-114950642D01*
X165590206Y-114950644D01*
X165585698Y-114953801D01*
X165423801Y-115115698D01*
X165420644Y-115120206D01*
X165420642Y-115120209D01*
X165373648Y-115187323D01*
X165318190Y-115231651D01*
X165257464Y-115240383D01*
X165229149Y-115237453D01*
X165213569Y-115245642D01*
X164229095Y-116230115D01*
X164166783Y-116264141D01*
X164095967Y-116259076D01*
X164050905Y-116230115D01*
X163869885Y-116049095D01*
X163835859Y-115986783D01*
X163840924Y-115915968D01*
X163869885Y-115870905D01*
X164855079Y-114885710D01*
X164861509Y-114873934D01*
X164852216Y-114861922D01*
X164801008Y-114826066D01*
X164791513Y-114820583D01*
X164594057Y-114728509D01*
X164583761Y-114724761D01*
X164373310Y-114668370D01*
X164362523Y-114666468D01*
X164145475Y-114647479D01*
X164134525Y-114647479D01*
X163917477Y-114666468D01*
X163906690Y-114668370D01*
X163696239Y-114724761D01*
X163685943Y-114728509D01*
X163488487Y-114820583D01*
X163478992Y-114826066D01*
X163331770Y-114929152D01*
X163264496Y-114951840D01*
X163195636Y-114934555D01*
X163147051Y-114882786D01*
X163133499Y-114825939D01*
X163133499Y-114291747D01*
X163153501Y-114223626D01*
X163170404Y-114202652D01*
X164002631Y-113370425D01*
X164064943Y-113336399D01*
X164091726Y-113333520D01*
X165108021Y-113333520D01*
X165118925Y-113334034D01*
X165126316Y-113335686D01*
X165134241Y-113335437D01*
X165134242Y-113335437D01*
X165193257Y-113333582D01*
X165197215Y-113333520D01*
X165225982Y-113333520D01*
X165229906Y-113333024D01*
X165229908Y-113333024D01*
X165230256Y-113332980D01*
X165242102Y-113332047D01*
X165286287Y-113330658D01*
X165305743Y-113325006D01*
X165325083Y-113321001D01*
X165345192Y-113318460D01*
X165352562Y-113315542D01*
X165352566Y-113315541D01*
X165386304Y-113302183D01*
X165397534Y-113298338D01*
X165432372Y-113288217D01*
X165432373Y-113288217D01*
X165439982Y-113286006D01*
X165457416Y-113275696D01*
X165475168Y-113267000D01*
X165486629Y-113262462D01*
X165486628Y-113262462D01*
X165494004Y-113259542D01*
X165529779Y-113233550D01*
X165539698Y-113227034D01*
X165547537Y-113222398D01*
X165577745Y-113204533D01*
X165578163Y-113204165D01*
X165592246Y-113190082D01*
X165607271Y-113177248D01*
X165623487Y-113165466D01*
X165651434Y-113131684D01*
X165659423Y-113122905D01*
X166842541Y-111939787D01*
X166850619Y-111932436D01*
X166857013Y-111928378D01*
X166902872Y-111879543D01*
X166905626Y-111876702D01*
X166925956Y-111856372D01*
X166928392Y-111853232D01*
X166928615Y-111852945D01*
X166936311Y-111843935D01*
X166961146Y-111817487D01*
X166966575Y-111811706D01*
X166976331Y-111793960D01*
X166987182Y-111777441D01*
X166994740Y-111767697D01*
X166994743Y-111767692D01*
X166999601Y-111761429D01*
X167005359Y-111748122D01*
X167017161Y-111720851D01*
X167022384Y-111710191D01*
X167039859Y-111678404D01*
X167039860Y-111678401D01*
X167043680Y-111671453D01*
X167048715Y-111651842D01*
X167055117Y-111633142D01*
X167063166Y-111614542D01*
X167070083Y-111570870D01*
X167072491Y-111559245D01*
X167082005Y-111522192D01*
X167082007Y-111522178D01*
X167083483Y-111516430D01*
X167083518Y-111515874D01*
X167083518Y-111495960D01*
X167085069Y-111476249D01*
X167086963Y-111464291D01*
X167088203Y-111456462D01*
X167084077Y-111412816D01*
X167083518Y-111400958D01*
X167083520Y-104141979D01*
X167084034Y-104131075D01*
X167085686Y-104123684D01*
X167083582Y-104056742D01*
X167083520Y-104052785D01*
X167083520Y-104024019D01*
X167082979Y-104019738D01*
X167082046Y-104007891D01*
X167080907Y-103971635D01*
X167080658Y-103963712D01*
X167075008Y-103944264D01*
X167070998Y-103924901D01*
X167069453Y-103912669D01*
X167069453Y-103912668D01*
X167068460Y-103904809D01*
X167052185Y-103863702D01*
X167048340Y-103852472D01*
X167038217Y-103817627D01*
X167038217Y-103817626D01*
X167036006Y-103810017D01*
X167031970Y-103803192D01*
X167025696Y-103792583D01*
X167016998Y-103774830D01*
X167009542Y-103755997D01*
X166983561Y-103720238D01*
X166977042Y-103710315D01*
X166957566Y-103677382D01*
X166957564Y-103677379D01*
X166954533Y-103672254D01*
X166954164Y-103671836D01*
X166940083Y-103657755D01*
X166927242Y-103642722D01*
X166920123Y-103632924D01*
X166915466Y-103626514D01*
X166881690Y-103598572D01*
X166872911Y-103590583D01*
X166670405Y-103388077D01*
X166636379Y-103325765D01*
X166633500Y-103298982D01*
X166633500Y-102659002D01*
X166634014Y-102648098D01*
X166635666Y-102640707D01*
X166635032Y-102620518D01*
X166633562Y-102573766D01*
X166633500Y-102569808D01*
X166633500Y-102541041D01*
X166632959Y-102536756D01*
X166632026Y-102524915D01*
X166631833Y-102518750D01*
X166631209Y-102498905D01*
X166630887Y-102488655D01*
X166630887Y-102488654D01*
X166630638Y-102480735D01*
X166628428Y-102473127D01*
X166628427Y-102473122D01*
X166624987Y-102461280D01*
X166620979Y-102441926D01*
X166619434Y-102429698D01*
X166618440Y-102421831D01*
X166615523Y-102414463D01*
X166615521Y-102414456D01*
X166602163Y-102380718D01*
X166598318Y-102369488D01*
X166588197Y-102334650D01*
X166588196Y-102334649D01*
X166585986Y-102327040D01*
X166575676Y-102309607D01*
X166566982Y-102291860D01*
X166559522Y-102273019D01*
X166537907Y-102243268D01*
X166533533Y-102237248D01*
X166527017Y-102227329D01*
X166504513Y-102189277D01*
X166504145Y-102188859D01*
X166490063Y-102174777D01*
X166477222Y-102159744D01*
X166470103Y-102149946D01*
X166465446Y-102143536D01*
X166435010Y-102118357D01*
X166431677Y-102115600D01*
X166422897Y-102107611D01*
X165529149Y-101213864D01*
X165495124Y-101151551D01*
X165492244Y-101124768D01*
X165492244Y-100471478D01*
X165476766Y-100338721D01*
X165470232Y-100320718D01*
X165418928Y-100179379D01*
X165416431Y-100172500D01*
X165319475Y-100024617D01*
X165191099Y-99903005D01*
X165038189Y-99814188D01*
X165031181Y-99812065D01*
X165024471Y-99809148D01*
X165025605Y-99806539D01*
X164977117Y-99774792D01*
X164948173Y-99709964D01*
X164958873Y-99639778D01*
X165005819Y-99586519D01*
X165030048Y-99574652D01*
X165065326Y-99561847D01*
X165065328Y-99561846D01*
X165072207Y-99559349D01*
X165220090Y-99462393D01*
X165341701Y-99334017D01*
X165430518Y-99181107D01*
X165432640Y-99174100D01*
X165432642Y-99174096D01*
X165440049Y-99149639D01*
X165478938Y-99090241D01*
X165543767Y-99061297D01*
X165560639Y-99060162D01*
X167112068Y-99060162D01*
X167180189Y-99080164D01*
G37*
%TD.AperFunction*%
%TD*%
M02*
