%FSLAX45Y45*%
G04 Gerber Fmt 4.5, Leading zero omitted, Abs format (unit mm)*
G04 Created by KiCad (PCBNEW (5.99.0-8075-g8416c1fc37)) date 2021-06-30 13:11:51*
%MOMM*%
%LPD*%
G01*
G04 APERTURE LIST*
%TA.AperFunction,Profile*%
%ADD10C,0.100000*%
%TD*%
%ADD11C,0.200000*%
%ADD12C,0.040000*%
%ADD13C,0.076200*%
%ADD14C,0.110000*%
%ADD15C,0.315000*%
G04 APERTURE END LIST*
D10*
X18350000Y-6052319D02*
G75*
G02*
X18450000Y-6150000I-21J-100049D01*
G01*
X15340000Y-12395000D02*
X15342340Y-6150000D01*
X15442340Y-6050000D02*
X18350000Y-6052319D01*
X18450000Y-12395000D02*
X18450000Y-6150000D01*
X15342340Y-6150000D02*
G75*
G02*
X15442340Y-6050000I99956J44D01*
G01*
X15340000Y-12395000D02*
X18450000Y-12395000D01*
D11*
D12*
X16220000Y-12200000D02*
X16260000Y-12240000D01*
X16260000Y-12200000D02*
X16220000Y-12240000D01*
X16280000Y-10530000D02*
X16320000Y-10570000D01*
X16320000Y-10530000D02*
X16280000Y-10570000D01*
X16291946Y-8097852D02*
X16331946Y-8137852D01*
X16331946Y-8097852D02*
X16291946Y-8137852D01*
X16430000Y-10530000D02*
X16470000Y-10570000D01*
X16470000Y-10530000D02*
X16430000Y-10570000D01*
X16730000Y-9430000D02*
X16770000Y-9470000D01*
X16770000Y-9430000D02*
X16730000Y-9470000D01*
X16730000Y-9580000D02*
X16770000Y-9620000D01*
X16770000Y-9580000D02*
X16730000Y-9620000D01*
X16741000Y-8330000D02*
X16781000Y-8370000D01*
X16781000Y-8330000D02*
X16741000Y-8370000D01*
X16830000Y-7925000D02*
X16870000Y-7965000D01*
X16870000Y-7925000D02*
X16830000Y-7965000D01*
X16980000Y-9330000D02*
X17020000Y-9370000D01*
X17020000Y-9330000D02*
X16980000Y-9370000D01*
X17105000Y-10205000D02*
X17145000Y-10245000D01*
X17145000Y-10205000D02*
X17105000Y-10245000D01*
X17180000Y-9330000D02*
X17220000Y-9370000D01*
X17220000Y-9330000D02*
X17180000Y-9370000D01*
X17255000Y-9445000D02*
X17295000Y-9485000D01*
X17295000Y-9445000D02*
X17255000Y-9485000D01*
X17299712Y-8501115D02*
X17339712Y-8541115D01*
X17339712Y-8501115D02*
X17299712Y-8541115D01*
X17305000Y-10205000D02*
X17345000Y-10245000D01*
X17345000Y-10205000D02*
X17305000Y-10245000D01*
X17405000Y-9480000D02*
X17445000Y-9520000D01*
X17445000Y-9480000D02*
X17405000Y-9520000D01*
X17412498Y-8680000D02*
X17452498Y-8720000D01*
X17452498Y-8680000D02*
X17412498Y-8720000D01*
X17430000Y-7972500D02*
X17470000Y-8012500D01*
X17470000Y-7972500D02*
X17430000Y-8012500D01*
X17455000Y-9730000D02*
X17495000Y-9770000D01*
X17495000Y-9730000D02*
X17455000Y-9770000D01*
X17480000Y-11650000D02*
X17520000Y-11690000D01*
X17520000Y-11650000D02*
X17480000Y-11690000D01*
D13*
X16049100Y-6287000D02*
G75*
G03*
X16049100Y-6287000I-38100J0D01*
G01*
X16049100Y-6541000D02*
G75*
G03*
X16049100Y-6541000I-38100J0D01*
G01*
X16049100Y-6795000D02*
G75*
G03*
X16049100Y-6795000I-38100J0D01*
G01*
X16049100Y-7049000D02*
G75*
G03*
X16049100Y-7049000I-38100J0D01*
G01*
X16049100Y-7303000D02*
G75*
G03*
X16049100Y-7303000I-38100J0D01*
G01*
X16049100Y-7557000D02*
G75*
G03*
X16049100Y-7557000I-38100J0D01*
G01*
X16049100Y-7811000D02*
G75*
G03*
X16049100Y-7811000I-38100J0D01*
G01*
X16049100Y-8065000D02*
G75*
G03*
X16049100Y-8065000I-38100J0D01*
G01*
X16049100Y-8319000D02*
G75*
G03*
X16049100Y-8319000I-38100J0D01*
G01*
X16049100Y-8573000D02*
G75*
G03*
X16049100Y-8573000I-38100J0D01*
G01*
X16049100Y-8827000D02*
G75*
G03*
X16049100Y-8827000I-38100J0D01*
G01*
X16049100Y-9081000D02*
G75*
G03*
X16049100Y-9081000I-38100J0D01*
G01*
X16049100Y-9335000D02*
G75*
G03*
X16049100Y-9335000I-38100J0D01*
G01*
X16049100Y-9589000D02*
G75*
G03*
X16049100Y-9589000I-38100J0D01*
G01*
X16049100Y-9843000D02*
G75*
G03*
X16049100Y-9843000I-38100J0D01*
G01*
X16049100Y-10097000D02*
G75*
G03*
X16049100Y-10097000I-38100J0D01*
G01*
X16049100Y-10351000D02*
G75*
G03*
X16049100Y-10351000I-38100J0D01*
G01*
X16049100Y-10605000D02*
G75*
G03*
X16049100Y-10605000I-38100J0D01*
G01*
X16049100Y-10859000D02*
G75*
G03*
X16049100Y-10859000I-38100J0D01*
G01*
X16049100Y-11113000D02*
G75*
G03*
X16049100Y-11113000I-38100J0D01*
G01*
X17827100Y-6287000D02*
G75*
G03*
X17827100Y-6287000I-38100J0D01*
G01*
X17827100Y-6541000D02*
G75*
G03*
X17827100Y-6541000I-38100J0D01*
G01*
X17827100Y-6795000D02*
G75*
G03*
X17827100Y-6795000I-38100J0D01*
G01*
X17827100Y-7049000D02*
G75*
G03*
X17827100Y-7049000I-38100J0D01*
G01*
X17827100Y-7303000D02*
G75*
G03*
X17827100Y-7303000I-38100J0D01*
G01*
X17827100Y-7557000D02*
G75*
G03*
X17827100Y-7557000I-38100J0D01*
G01*
X17827100Y-7811000D02*
G75*
G03*
X17827100Y-7811000I-38100J0D01*
G01*
X17827100Y-8065000D02*
G75*
G03*
X17827100Y-8065000I-38100J0D01*
G01*
X17827100Y-8319000D02*
G75*
G03*
X17827100Y-8319000I-38100J0D01*
G01*
X17827100Y-8573000D02*
G75*
G03*
X17827100Y-8573000I-38100J0D01*
G01*
X17827100Y-8827000D02*
G75*
G03*
X17827100Y-8827000I-38100J0D01*
G01*
X17827100Y-9081000D02*
G75*
G03*
X17827100Y-9081000I-38100J0D01*
G01*
X17827100Y-9335000D02*
G75*
G03*
X17827100Y-9335000I-38100J0D01*
G01*
X17827100Y-9589000D02*
G75*
G03*
X17827100Y-9589000I-38100J0D01*
G01*
X17827100Y-9843000D02*
G75*
G03*
X17827100Y-9843000I-38100J0D01*
G01*
X17827100Y-10097000D02*
G75*
G03*
X17827100Y-10097000I-38100J0D01*
G01*
X17827100Y-10351000D02*
G75*
G03*
X17827100Y-10351000I-38100J0D01*
G01*
X17827100Y-10605000D02*
G75*
G03*
X17827100Y-10605000I-38100J0D01*
G01*
X17827100Y-10859000D02*
G75*
G03*
X17827100Y-10859000I-38100J0D01*
G01*
X17827100Y-11113000D02*
G75*
G03*
X17827100Y-11113000I-38100J0D01*
G01*
D14*
X16412500Y-11538000D02*
X16412500Y-11648000D01*
X16357500Y-11593000D02*
X16467500Y-11593000D01*
X16412500Y-12046000D02*
X16412500Y-12156000D01*
X16357500Y-12101000D02*
X16467500Y-12101000D01*
X16527000Y-11792000D02*
X16527000Y-11902000D01*
X16472000Y-11847000D02*
X16582000Y-11847000D01*
X16641500Y-11538000D02*
X16641500Y-11648000D01*
X16586500Y-11593000D02*
X16696500Y-11593000D01*
X16641500Y-12046000D02*
X16641500Y-12156000D01*
X16586500Y-12101000D02*
X16696500Y-12101000D01*
X16756100Y-11792000D02*
X16756100Y-11902000D01*
X16701100Y-11847000D02*
X16811100Y-11847000D01*
X16870500Y-11538000D02*
X16870500Y-11648000D01*
X16815500Y-11593000D02*
X16925500Y-11593000D01*
X16870500Y-12046000D02*
X16870500Y-12156000D01*
X16815500Y-12101000D02*
X16925500Y-12101000D01*
X16985000Y-11792000D02*
X16985000Y-11902000D01*
X16930000Y-11847000D02*
X17040000Y-11847000D01*
X17099500Y-11538000D02*
X17099500Y-11648000D01*
X17044500Y-11593000D02*
X17154500Y-11593000D01*
X17099500Y-12046000D02*
X17099500Y-12156000D01*
X17044500Y-12101000D02*
X17154500Y-12101000D01*
X17214000Y-11792000D02*
X17214000Y-11902000D01*
X17159000Y-11847000D02*
X17269000Y-11847000D01*
X17328500Y-11538000D02*
X17328500Y-11648000D01*
X17273500Y-11593000D02*
X17383500Y-11593000D01*
X17328500Y-12046000D02*
X17328500Y-12156000D01*
X17273500Y-12101000D02*
X17383500Y-12101000D01*
X17443100Y-11792000D02*
X17443100Y-11902000D01*
X17388100Y-11847000D02*
X17498100Y-11847000D01*
D15*
X15757370Y-11958370D02*
X15757370Y-11735630D01*
X15534630Y-11735630D01*
X15534630Y-11958370D01*
X15757370Y-11958370D01*
X18256370Y-11958370D02*
X18256370Y-11735630D01*
X18033630Y-11735630D01*
X18033630Y-11958370D01*
X18256370Y-11958370D01*
D11*
X15592619Y-12710476D02*
X15592619Y-12510476D01*
X15640238Y-12510476D01*
X15668809Y-12520000D01*
X15687857Y-12539048D01*
X15697381Y-12558095D01*
X15706905Y-12596190D01*
X15706905Y-12624762D01*
X15697381Y-12662857D01*
X15687857Y-12681905D01*
X15668809Y-12700952D01*
X15640238Y-12710476D01*
X15592619Y-12710476D01*
X15792619Y-12710476D02*
X15792619Y-12577143D01*
X15792619Y-12615238D02*
X15802143Y-12596190D01*
X15811667Y-12586667D01*
X15830714Y-12577143D01*
X15849762Y-12577143D01*
X15916428Y-12710476D02*
X15916428Y-12577143D01*
X15916428Y-12510476D02*
X15906905Y-12520000D01*
X15916428Y-12529524D01*
X15925952Y-12520000D01*
X15916428Y-12510476D01*
X15916428Y-12529524D01*
X16040238Y-12710476D02*
X16021190Y-12700952D01*
X16011667Y-12681905D01*
X16011667Y-12510476D01*
X16145000Y-12710476D02*
X16125952Y-12700952D01*
X16116428Y-12681905D01*
X16116428Y-12510476D01*
X16373571Y-12710476D02*
X16373571Y-12510476D01*
X16440238Y-12653333D01*
X16506905Y-12510476D01*
X16506905Y-12710476D01*
X16687857Y-12710476D02*
X16687857Y-12605714D01*
X16678333Y-12586667D01*
X16659286Y-12577143D01*
X16621190Y-12577143D01*
X16602143Y-12586667D01*
X16687857Y-12700952D02*
X16668809Y-12710476D01*
X16621190Y-12710476D01*
X16602143Y-12700952D01*
X16592619Y-12681905D01*
X16592619Y-12662857D01*
X16602143Y-12643809D01*
X16621190Y-12634286D01*
X16668809Y-12634286D01*
X16687857Y-12624762D01*
X16783095Y-12577143D02*
X16783095Y-12777143D01*
X16783095Y-12586667D02*
X16802143Y-12577143D01*
X16840238Y-12577143D01*
X16859286Y-12586667D01*
X16868810Y-12596190D01*
X16878333Y-12615238D01*
X16878333Y-12672381D01*
X16868810Y-12691428D01*
X16859286Y-12700952D01*
X16840238Y-12710476D01*
X16802143Y-12710476D01*
X16783095Y-12700952D01*
X16964048Y-12691428D02*
X16973571Y-12700952D01*
X16964048Y-12710476D01*
X16954524Y-12700952D01*
X16964048Y-12691428D01*
X16964048Y-12710476D01*
X16964048Y-12586667D02*
X16973571Y-12596190D01*
X16964048Y-12605714D01*
X16954524Y-12596190D01*
X16964048Y-12586667D01*
X16964048Y-12605714D01*
D12*
X15295000Y-13020000D02*
X15335000Y-13060000D01*
X15335000Y-13020000D02*
X15295000Y-13060000D01*
D11*
X15630714Y-12930476D02*
X15649762Y-12930476D01*
X15668809Y-12940000D01*
X15678333Y-12949524D01*
X15687857Y-12968571D01*
X15697381Y-13006667D01*
X15697381Y-13054286D01*
X15687857Y-13092381D01*
X15678333Y-13111428D01*
X15668809Y-13120952D01*
X15649762Y-13130476D01*
X15630714Y-13130476D01*
X15611667Y-13120952D01*
X15602143Y-13111428D01*
X15592619Y-13092381D01*
X15583095Y-13054286D01*
X15583095Y-13006667D01*
X15592619Y-12968571D01*
X15602143Y-12949524D01*
X15611667Y-12940000D01*
X15630714Y-12930476D01*
X15783095Y-13111428D02*
X15792619Y-13120952D01*
X15783095Y-13130476D01*
X15773571Y-13120952D01*
X15783095Y-13111428D01*
X15783095Y-13130476D01*
X15964048Y-12997143D02*
X15964048Y-13130476D01*
X15916428Y-12920952D02*
X15868809Y-13063809D01*
X15992619Y-13063809D01*
X16106905Y-12930476D02*
X16125952Y-12930476D01*
X16145000Y-12940000D01*
X16154524Y-12949524D01*
X16164048Y-12968571D01*
X16173571Y-13006667D01*
X16173571Y-13054286D01*
X16164048Y-13092381D01*
X16154524Y-13111428D01*
X16145000Y-13120952D01*
X16125952Y-13130476D01*
X16106905Y-13130476D01*
X16087857Y-13120952D01*
X16078333Y-13111428D01*
X16068809Y-13092381D01*
X16059286Y-13054286D01*
X16059286Y-13006667D01*
X16068809Y-12968571D01*
X16078333Y-12949524D01*
X16087857Y-12940000D01*
X16106905Y-12930476D01*
X16297381Y-12930476D02*
X16316428Y-12930476D01*
X16335476Y-12940000D01*
X16345000Y-12949524D01*
X16354524Y-12968571D01*
X16364048Y-13006667D01*
X16364048Y-13054286D01*
X16354524Y-13092381D01*
X16345000Y-13111428D01*
X16335476Y-13120952D01*
X16316428Y-13130476D01*
X16297381Y-13130476D01*
X16278333Y-13120952D01*
X16268809Y-13111428D01*
X16259286Y-13092381D01*
X16249762Y-13054286D01*
X16249762Y-13006667D01*
X16259286Y-12968571D01*
X16268809Y-12949524D01*
X16278333Y-12940000D01*
X16297381Y-12930476D01*
X16449762Y-13130476D02*
X16449762Y-12997143D01*
X16449762Y-13016190D02*
X16459286Y-13006667D01*
X16478333Y-12997143D01*
X16506905Y-12997143D01*
X16525952Y-13006667D01*
X16535476Y-13025714D01*
X16535476Y-13130476D01*
X16535476Y-13025714D02*
X16545000Y-13006667D01*
X16564048Y-12997143D01*
X16592619Y-12997143D01*
X16611667Y-13006667D01*
X16621190Y-13025714D01*
X16621190Y-13130476D01*
X16716428Y-13130476D02*
X16716428Y-12997143D01*
X16716428Y-13016190D02*
X16725952Y-13006667D01*
X16745000Y-12997143D01*
X16773571Y-12997143D01*
X16792619Y-13006667D01*
X16802143Y-13025714D01*
X16802143Y-13130476D01*
X16802143Y-13025714D02*
X16811667Y-13006667D01*
X16830714Y-12997143D01*
X16859286Y-12997143D01*
X16878333Y-13006667D01*
X16887857Y-13025714D01*
X16887857Y-13130476D01*
X17278333Y-12920952D02*
X17106905Y-13178095D01*
X17535476Y-12930476D02*
X17554524Y-12930476D01*
X17573571Y-12940000D01*
X17583095Y-12949524D01*
X17592619Y-12968571D01*
X17602143Y-13006667D01*
X17602143Y-13054286D01*
X17592619Y-13092381D01*
X17583095Y-13111428D01*
X17573571Y-13120952D01*
X17554524Y-13130476D01*
X17535476Y-13130476D01*
X17516429Y-13120952D01*
X17506905Y-13111428D01*
X17497381Y-13092381D01*
X17487857Y-13054286D01*
X17487857Y-13006667D01*
X17497381Y-12968571D01*
X17506905Y-12949524D01*
X17516429Y-12940000D01*
X17535476Y-12930476D01*
X17687857Y-13111428D02*
X17697381Y-13120952D01*
X17687857Y-13130476D01*
X17678333Y-13120952D01*
X17687857Y-13111428D01*
X17687857Y-13130476D01*
X17821190Y-12930476D02*
X17840238Y-12930476D01*
X17859286Y-12940000D01*
X17868810Y-12949524D01*
X17878333Y-12968571D01*
X17887857Y-13006667D01*
X17887857Y-13054286D01*
X17878333Y-13092381D01*
X17868810Y-13111428D01*
X17859286Y-13120952D01*
X17840238Y-13130476D01*
X17821190Y-13130476D01*
X17802143Y-13120952D01*
X17792619Y-13111428D01*
X17783095Y-13092381D01*
X17773571Y-13054286D01*
X17773571Y-13006667D01*
X17783095Y-12968571D01*
X17792619Y-12949524D01*
X17802143Y-12940000D01*
X17821190Y-12930476D01*
X18078333Y-13130476D02*
X17964048Y-13130476D01*
X18021190Y-13130476D02*
X18021190Y-12930476D01*
X18002143Y-12959048D01*
X17983095Y-12978095D01*
X17964048Y-12987619D01*
X18259286Y-12930476D02*
X18164048Y-12930476D01*
X18154524Y-13025714D01*
X18164048Y-13016190D01*
X18183095Y-13006667D01*
X18230714Y-13006667D01*
X18249762Y-13016190D01*
X18259286Y-13025714D01*
X18268810Y-13044762D01*
X18268810Y-13092381D01*
X18259286Y-13111428D01*
X18249762Y-13120952D01*
X18230714Y-13130476D01*
X18183095Y-13130476D01*
X18164048Y-13120952D01*
X18154524Y-13111428D01*
X18335476Y-12930476D02*
X18468810Y-12930476D01*
X18383095Y-13130476D01*
X18535476Y-12930476D02*
X18535476Y-12968571D01*
X18611667Y-12930476D02*
X18611667Y-12968571D01*
X18906905Y-13206667D02*
X18897381Y-13197143D01*
X18878333Y-13168571D01*
X18868810Y-13149524D01*
X18859286Y-13120952D01*
X18849762Y-13073333D01*
X18849762Y-13035238D01*
X18859286Y-12987619D01*
X18868810Y-12959048D01*
X18878333Y-12940000D01*
X18897381Y-12911428D01*
X18906905Y-12901905D01*
X19087857Y-13130476D02*
X18973571Y-13130476D01*
X19030714Y-13130476D02*
X19030714Y-12930476D01*
X19011667Y-12959048D01*
X18992619Y-12978095D01*
X18973571Y-12987619D01*
X19183095Y-13130476D02*
X19221190Y-13130476D01*
X19240238Y-13120952D01*
X19249762Y-13111428D01*
X19268810Y-13082857D01*
X19278333Y-13044762D01*
X19278333Y-12968571D01*
X19268810Y-12949524D01*
X19259286Y-12940000D01*
X19240238Y-12930476D01*
X19202143Y-12930476D01*
X19183095Y-12940000D01*
X19173571Y-12949524D01*
X19164048Y-12968571D01*
X19164048Y-13016190D01*
X19173571Y-13035238D01*
X19183095Y-13044762D01*
X19202143Y-13054286D01*
X19240238Y-13054286D01*
X19259286Y-13044762D01*
X19268810Y-13035238D01*
X19278333Y-13016190D01*
X19516429Y-13130476D02*
X19516429Y-12930476D01*
X19602143Y-13130476D02*
X19602143Y-13025714D01*
X19592619Y-13006667D01*
X19573571Y-12997143D01*
X19545000Y-12997143D01*
X19525952Y-13006667D01*
X19516429Y-13016190D01*
X19725952Y-13130476D02*
X19706905Y-13120952D01*
X19697381Y-13111428D01*
X19687857Y-13092381D01*
X19687857Y-13035238D01*
X19697381Y-13016190D01*
X19706905Y-13006667D01*
X19725952Y-12997143D01*
X19754524Y-12997143D01*
X19773571Y-13006667D01*
X19783095Y-13016190D01*
X19792619Y-13035238D01*
X19792619Y-13092381D01*
X19783095Y-13111428D01*
X19773571Y-13120952D01*
X19754524Y-13130476D01*
X19725952Y-13130476D01*
X19906905Y-13130476D02*
X19887857Y-13120952D01*
X19878333Y-13101905D01*
X19878333Y-12930476D01*
X20059286Y-13120952D02*
X20040238Y-13130476D01*
X20002143Y-13130476D01*
X19983095Y-13120952D01*
X19973571Y-13101905D01*
X19973571Y-13025714D01*
X19983095Y-13006667D01*
X20002143Y-12997143D01*
X20040238Y-12997143D01*
X20059286Y-13006667D01*
X20068810Y-13025714D01*
X20068810Y-13044762D01*
X19973571Y-13063809D01*
X20145000Y-13120952D02*
X20164048Y-13130476D01*
X20202143Y-13130476D01*
X20221190Y-13120952D01*
X20230714Y-13101905D01*
X20230714Y-13092381D01*
X20221190Y-13073333D01*
X20202143Y-13063809D01*
X20173571Y-13063809D01*
X20154524Y-13054286D01*
X20145000Y-13035238D01*
X20145000Y-13025714D01*
X20154524Y-13006667D01*
X20173571Y-12997143D01*
X20202143Y-12997143D01*
X20221190Y-13006667D01*
X20297381Y-13206667D02*
X20306905Y-13197143D01*
X20325952Y-13168571D01*
X20335476Y-13149524D01*
X20345000Y-13120952D01*
X20354524Y-13073333D01*
X20354524Y-13035238D01*
X20345000Y-12987619D01*
X20335476Y-12959048D01*
X20325952Y-12940000D01*
X20306905Y-12911428D01*
X20297381Y-12901905D01*
D13*
X15335000Y-13304000D02*
G75*
G03*
X15335000Y-13304000I-38100J0D01*
G01*
D11*
X15630714Y-13194476D02*
X15649762Y-13194476D01*
X15668809Y-13204000D01*
X15678333Y-13213524D01*
X15687857Y-13232571D01*
X15697381Y-13270667D01*
X15697381Y-13318286D01*
X15687857Y-13356381D01*
X15678333Y-13375428D01*
X15668809Y-13384952D01*
X15649762Y-13394476D01*
X15630714Y-13394476D01*
X15611667Y-13384952D01*
X15602143Y-13375428D01*
X15592619Y-13356381D01*
X15583095Y-13318286D01*
X15583095Y-13270667D01*
X15592619Y-13232571D01*
X15602143Y-13213524D01*
X15611667Y-13204000D01*
X15630714Y-13194476D01*
X15783095Y-13375428D02*
X15792619Y-13384952D01*
X15783095Y-13394476D01*
X15773571Y-13384952D01*
X15783095Y-13375428D01*
X15783095Y-13394476D01*
X15859286Y-13194476D02*
X15992619Y-13194476D01*
X15906905Y-13394476D01*
X16154524Y-13194476D02*
X16116428Y-13194476D01*
X16097381Y-13204000D01*
X16087857Y-13213524D01*
X16068809Y-13242095D01*
X16059286Y-13280190D01*
X16059286Y-13356381D01*
X16068809Y-13375428D01*
X16078333Y-13384952D01*
X16097381Y-13394476D01*
X16135476Y-13394476D01*
X16154524Y-13384952D01*
X16164048Y-13375428D01*
X16173571Y-13356381D01*
X16173571Y-13308762D01*
X16164048Y-13289714D01*
X16154524Y-13280190D01*
X16135476Y-13270667D01*
X16097381Y-13270667D01*
X16078333Y-13280190D01*
X16068809Y-13289714D01*
X16059286Y-13308762D01*
X16249762Y-13213524D02*
X16259286Y-13204000D01*
X16278333Y-13194476D01*
X16325952Y-13194476D01*
X16345000Y-13204000D01*
X16354524Y-13213524D01*
X16364048Y-13232571D01*
X16364048Y-13251619D01*
X16354524Y-13280190D01*
X16240238Y-13394476D01*
X16364048Y-13394476D01*
X16449762Y-13394476D02*
X16449762Y-13261143D01*
X16449762Y-13280190D02*
X16459286Y-13270667D01*
X16478333Y-13261143D01*
X16506905Y-13261143D01*
X16525952Y-13270667D01*
X16535476Y-13289714D01*
X16535476Y-13394476D01*
X16535476Y-13289714D02*
X16545000Y-13270667D01*
X16564048Y-13261143D01*
X16592619Y-13261143D01*
X16611667Y-13270667D01*
X16621190Y-13289714D01*
X16621190Y-13394476D01*
X16716428Y-13394476D02*
X16716428Y-13261143D01*
X16716428Y-13280190D02*
X16725952Y-13270667D01*
X16745000Y-13261143D01*
X16773571Y-13261143D01*
X16792619Y-13270667D01*
X16802143Y-13289714D01*
X16802143Y-13394476D01*
X16802143Y-13289714D02*
X16811667Y-13270667D01*
X16830714Y-13261143D01*
X16859286Y-13261143D01*
X16878333Y-13270667D01*
X16887857Y-13289714D01*
X16887857Y-13394476D01*
X17278333Y-13184952D02*
X17106905Y-13442095D01*
X17535476Y-13194476D02*
X17554524Y-13194476D01*
X17573571Y-13204000D01*
X17583095Y-13213524D01*
X17592619Y-13232571D01*
X17602143Y-13270667D01*
X17602143Y-13318286D01*
X17592619Y-13356381D01*
X17583095Y-13375428D01*
X17573571Y-13384952D01*
X17554524Y-13394476D01*
X17535476Y-13394476D01*
X17516429Y-13384952D01*
X17506905Y-13375428D01*
X17497381Y-13356381D01*
X17487857Y-13318286D01*
X17487857Y-13270667D01*
X17497381Y-13232571D01*
X17506905Y-13213524D01*
X17516429Y-13204000D01*
X17535476Y-13194476D01*
X17687857Y-13375428D02*
X17697381Y-13384952D01*
X17687857Y-13394476D01*
X17678333Y-13384952D01*
X17687857Y-13375428D01*
X17687857Y-13394476D01*
X17821190Y-13194476D02*
X17840238Y-13194476D01*
X17859286Y-13204000D01*
X17868810Y-13213524D01*
X17878333Y-13232571D01*
X17887857Y-13270667D01*
X17887857Y-13318286D01*
X17878333Y-13356381D01*
X17868810Y-13375428D01*
X17859286Y-13384952D01*
X17840238Y-13394476D01*
X17821190Y-13394476D01*
X17802143Y-13384952D01*
X17792619Y-13375428D01*
X17783095Y-13356381D01*
X17773571Y-13318286D01*
X17773571Y-13270667D01*
X17783095Y-13232571D01*
X17792619Y-13213524D01*
X17802143Y-13204000D01*
X17821190Y-13194476D01*
X17954524Y-13194476D02*
X18078333Y-13194476D01*
X18011667Y-13270667D01*
X18040238Y-13270667D01*
X18059286Y-13280190D01*
X18068810Y-13289714D01*
X18078333Y-13308762D01*
X18078333Y-13356381D01*
X18068810Y-13375428D01*
X18059286Y-13384952D01*
X18040238Y-13394476D01*
X17983095Y-13394476D01*
X17964048Y-13384952D01*
X17954524Y-13375428D01*
X18202143Y-13194476D02*
X18221190Y-13194476D01*
X18240238Y-13204000D01*
X18249762Y-13213524D01*
X18259286Y-13232571D01*
X18268810Y-13270667D01*
X18268810Y-13318286D01*
X18259286Y-13356381D01*
X18249762Y-13375428D01*
X18240238Y-13384952D01*
X18221190Y-13394476D01*
X18202143Y-13394476D01*
X18183095Y-13384952D01*
X18173571Y-13375428D01*
X18164048Y-13356381D01*
X18154524Y-13318286D01*
X18154524Y-13270667D01*
X18164048Y-13232571D01*
X18173571Y-13213524D01*
X18183095Y-13204000D01*
X18202143Y-13194476D01*
X18392619Y-13194476D02*
X18411667Y-13194476D01*
X18430714Y-13204000D01*
X18440238Y-13213524D01*
X18449762Y-13232571D01*
X18459286Y-13270667D01*
X18459286Y-13318286D01*
X18449762Y-13356381D01*
X18440238Y-13375428D01*
X18430714Y-13384952D01*
X18411667Y-13394476D01*
X18392619Y-13394476D01*
X18373571Y-13384952D01*
X18364048Y-13375428D01*
X18354524Y-13356381D01*
X18345000Y-13318286D01*
X18345000Y-13270667D01*
X18354524Y-13232571D01*
X18364048Y-13213524D01*
X18373571Y-13204000D01*
X18392619Y-13194476D01*
X18535476Y-13194476D02*
X18535476Y-13232571D01*
X18611667Y-13194476D02*
X18611667Y-13232571D01*
X18906905Y-13470667D02*
X18897381Y-13461143D01*
X18878333Y-13432571D01*
X18868810Y-13413524D01*
X18859286Y-13384952D01*
X18849762Y-13337333D01*
X18849762Y-13299238D01*
X18859286Y-13251619D01*
X18868810Y-13223048D01*
X18878333Y-13204000D01*
X18897381Y-13175428D01*
X18906905Y-13165905D01*
X19068810Y-13261143D02*
X19068810Y-13394476D01*
X19021190Y-13184952D02*
X18973571Y-13327809D01*
X19097381Y-13327809D01*
X19211667Y-13194476D02*
X19230714Y-13194476D01*
X19249762Y-13204000D01*
X19259286Y-13213524D01*
X19268810Y-13232571D01*
X19278333Y-13270667D01*
X19278333Y-13318286D01*
X19268810Y-13356381D01*
X19259286Y-13375428D01*
X19249762Y-13384952D01*
X19230714Y-13394476D01*
X19211667Y-13394476D01*
X19192619Y-13384952D01*
X19183095Y-13375428D01*
X19173571Y-13356381D01*
X19164048Y-13318286D01*
X19164048Y-13270667D01*
X19173571Y-13232571D01*
X19183095Y-13213524D01*
X19192619Y-13204000D01*
X19211667Y-13194476D01*
X19516429Y-13394476D02*
X19516429Y-13194476D01*
X19602143Y-13394476D02*
X19602143Y-13289714D01*
X19592619Y-13270667D01*
X19573571Y-13261143D01*
X19545000Y-13261143D01*
X19525952Y-13270667D01*
X19516429Y-13280190D01*
X19725952Y-13394476D02*
X19706905Y-13384952D01*
X19697381Y-13375428D01*
X19687857Y-13356381D01*
X19687857Y-13299238D01*
X19697381Y-13280190D01*
X19706905Y-13270667D01*
X19725952Y-13261143D01*
X19754524Y-13261143D01*
X19773571Y-13270667D01*
X19783095Y-13280190D01*
X19792619Y-13299238D01*
X19792619Y-13356381D01*
X19783095Y-13375428D01*
X19773571Y-13384952D01*
X19754524Y-13394476D01*
X19725952Y-13394476D01*
X19906905Y-13394476D02*
X19887857Y-13384952D01*
X19878333Y-13365905D01*
X19878333Y-13194476D01*
X20059286Y-13384952D02*
X20040238Y-13394476D01*
X20002143Y-13394476D01*
X19983095Y-13384952D01*
X19973571Y-13365905D01*
X19973571Y-13289714D01*
X19983095Y-13270667D01*
X20002143Y-13261143D01*
X20040238Y-13261143D01*
X20059286Y-13270667D01*
X20068810Y-13289714D01*
X20068810Y-13308762D01*
X19973571Y-13327809D01*
X20145000Y-13384952D02*
X20164048Y-13394476D01*
X20202143Y-13394476D01*
X20221190Y-13384952D01*
X20230714Y-13365905D01*
X20230714Y-13356381D01*
X20221190Y-13337333D01*
X20202143Y-13327809D01*
X20173571Y-13327809D01*
X20154524Y-13318286D01*
X20145000Y-13299238D01*
X20145000Y-13289714D01*
X20154524Y-13270667D01*
X20173571Y-13261143D01*
X20202143Y-13261143D01*
X20221190Y-13270667D01*
X20297381Y-13470667D02*
X20306905Y-13461143D01*
X20325952Y-13432571D01*
X20335476Y-13413524D01*
X20345000Y-13384952D01*
X20354524Y-13337333D01*
X20354524Y-13299238D01*
X20345000Y-13251619D01*
X20335476Y-13223048D01*
X20325952Y-13204000D01*
X20306905Y-13175428D01*
X20297381Y-13165905D01*
D14*
X15280000Y-13513000D02*
X15280000Y-13623000D01*
X15225000Y-13568000D02*
X15335000Y-13568000D01*
D11*
X15697381Y-13658476D02*
X15583095Y-13658476D01*
X15640238Y-13658476D02*
X15640238Y-13458476D01*
X15621190Y-13487048D01*
X15602143Y-13506095D01*
X15583095Y-13515619D01*
X15783095Y-13639428D02*
X15792619Y-13648952D01*
X15783095Y-13658476D01*
X15773571Y-13648952D01*
X15783095Y-13639428D01*
X15783095Y-13658476D01*
X15983095Y-13658476D02*
X15868809Y-13658476D01*
X15925952Y-13658476D02*
X15925952Y-13458476D01*
X15906905Y-13487048D01*
X15887857Y-13506095D01*
X15868809Y-13515619D01*
X16106905Y-13458476D02*
X16125952Y-13458476D01*
X16145000Y-13468000D01*
X16154524Y-13477524D01*
X16164048Y-13496571D01*
X16173571Y-13534667D01*
X16173571Y-13582286D01*
X16164048Y-13620381D01*
X16154524Y-13639428D01*
X16145000Y-13648952D01*
X16125952Y-13658476D01*
X16106905Y-13658476D01*
X16087857Y-13648952D01*
X16078333Y-13639428D01*
X16068809Y-13620381D01*
X16059286Y-13582286D01*
X16059286Y-13534667D01*
X16068809Y-13496571D01*
X16078333Y-13477524D01*
X16087857Y-13468000D01*
X16106905Y-13458476D01*
X16297381Y-13458476D02*
X16316428Y-13458476D01*
X16335476Y-13468000D01*
X16345000Y-13477524D01*
X16354524Y-13496571D01*
X16364048Y-13534667D01*
X16364048Y-13582286D01*
X16354524Y-13620381D01*
X16345000Y-13639428D01*
X16335476Y-13648952D01*
X16316428Y-13658476D01*
X16297381Y-13658476D01*
X16278333Y-13648952D01*
X16268809Y-13639428D01*
X16259286Y-13620381D01*
X16249762Y-13582286D01*
X16249762Y-13534667D01*
X16259286Y-13496571D01*
X16268809Y-13477524D01*
X16278333Y-13468000D01*
X16297381Y-13458476D01*
X16449762Y-13658476D02*
X16449762Y-13525143D01*
X16449762Y-13544190D02*
X16459286Y-13534667D01*
X16478333Y-13525143D01*
X16506905Y-13525143D01*
X16525952Y-13534667D01*
X16535476Y-13553714D01*
X16535476Y-13658476D01*
X16535476Y-13553714D02*
X16545000Y-13534667D01*
X16564048Y-13525143D01*
X16592619Y-13525143D01*
X16611667Y-13534667D01*
X16621190Y-13553714D01*
X16621190Y-13658476D01*
X16716428Y-13658476D02*
X16716428Y-13525143D01*
X16716428Y-13544190D02*
X16725952Y-13534667D01*
X16745000Y-13525143D01*
X16773571Y-13525143D01*
X16792619Y-13534667D01*
X16802143Y-13553714D01*
X16802143Y-13658476D01*
X16802143Y-13553714D02*
X16811667Y-13534667D01*
X16830714Y-13525143D01*
X16859286Y-13525143D01*
X16878333Y-13534667D01*
X16887857Y-13553714D01*
X16887857Y-13658476D01*
X17278333Y-13448952D02*
X17106905Y-13706095D01*
X17535476Y-13458476D02*
X17554524Y-13458476D01*
X17573571Y-13468000D01*
X17583095Y-13477524D01*
X17592619Y-13496571D01*
X17602143Y-13534667D01*
X17602143Y-13582286D01*
X17592619Y-13620381D01*
X17583095Y-13639428D01*
X17573571Y-13648952D01*
X17554524Y-13658476D01*
X17535476Y-13658476D01*
X17516429Y-13648952D01*
X17506905Y-13639428D01*
X17497381Y-13620381D01*
X17487857Y-13582286D01*
X17487857Y-13534667D01*
X17497381Y-13496571D01*
X17506905Y-13477524D01*
X17516429Y-13468000D01*
X17535476Y-13458476D01*
X17687857Y-13639428D02*
X17697381Y-13648952D01*
X17687857Y-13658476D01*
X17678333Y-13648952D01*
X17687857Y-13639428D01*
X17687857Y-13658476D01*
X17821190Y-13458476D02*
X17840238Y-13458476D01*
X17859286Y-13468000D01*
X17868810Y-13477524D01*
X17878333Y-13496571D01*
X17887857Y-13534667D01*
X17887857Y-13582286D01*
X17878333Y-13620381D01*
X17868810Y-13639428D01*
X17859286Y-13648952D01*
X17840238Y-13658476D01*
X17821190Y-13658476D01*
X17802143Y-13648952D01*
X17792619Y-13639428D01*
X17783095Y-13620381D01*
X17773571Y-13582286D01*
X17773571Y-13534667D01*
X17783095Y-13496571D01*
X17792619Y-13477524D01*
X17802143Y-13468000D01*
X17821190Y-13458476D01*
X18059286Y-13525143D02*
X18059286Y-13658476D01*
X18011667Y-13448952D02*
X17964048Y-13591809D01*
X18087857Y-13591809D01*
X18145000Y-13458476D02*
X18268810Y-13458476D01*
X18202143Y-13534667D01*
X18230714Y-13534667D01*
X18249762Y-13544190D01*
X18259286Y-13553714D01*
X18268810Y-13572762D01*
X18268810Y-13620381D01*
X18259286Y-13639428D01*
X18249762Y-13648952D01*
X18230714Y-13658476D01*
X18173571Y-13658476D01*
X18154524Y-13648952D01*
X18145000Y-13639428D01*
X18335476Y-13458476D02*
X18459286Y-13458476D01*
X18392619Y-13534667D01*
X18421190Y-13534667D01*
X18440238Y-13544190D01*
X18449762Y-13553714D01*
X18459286Y-13572762D01*
X18459286Y-13620381D01*
X18449762Y-13639428D01*
X18440238Y-13648952D01*
X18421190Y-13658476D01*
X18364048Y-13658476D01*
X18345000Y-13648952D01*
X18335476Y-13639428D01*
X18535476Y-13458476D02*
X18535476Y-13496571D01*
X18611667Y-13458476D02*
X18611667Y-13496571D01*
X18906905Y-13734667D02*
X18897381Y-13725143D01*
X18878333Y-13696571D01*
X18868810Y-13677524D01*
X18859286Y-13648952D01*
X18849762Y-13601333D01*
X18849762Y-13563238D01*
X18859286Y-13515619D01*
X18868810Y-13487048D01*
X18878333Y-13468000D01*
X18897381Y-13439428D01*
X18906905Y-13429905D01*
X19087857Y-13658476D02*
X18973571Y-13658476D01*
X19030714Y-13658476D02*
X19030714Y-13458476D01*
X19011667Y-13487048D01*
X18992619Y-13506095D01*
X18973571Y-13515619D01*
X19268810Y-13458476D02*
X19173571Y-13458476D01*
X19164048Y-13553714D01*
X19173571Y-13544190D01*
X19192619Y-13534667D01*
X19240238Y-13534667D01*
X19259286Y-13544190D01*
X19268810Y-13553714D01*
X19278333Y-13572762D01*
X19278333Y-13620381D01*
X19268810Y-13639428D01*
X19259286Y-13648952D01*
X19240238Y-13658476D01*
X19192619Y-13658476D01*
X19173571Y-13648952D01*
X19164048Y-13639428D01*
X19516429Y-13658476D02*
X19516429Y-13458476D01*
X19602143Y-13658476D02*
X19602143Y-13553714D01*
X19592619Y-13534667D01*
X19573571Y-13525143D01*
X19545000Y-13525143D01*
X19525952Y-13534667D01*
X19516429Y-13544190D01*
X19725952Y-13658476D02*
X19706905Y-13648952D01*
X19697381Y-13639428D01*
X19687857Y-13620381D01*
X19687857Y-13563238D01*
X19697381Y-13544190D01*
X19706905Y-13534667D01*
X19725952Y-13525143D01*
X19754524Y-13525143D01*
X19773571Y-13534667D01*
X19783095Y-13544190D01*
X19792619Y-13563238D01*
X19792619Y-13620381D01*
X19783095Y-13639428D01*
X19773571Y-13648952D01*
X19754524Y-13658476D01*
X19725952Y-13658476D01*
X19906905Y-13658476D02*
X19887857Y-13648952D01*
X19878333Y-13629905D01*
X19878333Y-13458476D01*
X20059286Y-13648952D02*
X20040238Y-13658476D01*
X20002143Y-13658476D01*
X19983095Y-13648952D01*
X19973571Y-13629905D01*
X19973571Y-13553714D01*
X19983095Y-13534667D01*
X20002143Y-13525143D01*
X20040238Y-13525143D01*
X20059286Y-13534667D01*
X20068810Y-13553714D01*
X20068810Y-13572762D01*
X19973571Y-13591809D01*
X20145000Y-13648952D02*
X20164048Y-13658476D01*
X20202143Y-13658476D01*
X20221190Y-13648952D01*
X20230714Y-13629905D01*
X20230714Y-13620381D01*
X20221190Y-13601333D01*
X20202143Y-13591809D01*
X20173571Y-13591809D01*
X20154524Y-13582286D01*
X20145000Y-13563238D01*
X20145000Y-13553714D01*
X20154524Y-13534667D01*
X20173571Y-13525143D01*
X20202143Y-13525143D01*
X20221190Y-13534667D01*
X20297381Y-13734667D02*
X20306905Y-13725143D01*
X20325952Y-13696571D01*
X20335476Y-13677524D01*
X20345000Y-13648952D01*
X20354524Y-13601333D01*
X20354524Y-13563238D01*
X20345000Y-13515619D01*
X20335476Y-13487048D01*
X20325952Y-13468000D01*
X20306905Y-13439428D01*
X20297381Y-13429905D01*
X15305711Y-13902711D02*
X15305711Y-13761289D01*
X15164289Y-13761289D01*
X15164289Y-13902711D01*
X15305711Y-13902711D01*
X15573571Y-13722476D02*
X15697381Y-13722476D01*
X15630714Y-13798667D01*
X15659286Y-13798667D01*
X15678333Y-13808190D01*
X15687857Y-13817714D01*
X15697381Y-13836762D01*
X15697381Y-13884381D01*
X15687857Y-13903428D01*
X15678333Y-13912952D01*
X15659286Y-13922476D01*
X15602143Y-13922476D01*
X15583095Y-13912952D01*
X15573571Y-13903428D01*
X15783095Y-13903428D02*
X15792619Y-13912952D01*
X15783095Y-13922476D01*
X15773571Y-13912952D01*
X15783095Y-13903428D01*
X15783095Y-13922476D01*
X15983095Y-13922476D02*
X15868809Y-13922476D01*
X15925952Y-13922476D02*
X15925952Y-13722476D01*
X15906905Y-13751048D01*
X15887857Y-13770095D01*
X15868809Y-13779619D01*
X16164048Y-13722476D02*
X16068809Y-13722476D01*
X16059286Y-13817714D01*
X16068809Y-13808190D01*
X16087857Y-13798667D01*
X16135476Y-13798667D01*
X16154524Y-13808190D01*
X16164048Y-13817714D01*
X16173571Y-13836762D01*
X16173571Y-13884381D01*
X16164048Y-13903428D01*
X16154524Y-13912952D01*
X16135476Y-13922476D01*
X16087857Y-13922476D01*
X16068809Y-13912952D01*
X16059286Y-13903428D01*
X16297381Y-13722476D02*
X16316428Y-13722476D01*
X16335476Y-13732000D01*
X16345000Y-13741524D01*
X16354524Y-13760571D01*
X16364048Y-13798667D01*
X16364048Y-13846286D01*
X16354524Y-13884381D01*
X16345000Y-13903428D01*
X16335476Y-13912952D01*
X16316428Y-13922476D01*
X16297381Y-13922476D01*
X16278333Y-13912952D01*
X16268809Y-13903428D01*
X16259286Y-13884381D01*
X16249762Y-13846286D01*
X16249762Y-13798667D01*
X16259286Y-13760571D01*
X16268809Y-13741524D01*
X16278333Y-13732000D01*
X16297381Y-13722476D01*
X16449762Y-13922476D02*
X16449762Y-13789143D01*
X16449762Y-13808190D02*
X16459286Y-13798667D01*
X16478333Y-13789143D01*
X16506905Y-13789143D01*
X16525952Y-13798667D01*
X16535476Y-13817714D01*
X16535476Y-13922476D01*
X16535476Y-13817714D02*
X16545000Y-13798667D01*
X16564048Y-13789143D01*
X16592619Y-13789143D01*
X16611667Y-13798667D01*
X16621190Y-13817714D01*
X16621190Y-13922476D01*
X16716428Y-13922476D02*
X16716428Y-13789143D01*
X16716428Y-13808190D02*
X16725952Y-13798667D01*
X16745000Y-13789143D01*
X16773571Y-13789143D01*
X16792619Y-13798667D01*
X16802143Y-13817714D01*
X16802143Y-13922476D01*
X16802143Y-13817714D02*
X16811667Y-13798667D01*
X16830714Y-13789143D01*
X16859286Y-13789143D01*
X16878333Y-13798667D01*
X16887857Y-13817714D01*
X16887857Y-13922476D01*
X17278333Y-13712952D02*
X17106905Y-13970095D01*
X17535476Y-13722476D02*
X17554524Y-13722476D01*
X17573571Y-13732000D01*
X17583095Y-13741524D01*
X17592619Y-13760571D01*
X17602143Y-13798667D01*
X17602143Y-13846286D01*
X17592619Y-13884381D01*
X17583095Y-13903428D01*
X17573571Y-13912952D01*
X17554524Y-13922476D01*
X17535476Y-13922476D01*
X17516429Y-13912952D01*
X17506905Y-13903428D01*
X17497381Y-13884381D01*
X17487857Y-13846286D01*
X17487857Y-13798667D01*
X17497381Y-13760571D01*
X17506905Y-13741524D01*
X17516429Y-13732000D01*
X17535476Y-13722476D01*
X17687857Y-13903428D02*
X17697381Y-13912952D01*
X17687857Y-13922476D01*
X17678333Y-13912952D01*
X17687857Y-13903428D01*
X17687857Y-13922476D01*
X17887857Y-13922476D02*
X17773571Y-13922476D01*
X17830714Y-13922476D02*
X17830714Y-13722476D01*
X17811667Y-13751048D01*
X17792619Y-13770095D01*
X17773571Y-13779619D01*
X17964048Y-13741524D02*
X17973571Y-13732000D01*
X17992619Y-13722476D01*
X18040238Y-13722476D01*
X18059286Y-13732000D01*
X18068810Y-13741524D01*
X18078333Y-13760571D01*
X18078333Y-13779619D01*
X18068810Y-13808190D01*
X17954524Y-13922476D01*
X18078333Y-13922476D01*
X18249762Y-13789143D02*
X18249762Y-13922476D01*
X18202143Y-13712952D02*
X18154524Y-13855809D01*
X18278333Y-13855809D01*
X18392619Y-13722476D02*
X18411667Y-13722476D01*
X18430714Y-13732000D01*
X18440238Y-13741524D01*
X18449762Y-13760571D01*
X18459286Y-13798667D01*
X18459286Y-13846286D01*
X18449762Y-13884381D01*
X18440238Y-13903428D01*
X18430714Y-13912952D01*
X18411667Y-13922476D01*
X18392619Y-13922476D01*
X18373571Y-13912952D01*
X18364048Y-13903428D01*
X18354524Y-13884381D01*
X18345000Y-13846286D01*
X18345000Y-13798667D01*
X18354524Y-13760571D01*
X18364048Y-13741524D01*
X18373571Y-13732000D01*
X18392619Y-13722476D01*
X18535476Y-13722476D02*
X18535476Y-13760571D01*
X18611667Y-13722476D02*
X18611667Y-13760571D01*
X18906905Y-13998667D02*
X18897381Y-13989143D01*
X18878333Y-13960571D01*
X18868810Y-13941524D01*
X18859286Y-13912952D01*
X18849762Y-13865333D01*
X18849762Y-13827238D01*
X18859286Y-13779619D01*
X18868810Y-13751048D01*
X18878333Y-13732000D01*
X18897381Y-13703428D01*
X18906905Y-13693905D01*
X18973571Y-13741524D02*
X18983095Y-13732000D01*
X19002143Y-13722476D01*
X19049762Y-13722476D01*
X19068810Y-13732000D01*
X19078333Y-13741524D01*
X19087857Y-13760571D01*
X19087857Y-13779619D01*
X19078333Y-13808190D01*
X18964048Y-13922476D01*
X19087857Y-13922476D01*
X19325952Y-13922476D02*
X19325952Y-13722476D01*
X19411667Y-13922476D02*
X19411667Y-13817714D01*
X19402143Y-13798667D01*
X19383095Y-13789143D01*
X19354524Y-13789143D01*
X19335476Y-13798667D01*
X19325952Y-13808190D01*
X19535476Y-13922476D02*
X19516429Y-13912952D01*
X19506905Y-13903428D01*
X19497381Y-13884381D01*
X19497381Y-13827238D01*
X19506905Y-13808190D01*
X19516429Y-13798667D01*
X19535476Y-13789143D01*
X19564048Y-13789143D01*
X19583095Y-13798667D01*
X19592619Y-13808190D01*
X19602143Y-13827238D01*
X19602143Y-13884381D01*
X19592619Y-13903428D01*
X19583095Y-13912952D01*
X19564048Y-13922476D01*
X19535476Y-13922476D01*
X19716429Y-13922476D02*
X19697381Y-13912952D01*
X19687857Y-13893905D01*
X19687857Y-13722476D01*
X19868810Y-13912952D02*
X19849762Y-13922476D01*
X19811667Y-13922476D01*
X19792619Y-13912952D01*
X19783095Y-13893905D01*
X19783095Y-13817714D01*
X19792619Y-13798667D01*
X19811667Y-13789143D01*
X19849762Y-13789143D01*
X19868810Y-13798667D01*
X19878333Y-13817714D01*
X19878333Y-13836762D01*
X19783095Y-13855809D01*
X19954524Y-13912952D02*
X19973571Y-13922476D01*
X20011667Y-13922476D01*
X20030714Y-13912952D01*
X20040238Y-13893905D01*
X20040238Y-13884381D01*
X20030714Y-13865333D01*
X20011667Y-13855809D01*
X19983095Y-13855809D01*
X19964048Y-13846286D01*
X19954524Y-13827238D01*
X19954524Y-13817714D01*
X19964048Y-13798667D01*
X19983095Y-13789143D01*
X20011667Y-13789143D01*
X20030714Y-13798667D01*
X20106905Y-13998667D02*
X20116429Y-13989143D01*
X20135476Y-13960571D01*
X20145000Y-13941524D01*
X20154524Y-13912952D01*
X20164048Y-13865333D01*
X20164048Y-13827238D01*
X20154524Y-13779619D01*
X20145000Y-13751048D01*
X20135476Y-13732000D01*
X20116429Y-13703428D01*
X20106905Y-13693905D01*
M02*
