%TF.GenerationSoftware,KiCad,Pcbnew,(5.99.0-8075-g8416c1fc37)*%
%TF.CreationDate,2021-06-30T13:11:38+01:00*%
%TF.ProjectId,picovga,7069636f-7667-4612-9e6b-696361645f70,rev?*%
%TF.SameCoordinates,Original*%
%TF.FileFunction,Copper,L2,Bot*%
%TF.FilePolarity,Positive*%
%FSLAX46Y46*%
G04 Gerber Fmt 4.6, Leading zero omitted, Abs format (unit mm)*
G04 Created by KiCad (PCBNEW (5.99.0-8075-g8416c1fc37)) date 2021-06-30 13:11:38*
%MOMM*%
%LPD*%
G01*
G04 APERTURE LIST*
G04 Aperture macros list*
%AMRoundRect*
0 Rectangle with rounded corners*
0 $1 Rounding radius*
0 $2 $3 $4 $5 $6 $7 $8 $9 X,Y pos of 4 corners*
0 Add a 4 corners polygon primitive as box body*
4,1,4,$2,$3,$4,$5,$6,$7,$8,$9,$2,$3,0*
0 Add four circle primitives for the rounded corners*
1,1,$1+$1,$2,$3,0*
1,1,$1+$1,$4,$5,0*
1,1,$1+$1,$6,$7,0*
1,1,$1+$1,$8,$9,0*
0 Add four rect primitives between the rounded corners*
20,1,$1+$1,$2,$3,$4,$5,0*
20,1,$1+$1,$4,$5,$6,$7,0*
20,1,$1+$1,$6,$7,$8,$9,0*
20,1,$1+$1,$8,$9,$2,$3,0*%
G04 Aperture macros list end*
%TA.AperFunction,ComponentPad*%
%ADD10R,1.524000X1.524000*%
%TD*%
%TA.AperFunction,ComponentPad*%
%ADD11C,1.524000*%
%TD*%
%TA.AperFunction,SMDPad,CuDef*%
%ADD12R,0.300000X0.800000*%
%TD*%
%TA.AperFunction,SMDPad,CuDef*%
%ADD13R,0.700000X1.200000*%
%TD*%
%TA.AperFunction,SMDPad,CuDef*%
%ADD14R,1.000000X0.800000*%
%TD*%
%TA.AperFunction,SMDPad,CuDef*%
%ADD15R,1.300000X1.900000*%
%TD*%
%TA.AperFunction,SMDPad,CuDef*%
%ADD16R,1.000000X1.200000*%
%TD*%
%TA.AperFunction,SMDPad,CuDef*%
%ADD17R,1.000000X2.800000*%
%TD*%
%TA.AperFunction,ComponentPad*%
%ADD18C,1.650000*%
%TD*%
%TA.AperFunction,ComponentPad*%
%ADD19C,4.725000*%
%TD*%
%TA.AperFunction,SMDPad,CuDef*%
%ADD20RoundRect,0.250000X-0.450000X0.350000X-0.450000X-0.350000X0.450000X-0.350000X0.450000X0.350000X0*%
%TD*%
%TA.AperFunction,SMDPad,CuDef*%
%ADD21RoundRect,0.250000X0.450000X-0.350000X0.450000X0.350000X-0.450000X0.350000X-0.450000X-0.350000X0*%
%TD*%
%TA.AperFunction,ViaPad*%
%ADD22C,0.800000*%
%TD*%
%TA.AperFunction,Conductor*%
%ADD23C,0.250000*%
%TD*%
G04 APERTURE END LIST*
D10*
%TO.P,U0,1,GP0*%
%TO.N,R0*%
X160110000Y-62870000D03*
D11*
%TO.P,U0,2,GP1*%
%TO.N,R1*%
X160110000Y-65410000D03*
%TO.P,U0,3,GND*%
%TO.N,GND*%
X160110000Y-67950000D03*
%TO.P,U0,4,GP2*%
%TO.N,R2*%
X160110000Y-70490000D03*
%TO.P,U0,5,GP3*%
%TO.N,R3*%
X160110000Y-73030000D03*
%TO.P,U0,6,GP4*%
%TO.N,G0*%
X160110000Y-75570000D03*
%TO.P,U0,7,GP5*%
%TO.N,G1*%
X160110000Y-78110000D03*
%TO.P,U0,8,GND*%
%TO.N,GND*%
X160110000Y-80650000D03*
%TO.P,U0,9,GP6*%
%TO.N,G2*%
X160110000Y-83190000D03*
%TO.P,U0,10,GP7*%
%TO.N,G3*%
X160110000Y-85730000D03*
%TO.P,U0,11,GP8*%
%TO.N,B0*%
X160110000Y-88270000D03*
%TO.P,U0,12,GP9*%
%TO.N,B1*%
X160110000Y-90810000D03*
%TO.P,U0,13,GND*%
%TO.N,GND*%
X160110000Y-93350000D03*
%TO.P,U0,14,GP10*%
%TO.N,B2*%
X160110000Y-95890000D03*
%TO.P,U0,15,GP11*%
%TO.N,B3*%
X160110000Y-98430000D03*
%TO.P,U0,16,GP12*%
%TO.N,Net-(R13-Pad2)*%
X160110000Y-100970000D03*
%TO.P,U0,17,GP13*%
%TO.N,Net-(R14-Pad1)*%
X160110000Y-103510000D03*
%TO.P,U0,18,GND*%
%TO.N,GND*%
X160110000Y-106050000D03*
%TO.P,U0,19,GP14*%
%TO.N,DCC3V3DAT*%
X160110000Y-108590000D03*
%TO.P,U0,20,GP15*%
%TO.N,DCC3V3CLK*%
X160110000Y-111130000D03*
%TO.P,U0,21,GP16*%
%TO.N,no_connect_36*%
X177890000Y-111130000D03*
%TO.P,U0,22,GP17*%
%TO.N,GP17*%
X177890000Y-108590000D03*
%TO.P,U0,23,GND*%
%TO.N,GND*%
X177890000Y-106050000D03*
%TO.P,U0,24,GP18*%
%TO.N,GP18*%
X177890000Y-103510000D03*
%TO.P,U0,25,GP19*%
%TO.N,GP19*%
X177890000Y-100970000D03*
%TO.P,U0,26,GP20*%
%TO.N,GP20*%
X177890000Y-98430000D03*
%TO.P,U0,27,GP21*%
%TO.N,GP21*%
X177890000Y-95890000D03*
%TO.P,U0,28,GND*%
%TO.N,GND*%
X177890000Y-93350000D03*
%TO.P,U0,29,GP22*%
%TO.N,GP22*%
X177890000Y-90810000D03*
%TO.P,U0,30,RUN*%
%TO.N,no_connect_37*%
X177890000Y-88270000D03*
%TO.P,U0,31,GP26*%
%TO.N,no_connect_38*%
X177890000Y-85730000D03*
%TO.P,U0,32,GP27*%
%TO.N,no_connect_39*%
X177890000Y-83190000D03*
%TO.P,U0,33,GND*%
%TO.N,GND*%
X177890000Y-80650000D03*
%TO.P,U0,34,GP28*%
%TO.N,no_connect_40*%
X177890000Y-78110000D03*
%TO.P,U0,35,ADC_VREF*%
%TO.N,no_connect_41*%
X177890000Y-75570000D03*
%TO.P,U0,36,3V3*%
%TO.N,+3V3*%
X177890000Y-73030000D03*
%TO.P,U0,37,3V3_EN*%
%TO.N,no_connect_42*%
X177890000Y-70490000D03*
%TO.P,U0,38,GND*%
%TO.N,GND*%
X177890000Y-67950000D03*
%TO.P,U0,39,VSYS*%
%TO.N,no_connect_43*%
X177890000Y-65410000D03*
%TO.P,U0,40,VBUS*%
%TO.N,+5V*%
X177890000Y-62870000D03*
%TD*%
D12*
%TO.P,U1,1,VREF1*%
%TO.N,+3V3*%
X170250000Y-96450000D03*
%TO.P,U1,2,SCL1*%
%TO.N,DCC3V3DAT*%
X170750000Y-96450000D03*
%TO.P,U1,3,SDA1*%
%TO.N,DCC3V3CLK*%
X171250000Y-96450000D03*
%TO.P,U1,4,GND*%
%TO.N,GND*%
X171750000Y-96450000D03*
%TO.P,U1,5,SDA2*%
%TO.N,DCC5VCLK*%
X171750000Y-99550000D03*
%TO.P,U1,6,SCL2*%
%TO.N,DCC5VDAT*%
X171250000Y-99550000D03*
%TO.P,U1,7,VREF2*%
%TO.N,Net-(R17-Pad1)*%
X170750000Y-99550000D03*
%TO.P,U1,8,EN*%
X170250000Y-99550000D03*
%TD*%
D13*
%TO.P,J1,1,DAT2*%
%TO.N,GP21*%
X171775000Y-77725000D03*
%TO.P,J1,2,DAT3/CD*%
%TO.N,GP22*%
X170675000Y-77725000D03*
%TO.P,J1,3,CMD*%
%TO.N,GP18*%
X169575000Y-77725000D03*
%TO.P,J1,4,VDD*%
%TO.N,+3V3*%
X168475000Y-77725000D03*
%TO.P,J1,5,CLK*%
%TO.N,GP17*%
X167375000Y-77725000D03*
%TO.P,J1,6,VSS*%
%TO.N,GND*%
X166275000Y-77725000D03*
%TO.P,J1,7,DAT0*%
%TO.N,GP19*%
X165175000Y-77725000D03*
%TO.P,J1,8,DAT1*%
%TO.N,GP20*%
X164075000Y-77725000D03*
%TO.P,J1,9,SHIELD*%
%TO.N,GND*%
X163125000Y-77725000D03*
D14*
%TO.P,J1,10*%
%TO.N,N/C*%
X162175000Y-67225000D03*
D15*
%TO.P,J1,11*%
X175675000Y-62625000D03*
D16*
X162175000Y-73425000D03*
X173325000Y-77725000D03*
D17*
X162175000Y-63075000D03*
%TD*%
D18*
%TO.P,J0,1*%
%TO.N,VGA_R*%
X173285000Y-115930000D03*
%TO.P,J0,2*%
%TO.N,VGA_G*%
X170995000Y-115930000D03*
%TO.P,J0,3*%
%TO.N,VGA_B*%
X168705000Y-115930000D03*
%TO.P,J0,4*%
%TO.N,no_connect_35*%
X166415000Y-115930000D03*
%TO.P,J0,5*%
%TO.N,GND*%
X164125000Y-115930000D03*
%TO.P,J0,6*%
X174431000Y-118470000D03*
%TO.P,J0,7*%
X172140000Y-118470000D03*
%TO.P,J0,8*%
X169850000Y-118470000D03*
%TO.P,J0,9*%
%TO.N,+5V*%
X167561000Y-118470000D03*
%TO.P,J0,10*%
%TO.N,GND*%
X165270000Y-118470000D03*
%TO.P,J0,11*%
%TO.N,no_connect_34*%
X173285000Y-121010000D03*
%TO.P,J0,12*%
%TO.N,DCC5VDAT*%
X170995000Y-121010000D03*
%TO.P,J0,13*%
%TO.N,HSYNC*%
X168705000Y-121010000D03*
%TO.P,J0,14*%
%TO.N,VSYNC*%
X166415000Y-121010000D03*
%TO.P,J0,15*%
%TO.N,DCC5VCLK*%
X164125000Y-121010000D03*
D19*
%TO.P,J0,MH1*%
%TO.N,N/C*%
X156460000Y-118470000D03*
%TO.P,J0,MH2*%
X181450000Y-118470000D03*
%TD*%
D20*
%TO.P,R21,1*%
%TO.N,+3V3*%
X172500000Y-89500000D03*
%TO.P,R21,2*%
%TO.N,DCC3V3CLK*%
X172500000Y-91500000D03*
%TD*%
%TO.P,R17,1*%
%TO.N,Net-(R17-Pad1)*%
X169000000Y-104500000D03*
%TO.P,R17,2*%
%TO.N,+5V*%
X169000000Y-106500000D03*
%TD*%
%TO.P,R19,1*%
%TO.N,DCC5VCLK*%
X174000000Y-104500000D03*
%TO.P,R19,2*%
%TO.N,+5V*%
X174000000Y-106500000D03*
%TD*%
D21*
%TO.P,R18,1*%
%TO.N,+5V*%
X171500000Y-106500000D03*
%TO.P,R18,2*%
%TO.N,DCC5VDAT*%
X171500000Y-104500000D03*
%TD*%
%TO.P,R20,1*%
%TO.N,DCC3V3DAT*%
X170000000Y-91500000D03*
%TO.P,R20,2*%
%TO.N,+3V3*%
X170000000Y-89500000D03*
%TD*%
D22*
%TO.N,GND*%
X175000000Y-116700000D03*
X163119460Y-81178525D03*
X173197119Y-85211151D03*
X172750000Y-94650000D03*
%TO.N,+3V3*%
X168500000Y-79450000D03*
X167609999Y-83500000D03*
%TO.N,VSYNC*%
X162400000Y-122200000D03*
%TO.N,GP19*%
X174750000Y-97500000D03*
%TO.N,DCC5VDAT*%
X171250000Y-102250000D03*
%TO.N,DCC5VCLK*%
X173250000Y-102250000D03*
%TO.N,DCC3V3DAT*%
X167500000Y-94500000D03*
X163000000Y-105500000D03*
X170000000Y-93500000D03*
%TO.N,DCC3V3CLK*%
X172000000Y-93500000D03*
X167500000Y-96000000D03*
X164500000Y-105500000D03*
%TO.N,GP21*%
X174500000Y-79925000D03*
%TO.N,GP20*%
X174250000Y-95000000D03*
X174324980Y-87000000D03*
%TD*%
D23*
%TO.N,GND*%
X163125000Y-81172985D02*
X163119460Y-81178525D01*
X172200000Y-94650000D02*
X171750000Y-95100000D01*
X172750000Y-94650000D02*
X172200000Y-94650000D01*
X164140000Y-115960000D02*
X164000000Y-115820000D01*
X171750000Y-95100000D02*
X171750000Y-96450000D01*
X163125000Y-77725000D02*
X163125000Y-81172985D01*
%TO.N,+3V3*%
X172000000Y-88000000D02*
X172500000Y-88500000D01*
X168500000Y-86000000D02*
X168500000Y-93500000D01*
X167609999Y-85109999D02*
X168500000Y-86000000D01*
X170250000Y-95250000D02*
X170250000Y-96250000D01*
X170250000Y-96250000D02*
X170250000Y-96450000D01*
X168500000Y-86000000D02*
X170000000Y-87500000D01*
X168475000Y-79425000D02*
X168500000Y-79450000D01*
X167609999Y-83500000D02*
X167609999Y-85109999D01*
X170000000Y-87500000D02*
X170000000Y-89500000D01*
X170500000Y-88000000D02*
X172000000Y-88000000D01*
X172500000Y-88500000D02*
X172500000Y-89500000D01*
X170000000Y-87500000D02*
X170500000Y-88000000D01*
X170250000Y-95750000D02*
X170250000Y-96250000D01*
X168475000Y-77725000D02*
X168475000Y-79425000D01*
X168500000Y-93500000D02*
X170250000Y-95250000D01*
%TO.N,VSYNC*%
X162800000Y-122600000D02*
X165500000Y-122600000D01*
X165500000Y-122600000D02*
X166415000Y-121685000D01*
X166415000Y-121685000D02*
X166415000Y-121010000D01*
X162400000Y-122200000D02*
X162800000Y-122600000D01*
%TO.N,GP19*%
X167090559Y-79750000D02*
X169340619Y-82000060D01*
X175049980Y-97200020D02*
X174750000Y-97500000D01*
X165175000Y-78250000D02*
X166675000Y-79750000D01*
X175049980Y-83209252D02*
X175049980Y-97200020D01*
X173840788Y-82000060D02*
X175049980Y-83209252D01*
X166675000Y-79750000D02*
X167090559Y-79750000D01*
X169340619Y-82000060D02*
X173840788Y-82000060D01*
%TO.N,GP17*%
X167375000Y-77725000D02*
X167375000Y-79398017D01*
X174027192Y-81550040D02*
X175500000Y-83022848D01*
X175500000Y-106200000D02*
X177890000Y-108590000D01*
X175500000Y-83022848D02*
X175500000Y-106200000D01*
X167375000Y-79398017D02*
X169527023Y-81550040D01*
X169527023Y-81550040D02*
X174027192Y-81550040D01*
%TO.N,GP18*%
X169575000Y-77725000D02*
X169575000Y-78160020D01*
X171363596Y-81100020D02*
X174213596Y-81100020D01*
X174213596Y-81100020D02*
X176000000Y-82886424D01*
X176000000Y-82886424D02*
X176000000Y-101620000D01*
X169575000Y-79311424D02*
X171363596Y-81100020D01*
X169575000Y-77725000D02*
X169575000Y-79311424D01*
X176000000Y-101620000D02*
X177890000Y-103510000D01*
%TO.N,+5V*%
X175500000Y-73500000D02*
X165000000Y-73500000D01*
X162750000Y-114250000D02*
X162750000Y-116850000D01*
X162000000Y-106000000D02*
X164500000Y-108500000D01*
X173500000Y-108500000D02*
X174000000Y-108000000D01*
X174000000Y-108000000D02*
X174000000Y-106500000D01*
X171500000Y-108000000D02*
X171000000Y-108500000D01*
X171500000Y-106500000D02*
X171500000Y-108000000D01*
X163100000Y-117200000D02*
X166291000Y-117200000D01*
X168500000Y-108500000D02*
X169500000Y-108500000D01*
X168150000Y-108500000D02*
X168500000Y-108500000D01*
X172000000Y-108500000D02*
X173500000Y-108500000D01*
X162000000Y-76500000D02*
X162000000Y-106000000D01*
X167575000Y-113425000D02*
X167100000Y-113900000D01*
X167575000Y-109075000D02*
X167575000Y-113425000D01*
X176000000Y-73000000D02*
X175500000Y-73500000D01*
X177890000Y-62870000D02*
X176000000Y-64760001D01*
X176000000Y-64760001D02*
X176000000Y-73000000D01*
X169000000Y-108000000D02*
X169000000Y-106500000D01*
X167000000Y-108500000D02*
X167575000Y-109075000D01*
X162750000Y-116850000D02*
X163100000Y-117200000D01*
X167100000Y-113900000D02*
X163100000Y-113900000D01*
X169500000Y-108500000D02*
X172000000Y-108500000D01*
X168500000Y-108500000D02*
X169000000Y-108000000D01*
X163100000Y-113900000D02*
X162750000Y-114250000D01*
X166291000Y-117200000D02*
X167561000Y-118470000D01*
X164500000Y-108500000D02*
X167000000Y-108500000D01*
X165000000Y-73500000D02*
X162000000Y-76500000D01*
X167000000Y-108500000D02*
X168500000Y-108500000D01*
X169000000Y-107500000D02*
X169000000Y-106500000D01*
%TO.N,DCC5VDAT*%
X171250000Y-102250000D02*
X171250000Y-99550000D01*
X171500000Y-103287285D02*
X171250000Y-103037285D01*
X171500000Y-104500000D02*
X171500000Y-103287285D01*
X171250000Y-103037285D02*
X171250000Y-102250000D01*
%TO.N,DCC5VCLK*%
X174000000Y-103000000D02*
X173250000Y-102250000D01*
X173250000Y-102250000D02*
X171750000Y-100750000D01*
X174000000Y-104500000D02*
X174000000Y-103000000D01*
X171750000Y-100750000D02*
X171750000Y-99550000D01*
%TO.N,Net-(R17-Pad1)*%
X170250000Y-100750000D02*
X170750000Y-100250000D01*
X169000000Y-103500000D02*
X170250000Y-102250000D01*
X170250000Y-102250000D02*
X170250000Y-100750000D01*
X169000000Y-104500000D02*
X169000000Y-103500000D01*
X170250000Y-100750000D02*
X170250000Y-99550000D01*
X170750000Y-100250000D02*
X170750000Y-99550000D01*
%TO.N,DCC3V3DAT*%
X170000000Y-93500000D02*
X170500000Y-94000000D01*
X170000000Y-93500000D02*
X170750000Y-94250000D01*
X170750000Y-94250000D02*
X170750000Y-95250000D01*
X163500000Y-97363576D02*
X166363576Y-94500000D01*
X170000000Y-91500000D02*
X170000000Y-93500000D01*
X170750000Y-94250000D02*
X170750000Y-96450000D01*
X166363576Y-94500000D02*
X167500000Y-94500000D01*
X163000000Y-105500000D02*
X163500000Y-105000000D01*
X160110000Y-108590000D02*
X160270000Y-108750000D01*
X163500000Y-105000000D02*
X163500000Y-104000000D01*
X163500000Y-104000000D02*
X163500000Y-97363576D01*
%TO.N,DCC3V3CLK*%
X172500000Y-93000000D02*
X172000000Y-93500000D01*
X172000000Y-93500000D02*
X171250000Y-94250000D01*
X164500000Y-105500000D02*
X164000000Y-105000000D01*
X164000000Y-97500000D02*
X165500000Y-96000000D01*
X164000000Y-105000000D02*
X164000000Y-104000000D01*
X172500000Y-91500000D02*
X172500000Y-93000000D01*
X165500000Y-96000000D02*
X167500000Y-96000000D01*
X164000000Y-104000000D02*
X164000000Y-97500000D01*
X171250000Y-94250000D02*
X171250000Y-96450000D01*
%TO.N,GP22*%
X170650000Y-79750000D02*
X171550000Y-80650000D01*
X170675000Y-77725000D02*
X170675000Y-78160020D01*
X170650000Y-77750000D02*
X170650000Y-79750000D01*
X176450000Y-90300000D02*
X176960000Y-90810000D01*
X174400000Y-80650000D02*
X176450000Y-82700000D01*
X176450000Y-82700000D02*
X176450000Y-90300000D01*
X170675000Y-77725000D02*
X170650000Y-77750000D01*
X171550000Y-80650000D02*
X174400000Y-80650000D01*
X176960000Y-90810000D02*
X177890000Y-90810000D01*
%TO.N,GP21*%
X174425000Y-80000000D02*
X174500000Y-79925000D01*
X171775000Y-77725000D02*
X171775000Y-77860020D01*
X172000000Y-80000000D02*
X174425000Y-80000000D01*
X171775000Y-77725000D02*
X171775000Y-79775000D01*
X171775000Y-79775000D02*
X172000000Y-80000000D01*
%TO.N,GP20*%
X173654384Y-82450080D02*
X174599960Y-83395656D01*
X174599960Y-87650040D02*
X174599960Y-94650040D01*
X169154215Y-82450080D02*
X173654384Y-82450080D01*
X166200020Y-80200020D02*
X166904155Y-80200020D01*
X174599960Y-94650040D02*
X174250000Y-95000000D01*
X164075000Y-78075000D02*
X166200020Y-80200020D01*
X174599960Y-86400040D02*
X174324980Y-86675020D01*
X166904155Y-80200020D02*
X169154215Y-82450080D01*
X164075000Y-77725000D02*
X164075000Y-78075000D01*
X174324980Y-86675020D02*
X174324980Y-87375060D01*
X174324980Y-87375060D02*
X174599960Y-87650040D01*
X174599960Y-83395656D02*
X174599960Y-86400040D01*
%TD*%
%TA.AperFunction,Conductor*%
%TO.N,GND*%
G36*
X156288954Y-61009488D02*
G01*
X161335146Y-61013513D01*
X161403251Y-61033569D01*
X161449701Y-61087262D01*
X161459749Y-61157544D01*
X161430205Y-61222101D01*
X161403168Y-61245511D01*
X161400876Y-61246983D01*
X161346309Y-61282051D01*
X161346306Y-61282053D01*
X161338729Y-61286923D01*
X161332828Y-61293733D01*
X161248918Y-61390569D01*
X161248916Y-61390572D01*
X161243016Y-61397381D01*
X161182300Y-61530330D01*
X161181543Y-61535593D01*
X161144171Y-61593749D01*
X161079590Y-61623243D01*
X161026158Y-61619422D01*
X161024864Y-61619042D01*
X161016670Y-61615300D01*
X161007755Y-61614018D01*
X161007754Y-61614018D01*
X160876448Y-61595139D01*
X160876441Y-61595138D01*
X160872000Y-61594500D01*
X159348000Y-61594500D01*
X159274921Y-61599727D01*
X159221884Y-61615300D01*
X159143330Y-61638365D01*
X159143328Y-61638366D01*
X159134684Y-61640904D01*
X159127105Y-61645775D01*
X159019309Y-61715051D01*
X159019306Y-61715053D01*
X159011729Y-61719923D01*
X159005828Y-61726733D01*
X158921918Y-61823569D01*
X158921916Y-61823572D01*
X158916016Y-61830381D01*
X158912272Y-61838579D01*
X158892593Y-61881671D01*
X158855300Y-61963330D01*
X158854018Y-61972245D01*
X158854018Y-61972246D01*
X158835139Y-62103552D01*
X158835138Y-62103559D01*
X158834500Y-62108000D01*
X158834500Y-63632000D01*
X158839727Y-63705079D01*
X158880904Y-63845316D01*
X158885775Y-63852895D01*
X158955051Y-63960691D01*
X158955053Y-63960694D01*
X158959923Y-63968271D01*
X158966733Y-63974172D01*
X159063569Y-64058082D01*
X159063572Y-64058084D01*
X159070381Y-64063984D01*
X159078579Y-64067728D01*
X159094941Y-64075200D01*
X159203330Y-64124700D01*
X159212245Y-64125982D01*
X159212246Y-64125982D01*
X159238941Y-64129820D01*
X159323917Y-64142037D01*
X159388497Y-64171530D01*
X159426881Y-64231256D01*
X159426881Y-64302253D01*
X159388498Y-64361979D01*
X159382690Y-64366717D01*
X159246645Y-64471108D01*
X159242872Y-64475254D01*
X159242867Y-64475259D01*
X159171056Y-64554179D01*
X159094026Y-64638834D01*
X159091043Y-64643590D01*
X159091041Y-64643592D01*
X158995786Y-64795442D01*
X158973521Y-64830935D01*
X158888939Y-65041340D01*
X158842953Y-65263398D01*
X158837017Y-65490089D01*
X158871318Y-65714249D01*
X158944773Y-65928793D01*
X159055059Y-66126937D01*
X159058612Y-66131277D01*
X159058614Y-66131281D01*
X159077004Y-66153749D01*
X159198690Y-66302421D01*
X159202953Y-66306062D01*
X159202958Y-66306067D01*
X159350467Y-66432051D01*
X159371127Y-66449696D01*
X159450896Y-66496309D01*
X159560466Y-66560336D01*
X159566919Y-66564107D01*
X159572185Y-66566034D01*
X159576554Y-66568090D01*
X159629674Y-66615194D01*
X159648895Y-66683539D01*
X159628114Y-66751427D01*
X159580693Y-66794063D01*
X159431803Y-66870910D01*
X159422372Y-66876895D01*
X159421883Y-66877271D01*
X159413418Y-66888863D01*
X159420050Y-66900839D01*
X160097189Y-67577979D01*
X160111132Y-67585592D01*
X160112966Y-67585461D01*
X160119580Y-67581210D01*
X160797460Y-66903329D01*
X160803682Y-66891935D01*
X160793870Y-66879502D01*
X160728892Y-66835838D01*
X160719098Y-66830454D01*
X160643739Y-66797373D01*
X160589404Y-66751677D01*
X160568399Y-66683859D01*
X160587394Y-66615450D01*
X160640358Y-66568171D01*
X160649828Y-66564142D01*
X160665137Y-66558357D01*
X160683477Y-66547381D01*
X160791336Y-66482828D01*
X160859720Y-66441901D01*
X160863940Y-66438219D01*
X160863945Y-66438216D01*
X161026375Y-66296519D01*
X161030605Y-66292829D01*
X161041882Y-66278753D01*
X161168885Y-66120228D01*
X161168888Y-66120223D01*
X161172391Y-66115851D01*
X161280596Y-65916562D01*
X161351800Y-65701262D01*
X161383752Y-65476755D01*
X161385500Y-65410000D01*
X161365341Y-65184128D01*
X161345174Y-65110410D01*
X161346492Y-65039427D01*
X161385977Y-64980424D01*
X161451094Y-64952134D01*
X161513408Y-64961684D01*
X161513486Y-64961418D01*
X161515465Y-64961999D01*
X161519047Y-64962548D01*
X161522132Y-64963957D01*
X161522138Y-64963959D01*
X161530330Y-64967700D01*
X161539245Y-64968982D01*
X161539246Y-64968982D01*
X161670552Y-64987861D01*
X161670559Y-64987862D01*
X161675000Y-64988500D01*
X162675000Y-64988500D01*
X162748079Y-64983273D01*
X162826213Y-64960331D01*
X162879670Y-64944635D01*
X162879672Y-64944634D01*
X162888316Y-64942096D01*
X162942951Y-64906984D01*
X163003691Y-64867949D01*
X163003694Y-64867947D01*
X163011271Y-64863077D01*
X163034608Y-64836145D01*
X163101082Y-64759431D01*
X163101084Y-64759428D01*
X163106984Y-64752619D01*
X163160845Y-64634681D01*
X163163958Y-64627864D01*
X163163958Y-64627863D01*
X163167700Y-64619670D01*
X163173135Y-64581866D01*
X163187861Y-64479448D01*
X163187862Y-64479441D01*
X163188500Y-64475000D01*
X163188500Y-61675000D01*
X163183273Y-61601921D01*
X163142096Y-61461684D01*
X163096393Y-61390569D01*
X163067949Y-61346309D01*
X163067947Y-61346306D01*
X163063077Y-61338729D01*
X162952619Y-61243016D01*
X162952757Y-61242857D01*
X162909731Y-61193200D01*
X162899629Y-61122926D01*
X162929123Y-61058346D01*
X162988850Y-61019963D01*
X163024446Y-61014860D01*
X174668600Y-61024147D01*
X174736705Y-61044203D01*
X174783155Y-61097896D01*
X174793203Y-61168178D01*
X174763659Y-61232735D01*
X174736620Y-61256145D01*
X174696312Y-61282049D01*
X174696310Y-61282051D01*
X174688729Y-61286923D01*
X174682828Y-61293733D01*
X174598918Y-61390569D01*
X174598916Y-61390572D01*
X174593016Y-61397381D01*
X174589272Y-61405579D01*
X174554547Y-61481617D01*
X174532300Y-61530330D01*
X174531018Y-61539245D01*
X174531018Y-61539246D01*
X174512139Y-61670552D01*
X174512138Y-61670559D01*
X174511500Y-61675000D01*
X174511500Y-63575000D01*
X174516727Y-63648079D01*
X174518631Y-63654562D01*
X174548568Y-63756519D01*
X174557904Y-63788316D01*
X174562775Y-63795895D01*
X174632051Y-63903691D01*
X174632053Y-63903694D01*
X174636923Y-63911271D01*
X174643733Y-63917172D01*
X174740569Y-64001082D01*
X174740572Y-64001084D01*
X174747381Y-64006984D01*
X174755579Y-64010728D01*
X174859270Y-64058082D01*
X174880330Y-64067700D01*
X174889245Y-64068982D01*
X174889246Y-64068982D01*
X175020552Y-64087861D01*
X175020559Y-64087862D01*
X175025000Y-64088500D01*
X175470424Y-64088500D01*
X175538545Y-64108502D01*
X175585038Y-64162158D01*
X175595142Y-64232432D01*
X175562276Y-64300751D01*
X175547138Y-64316872D01*
X175544381Y-64319716D01*
X175524062Y-64340035D01*
X175521638Y-64343160D01*
X175521631Y-64343168D01*
X175521411Y-64343452D01*
X175513703Y-64352477D01*
X175483443Y-64384701D01*
X175479623Y-64391650D01*
X175473684Y-64402452D01*
X175462828Y-64418979D01*
X175450417Y-64434979D01*
X175447269Y-64442253D01*
X175447268Y-64442255D01*
X175432858Y-64475554D01*
X175427643Y-64486200D01*
X175406338Y-64524954D01*
X175401298Y-64544583D01*
X175394899Y-64563273D01*
X175386853Y-64581866D01*
X175385614Y-64589691D01*
X175379937Y-64625530D01*
X175377530Y-64637151D01*
X175368013Y-64674220D01*
X175366535Y-64679977D01*
X175366500Y-64680533D01*
X175366500Y-64700455D01*
X175364949Y-64720164D01*
X175361816Y-64739946D01*
X175362562Y-64747838D01*
X175365941Y-64783584D01*
X175366500Y-64795442D01*
X175366501Y-68755308D01*
X175366501Y-72685405D01*
X175346499Y-72753526D01*
X175329596Y-72774500D01*
X175274501Y-72829595D01*
X175212189Y-72863621D01*
X175185406Y-72866500D01*
X165078383Y-72866500D01*
X165067479Y-72865986D01*
X165060088Y-72864334D01*
X165052162Y-72864583D01*
X165052161Y-72864583D01*
X164993134Y-72866438D01*
X164989176Y-72866500D01*
X164960422Y-72866500D01*
X164956155Y-72867039D01*
X164944313Y-72867972D01*
X164912665Y-72868967D01*
X164908040Y-72869112D01*
X164900117Y-72869361D01*
X164880667Y-72875012D01*
X164861305Y-72879022D01*
X164841212Y-72881560D01*
X164807349Y-72894967D01*
X164800108Y-72897834D01*
X164788878Y-72901679D01*
X164754034Y-72911802D01*
X164754032Y-72911803D01*
X164746421Y-72914014D01*
X164731067Y-72923094D01*
X164728989Y-72924323D01*
X164711236Y-72933020D01*
X164692400Y-72940478D01*
X164685985Y-72945139D01*
X164656626Y-72966469D01*
X164646707Y-72972984D01*
X164613758Y-72992471D01*
X164613755Y-72992473D01*
X164608659Y-72995487D01*
X164608241Y-72995855D01*
X164594158Y-73009938D01*
X164579133Y-73022772D01*
X164562917Y-73034554D01*
X164534971Y-73068335D01*
X164526981Y-73077115D01*
X163390600Y-74213496D01*
X163328288Y-74247522D01*
X163257473Y-74242457D01*
X163200637Y-74199910D01*
X163175826Y-74133390D01*
X163176787Y-74106470D01*
X163187861Y-74029448D01*
X163187862Y-74029441D01*
X163188500Y-74025000D01*
X163188500Y-72825000D01*
X163183273Y-72751921D01*
X163142096Y-72611684D01*
X163079553Y-72514366D01*
X163067949Y-72496309D01*
X163067947Y-72496306D01*
X163063077Y-72488729D01*
X163056267Y-72482828D01*
X162959431Y-72398918D01*
X162959428Y-72398916D01*
X162952619Y-72393016D01*
X162819670Y-72332300D01*
X162810755Y-72331018D01*
X162810754Y-72331018D01*
X162679448Y-72312139D01*
X162679441Y-72312138D01*
X162675000Y-72311500D01*
X161675000Y-72311500D01*
X161601921Y-72316727D01*
X161548884Y-72332300D01*
X161470330Y-72355365D01*
X161470328Y-72355366D01*
X161461684Y-72357904D01*
X161397866Y-72398918D01*
X161377479Y-72412020D01*
X161309359Y-72432022D01*
X161241238Y-72412020D01*
X161207035Y-72379548D01*
X161194983Y-72362775D01*
X161075547Y-72196562D01*
X160912698Y-72038750D01*
X160785178Y-71953060D01*
X160729130Y-71915397D01*
X160729124Y-71915394D01*
X160724477Y-71912271D01*
X160644404Y-71877121D01*
X160590070Y-71831427D01*
X160569065Y-71763608D01*
X160588059Y-71695200D01*
X160641023Y-71647920D01*
X160650513Y-71643883D01*
X160659890Y-71640340D01*
X160659893Y-71640338D01*
X160665137Y-71638357D01*
X160859720Y-71521901D01*
X160863940Y-71518219D01*
X160863945Y-71518216D01*
X161026375Y-71376519D01*
X161030605Y-71372829D01*
X161041882Y-71358753D01*
X161168885Y-71200228D01*
X161168888Y-71200223D01*
X161172391Y-71195851D01*
X161280596Y-70996562D01*
X161351800Y-70781262D01*
X161383752Y-70556755D01*
X161385500Y-70490000D01*
X161365341Y-70264128D01*
X161326279Y-70121340D01*
X161306985Y-70050812D01*
X161306984Y-70050808D01*
X161305503Y-70045396D01*
X161207876Y-69840718D01*
X161075547Y-69656562D01*
X160912698Y-69498750D01*
X160785178Y-69413060D01*
X160729130Y-69375397D01*
X160729124Y-69375394D01*
X160724477Y-69372271D01*
X160719345Y-69370018D01*
X160719341Y-69370016D01*
X160643753Y-69336835D01*
X160589417Y-69291139D01*
X160568413Y-69223320D01*
X160587408Y-69154912D01*
X160640372Y-69107633D01*
X160649863Y-69103595D01*
X160659677Y-69099887D01*
X160669734Y-69095025D01*
X160795623Y-69019683D01*
X160805193Y-69009324D01*
X160801650Y-69000861D01*
X160122811Y-68322021D01*
X160108868Y-68314408D01*
X160107034Y-68314539D01*
X160100420Y-68318790D01*
X159421152Y-68998059D01*
X159414395Y-69010434D01*
X159419676Y-69017489D01*
X159562284Y-69100822D01*
X159576544Y-69107532D01*
X159629665Y-69154635D01*
X159648887Y-69222980D01*
X159628108Y-69290868D01*
X159580685Y-69333506D01*
X159509949Y-69370016D01*
X159426553Y-69413060D01*
X159246645Y-69551108D01*
X159242872Y-69555254D01*
X159242867Y-69555259D01*
X159110148Y-69701116D01*
X159094026Y-69718834D01*
X158973521Y-69910935D01*
X158888939Y-70121340D01*
X158842953Y-70343398D01*
X158837017Y-70570089D01*
X158871318Y-70794249D01*
X158944773Y-71008793D01*
X159055059Y-71206937D01*
X159058612Y-71211277D01*
X159058614Y-71211281D01*
X159077004Y-71233749D01*
X159198690Y-71382421D01*
X159202953Y-71386062D01*
X159202958Y-71386067D01*
X159352028Y-71513384D01*
X159371127Y-71529696D01*
X159480998Y-71593899D01*
X159560473Y-71640340D01*
X159566919Y-71644107D01*
X159572196Y-71646038D01*
X159575983Y-71647820D01*
X159629104Y-71694923D01*
X159648327Y-71763268D01*
X159627548Y-71831156D01*
X159580125Y-71873795D01*
X159509943Y-71910019D01*
X159426553Y-71953060D01*
X159246645Y-72091108D01*
X159242872Y-72095254D01*
X159242867Y-72095259D01*
X159110148Y-72241116D01*
X159094026Y-72258834D01*
X159091044Y-72263588D01*
X159091041Y-72263592D01*
X158982311Y-72436923D01*
X158973521Y-72450935D01*
X158888939Y-72661340D01*
X158873147Y-72737595D01*
X158844117Y-72877779D01*
X158842953Y-72883398D01*
X158837017Y-73110089D01*
X158871318Y-73334249D01*
X158944773Y-73548793D01*
X159055059Y-73746937D01*
X159198690Y-73922421D01*
X159202953Y-73926062D01*
X159202958Y-73926067D01*
X159324693Y-74030038D01*
X159371127Y-74069696D01*
X159471632Y-74128426D01*
X159560473Y-74180340D01*
X159566919Y-74184107D01*
X159572196Y-74186038D01*
X159575983Y-74187820D01*
X159629104Y-74234923D01*
X159648327Y-74303268D01*
X159627548Y-74371156D01*
X159580125Y-74413795D01*
X159489195Y-74460728D01*
X159426553Y-74493060D01*
X159246645Y-74631108D01*
X159242872Y-74635254D01*
X159242867Y-74635259D01*
X159106891Y-74784695D01*
X159094026Y-74798834D01*
X158973521Y-74990935D01*
X158888939Y-75201340D01*
X158842953Y-75423398D01*
X158837017Y-75650089D01*
X158871318Y-75874249D01*
X158944773Y-76088793D01*
X159055059Y-76286937D01*
X159058612Y-76291277D01*
X159058614Y-76291281D01*
X159124187Y-76371396D01*
X159198690Y-76462421D01*
X159202953Y-76466062D01*
X159202958Y-76466067D01*
X159352028Y-76593384D01*
X159371127Y-76609696D01*
X159453626Y-76657904D01*
X159560473Y-76720340D01*
X159566919Y-76724107D01*
X159572196Y-76726038D01*
X159575983Y-76727820D01*
X159629104Y-76774923D01*
X159648327Y-76843268D01*
X159627548Y-76911156D01*
X159580125Y-76953795D01*
X159509943Y-76990019D01*
X159426553Y-77033060D01*
X159246645Y-77171108D01*
X159242872Y-77175254D01*
X159242867Y-77175259D01*
X159154244Y-77272655D01*
X159094026Y-77338834D01*
X159091043Y-77343590D01*
X159091041Y-77343592D01*
X159046302Y-77414913D01*
X158973521Y-77530935D01*
X158888939Y-77741340D01*
X158887800Y-77746841D01*
X158856680Y-77897115D01*
X158842953Y-77963398D01*
X158837017Y-78190089D01*
X158871318Y-78414249D01*
X158944773Y-78628793D01*
X159055059Y-78826937D01*
X159058612Y-78831277D01*
X159058614Y-78831281D01*
X159072526Y-78848278D01*
X159198690Y-79002421D01*
X159202953Y-79006062D01*
X159202958Y-79006067D01*
X159349472Y-79131201D01*
X159371127Y-79149696D01*
X159499359Y-79224628D01*
X159560466Y-79260336D01*
X159566919Y-79264107D01*
X159572185Y-79266034D01*
X159576554Y-79268090D01*
X159629674Y-79315194D01*
X159648895Y-79383539D01*
X159628114Y-79451427D01*
X159580693Y-79494063D01*
X159431803Y-79570910D01*
X159422372Y-79576895D01*
X159421883Y-79577271D01*
X159413418Y-79588863D01*
X159420050Y-79600839D01*
X160097189Y-80277979D01*
X160111132Y-80285592D01*
X160112966Y-80285461D01*
X160119580Y-80281210D01*
X160797460Y-79603329D01*
X160803682Y-79591935D01*
X160793870Y-79579502D01*
X160728892Y-79535838D01*
X160719098Y-79530454D01*
X160643739Y-79497373D01*
X160589404Y-79451677D01*
X160568399Y-79383859D01*
X160587394Y-79315450D01*
X160640358Y-79268171D01*
X160649828Y-79264142D01*
X160665137Y-79258357D01*
X160677350Y-79251048D01*
X160721950Y-79224355D01*
X160859720Y-79141901D01*
X160863940Y-79138219D01*
X160863945Y-79138216D01*
X161026375Y-78996519D01*
X161030605Y-78992829D01*
X161142166Y-78853578D01*
X161200368Y-78812921D01*
X161271312Y-78810184D01*
X161332473Y-78846237D01*
X161364434Y-78909633D01*
X161366500Y-78932359D01*
X161366500Y-79850617D01*
X161346498Y-79918738D01*
X161292842Y-79965231D01*
X161222568Y-79975335D01*
X161173644Y-79954508D01*
X161171842Y-79954344D01*
X161156894Y-79962317D01*
X160482021Y-80637189D01*
X160474408Y-80651132D01*
X160474539Y-80652966D01*
X160478790Y-80659580D01*
X161160156Y-81340945D01*
X161174094Y-81348556D01*
X161178725Y-81348224D01*
X161231512Y-81328536D01*
X161300886Y-81343628D01*
X161351088Y-81393830D01*
X161366500Y-81454215D01*
X161366500Y-82370195D01*
X161346498Y-82438316D01*
X161292842Y-82484809D01*
X161222568Y-82494913D01*
X161157988Y-82465419D01*
X161138177Y-82443721D01*
X161078823Y-82361121D01*
X161075547Y-82356562D01*
X160971011Y-82255259D01*
X160916726Y-82202653D01*
X160916723Y-82202651D01*
X160912698Y-82198750D01*
X160785178Y-82113060D01*
X160729130Y-82075397D01*
X160729124Y-82075394D01*
X160724477Y-82072271D01*
X160719345Y-82070018D01*
X160719341Y-82070016D01*
X160643753Y-82036835D01*
X160589417Y-81991139D01*
X160568413Y-81923320D01*
X160587408Y-81854912D01*
X160640372Y-81807633D01*
X160649863Y-81803595D01*
X160659677Y-81799887D01*
X160669734Y-81795025D01*
X160795623Y-81719683D01*
X160805193Y-81709324D01*
X160801650Y-81700861D01*
X160122811Y-81022021D01*
X160108868Y-81014408D01*
X160107034Y-81014539D01*
X160100420Y-81018790D01*
X159421152Y-81698059D01*
X159414395Y-81710434D01*
X159419676Y-81717489D01*
X159562284Y-81800822D01*
X159576544Y-81807532D01*
X159629665Y-81854635D01*
X159648887Y-81922980D01*
X159628108Y-81990868D01*
X159580685Y-82033506D01*
X159509949Y-82070016D01*
X159426553Y-82113060D01*
X159246645Y-82251108D01*
X159242872Y-82255254D01*
X159242867Y-82255259D01*
X159182299Y-82321823D01*
X159094026Y-82418834D01*
X159091043Y-82423590D01*
X159091041Y-82423592D01*
X159046302Y-82494913D01*
X158973521Y-82610935D01*
X158888939Y-82821340D01*
X158887800Y-82826841D01*
X158848375Y-83017218D01*
X158842953Y-83043398D01*
X158842806Y-83049007D01*
X158842806Y-83049008D01*
X158842644Y-83055184D01*
X158837017Y-83270089D01*
X158871318Y-83494249D01*
X158944773Y-83708793D01*
X159055059Y-83906937D01*
X159058612Y-83911277D01*
X159058614Y-83911281D01*
X159076864Y-83933578D01*
X159198690Y-84082421D01*
X159202953Y-84086062D01*
X159202958Y-84086067D01*
X159240592Y-84118209D01*
X159371127Y-84229696D01*
X159465808Y-84285023D01*
X159560473Y-84340340D01*
X159566919Y-84344107D01*
X159572196Y-84346038D01*
X159575983Y-84347820D01*
X159629104Y-84394923D01*
X159648327Y-84463268D01*
X159627548Y-84531156D01*
X159580125Y-84573795D01*
X159512256Y-84608825D01*
X159426553Y-84653060D01*
X159246645Y-84791108D01*
X159242872Y-84795254D01*
X159242867Y-84795259D01*
X159154244Y-84892655D01*
X159094026Y-84958834D01*
X159091043Y-84963590D01*
X159091041Y-84963592D01*
X158994882Y-85116883D01*
X158973521Y-85150935D01*
X158888939Y-85361340D01*
X158887800Y-85366841D01*
X158850474Y-85547082D01*
X158842953Y-85583398D01*
X158837017Y-85810089D01*
X158871318Y-86034249D01*
X158944773Y-86248793D01*
X159055059Y-86446937D01*
X159058612Y-86451277D01*
X159058614Y-86451281D01*
X159076864Y-86473578D01*
X159198690Y-86622421D01*
X159202953Y-86626062D01*
X159202958Y-86626067D01*
X159303500Y-86711937D01*
X159371127Y-86769696D01*
X159451457Y-86816637D01*
X159560473Y-86880340D01*
X159566919Y-86884107D01*
X159572196Y-86886038D01*
X159575983Y-86887820D01*
X159629104Y-86934923D01*
X159648327Y-87003268D01*
X159627548Y-87071156D01*
X159580125Y-87113795D01*
X159432623Y-87189927D01*
X159426553Y-87193060D01*
X159246645Y-87331108D01*
X159242872Y-87335254D01*
X159242867Y-87335259D01*
X159126789Y-87462828D01*
X159094026Y-87498834D01*
X159091043Y-87503590D01*
X159091041Y-87503592D01*
X158981094Y-87678863D01*
X158973521Y-87690935D01*
X158888939Y-87901340D01*
X158881378Y-87937851D01*
X158846006Y-88108658D01*
X158842953Y-88123398D01*
X158842806Y-88129007D01*
X158842806Y-88129008D01*
X158842209Y-88151823D01*
X158837017Y-88350089D01*
X158871318Y-88574249D01*
X158944773Y-88788793D01*
X159055059Y-88986937D01*
X159058612Y-88991277D01*
X159058614Y-88991281D01*
X159076864Y-89013578D01*
X159198690Y-89162421D01*
X159202953Y-89166062D01*
X159202958Y-89166067D01*
X159303500Y-89251937D01*
X159371127Y-89309696D01*
X159465808Y-89365023D01*
X159560473Y-89420340D01*
X159566919Y-89424107D01*
X159572196Y-89426038D01*
X159575983Y-89427820D01*
X159629104Y-89474923D01*
X159648327Y-89543268D01*
X159627548Y-89611156D01*
X159580125Y-89653795D01*
X159512256Y-89688825D01*
X159426553Y-89733060D01*
X159246645Y-89871108D01*
X159242872Y-89875254D01*
X159242867Y-89875259D01*
X159138284Y-89990195D01*
X159094026Y-90038834D01*
X159091043Y-90043590D01*
X159091041Y-90043592D01*
X158998031Y-90191863D01*
X158973521Y-90230935D01*
X158888939Y-90441340D01*
X158884794Y-90461357D01*
X158868789Y-90538643D01*
X158842953Y-90663398D01*
X158837017Y-90890089D01*
X158871318Y-91114249D01*
X158944773Y-91328793D01*
X159055059Y-91526937D01*
X159058612Y-91531277D01*
X159058614Y-91531281D01*
X159076864Y-91553578D01*
X159198690Y-91702421D01*
X159202953Y-91706062D01*
X159202958Y-91706067D01*
X159352028Y-91833384D01*
X159371127Y-91849696D01*
X159445037Y-91892885D01*
X159560466Y-91960336D01*
X159566919Y-91964107D01*
X159572185Y-91966034D01*
X159576554Y-91968090D01*
X159629674Y-92015194D01*
X159648895Y-92083539D01*
X159628114Y-92151427D01*
X159580693Y-92194063D01*
X159431803Y-92270910D01*
X159422372Y-92276895D01*
X159421883Y-92277271D01*
X159413418Y-92288863D01*
X159420050Y-92300839D01*
X160097189Y-92977979D01*
X160111132Y-92985592D01*
X160112966Y-92985461D01*
X160119580Y-92981210D01*
X160797460Y-92303329D01*
X160803682Y-92291935D01*
X160793870Y-92279502D01*
X160728892Y-92235838D01*
X160719098Y-92230454D01*
X160643739Y-92197373D01*
X160589404Y-92151677D01*
X160568399Y-92083859D01*
X160587394Y-92015450D01*
X160640358Y-91968171D01*
X160649828Y-91964142D01*
X160665137Y-91958357D01*
X160859720Y-91841901D01*
X160863940Y-91838219D01*
X160863945Y-91838216D01*
X161026375Y-91696519D01*
X161030605Y-91692829D01*
X161142166Y-91553578D01*
X161200368Y-91512921D01*
X161271312Y-91510184D01*
X161332473Y-91546237D01*
X161364434Y-91609633D01*
X161366500Y-91632359D01*
X161366500Y-92550617D01*
X161346498Y-92618738D01*
X161292842Y-92665231D01*
X161222568Y-92675335D01*
X161173644Y-92654508D01*
X161171842Y-92654344D01*
X161156894Y-92662317D01*
X160482021Y-93337189D01*
X160474408Y-93351132D01*
X160474539Y-93352966D01*
X160478790Y-93359580D01*
X161160156Y-94040945D01*
X161174094Y-94048556D01*
X161178723Y-94048225D01*
X161231512Y-94028535D01*
X161300886Y-94043626D01*
X161351088Y-94093828D01*
X161366501Y-94154214D01*
X161366501Y-95070197D01*
X161346499Y-95138318D01*
X161292843Y-95184811D01*
X161222569Y-95194915D01*
X161157989Y-95165421D01*
X161138178Y-95143723D01*
X161129216Y-95131250D01*
X161081104Y-95064295D01*
X161078823Y-95061120D01*
X161078818Y-95061115D01*
X161075547Y-95056562D01*
X160912698Y-94898750D01*
X160785178Y-94813060D01*
X160729130Y-94775397D01*
X160729124Y-94775394D01*
X160724477Y-94772271D01*
X160719345Y-94770018D01*
X160719341Y-94770016D01*
X160643753Y-94736835D01*
X160589417Y-94691139D01*
X160568413Y-94623320D01*
X160587408Y-94554912D01*
X160640372Y-94507633D01*
X160649863Y-94503595D01*
X160659677Y-94499887D01*
X160669734Y-94495025D01*
X160795623Y-94419683D01*
X160805193Y-94409324D01*
X160801650Y-94400861D01*
X160122811Y-93722021D01*
X160108868Y-93714408D01*
X160107034Y-93714539D01*
X160100420Y-93718790D01*
X159421152Y-94398059D01*
X159414395Y-94410434D01*
X159419676Y-94417489D01*
X159562284Y-94500822D01*
X159576544Y-94507532D01*
X159629665Y-94554635D01*
X159648887Y-94622980D01*
X159628108Y-94690868D01*
X159580685Y-94733506D01*
X159509949Y-94770016D01*
X159426553Y-94813060D01*
X159246645Y-94951108D01*
X159242872Y-94955254D01*
X159242867Y-94955259D01*
X159138282Y-95070197D01*
X159094026Y-95118834D01*
X159091044Y-95123588D01*
X159091041Y-95123592D01*
X159011746Y-95250000D01*
X158973521Y-95310935D01*
X158888939Y-95521340D01*
X158887800Y-95526841D01*
X158856318Y-95678863D01*
X158842953Y-95743398D01*
X158842806Y-95749007D01*
X158842806Y-95749008D01*
X158841207Y-95810073D01*
X158837017Y-95970089D01*
X158871318Y-96194249D01*
X158944773Y-96408793D01*
X159055059Y-96606937D01*
X159058612Y-96611277D01*
X159058614Y-96611281D01*
X159136302Y-96706197D01*
X159198690Y-96782421D01*
X159202953Y-96786062D01*
X159202958Y-96786067D01*
X159309876Y-96877383D01*
X159371127Y-96929696D01*
X159480998Y-96993899D01*
X159560473Y-97040340D01*
X159566919Y-97044107D01*
X159572196Y-97046038D01*
X159575983Y-97047820D01*
X159629104Y-97094923D01*
X159648327Y-97163268D01*
X159627548Y-97231156D01*
X159580125Y-97273795D01*
X159492192Y-97319181D01*
X159426553Y-97353060D01*
X159246645Y-97491108D01*
X159242872Y-97495254D01*
X159242867Y-97495259D01*
X159138282Y-97610197D01*
X159094026Y-97658834D01*
X159091044Y-97663588D01*
X159091041Y-97663592D01*
X158996318Y-97814594D01*
X158973521Y-97850935D01*
X158888939Y-98061340D01*
X158842953Y-98283398D01*
X158837017Y-98510089D01*
X158871318Y-98734249D01*
X158944773Y-98948793D01*
X159055059Y-99146937D01*
X159058612Y-99151277D01*
X159058614Y-99151281D01*
X159141344Y-99252358D01*
X159198690Y-99322421D01*
X159202953Y-99326062D01*
X159202958Y-99326067D01*
X159352028Y-99453384D01*
X159371127Y-99469696D01*
X159480998Y-99533899D01*
X159560473Y-99580340D01*
X159566919Y-99584107D01*
X159572196Y-99586038D01*
X159575983Y-99587820D01*
X159629104Y-99634923D01*
X159648327Y-99703268D01*
X159627548Y-99771156D01*
X159580125Y-99813795D01*
X159509943Y-99850019D01*
X159426553Y-99893060D01*
X159246645Y-100031108D01*
X159242872Y-100035254D01*
X159242867Y-100035259D01*
X159138282Y-100150197D01*
X159094026Y-100198834D01*
X159091044Y-100203588D01*
X159091041Y-100203592D01*
X159052639Y-100264811D01*
X158973521Y-100390935D01*
X158888939Y-100601340D01*
X158887800Y-100606841D01*
X158849956Y-100789584D01*
X158842953Y-100823398D01*
X158837017Y-101050089D01*
X158871318Y-101274249D01*
X158944773Y-101488793D01*
X159055059Y-101686937D01*
X159058612Y-101691277D01*
X159058614Y-101691281D01*
X159141344Y-101792358D01*
X159198690Y-101862421D01*
X159202953Y-101866062D01*
X159202958Y-101866067D01*
X159284143Y-101935405D01*
X159371127Y-102009696D01*
X159446592Y-102053794D01*
X159560473Y-102120340D01*
X159566919Y-102124107D01*
X159572196Y-102126038D01*
X159575983Y-102127820D01*
X159629104Y-102174923D01*
X159648327Y-102243268D01*
X159627548Y-102311156D01*
X159580125Y-102353795D01*
X159447065Y-102422473D01*
X159426553Y-102433060D01*
X159246645Y-102571108D01*
X159242872Y-102575254D01*
X159242867Y-102575259D01*
X159106891Y-102724695D01*
X159094026Y-102738834D01*
X159091043Y-102743590D01*
X159091041Y-102743592D01*
X158992854Y-102900116D01*
X158973521Y-102930935D01*
X158888939Y-103141340D01*
X158881244Y-103178498D01*
X158844092Y-103357899D01*
X158842953Y-103363398D01*
X158837017Y-103590089D01*
X158871318Y-103814249D01*
X158944773Y-104028793D01*
X159055059Y-104226937D01*
X159058612Y-104231277D01*
X159058614Y-104231281D01*
X159141344Y-104332358D01*
X159198690Y-104402421D01*
X159202953Y-104406062D01*
X159202958Y-104406067D01*
X159310073Y-104497551D01*
X159371127Y-104549696D01*
X159435084Y-104587069D01*
X159560466Y-104660336D01*
X159566919Y-104664107D01*
X159572185Y-104666034D01*
X159576554Y-104668090D01*
X159629674Y-104715194D01*
X159648895Y-104783539D01*
X159628114Y-104851427D01*
X159580693Y-104894063D01*
X159431803Y-104970910D01*
X159422372Y-104976895D01*
X159421883Y-104977271D01*
X159413418Y-104988863D01*
X159420050Y-105000839D01*
X160097189Y-105677979D01*
X160111132Y-105685592D01*
X160112966Y-105685461D01*
X160119580Y-105681210D01*
X160797460Y-105003329D01*
X160803682Y-104991935D01*
X160793870Y-104979502D01*
X160728892Y-104935838D01*
X160719098Y-104930454D01*
X160643739Y-104897373D01*
X160589404Y-104851677D01*
X160568399Y-104783859D01*
X160587394Y-104715450D01*
X160640358Y-104668171D01*
X160649828Y-104664142D01*
X160665137Y-104658357D01*
X160859720Y-104541901D01*
X160863940Y-104538219D01*
X160863945Y-104538216D01*
X161026375Y-104396519D01*
X161030605Y-104392829D01*
X161142167Y-104253577D01*
X161200369Y-104212920D01*
X161271313Y-104210183D01*
X161332474Y-104246236D01*
X161364435Y-104309632D01*
X161366501Y-104332358D01*
X161366501Y-105250618D01*
X161346499Y-105318739D01*
X161292843Y-105365232D01*
X161222569Y-105375336D01*
X161173645Y-105354508D01*
X161171842Y-105354344D01*
X161156894Y-105362317D01*
X160482021Y-106037189D01*
X160474408Y-106051132D01*
X160474539Y-106052966D01*
X160478790Y-106059580D01*
X161160156Y-106740945D01*
X161172531Y-106747702D01*
X161178796Y-106743013D01*
X161277462Y-106561290D01*
X161281896Y-106551044D01*
X161309682Y-106467028D01*
X161350062Y-106408633D01*
X161415603Y-106381339D01*
X161485495Y-106393811D01*
X161523402Y-106425890D01*
X161524467Y-106424890D01*
X161529897Y-106430673D01*
X161534555Y-106437083D01*
X161540662Y-106442135D01*
X161568330Y-106465024D01*
X161577110Y-106473014D01*
X163996618Y-108892523D01*
X164003969Y-108900601D01*
X164008027Y-108906995D01*
X164013806Y-108912422D01*
X164013807Y-108912423D01*
X164056862Y-108952854D01*
X164059704Y-108955609D01*
X164080033Y-108975938D01*
X164083453Y-108978590D01*
X164092476Y-108986297D01*
X164124699Y-109016557D01*
X164131643Y-109020374D01*
X164131648Y-109020378D01*
X164142450Y-109026316D01*
X164158977Y-109037172D01*
X164174977Y-109049583D01*
X164182251Y-109052731D01*
X164182253Y-109052732D01*
X164215552Y-109067142D01*
X164226198Y-109072357D01*
X164264952Y-109093662D01*
X164284581Y-109098702D01*
X164303271Y-109105101D01*
X164321864Y-109113147D01*
X164351071Y-109117773D01*
X164365528Y-109120063D01*
X164377149Y-109122470D01*
X164414218Y-109131987D01*
X164419975Y-109133465D01*
X164420531Y-109133500D01*
X164440453Y-109133500D01*
X164460162Y-109135051D01*
X164479944Y-109138184D01*
X164487836Y-109137438D01*
X164509216Y-109135417D01*
X164523583Y-109134059D01*
X164535440Y-109133500D01*
X166685405Y-109133500D01*
X166753526Y-109153502D01*
X166774501Y-109170405D01*
X166904596Y-109300501D01*
X166938621Y-109362813D01*
X166941500Y-109389596D01*
X166941501Y-113110405D01*
X166921499Y-113178526D01*
X166904596Y-113199500D01*
X166874501Y-113229595D01*
X166812189Y-113263621D01*
X166785406Y-113266500D01*
X163178383Y-113266500D01*
X163167479Y-113265986D01*
X163160088Y-113264334D01*
X163152162Y-113264583D01*
X163152161Y-113264583D01*
X163093134Y-113266438D01*
X163089176Y-113266500D01*
X163060422Y-113266500D01*
X163056155Y-113267039D01*
X163044313Y-113267972D01*
X163012665Y-113268967D01*
X163008040Y-113269112D01*
X163000117Y-113269361D01*
X162980667Y-113275012D01*
X162961305Y-113279022D01*
X162941212Y-113281560D01*
X162907349Y-113294967D01*
X162900108Y-113297834D01*
X162888878Y-113301679D01*
X162854034Y-113311802D01*
X162854032Y-113311803D01*
X162846421Y-113314014D01*
X162828989Y-113324323D01*
X162811234Y-113333021D01*
X162799774Y-113337558D01*
X162799771Y-113337560D01*
X162792400Y-113340478D01*
X162756613Y-113366479D01*
X162746725Y-113372975D01*
X162708660Y-113395487D01*
X162708242Y-113395855D01*
X162694162Y-113409935D01*
X162679129Y-113422775D01*
X162662917Y-113434554D01*
X162637866Y-113464836D01*
X162634971Y-113468335D01*
X162626981Y-113477116D01*
X162357479Y-113746617D01*
X162349401Y-113753968D01*
X162343005Y-113758027D01*
X162297121Y-113806889D01*
X162294397Y-113809699D01*
X162274062Y-113830034D01*
X162271638Y-113833159D01*
X162271631Y-113833167D01*
X162271411Y-113833451D01*
X162263703Y-113842476D01*
X162233443Y-113874700D01*
X162223687Y-113892446D01*
X162212836Y-113908965D01*
X162205278Y-113918709D01*
X162205275Y-113918714D01*
X162200417Y-113924977D01*
X162197268Y-113932255D01*
X162182861Y-113965547D01*
X162177638Y-113976208D01*
X162156338Y-114014953D01*
X162154366Y-114022635D01*
X162154365Y-114022636D01*
X162151298Y-114034578D01*
X162144898Y-114053273D01*
X162136853Y-114071865D01*
X162135613Y-114079694D01*
X162129937Y-114115529D01*
X162127530Y-114127150D01*
X162118013Y-114164219D01*
X162116535Y-114169976D01*
X162116500Y-114170532D01*
X162116500Y-114190454D01*
X162114949Y-114210163D01*
X162111816Y-114229945D01*
X162112562Y-114237837D01*
X162115941Y-114273583D01*
X162116500Y-114285441D01*
X162116501Y-116771605D01*
X162115987Y-116782519D01*
X162114334Y-116789912D01*
X162114583Y-116797837D01*
X162114583Y-116797838D01*
X162116439Y-116856884D01*
X162116501Y-116860842D01*
X162116501Y-116889578D01*
X162116996Y-116893495D01*
X162117040Y-116893844D01*
X162117972Y-116905678D01*
X162119362Y-116949883D01*
X162121575Y-116957499D01*
X162121575Y-116957501D01*
X162125014Y-116969339D01*
X162129023Y-116988698D01*
X162131561Y-117008788D01*
X162134481Y-117016163D01*
X162147833Y-117049889D01*
X162151678Y-117061118D01*
X162159830Y-117089175D01*
X162164014Y-117103578D01*
X162168049Y-117110401D01*
X162174327Y-117121017D01*
X162183023Y-117138769D01*
X162190479Y-117157600D01*
X162204334Y-117176669D01*
X162216468Y-117193371D01*
X162222983Y-117203289D01*
X162245487Y-117241341D01*
X162245855Y-117241759D01*
X162259938Y-117255842D01*
X162272779Y-117270875D01*
X162284555Y-117287083D01*
X162290662Y-117292135D01*
X162318330Y-117315024D01*
X162327110Y-117323014D01*
X162596609Y-117592513D01*
X162603969Y-117600601D01*
X162608027Y-117606995D01*
X162613804Y-117612420D01*
X162656878Y-117652869D01*
X162659720Y-117655624D01*
X162680034Y-117675938D01*
X162683445Y-117678583D01*
X162692465Y-117686287D01*
X162724699Y-117716557D01*
X162731643Y-117720374D01*
X162731645Y-117720376D01*
X162742453Y-117726318D01*
X162758977Y-117737172D01*
X162774977Y-117749583D01*
X162782248Y-117752730D01*
X162782249Y-117752730D01*
X162815551Y-117767141D01*
X162826207Y-117772362D01*
X162864952Y-117793662D01*
X162872635Y-117795634D01*
X162872636Y-117795635D01*
X162884568Y-117798699D01*
X162903272Y-117805103D01*
X162914585Y-117809999D01*
X162914592Y-117810001D01*
X162921864Y-117813148D01*
X162929688Y-117814387D01*
X162929691Y-117814388D01*
X162965535Y-117820065D01*
X162977156Y-117822472D01*
X163014218Y-117831987D01*
X163019975Y-117833465D01*
X163020531Y-117833500D01*
X163040452Y-117833500D01*
X163060162Y-117835051D01*
X163072114Y-117836944D01*
X163072115Y-117836944D01*
X163079944Y-117838184D01*
X163087836Y-117837438D01*
X163123582Y-117834059D01*
X163135440Y-117833500D01*
X163898360Y-117833500D01*
X163966481Y-117853502D01*
X164012974Y-117907158D01*
X164023078Y-117977432D01*
X164016762Y-118002593D01*
X164011268Y-118017689D01*
X163953751Y-118232344D01*
X163951848Y-118243139D01*
X163932479Y-118464525D01*
X163932479Y-118475475D01*
X163951848Y-118696861D01*
X163953751Y-118707656D01*
X164011268Y-118922313D01*
X164015014Y-118932605D01*
X164108932Y-119134013D01*
X164114415Y-119143508D01*
X164154625Y-119200934D01*
X164165102Y-119209309D01*
X164178549Y-119202241D01*
X165180905Y-118199885D01*
X165243217Y-118165859D01*
X165314032Y-118170924D01*
X165359095Y-118199885D01*
X166362172Y-119202962D01*
X166376117Y-119210577D01*
X166376924Y-119210519D01*
X166446298Y-119225611D01*
X166489126Y-119263927D01*
X166535650Y-119330371D01*
X166676265Y-119470986D01*
X166710291Y-119533298D01*
X166705226Y-119604113D01*
X166662679Y-119660949D01*
X166596159Y-119685760D01*
X166576188Y-119685602D01*
X166420475Y-119671979D01*
X166415000Y-119671500D01*
X166182572Y-119691835D01*
X166177253Y-119693260D01*
X166177254Y-119693260D01*
X166170079Y-119695182D01*
X166099103Y-119693490D01*
X166040308Y-119653694D01*
X166012363Y-119588429D01*
X166012301Y-119580589D01*
X166002241Y-119561451D01*
X165282812Y-118842022D01*
X165268868Y-118834408D01*
X165267035Y-118834539D01*
X165260420Y-118838790D01*
X164537038Y-119562172D01*
X164523885Y-119586258D01*
X164513507Y-119633965D01*
X164463305Y-119684167D01*
X164393931Y-119699258D01*
X164370313Y-119695287D01*
X164362746Y-119693260D01*
X164362747Y-119693260D01*
X164357428Y-119691835D01*
X164125000Y-119671500D01*
X163892572Y-119691835D01*
X163887258Y-119693259D01*
X163887257Y-119693259D01*
X163672516Y-119750798D01*
X163672514Y-119750799D01*
X163667206Y-119752221D01*
X163662226Y-119754543D01*
X163662224Y-119754544D01*
X163460737Y-119848499D01*
X163460732Y-119848502D01*
X163455750Y-119850825D01*
X163419958Y-119875887D01*
X163319470Y-119946250D01*
X163264629Y-119984650D01*
X163099650Y-120149629D01*
X163096493Y-120154137D01*
X163096491Y-120154140D01*
X163069485Y-120192709D01*
X162965825Y-120340750D01*
X162963502Y-120345732D01*
X162963499Y-120345737D01*
X162889495Y-120504440D01*
X162867221Y-120552206D01*
X162865799Y-120557514D01*
X162865798Y-120557516D01*
X162818984Y-120732229D01*
X162806835Y-120777572D01*
X162786500Y-121010000D01*
X162792692Y-121080768D01*
X162802269Y-121190235D01*
X162788280Y-121259840D01*
X162738881Y-121310832D01*
X162669755Y-121327023D01*
X162650551Y-121324464D01*
X162501944Y-121292876D01*
X162501939Y-121292876D01*
X162495487Y-121291504D01*
X162304513Y-121291504D01*
X162298061Y-121292876D01*
X162298056Y-121292876D01*
X162213583Y-121310832D01*
X162117713Y-121331210D01*
X162111683Y-121333895D01*
X162111682Y-121333895D01*
X161949280Y-121406201D01*
X161949278Y-121406202D01*
X161943250Y-121408886D01*
X161937909Y-121412766D01*
X161937908Y-121412767D01*
X161794093Y-121517254D01*
X161794091Y-121517256D01*
X161788749Y-121521137D01*
X161660963Y-121663058D01*
X161565476Y-121828446D01*
X161506462Y-122010073D01*
X161486500Y-122200000D01*
X161487190Y-122206565D01*
X161502058Y-122348021D01*
X161506462Y-122389927D01*
X161565476Y-122571554D01*
X161660963Y-122736942D01*
X161788749Y-122878863D01*
X161794091Y-122882744D01*
X161794093Y-122882746D01*
X161937908Y-122987233D01*
X161943250Y-122991114D01*
X161949278Y-122993798D01*
X161949280Y-122993799D01*
X162096481Y-123059337D01*
X162117713Y-123068790D01*
X162184796Y-123083049D01*
X162298056Y-123107124D01*
X162298061Y-123107124D01*
X162304513Y-123108496D01*
X162377685Y-123108496D01*
X162438388Y-123124083D01*
X162442456Y-123126319D01*
X162458970Y-123137167D01*
X162474976Y-123149582D01*
X162515555Y-123167143D01*
X162526187Y-123172351D01*
X162564952Y-123193662D01*
X162572630Y-123195633D01*
X162580002Y-123198552D01*
X162578823Y-123201529D01*
X162627109Y-123230270D01*
X162658800Y-123293801D01*
X162651112Y-123364381D01*
X162606487Y-123419599D01*
X162534771Y-123442000D01*
X154034237Y-123442000D01*
X153966116Y-123421998D01*
X153919623Y-123368342D01*
X153908237Y-123315953D01*
X153908246Y-123293801D01*
X153908608Y-122326741D01*
X153909393Y-120233989D01*
X153929421Y-120165876D01*
X153983094Y-120119403D01*
X154053371Y-120109325D01*
X154117941Y-120138843D01*
X154135020Y-120156897D01*
X154290495Y-120357697D01*
X154290502Y-120357705D01*
X154292752Y-120360611D01*
X154528132Y-120600554D01*
X154789898Y-120811396D01*
X155074476Y-120990258D01*
X155377979Y-121134696D01*
X155696261Y-121242738D01*
X156024974Y-121312908D01*
X156138155Y-121323507D01*
X156355963Y-121343905D01*
X156355968Y-121343905D01*
X156359629Y-121344248D01*
X156565588Y-121339394D01*
X156691970Y-121336416D01*
X156691973Y-121336416D01*
X156695655Y-121336329D01*
X157028463Y-121289260D01*
X157353505Y-121203683D01*
X157666344Y-121080768D01*
X157669588Y-121079032D01*
X157669595Y-121079029D01*
X157959450Y-120923935D01*
X157962706Y-120922193D01*
X158121826Y-120811396D01*
X158235520Y-120732229D01*
X158238543Y-120730124D01*
X158241293Y-120727687D01*
X158241299Y-120727682D01*
X158487335Y-120509624D01*
X158490087Y-120507185D01*
X158713902Y-120256421D01*
X158729639Y-120233989D01*
X158887460Y-120009014D01*
X158906933Y-119981256D01*
X158925578Y-119946702D01*
X159043187Y-119728732D01*
X159066541Y-119685450D01*
X159071889Y-119671979D01*
X159189187Y-119376471D01*
X159189188Y-119376469D01*
X159190548Y-119373042D01*
X159277258Y-119048300D01*
X159325489Y-118715659D01*
X159336000Y-118470000D01*
X159316359Y-118134455D01*
X159311221Y-118105461D01*
X159258345Y-117807115D01*
X159258345Y-117807114D01*
X159257703Y-117803493D01*
X159160835Y-117481635D01*
X159155444Y-117469205D01*
X159028549Y-117176669D01*
X159028548Y-117176666D01*
X159027077Y-117173276D01*
X158858256Y-116882629D01*
X158656677Y-116613664D01*
X158441960Y-116387794D01*
X158427627Y-116372716D01*
X158427623Y-116372712D01*
X158425095Y-116370053D01*
X158166673Y-116155125D01*
X158163586Y-116153117D01*
X158163580Y-116153112D01*
X157888033Y-115973829D01*
X157888032Y-115973828D01*
X157884939Y-115971816D01*
X157711620Y-115885968D01*
X157587049Y-115824265D01*
X157587042Y-115824262D01*
X157583743Y-115822628D01*
X157580271Y-115821388D01*
X157580268Y-115821387D01*
X157303658Y-115722619D01*
X157267197Y-115709600D01*
X157163607Y-115685779D01*
X156943216Y-115635100D01*
X156943211Y-115635099D01*
X156939627Y-115634275D01*
X156935970Y-115633874D01*
X156935967Y-115633874D01*
X156609176Y-115598085D01*
X156609175Y-115598085D01*
X156605505Y-115597683D01*
X156601812Y-115597712D01*
X156273083Y-115600294D01*
X156273082Y-115600294D01*
X156269396Y-115600323D01*
X156265737Y-115600782D01*
X155939548Y-115641700D01*
X155939544Y-115641701D01*
X155935891Y-115642159D01*
X155932320Y-115643040D01*
X155932317Y-115643040D01*
X155842083Y-115665287D01*
X155609544Y-115722619D01*
X155606093Y-115723913D01*
X155606092Y-115723913D01*
X155338403Y-115824265D01*
X155294813Y-115840606D01*
X155291537Y-115842293D01*
X155291533Y-115842295D01*
X155206737Y-115885968D01*
X154995997Y-115994506D01*
X154717177Y-116182218D01*
X154462163Y-116401179D01*
X154234436Y-116648397D01*
X154171587Y-116735060D01*
X154138716Y-116780386D01*
X154082531Y-116823789D01*
X154011800Y-116829926D01*
X153948980Y-116796849D01*
X153914014Y-116735060D01*
X153910715Y-116706367D01*
X153913726Y-108670089D01*
X158837017Y-108670089D01*
X158871318Y-108894249D01*
X158944773Y-109108793D01*
X159055059Y-109306937D01*
X159058612Y-109311277D01*
X159058614Y-109311281D01*
X159122714Y-109389596D01*
X159198690Y-109482421D01*
X159202953Y-109486062D01*
X159202958Y-109486067D01*
X159352028Y-109613384D01*
X159371127Y-109629696D01*
X159480998Y-109693899D01*
X159560473Y-109740340D01*
X159566919Y-109744107D01*
X159572196Y-109746038D01*
X159575983Y-109747820D01*
X159629104Y-109794923D01*
X159648327Y-109863268D01*
X159627548Y-109931156D01*
X159580125Y-109973795D01*
X159509943Y-110010019D01*
X159426553Y-110053060D01*
X159246645Y-110191108D01*
X159242872Y-110195254D01*
X159242867Y-110195259D01*
X159154244Y-110292655D01*
X159094026Y-110358834D01*
X158973521Y-110550935D01*
X158888939Y-110761340D01*
X158842953Y-110983398D01*
X158837017Y-111210089D01*
X158871318Y-111434249D01*
X158944773Y-111648793D01*
X159055059Y-111846937D01*
X159198690Y-112022421D01*
X159202953Y-112026062D01*
X159202958Y-112026067D01*
X159352028Y-112153384D01*
X159371127Y-112169696D01*
X159469023Y-112226902D01*
X159562072Y-112281275D01*
X159562075Y-112281276D01*
X159566919Y-112284107D01*
X159572189Y-112286036D01*
X159572190Y-112286036D01*
X159774612Y-112360112D01*
X159774616Y-112360113D01*
X159779876Y-112362038D01*
X159785393Y-112363001D01*
X159785397Y-112363002D01*
X159968812Y-112395013D01*
X160003269Y-112401027D01*
X160008875Y-112400998D01*
X160008879Y-112400998D01*
X160112475Y-112400455D01*
X160230035Y-112399839D01*
X160235553Y-112398816D01*
X160235556Y-112398816D01*
X160447488Y-112359537D01*
X160447489Y-112359537D01*
X160453007Y-112358514D01*
X160458252Y-112356532D01*
X160458256Y-112356531D01*
X160577839Y-112311344D01*
X160665137Y-112278357D01*
X160859720Y-112161901D01*
X160863940Y-112158219D01*
X160863945Y-112158216D01*
X161026375Y-112016519D01*
X161030605Y-112012829D01*
X161041882Y-111998753D01*
X161168885Y-111840228D01*
X161168888Y-111840223D01*
X161172391Y-111835851D01*
X161280596Y-111636562D01*
X161351800Y-111421262D01*
X161383752Y-111196755D01*
X161385500Y-111130000D01*
X161365341Y-110904128D01*
X161326279Y-110761340D01*
X161306985Y-110690812D01*
X161306984Y-110690808D01*
X161305503Y-110685396D01*
X161207876Y-110480718D01*
X161075547Y-110296562D01*
X160912698Y-110138750D01*
X160785178Y-110053060D01*
X160729130Y-110015397D01*
X160729124Y-110015394D01*
X160724477Y-110012271D01*
X160644404Y-109977121D01*
X160590070Y-109931427D01*
X160569065Y-109863608D01*
X160588059Y-109795200D01*
X160641023Y-109747920D01*
X160650513Y-109743883D01*
X160659890Y-109740340D01*
X160659893Y-109740338D01*
X160665137Y-109738357D01*
X160859720Y-109621901D01*
X160863940Y-109618219D01*
X160863945Y-109618216D01*
X161026375Y-109476519D01*
X161030605Y-109472829D01*
X161097287Y-109389596D01*
X161168885Y-109300228D01*
X161168888Y-109300223D01*
X161172391Y-109295851D01*
X161280596Y-109096562D01*
X161351800Y-108881262D01*
X161383752Y-108656755D01*
X161385500Y-108590000D01*
X161365341Y-108364128D01*
X161326279Y-108221340D01*
X161306985Y-108150812D01*
X161306984Y-108150808D01*
X161305503Y-108145396D01*
X161207876Y-107940718D01*
X161075547Y-107756562D01*
X160963203Y-107647693D01*
X160916726Y-107602653D01*
X160916723Y-107602651D01*
X160912698Y-107598750D01*
X160843570Y-107552298D01*
X160729130Y-107475397D01*
X160729124Y-107475394D01*
X160724477Y-107472271D01*
X160719345Y-107470018D01*
X160719341Y-107470016D01*
X160643753Y-107436835D01*
X160589417Y-107391139D01*
X160568413Y-107323320D01*
X160587408Y-107254912D01*
X160640372Y-107207633D01*
X160649863Y-107203595D01*
X160659677Y-107199887D01*
X160669734Y-107195025D01*
X160795623Y-107119683D01*
X160805193Y-107109324D01*
X160801650Y-107100861D01*
X160122811Y-106422021D01*
X160108868Y-106414408D01*
X160107034Y-106414539D01*
X160100420Y-106418790D01*
X159421152Y-107098059D01*
X159414395Y-107110434D01*
X159419676Y-107117489D01*
X159562284Y-107200822D01*
X159576544Y-107207532D01*
X159629665Y-107254635D01*
X159648887Y-107322980D01*
X159628108Y-107390868D01*
X159580685Y-107433506D01*
X159526725Y-107461357D01*
X159426553Y-107513060D01*
X159246645Y-107651108D01*
X159242872Y-107655254D01*
X159242867Y-107655259D01*
X159153451Y-107753527D01*
X159094026Y-107818834D01*
X159091043Y-107823590D01*
X159091041Y-107823592D01*
X158995174Y-107976418D01*
X158973521Y-108010935D01*
X158888939Y-108221340D01*
X158878527Y-108271618D01*
X158844092Y-108437900D01*
X158842953Y-108443398D01*
X158837017Y-108670089D01*
X153913726Y-108670089D01*
X153914680Y-106124452D01*
X158837663Y-106124452D01*
X158838365Y-106135604D01*
X158870955Y-106348579D01*
X158873622Y-106359440D01*
X158943413Y-106563281D01*
X158947961Y-106573495D01*
X159039031Y-106737117D01*
X159049084Y-106747008D01*
X159056687Y-106744102D01*
X159737979Y-106062811D01*
X159745592Y-106048868D01*
X159745461Y-106047034D01*
X159741210Y-106040420D01*
X159063095Y-105362306D01*
X159050720Y-105355549D01*
X159042747Y-105361517D01*
X158976952Y-105466403D01*
X158971872Y-105476373D01*
X158891511Y-105676278D01*
X158888280Y-105686978D01*
X158844588Y-105897958D01*
X158843303Y-105909065D01*
X158837663Y-106124452D01*
X153914680Y-106124452D01*
X153919439Y-93424452D01*
X158837663Y-93424452D01*
X158838365Y-93435604D01*
X158870955Y-93648579D01*
X158873622Y-93659440D01*
X158943413Y-93863281D01*
X158947961Y-93873495D01*
X159039031Y-94037117D01*
X159049084Y-94047008D01*
X159056687Y-94044102D01*
X159737979Y-93362811D01*
X159745592Y-93348868D01*
X159745461Y-93347034D01*
X159741210Y-93340420D01*
X159063095Y-92662306D01*
X159050720Y-92655549D01*
X159042747Y-92661517D01*
X158976952Y-92766403D01*
X158971872Y-92776373D01*
X158891511Y-92976278D01*
X158888280Y-92986978D01*
X158844588Y-93197958D01*
X158843303Y-93209065D01*
X158837663Y-93424452D01*
X153919439Y-93424452D01*
X153924199Y-80724452D01*
X158837663Y-80724452D01*
X158838365Y-80735604D01*
X158870955Y-80948579D01*
X158873622Y-80959440D01*
X158943413Y-81163281D01*
X158947961Y-81173495D01*
X159039031Y-81337117D01*
X159049084Y-81347008D01*
X159056687Y-81344102D01*
X159737979Y-80662811D01*
X159745592Y-80648868D01*
X159745461Y-80647034D01*
X159741210Y-80640420D01*
X159063095Y-79962306D01*
X159050720Y-79955549D01*
X159042747Y-79961517D01*
X158976952Y-80066403D01*
X158971872Y-80076373D01*
X158891511Y-80276278D01*
X158888280Y-80286978D01*
X158844588Y-80497958D01*
X158843303Y-80509065D01*
X158837663Y-80724452D01*
X153924199Y-80724452D01*
X153928959Y-68024452D01*
X158837663Y-68024452D01*
X158838365Y-68035604D01*
X158870955Y-68248579D01*
X158873622Y-68259440D01*
X158943413Y-68463281D01*
X158947961Y-68473495D01*
X159039031Y-68637117D01*
X159049084Y-68647008D01*
X159056687Y-68644102D01*
X159737979Y-67962811D01*
X159744355Y-67951132D01*
X160474408Y-67951132D01*
X160474539Y-67952966D01*
X160478790Y-67959580D01*
X161160156Y-68640945D01*
X161172531Y-68647702D01*
X161178796Y-68643013D01*
X161277462Y-68461290D01*
X161281896Y-68451044D01*
X161349553Y-68246469D01*
X161352103Y-68235597D01*
X161355023Y-68215081D01*
X161384425Y-68150458D01*
X161444097Y-68111990D01*
X161515265Y-68111940D01*
X161522133Y-68113957D01*
X161530330Y-68117700D01*
X161590964Y-68126418D01*
X161670552Y-68137861D01*
X161670559Y-68137862D01*
X161675000Y-68138500D01*
X162675000Y-68138500D01*
X162748079Y-68133273D01*
X162826165Y-68110345D01*
X162879670Y-68094635D01*
X162879672Y-68094634D01*
X162888316Y-68092096D01*
X162976219Y-68035604D01*
X163003691Y-68017949D01*
X163003694Y-68017947D01*
X163011271Y-68013077D01*
X163054827Y-67962811D01*
X163101082Y-67909431D01*
X163101084Y-67909428D01*
X163106984Y-67902619D01*
X163167700Y-67769670D01*
X163177993Y-67698079D01*
X163187861Y-67629448D01*
X163187862Y-67629441D01*
X163188500Y-67625000D01*
X163188500Y-66825000D01*
X163183273Y-66751921D01*
X163142096Y-66611684D01*
X163111520Y-66564107D01*
X163067949Y-66496309D01*
X163067947Y-66496306D01*
X163063077Y-66488729D01*
X163013822Y-66446049D01*
X162959431Y-66398918D01*
X162959428Y-66398916D01*
X162952619Y-66393016D01*
X162819670Y-66332300D01*
X162810755Y-66331018D01*
X162810754Y-66331018D01*
X162679448Y-66312139D01*
X162679441Y-66312138D01*
X162675000Y-66311500D01*
X161675000Y-66311500D01*
X161601921Y-66316727D01*
X161548884Y-66332300D01*
X161470330Y-66355365D01*
X161470328Y-66355366D01*
X161461684Y-66357904D01*
X161454105Y-66362775D01*
X161346309Y-66432051D01*
X161346306Y-66432053D01*
X161338729Y-66436923D01*
X161332828Y-66443733D01*
X161248918Y-66540569D01*
X161248916Y-66540572D01*
X161243016Y-66547381D01*
X161182300Y-66680330D01*
X161181018Y-66689245D01*
X161181018Y-66689246D01*
X161162139Y-66820552D01*
X161162138Y-66820559D01*
X161161500Y-66825000D01*
X161161500Y-67205520D01*
X161141498Y-67273641D01*
X161124595Y-67294616D01*
X160482021Y-67937189D01*
X160474408Y-67951132D01*
X159744355Y-67951132D01*
X159745592Y-67948868D01*
X159745461Y-67947034D01*
X159741210Y-67940420D01*
X159063095Y-67262306D01*
X159050720Y-67255549D01*
X159042747Y-67261517D01*
X158976952Y-67366403D01*
X158971872Y-67376373D01*
X158891511Y-67576278D01*
X158888280Y-67586978D01*
X158844588Y-67797958D01*
X158843303Y-67809065D01*
X158837663Y-68024452D01*
X153928959Y-68024452D01*
X153930978Y-62638709D01*
X153931373Y-61583579D01*
X153933356Y-61561359D01*
X153935376Y-61550115D01*
X153936206Y-61514439D01*
X153937265Y-61468972D01*
X153939644Y-61447363D01*
X153954883Y-61370620D01*
X153962051Y-61346968D01*
X153967905Y-61332828D01*
X153984798Y-61292019D01*
X153989056Y-61281733D01*
X154000702Y-61259936D01*
X154039925Y-61201220D01*
X154055603Y-61182115D01*
X154105520Y-61132198D01*
X154124624Y-61116521D01*
X154183334Y-61077301D01*
X154205132Y-61065654D01*
X154270375Y-61038646D01*
X154294023Y-61031479D01*
X154370775Y-61016238D01*
X154392377Y-61013860D01*
X154470242Y-61012048D01*
X154483782Y-61009786D01*
X154504633Y-61008065D01*
X156288954Y-61009488D01*
G37*
%TD.AperFunction*%
%TA.AperFunction,Conductor*%
G36*
X181051241Y-61029237D02*
G01*
X183416360Y-61031123D01*
X183438473Y-61033097D01*
X183445339Y-61034327D01*
X183445349Y-61034328D01*
X183450134Y-61035185D01*
X183455000Y-61035296D01*
X183455001Y-61035296D01*
X183479854Y-61035862D01*
X183530445Y-61037015D01*
X183551810Y-61039335D01*
X183580644Y-61044987D01*
X183627348Y-61054142D01*
X183650653Y-61061103D01*
X183715194Y-61087403D01*
X183736727Y-61098713D01*
X183795015Y-61136927D01*
X183813976Y-61152166D01*
X183863834Y-61200868D01*
X183879514Y-61219467D01*
X183919079Y-61276835D01*
X183930892Y-61298098D01*
X183958700Y-61362007D01*
X183966206Y-61385144D01*
X183981467Y-61454345D01*
X183982781Y-61460306D01*
X183985601Y-61481613D01*
X183989162Y-61558585D01*
X183990002Y-61562988D01*
X183990527Y-61567445D01*
X183990308Y-61567471D01*
X183992000Y-61585374D01*
X183992000Y-116696208D01*
X183971998Y-116764329D01*
X183918342Y-116810822D01*
X183848068Y-116820926D01*
X183783488Y-116791432D01*
X183765174Y-116771773D01*
X183648884Y-116616608D01*
X183648879Y-116616602D01*
X183646677Y-116613664D01*
X183431960Y-116387794D01*
X183417627Y-116372716D01*
X183417623Y-116372712D01*
X183415095Y-116370053D01*
X183156673Y-116155125D01*
X183153586Y-116153117D01*
X183153580Y-116153112D01*
X182878033Y-115973829D01*
X182878032Y-115973828D01*
X182874939Y-115971816D01*
X182701620Y-115885968D01*
X182577049Y-115824265D01*
X182577042Y-115824262D01*
X182573743Y-115822628D01*
X182570271Y-115821388D01*
X182570268Y-115821387D01*
X182293658Y-115722619D01*
X182257197Y-115709600D01*
X182153607Y-115685779D01*
X181933216Y-115635100D01*
X181933211Y-115635099D01*
X181929627Y-115634275D01*
X181925970Y-115633874D01*
X181925967Y-115633874D01*
X181599176Y-115598085D01*
X181599175Y-115598085D01*
X181595505Y-115597683D01*
X181591812Y-115597712D01*
X181263083Y-115600294D01*
X181263082Y-115600294D01*
X181259396Y-115600323D01*
X181255737Y-115600782D01*
X180929548Y-115641700D01*
X180929544Y-115641701D01*
X180925891Y-115642159D01*
X180922320Y-115643040D01*
X180922317Y-115643040D01*
X180832083Y-115665287D01*
X180599544Y-115722619D01*
X180596093Y-115723913D01*
X180596092Y-115723913D01*
X180328403Y-115824265D01*
X180284813Y-115840606D01*
X180281537Y-115842293D01*
X180281533Y-115842295D01*
X180196737Y-115885968D01*
X179985997Y-115994506D01*
X179707177Y-116182218D01*
X179452163Y-116401179D01*
X179224436Y-116648397D01*
X179027107Y-116920495D01*
X179025312Y-116923701D01*
X179025309Y-116923705D01*
X178936234Y-117082761D01*
X178862872Y-117213758D01*
X178861464Y-117217148D01*
X178861460Y-117217157D01*
X178751640Y-117481635D01*
X178733974Y-117524180D01*
X178732967Y-117527728D01*
X178732966Y-117527730D01*
X178644824Y-117838184D01*
X178642173Y-117847520D01*
X178588723Y-118179362D01*
X178574355Y-118515174D01*
X178574627Y-118518833D01*
X178598404Y-118838790D01*
X178599264Y-118850369D01*
X178599963Y-118853983D01*
X178599964Y-118853989D01*
X178654142Y-119134013D01*
X178663111Y-119180369D01*
X178664224Y-119183867D01*
X178664226Y-119183875D01*
X178763907Y-119497159D01*
X178765023Y-119500666D01*
X178766536Y-119504009D01*
X178766539Y-119504017D01*
X178847100Y-119682025D01*
X178903608Y-119806886D01*
X178905504Y-119810036D01*
X178905506Y-119810039D01*
X179024969Y-120008466D01*
X179076974Y-120094845D01*
X179169375Y-120214183D01*
X179280495Y-120357697D01*
X179280502Y-120357705D01*
X179282752Y-120360611D01*
X179518132Y-120600554D01*
X179779898Y-120811396D01*
X180064476Y-120990258D01*
X180367979Y-121134696D01*
X180686261Y-121242738D01*
X181014974Y-121312908D01*
X181128155Y-121323507D01*
X181345963Y-121343905D01*
X181345968Y-121343905D01*
X181349629Y-121344248D01*
X181555588Y-121339394D01*
X181681970Y-121336416D01*
X181681973Y-121336416D01*
X181685655Y-121336329D01*
X182018463Y-121289260D01*
X182343505Y-121203683D01*
X182656344Y-121080768D01*
X182659588Y-121079032D01*
X182659595Y-121079029D01*
X182949450Y-120923935D01*
X182952706Y-120922193D01*
X183111826Y-120811396D01*
X183225520Y-120732229D01*
X183228543Y-120730124D01*
X183231293Y-120727687D01*
X183231299Y-120727682D01*
X183477335Y-120509624D01*
X183480087Y-120507185D01*
X183703902Y-120256421D01*
X183719639Y-120233989D01*
X183762850Y-120172391D01*
X183818346Y-120128111D01*
X183888972Y-120120864D01*
X183952304Y-120152950D01*
X183988236Y-120214183D01*
X183992000Y-120244752D01*
X183992000Y-123316000D01*
X183971998Y-123384121D01*
X183918342Y-123430614D01*
X183866000Y-123442000D01*
X165757693Y-123442000D01*
X165689572Y-123421998D01*
X165643079Y-123368342D01*
X165632975Y-123298068D01*
X165662469Y-123233488D01*
X165722540Y-123195003D01*
X165735189Y-123191328D01*
X165745968Y-123188197D01*
X165745969Y-123188197D01*
X165753578Y-123185986D01*
X165771012Y-123175676D01*
X165788764Y-123166980D01*
X165800225Y-123162442D01*
X165800224Y-123162442D01*
X165807600Y-123159522D01*
X165843375Y-123133530D01*
X165853294Y-123127014D01*
X165858250Y-123124083D01*
X165891341Y-123104513D01*
X165891759Y-123104145D01*
X165905842Y-123090062D01*
X165920867Y-123077228D01*
X165937083Y-123065446D01*
X165965030Y-123031664D01*
X165973019Y-123022885D01*
X166651299Y-122344605D01*
X166707782Y-122311993D01*
X166794978Y-122288630D01*
X166867484Y-122269202D01*
X166867486Y-122269201D01*
X166872794Y-122267779D01*
X166877776Y-122265456D01*
X167079263Y-122171501D01*
X167079268Y-122171498D01*
X167084250Y-122169175D01*
X167275371Y-122035350D01*
X167440350Y-121870371D01*
X167443511Y-121865857D01*
X167456788Y-121846896D01*
X167512245Y-121802568D01*
X167582865Y-121795260D01*
X167646225Y-121827291D01*
X167663212Y-121846896D01*
X167676489Y-121865857D01*
X167679650Y-121870371D01*
X167844629Y-122035350D01*
X168035750Y-122169175D01*
X168040732Y-122171498D01*
X168040737Y-122171501D01*
X168242224Y-122265456D01*
X168247206Y-122267779D01*
X168252514Y-122269201D01*
X168252516Y-122269202D01*
X168467257Y-122326741D01*
X168467258Y-122326741D01*
X168472572Y-122328165D01*
X168705000Y-122348500D01*
X168937428Y-122328165D01*
X168942742Y-122326741D01*
X168942743Y-122326741D01*
X169157484Y-122269202D01*
X169157486Y-122269201D01*
X169162794Y-122267779D01*
X169167776Y-122265456D01*
X169369263Y-122171501D01*
X169369268Y-122171498D01*
X169374250Y-122169175D01*
X169565371Y-122035350D01*
X169730350Y-121870371D01*
X169733511Y-121865857D01*
X169746788Y-121846896D01*
X169802245Y-121802568D01*
X169872865Y-121795260D01*
X169936225Y-121827291D01*
X169953212Y-121846896D01*
X169966489Y-121865857D01*
X169969650Y-121870371D01*
X170134629Y-122035350D01*
X170325750Y-122169175D01*
X170330732Y-122171498D01*
X170330737Y-122171501D01*
X170532224Y-122265456D01*
X170537206Y-122267779D01*
X170542514Y-122269201D01*
X170542516Y-122269202D01*
X170757257Y-122326741D01*
X170757258Y-122326741D01*
X170762572Y-122328165D01*
X170995000Y-122348500D01*
X171227428Y-122328165D01*
X171232742Y-122326741D01*
X171232743Y-122326741D01*
X171447484Y-122269202D01*
X171447486Y-122269201D01*
X171452794Y-122267779D01*
X171457776Y-122265456D01*
X171659263Y-122171501D01*
X171659268Y-122171498D01*
X171664250Y-122169175D01*
X171855371Y-122035350D01*
X172020350Y-121870371D01*
X172023511Y-121865857D01*
X172036788Y-121846896D01*
X172092245Y-121802568D01*
X172162865Y-121795260D01*
X172226225Y-121827291D01*
X172243212Y-121846896D01*
X172256489Y-121865857D01*
X172259650Y-121870371D01*
X172424629Y-122035350D01*
X172615750Y-122169175D01*
X172620732Y-122171498D01*
X172620737Y-122171501D01*
X172822224Y-122265456D01*
X172827206Y-122267779D01*
X172832514Y-122269201D01*
X172832516Y-122269202D01*
X173047257Y-122326741D01*
X173047258Y-122326741D01*
X173052572Y-122328165D01*
X173285000Y-122348500D01*
X173517428Y-122328165D01*
X173522742Y-122326741D01*
X173522743Y-122326741D01*
X173737484Y-122269202D01*
X173737486Y-122269201D01*
X173742794Y-122267779D01*
X173747776Y-122265456D01*
X173949263Y-122171501D01*
X173949268Y-122171498D01*
X173954250Y-122169175D01*
X174145371Y-122035350D01*
X174310350Y-121870371D01*
X174326788Y-121846896D01*
X174441018Y-121683758D01*
X174444175Y-121679250D01*
X174446498Y-121674268D01*
X174446501Y-121674263D01*
X174540456Y-121472776D01*
X174540457Y-121472774D01*
X174542779Y-121467794D01*
X174584487Y-121312138D01*
X174601741Y-121247743D01*
X174601741Y-121247742D01*
X174603165Y-121242428D01*
X174623500Y-121010000D01*
X174603165Y-120777572D01*
X174591016Y-120732229D01*
X174544202Y-120557516D01*
X174544201Y-120557514D01*
X174542779Y-120552206D01*
X174520505Y-120504440D01*
X174446501Y-120345737D01*
X174446498Y-120345732D01*
X174444175Y-120340750D01*
X174340515Y-120192709D01*
X174313509Y-120154140D01*
X174313507Y-120154137D01*
X174310350Y-120149629D01*
X174169187Y-120008466D01*
X174135161Y-119946154D01*
X174140226Y-119875339D01*
X174182773Y-119818503D01*
X174249293Y-119793692D01*
X174269264Y-119793850D01*
X174425525Y-119807521D01*
X174436475Y-119807521D01*
X174657861Y-119788152D01*
X174668656Y-119786249D01*
X174883313Y-119728732D01*
X174893605Y-119724986D01*
X175095013Y-119631068D01*
X175104508Y-119625585D01*
X175161934Y-119585375D01*
X175170309Y-119574898D01*
X175163241Y-119561451D01*
X174443812Y-118842022D01*
X174429868Y-118834408D01*
X174428035Y-118834539D01*
X174421420Y-118838790D01*
X173698038Y-119562172D01*
X173685018Y-119586016D01*
X173674528Y-119634237D01*
X173624327Y-119684440D01*
X173554953Y-119699532D01*
X173531327Y-119695559D01*
X173522747Y-119693260D01*
X173522745Y-119693260D01*
X173517428Y-119691835D01*
X173285000Y-119671500D01*
X173052572Y-119691835D01*
X173047253Y-119693260D01*
X173047254Y-119693260D01*
X173040079Y-119695182D01*
X172969103Y-119693490D01*
X172910308Y-119653694D01*
X172882363Y-119588429D01*
X172882301Y-119580589D01*
X172872241Y-119561451D01*
X172152812Y-118842022D01*
X172138868Y-118834408D01*
X172137035Y-118834539D01*
X172130420Y-118838790D01*
X171407038Y-119562172D01*
X171393885Y-119586258D01*
X171383507Y-119633965D01*
X171333305Y-119684167D01*
X171263931Y-119699258D01*
X171240313Y-119695287D01*
X171232746Y-119693260D01*
X171232747Y-119693260D01*
X171227428Y-119691835D01*
X170995000Y-119671500D01*
X170762572Y-119691835D01*
X170757253Y-119693260D01*
X170757254Y-119693260D01*
X170750079Y-119695182D01*
X170679103Y-119693490D01*
X170620308Y-119653694D01*
X170592363Y-119588429D01*
X170592301Y-119580589D01*
X170582241Y-119561451D01*
X169862812Y-118842022D01*
X169848868Y-118834408D01*
X169847035Y-118834539D01*
X169840420Y-118838790D01*
X169117038Y-119562172D01*
X169103885Y-119586258D01*
X169093507Y-119633965D01*
X169043305Y-119684167D01*
X168973931Y-119699258D01*
X168950313Y-119695287D01*
X168942746Y-119693260D01*
X168942747Y-119693260D01*
X168937428Y-119691835D01*
X168705000Y-119671500D01*
X168699525Y-119671979D01*
X168699514Y-119671979D01*
X168546003Y-119685410D01*
X168476398Y-119671422D01*
X168425406Y-119622023D01*
X168409215Y-119552897D01*
X168432967Y-119485991D01*
X168445926Y-119470795D01*
X168586350Y-119330371D01*
X168632749Y-119264106D01*
X168688204Y-119219779D01*
X168739106Y-119212461D01*
X168758549Y-119202241D01*
X169477978Y-118482812D01*
X169484355Y-118471132D01*
X170214408Y-118471132D01*
X170214539Y-118472965D01*
X170218790Y-118479580D01*
X170942172Y-119202962D01*
X170956116Y-119210576D01*
X170987752Y-119208314D01*
X170988303Y-119208098D01*
X171012262Y-119208287D01*
X171032969Y-119210430D01*
X171048549Y-119202241D01*
X171767978Y-118482812D01*
X171774355Y-118471132D01*
X172504408Y-118471132D01*
X172504539Y-118472965D01*
X172508790Y-118479580D01*
X173232172Y-119202962D01*
X173246116Y-119210576D01*
X173277668Y-119208320D01*
X173278481Y-119208002D01*
X173302379Y-119208196D01*
X173323968Y-119210430D01*
X173339550Y-119202240D01*
X174058978Y-118482812D01*
X174065355Y-118471132D01*
X174795408Y-118471132D01*
X174795539Y-118472965D01*
X174799790Y-118479580D01*
X175523172Y-119202962D01*
X175534947Y-119209392D01*
X175546962Y-119200096D01*
X175586585Y-119143508D01*
X175592068Y-119134013D01*
X175685986Y-118932605D01*
X175689732Y-118922313D01*
X175747249Y-118707656D01*
X175749152Y-118696861D01*
X175768521Y-118475475D01*
X175768521Y-118464525D01*
X175749152Y-118243139D01*
X175747249Y-118232344D01*
X175689732Y-118017687D01*
X175685986Y-118007395D01*
X175592068Y-117805987D01*
X175586585Y-117796492D01*
X175546375Y-117739066D01*
X175535898Y-117730691D01*
X175522451Y-117737759D01*
X174803022Y-118457188D01*
X174795408Y-118471132D01*
X174065355Y-118471132D01*
X174066592Y-118468868D01*
X174066461Y-118467035D01*
X174062210Y-118460420D01*
X173338828Y-117737038D01*
X173324884Y-117729424D01*
X173293332Y-117731680D01*
X173292519Y-117731998D01*
X173268621Y-117731804D01*
X173247032Y-117729570D01*
X173231450Y-117737760D01*
X172512022Y-118457188D01*
X172504408Y-118471132D01*
X171774355Y-118471132D01*
X171775592Y-118468868D01*
X171775461Y-118467035D01*
X171771210Y-118460420D01*
X171047828Y-117737038D01*
X171033884Y-117729424D01*
X171002248Y-117731686D01*
X171001697Y-117731902D01*
X170977738Y-117731713D01*
X170957031Y-117729570D01*
X170941451Y-117737759D01*
X170222022Y-118457188D01*
X170214408Y-118471132D01*
X169484355Y-118471132D01*
X169485592Y-118468868D01*
X169485461Y-118467035D01*
X169481210Y-118460420D01*
X168757828Y-117737038D01*
X168742918Y-117728896D01*
X168675608Y-117714254D01*
X168632780Y-117675937D01*
X168589509Y-117614140D01*
X168589507Y-117614137D01*
X168586350Y-117609629D01*
X168445926Y-117469205D01*
X168411900Y-117406893D01*
X168416965Y-117336078D01*
X168459512Y-117279242D01*
X168526032Y-117254431D01*
X168546003Y-117254590D01*
X168699514Y-117268021D01*
X168699525Y-117268021D01*
X168705000Y-117268500D01*
X168937428Y-117248165D01*
X168943605Y-117246510D01*
X168949921Y-117244818D01*
X169020897Y-117246510D01*
X169079692Y-117286306D01*
X169107637Y-117351571D01*
X169107699Y-117359411D01*
X169117759Y-117378549D01*
X169837188Y-118097978D01*
X169851132Y-118105592D01*
X169852965Y-118105461D01*
X169859580Y-118101210D01*
X170582962Y-117377828D01*
X170596115Y-117353742D01*
X170606493Y-117306035D01*
X170656695Y-117255833D01*
X170726069Y-117240742D01*
X170749687Y-117244713D01*
X170756395Y-117246510D01*
X170762572Y-117248165D01*
X170995000Y-117268500D01*
X171227428Y-117248165D01*
X171233605Y-117246510D01*
X171239921Y-117244818D01*
X171310897Y-117246510D01*
X171369692Y-117286306D01*
X171397637Y-117351571D01*
X171397699Y-117359411D01*
X171407759Y-117378549D01*
X172127188Y-118097978D01*
X172141132Y-118105592D01*
X172142965Y-118105461D01*
X172149580Y-118101210D01*
X172872962Y-117377828D01*
X172886115Y-117353742D01*
X172896493Y-117306035D01*
X172946695Y-117255833D01*
X173016069Y-117240742D01*
X173039687Y-117244713D01*
X173046395Y-117246510D01*
X173052572Y-117248165D01*
X173285000Y-117268500D01*
X173517428Y-117248165D01*
X173523919Y-117246426D01*
X173530947Y-117244543D01*
X173601923Y-117246233D01*
X173660719Y-117286028D01*
X173688666Y-117351293D01*
X173688731Y-117359471D01*
X173698759Y-117378549D01*
X174418188Y-118097978D01*
X174432132Y-118105592D01*
X174433965Y-118105461D01*
X174440580Y-118101210D01*
X175163962Y-117377828D01*
X175170392Y-117366053D01*
X175161096Y-117354038D01*
X175104508Y-117314415D01*
X175095013Y-117308932D01*
X174893605Y-117215014D01*
X174883313Y-117211268D01*
X174668656Y-117153751D01*
X174657861Y-117151848D01*
X174436475Y-117132479D01*
X174425525Y-117132479D01*
X174269264Y-117146150D01*
X174199659Y-117132161D01*
X174148666Y-117082761D01*
X174132476Y-117013635D01*
X174156229Y-116946730D01*
X174169187Y-116931534D01*
X174310350Y-116790371D01*
X174317460Y-116780218D01*
X174407669Y-116651386D01*
X174444175Y-116599250D01*
X174446498Y-116594268D01*
X174446501Y-116594263D01*
X174540456Y-116392776D01*
X174540457Y-116392774D01*
X174542779Y-116387794D01*
X174603165Y-116162428D01*
X174623500Y-115930000D01*
X174603165Y-115697572D01*
X174586205Y-115634275D01*
X174544202Y-115477516D01*
X174544201Y-115477514D01*
X174542779Y-115472206D01*
X174540456Y-115467224D01*
X174446501Y-115265737D01*
X174446498Y-115265732D01*
X174444175Y-115260750D01*
X174340515Y-115112709D01*
X174313509Y-115074140D01*
X174313507Y-115074137D01*
X174310350Y-115069629D01*
X174145371Y-114904650D01*
X173954250Y-114770825D01*
X173949268Y-114768502D01*
X173949263Y-114768499D01*
X173747776Y-114674544D01*
X173747774Y-114674543D01*
X173742794Y-114672221D01*
X173737486Y-114670799D01*
X173737484Y-114670798D01*
X173522743Y-114613259D01*
X173522742Y-114613259D01*
X173517428Y-114611835D01*
X173285000Y-114591500D01*
X173052572Y-114611835D01*
X173047258Y-114613259D01*
X173047257Y-114613259D01*
X172832516Y-114670798D01*
X172832514Y-114670799D01*
X172827206Y-114672221D01*
X172822226Y-114674543D01*
X172822224Y-114674544D01*
X172620737Y-114768499D01*
X172620732Y-114768502D01*
X172615750Y-114770825D01*
X172424629Y-114904650D01*
X172259650Y-115069629D01*
X172256490Y-115074141D01*
X172256489Y-115074143D01*
X172243212Y-115093104D01*
X172187755Y-115137432D01*
X172117135Y-115144740D01*
X172053775Y-115112709D01*
X172036788Y-115093104D01*
X172023511Y-115074143D01*
X172023510Y-115074141D01*
X172020350Y-115069629D01*
X171855371Y-114904650D01*
X171664250Y-114770825D01*
X171659268Y-114768502D01*
X171659263Y-114768499D01*
X171457776Y-114674544D01*
X171457774Y-114674543D01*
X171452794Y-114672221D01*
X171447486Y-114670799D01*
X171447484Y-114670798D01*
X171232743Y-114613259D01*
X171232742Y-114613259D01*
X171227428Y-114611835D01*
X170995000Y-114591500D01*
X170762572Y-114611835D01*
X170757258Y-114613259D01*
X170757257Y-114613259D01*
X170542516Y-114670798D01*
X170542514Y-114670799D01*
X170537206Y-114672221D01*
X170532226Y-114674543D01*
X170532224Y-114674544D01*
X170330737Y-114768499D01*
X170330732Y-114768502D01*
X170325750Y-114770825D01*
X170134629Y-114904650D01*
X169969650Y-115069629D01*
X169966490Y-115074141D01*
X169966489Y-115074143D01*
X169953212Y-115093104D01*
X169897755Y-115137432D01*
X169827135Y-115144740D01*
X169763775Y-115112709D01*
X169746788Y-115093104D01*
X169733511Y-115074143D01*
X169733510Y-115074141D01*
X169730350Y-115069629D01*
X169565371Y-114904650D01*
X169374250Y-114770825D01*
X169369268Y-114768502D01*
X169369263Y-114768499D01*
X169167776Y-114674544D01*
X169167774Y-114674543D01*
X169162794Y-114672221D01*
X169157486Y-114670799D01*
X169157484Y-114670798D01*
X168942743Y-114613259D01*
X168942742Y-114613259D01*
X168937428Y-114611835D01*
X168705000Y-114591500D01*
X168472572Y-114611835D01*
X168467258Y-114613259D01*
X168467257Y-114613259D01*
X168252516Y-114670798D01*
X168252514Y-114670799D01*
X168247206Y-114672221D01*
X168242226Y-114674543D01*
X168242224Y-114674544D01*
X168040737Y-114768499D01*
X168040732Y-114768502D01*
X168035750Y-114770825D01*
X167844629Y-114904650D01*
X167679650Y-115069629D01*
X167676490Y-115074141D01*
X167676489Y-115074143D01*
X167663212Y-115093104D01*
X167607755Y-115137432D01*
X167537135Y-115144740D01*
X167473775Y-115112709D01*
X167456788Y-115093104D01*
X167443511Y-115074143D01*
X167443510Y-115074141D01*
X167440350Y-115069629D01*
X167275371Y-114904650D01*
X167163124Y-114826053D01*
X167088750Y-114773976D01*
X167084250Y-114770825D01*
X167079273Y-114768504D01*
X167079186Y-114768454D01*
X167030193Y-114717071D01*
X167016758Y-114647357D01*
X167043145Y-114581447D01*
X167100978Y-114540265D01*
X167134272Y-114533585D01*
X167135623Y-114533500D01*
X167139578Y-114533500D01*
X167143501Y-114533004D01*
X167143505Y-114533004D01*
X167143852Y-114532960D01*
X167155698Y-114532027D01*
X167199883Y-114530638D01*
X167219339Y-114524986D01*
X167238679Y-114520981D01*
X167258788Y-114518440D01*
X167266158Y-114515522D01*
X167266162Y-114515521D01*
X167299900Y-114502163D01*
X167311130Y-114498318D01*
X167345968Y-114488197D01*
X167345969Y-114488197D01*
X167353578Y-114485986D01*
X167371012Y-114475676D01*
X167388764Y-114466980D01*
X167400225Y-114462442D01*
X167400224Y-114462442D01*
X167407600Y-114459522D01*
X167443375Y-114433530D01*
X167453294Y-114427014D01*
X167491341Y-114404513D01*
X167491759Y-114404145D01*
X167505842Y-114390062D01*
X167520867Y-114377228D01*
X167537083Y-114365446D01*
X167565030Y-114331664D01*
X167573019Y-114322885D01*
X167967513Y-113928391D01*
X167975601Y-113921031D01*
X167981995Y-113916973D01*
X168027870Y-113868121D01*
X168030624Y-113865280D01*
X168050937Y-113844967D01*
X168053582Y-113841556D01*
X168061288Y-113832534D01*
X168086131Y-113806079D01*
X168091557Y-113800301D01*
X168095377Y-113793353D01*
X168101317Y-113782548D01*
X168112173Y-113766021D01*
X168119722Y-113756289D01*
X168124582Y-113750024D01*
X168142143Y-113709445D01*
X168147351Y-113698813D01*
X168168662Y-113660048D01*
X168170633Y-113652371D01*
X168170635Y-113652366D01*
X168173698Y-113640434D01*
X168180104Y-113621722D01*
X168185001Y-113610408D01*
X168185002Y-113610404D01*
X168188147Y-113603137D01*
X168195064Y-113559463D01*
X168197468Y-113547855D01*
X168208465Y-113505025D01*
X168208500Y-113504469D01*
X168208500Y-113484547D01*
X168210051Y-113464836D01*
X168211944Y-113452884D01*
X168213184Y-113445056D01*
X168209059Y-113401421D01*
X168208500Y-113389563D01*
X168208500Y-109259500D01*
X168228502Y-109191379D01*
X168282158Y-109144886D01*
X168334500Y-109133500D01*
X168421617Y-109133500D01*
X168432521Y-109134014D01*
X168439912Y-109135666D01*
X168447837Y-109135417D01*
X168447838Y-109135417D01*
X168506853Y-109133562D01*
X168510811Y-109133500D01*
X170921617Y-109133500D01*
X170932521Y-109134014D01*
X170939912Y-109135666D01*
X170947837Y-109135417D01*
X170947838Y-109135417D01*
X171006853Y-109133562D01*
X171010811Y-109133500D01*
X173421617Y-109133500D01*
X173432521Y-109134014D01*
X173439912Y-109135666D01*
X173447837Y-109135417D01*
X173447838Y-109135417D01*
X173506853Y-109133562D01*
X173510811Y-109133500D01*
X173539578Y-109133500D01*
X173543502Y-109133004D01*
X173543504Y-109133004D01*
X173543852Y-109132960D01*
X173555698Y-109132027D01*
X173599883Y-109130638D01*
X173619339Y-109124986D01*
X173638679Y-109120981D01*
X173658788Y-109118440D01*
X173666158Y-109115522D01*
X173666162Y-109115521D01*
X173699900Y-109102163D01*
X173711130Y-109098318D01*
X173745968Y-109088197D01*
X173745969Y-109088197D01*
X173753578Y-109085986D01*
X173771012Y-109075676D01*
X173788764Y-109066980D01*
X173800225Y-109062442D01*
X173800224Y-109062442D01*
X173807600Y-109059522D01*
X173843375Y-109033530D01*
X173853294Y-109027014D01*
X173854474Y-109026316D01*
X173891341Y-109004513D01*
X173891759Y-109004145D01*
X173905842Y-108990062D01*
X173920876Y-108977221D01*
X173930669Y-108970106D01*
X173937083Y-108965446D01*
X173965029Y-108931665D01*
X173973018Y-108922886D01*
X174392525Y-108503379D01*
X174400604Y-108496028D01*
X174406994Y-108491973D01*
X174452845Y-108443147D01*
X174455600Y-108440305D01*
X174475938Y-108419967D01*
X174478588Y-108416551D01*
X174486298Y-108407523D01*
X174511130Y-108381080D01*
X174516557Y-108375301D01*
X174520374Y-108368357D01*
X174520378Y-108368352D01*
X174526316Y-108357550D01*
X174537172Y-108341023D01*
X174544724Y-108331287D01*
X174549583Y-108325023D01*
X174567142Y-108284447D01*
X174572363Y-108273790D01*
X174573557Y-108271618D01*
X174593662Y-108235048D01*
X174595769Y-108226841D01*
X174598699Y-108215432D01*
X174605103Y-108196728D01*
X174609999Y-108185415D01*
X174610001Y-108185408D01*
X174613148Y-108178136D01*
X174618334Y-108145396D01*
X174620065Y-108134465D01*
X174622472Y-108122844D01*
X174631987Y-108085782D01*
X174631987Y-108085781D01*
X174633465Y-108080025D01*
X174633500Y-108079469D01*
X174633500Y-108059548D01*
X174635051Y-108039838D01*
X174636944Y-108027886D01*
X174636944Y-108027885D01*
X174638184Y-108020056D01*
X174634059Y-107976417D01*
X174633500Y-107964560D01*
X174633500Y-107678478D01*
X174653502Y-107610357D01*
X174707158Y-107563864D01*
X174716505Y-107560041D01*
X174791863Y-107532687D01*
X174939746Y-107435731D01*
X175061357Y-107307355D01*
X175150174Y-107154445D01*
X175159700Y-107122995D01*
X175184140Y-107042300D01*
X175223029Y-106982902D01*
X175287858Y-106953959D01*
X175358044Y-106964659D01*
X175393825Y-106989729D01*
X176613402Y-108209306D01*
X176647428Y-108271618D01*
X176647689Y-108323952D01*
X176624091Y-108437900D01*
X176624091Y-108437901D01*
X176622953Y-108443398D01*
X176617017Y-108670089D01*
X176651318Y-108894249D01*
X176724773Y-109108793D01*
X176835059Y-109306937D01*
X176838612Y-109311277D01*
X176838614Y-109311281D01*
X176902714Y-109389596D01*
X176978690Y-109482421D01*
X176982953Y-109486062D01*
X176982958Y-109486067D01*
X177132028Y-109613384D01*
X177151127Y-109629696D01*
X177260998Y-109693899D01*
X177340473Y-109740340D01*
X177346919Y-109744107D01*
X177352196Y-109746038D01*
X177355983Y-109747820D01*
X177409104Y-109794923D01*
X177428327Y-109863268D01*
X177407548Y-109931156D01*
X177360125Y-109973795D01*
X177289943Y-110010019D01*
X177206553Y-110053060D01*
X177026645Y-110191108D01*
X177022872Y-110195254D01*
X177022867Y-110195259D01*
X176934244Y-110292655D01*
X176874026Y-110358834D01*
X176753521Y-110550935D01*
X176668939Y-110761340D01*
X176622953Y-110983398D01*
X176617017Y-111210089D01*
X176651318Y-111434249D01*
X176724773Y-111648793D01*
X176835059Y-111846937D01*
X176978690Y-112022421D01*
X176982953Y-112026062D01*
X176982958Y-112026067D01*
X177132028Y-112153384D01*
X177151127Y-112169696D01*
X177249023Y-112226902D01*
X177342072Y-112281275D01*
X177342075Y-112281276D01*
X177346919Y-112284107D01*
X177352189Y-112286036D01*
X177352190Y-112286036D01*
X177554612Y-112360112D01*
X177554616Y-112360113D01*
X177559876Y-112362038D01*
X177565393Y-112363001D01*
X177565397Y-112363002D01*
X177748812Y-112395013D01*
X177783269Y-112401027D01*
X177788875Y-112400998D01*
X177788879Y-112400998D01*
X177892475Y-112400455D01*
X178010035Y-112399839D01*
X178015553Y-112398816D01*
X178015556Y-112398816D01*
X178227488Y-112359537D01*
X178227489Y-112359537D01*
X178233007Y-112358514D01*
X178238252Y-112356532D01*
X178238256Y-112356531D01*
X178357839Y-112311344D01*
X178445137Y-112278357D01*
X178639720Y-112161901D01*
X178643940Y-112158219D01*
X178643945Y-112158216D01*
X178806375Y-112016519D01*
X178810605Y-112012829D01*
X178821882Y-111998753D01*
X178948885Y-111840228D01*
X178948888Y-111840223D01*
X178952391Y-111835851D01*
X179060596Y-111636562D01*
X179131800Y-111421262D01*
X179163752Y-111196755D01*
X179165500Y-111130000D01*
X179145341Y-110904128D01*
X179106279Y-110761340D01*
X179086985Y-110690812D01*
X179086984Y-110690808D01*
X179085503Y-110685396D01*
X178987876Y-110480718D01*
X178855547Y-110296562D01*
X178692698Y-110138750D01*
X178565178Y-110053060D01*
X178509130Y-110015397D01*
X178509124Y-110015394D01*
X178504477Y-110012271D01*
X178424404Y-109977121D01*
X178370070Y-109931427D01*
X178349065Y-109863608D01*
X178368059Y-109795200D01*
X178421023Y-109747920D01*
X178430513Y-109743883D01*
X178439890Y-109740340D01*
X178439893Y-109740338D01*
X178445137Y-109738357D01*
X178639720Y-109621901D01*
X178643940Y-109618219D01*
X178643945Y-109618216D01*
X178806375Y-109476519D01*
X178810605Y-109472829D01*
X178877287Y-109389596D01*
X178948885Y-109300228D01*
X178948888Y-109300223D01*
X178952391Y-109295851D01*
X179060596Y-109096562D01*
X179131800Y-108881262D01*
X179163752Y-108656755D01*
X179165500Y-108590000D01*
X179145341Y-108364128D01*
X179106279Y-108221340D01*
X179086985Y-108150812D01*
X179086984Y-108150808D01*
X179085503Y-108145396D01*
X178987876Y-107940718D01*
X178855547Y-107756562D01*
X178743203Y-107647693D01*
X178696726Y-107602653D01*
X178696723Y-107602651D01*
X178692698Y-107598750D01*
X178623570Y-107552298D01*
X178509130Y-107475397D01*
X178509124Y-107475394D01*
X178504477Y-107472271D01*
X178499345Y-107470018D01*
X178499341Y-107470016D01*
X178423753Y-107436835D01*
X178369417Y-107391139D01*
X178348413Y-107323320D01*
X178367408Y-107254912D01*
X178420372Y-107207633D01*
X178429863Y-107203595D01*
X178439677Y-107199887D01*
X178449734Y-107195025D01*
X178575623Y-107119683D01*
X178585193Y-107109324D01*
X178581650Y-107100861D01*
X177531922Y-106051132D01*
X178254408Y-106051132D01*
X178254539Y-106052966D01*
X178258790Y-106059580D01*
X178940156Y-106740945D01*
X178952531Y-106747702D01*
X178958796Y-106743013D01*
X179057462Y-106561290D01*
X179061896Y-106551044D01*
X179129553Y-106346469D01*
X179132103Y-106335596D01*
X179162742Y-106120319D01*
X179163348Y-106113103D01*
X179164905Y-106053632D01*
X179164677Y-106046379D01*
X179145348Y-105829812D01*
X179143366Y-105818798D01*
X179086517Y-105610987D01*
X179082619Y-105600506D01*
X178989859Y-105406031D01*
X178984173Y-105396416D01*
X178960719Y-105363776D01*
X178949928Y-105355365D01*
X178936894Y-105362317D01*
X178262021Y-106037189D01*
X178254408Y-106051132D01*
X177531922Y-106051132D01*
X177530790Y-106050000D01*
X176843097Y-105362308D01*
X176830720Y-105355549D01*
X176822747Y-105361518D01*
X176756952Y-105466403D01*
X176751872Y-105476373D01*
X176671511Y-105676278D01*
X176668280Y-105686978D01*
X176624588Y-105897958D01*
X176623303Y-105909065D01*
X176617753Y-106121001D01*
X176595974Y-106188574D01*
X176541120Y-106233647D01*
X176470606Y-106241907D01*
X176402701Y-106206797D01*
X176170405Y-105974501D01*
X176136379Y-105912189D01*
X176133500Y-105885406D01*
X176133500Y-102953595D01*
X176153502Y-102885474D01*
X176207158Y-102838981D01*
X176277432Y-102828877D01*
X176342012Y-102858371D01*
X176348590Y-102864495D01*
X176613402Y-103129307D01*
X176647427Y-103191619D01*
X176647688Y-103243952D01*
X176636561Y-103297685D01*
X176622953Y-103363398D01*
X176617017Y-103590089D01*
X176651318Y-103814249D01*
X176724773Y-104028793D01*
X176835059Y-104226937D01*
X176838612Y-104231277D01*
X176838614Y-104231281D01*
X176921344Y-104332358D01*
X176978690Y-104402421D01*
X176982953Y-104406062D01*
X176982958Y-104406067D01*
X177090073Y-104497551D01*
X177151127Y-104549696D01*
X177215084Y-104587069D01*
X177340466Y-104660336D01*
X177346919Y-104664107D01*
X177352185Y-104666034D01*
X177356554Y-104668090D01*
X177409674Y-104715194D01*
X177428895Y-104783539D01*
X177408114Y-104851427D01*
X177360693Y-104894063D01*
X177211803Y-104970910D01*
X177202372Y-104976895D01*
X177201883Y-104977271D01*
X177193418Y-104988863D01*
X177200050Y-105000839D01*
X177877189Y-105677979D01*
X177891132Y-105685592D01*
X177892966Y-105685461D01*
X177899580Y-105681210D01*
X178577460Y-105003329D01*
X178583682Y-104991935D01*
X178573870Y-104979502D01*
X178508892Y-104935838D01*
X178499098Y-104930454D01*
X178423739Y-104897373D01*
X178369404Y-104851677D01*
X178348399Y-104783859D01*
X178367394Y-104715450D01*
X178420358Y-104668171D01*
X178429828Y-104664142D01*
X178445137Y-104658357D01*
X178639720Y-104541901D01*
X178643940Y-104538219D01*
X178643945Y-104538216D01*
X178806375Y-104396519D01*
X178810605Y-104392829D01*
X178821882Y-104378753D01*
X178948885Y-104220228D01*
X178948888Y-104220223D01*
X178952391Y-104215851D01*
X179060596Y-104016562D01*
X179131800Y-103801262D01*
X179163752Y-103576755D01*
X179165500Y-103510000D01*
X179160130Y-103449826D01*
X179158237Y-103428626D01*
X179145341Y-103284128D01*
X179106279Y-103141340D01*
X179086985Y-103070812D01*
X179086984Y-103070808D01*
X179085503Y-103065396D01*
X178987876Y-102860718D01*
X178855547Y-102676562D01*
X178746727Y-102571108D01*
X178696726Y-102522653D01*
X178696723Y-102522651D01*
X178692698Y-102518750D01*
X178565178Y-102433060D01*
X178509130Y-102395397D01*
X178509124Y-102395394D01*
X178504477Y-102392271D01*
X178424404Y-102357121D01*
X178370070Y-102311427D01*
X178349065Y-102243608D01*
X178368059Y-102175200D01*
X178421023Y-102127920D01*
X178430513Y-102123883D01*
X178439890Y-102120340D01*
X178439893Y-102120338D01*
X178445137Y-102118357D01*
X178639720Y-102001901D01*
X178643940Y-101998219D01*
X178643945Y-101998216D01*
X178806375Y-101856519D01*
X178810605Y-101852829D01*
X178821882Y-101838753D01*
X178948885Y-101680228D01*
X178948888Y-101680223D01*
X178952391Y-101675851D01*
X179060596Y-101476562D01*
X179131800Y-101261262D01*
X179163752Y-101036755D01*
X179165500Y-100970000D01*
X179145341Y-100744128D01*
X179106279Y-100601340D01*
X179086985Y-100530812D01*
X179086984Y-100530808D01*
X179085503Y-100525396D01*
X178987876Y-100320718D01*
X178855547Y-100136562D01*
X178692698Y-99978750D01*
X178565178Y-99893060D01*
X178509130Y-99855397D01*
X178509124Y-99855394D01*
X178504477Y-99852271D01*
X178424404Y-99817121D01*
X178370070Y-99771427D01*
X178349065Y-99703608D01*
X178368059Y-99635200D01*
X178421023Y-99587920D01*
X178430513Y-99583883D01*
X178439890Y-99580340D01*
X178439893Y-99580338D01*
X178445137Y-99578357D01*
X178639720Y-99461901D01*
X178643940Y-99458219D01*
X178643945Y-99458216D01*
X178806375Y-99316519D01*
X178810605Y-99312829D01*
X178821882Y-99298753D01*
X178948885Y-99140228D01*
X178948888Y-99140223D01*
X178952391Y-99135851D01*
X179060596Y-98936562D01*
X179131800Y-98721262D01*
X179163752Y-98496755D01*
X179165500Y-98430000D01*
X179145341Y-98204128D01*
X179106279Y-98061340D01*
X179086985Y-97990812D01*
X179086984Y-97990808D01*
X179085503Y-97985396D01*
X178987876Y-97780718D01*
X178855547Y-97596562D01*
X178751011Y-97495259D01*
X178696726Y-97442653D01*
X178696723Y-97442651D01*
X178692698Y-97438750D01*
X178580714Y-97363500D01*
X178509130Y-97315397D01*
X178509124Y-97315394D01*
X178504477Y-97312271D01*
X178424404Y-97277121D01*
X178370070Y-97231427D01*
X178349065Y-97163608D01*
X178368059Y-97095200D01*
X178421023Y-97047920D01*
X178430513Y-97043883D01*
X178439890Y-97040340D01*
X178439893Y-97040338D01*
X178445137Y-97038357D01*
X178471559Y-97022544D01*
X178518132Y-96994670D01*
X178639720Y-96921901D01*
X178643940Y-96918219D01*
X178643945Y-96918216D01*
X178806375Y-96776519D01*
X178810605Y-96772829D01*
X178821882Y-96758753D01*
X178948885Y-96600228D01*
X178948888Y-96600223D01*
X178952391Y-96595851D01*
X179060596Y-96396562D01*
X179131800Y-96181262D01*
X179163752Y-95956755D01*
X179165500Y-95890000D01*
X179163730Y-95870162D01*
X179158952Y-95816637D01*
X179145341Y-95664128D01*
X179106096Y-95520671D01*
X179086985Y-95450812D01*
X179086984Y-95450808D01*
X179085503Y-95445396D01*
X178987876Y-95240718D01*
X178855547Y-95056562D01*
X178692698Y-94898750D01*
X178565178Y-94813060D01*
X178509130Y-94775397D01*
X178509124Y-94775394D01*
X178504477Y-94772271D01*
X178499345Y-94770018D01*
X178499341Y-94770016D01*
X178423753Y-94736835D01*
X178369417Y-94691139D01*
X178348413Y-94623320D01*
X178367408Y-94554912D01*
X178420372Y-94507633D01*
X178429863Y-94503595D01*
X178439677Y-94499887D01*
X178449734Y-94495025D01*
X178575623Y-94419683D01*
X178585193Y-94409324D01*
X178581650Y-94400861D01*
X177902811Y-93722021D01*
X177888868Y-93714408D01*
X177887034Y-93714539D01*
X177880420Y-93718790D01*
X177201152Y-94398059D01*
X177194395Y-94410434D01*
X177199676Y-94417489D01*
X177342284Y-94500822D01*
X177356544Y-94507532D01*
X177409665Y-94554635D01*
X177428887Y-94622980D01*
X177408108Y-94690868D01*
X177360685Y-94733506D01*
X177289949Y-94770016D01*
X177206553Y-94813060D01*
X177026645Y-94951108D01*
X177022872Y-94955254D01*
X177022867Y-94955259D01*
X176918282Y-95070197D01*
X176874026Y-95118834D01*
X176866237Y-95131251D01*
X176813095Y-95178328D01*
X176742936Y-95189202D01*
X176678036Y-95160418D01*
X176639000Y-95101116D01*
X176633500Y-95064295D01*
X176633500Y-94155308D01*
X176653502Y-94087187D01*
X176707158Y-94040694D01*
X176777432Y-94030590D01*
X176804096Y-94042768D01*
X176827419Y-94047644D01*
X176836687Y-94044102D01*
X177517979Y-93362811D01*
X177524355Y-93351132D01*
X178254408Y-93351132D01*
X178254539Y-93352966D01*
X178258790Y-93359580D01*
X178940156Y-94040945D01*
X178952531Y-94047702D01*
X178958796Y-94043013D01*
X179057462Y-93861290D01*
X179061896Y-93851044D01*
X179129553Y-93646469D01*
X179132103Y-93635596D01*
X179162742Y-93420319D01*
X179163348Y-93413103D01*
X179164905Y-93353632D01*
X179164677Y-93346379D01*
X179145348Y-93129812D01*
X179143366Y-93118798D01*
X179086517Y-92910987D01*
X179082619Y-92900506D01*
X178989859Y-92706031D01*
X178984173Y-92696416D01*
X178960719Y-92663776D01*
X178949928Y-92655365D01*
X178936894Y-92662317D01*
X178262021Y-93337189D01*
X178254408Y-93351132D01*
X177524355Y-93351132D01*
X177525592Y-93348868D01*
X177525461Y-93347034D01*
X177521210Y-93340420D01*
X176843095Y-92662306D01*
X176829157Y-92654695D01*
X176828578Y-92654737D01*
X176768489Y-92677149D01*
X176699115Y-92662058D01*
X176648913Y-92611856D01*
X176633500Y-92551470D01*
X176633500Y-91633555D01*
X176653502Y-91565434D01*
X176707158Y-91518941D01*
X176777432Y-91508837D01*
X176842012Y-91538331D01*
X176857004Y-91553749D01*
X176978690Y-91702421D01*
X176982953Y-91706062D01*
X176982958Y-91706067D01*
X177132028Y-91833384D01*
X177151127Y-91849696D01*
X177225037Y-91892885D01*
X177340466Y-91960336D01*
X177346919Y-91964107D01*
X177352185Y-91966034D01*
X177356554Y-91968090D01*
X177409674Y-92015194D01*
X177428895Y-92083539D01*
X177408114Y-92151427D01*
X177360693Y-92194063D01*
X177211803Y-92270910D01*
X177202372Y-92276895D01*
X177201883Y-92277271D01*
X177193418Y-92288863D01*
X177200050Y-92300839D01*
X177877189Y-92977979D01*
X177891132Y-92985592D01*
X177892966Y-92985461D01*
X177899580Y-92981210D01*
X178577460Y-92303329D01*
X178583682Y-92291935D01*
X178573870Y-92279502D01*
X178508892Y-92235838D01*
X178499098Y-92230454D01*
X178423739Y-92197373D01*
X178369404Y-92151677D01*
X178348399Y-92083859D01*
X178367394Y-92015450D01*
X178420358Y-91968171D01*
X178429828Y-91964142D01*
X178445137Y-91958357D01*
X178639720Y-91841901D01*
X178643940Y-91838219D01*
X178643945Y-91838216D01*
X178806375Y-91696519D01*
X178810605Y-91692829D01*
X178821882Y-91678753D01*
X178948885Y-91520228D01*
X178948888Y-91520223D01*
X178952391Y-91515851D01*
X179060596Y-91316562D01*
X179131800Y-91101262D01*
X179163752Y-90876755D01*
X179165500Y-90810000D01*
X179145341Y-90584128D01*
X179106279Y-90441340D01*
X179086985Y-90370812D01*
X179086984Y-90370808D01*
X179085503Y-90365396D01*
X178987876Y-90160718D01*
X178855547Y-89976562D01*
X178692698Y-89818750D01*
X178565178Y-89733060D01*
X178509130Y-89695397D01*
X178509124Y-89695394D01*
X178504477Y-89692271D01*
X178424404Y-89657121D01*
X178370070Y-89611427D01*
X178349065Y-89543608D01*
X178368059Y-89475200D01*
X178421023Y-89427920D01*
X178430513Y-89423883D01*
X178439890Y-89420340D01*
X178439893Y-89420338D01*
X178445137Y-89418357D01*
X178639720Y-89301901D01*
X178643940Y-89298219D01*
X178643945Y-89298216D01*
X178806375Y-89156519D01*
X178810605Y-89152829D01*
X178877258Y-89069633D01*
X178948885Y-88980228D01*
X178948888Y-88980223D01*
X178952391Y-88975851D01*
X179060596Y-88776562D01*
X179131800Y-88561262D01*
X179161854Y-88350089D01*
X179163241Y-88340346D01*
X179163241Y-88340345D01*
X179163752Y-88336755D01*
X179165500Y-88270000D01*
X179145341Y-88044128D01*
X179106279Y-87901340D01*
X179086985Y-87830812D01*
X179086984Y-87830808D01*
X179085503Y-87825396D01*
X178987876Y-87620718D01*
X178855547Y-87436562D01*
X178782672Y-87365941D01*
X178696726Y-87282653D01*
X178696723Y-87282651D01*
X178692698Y-87278750D01*
X178570257Y-87196473D01*
X178509130Y-87155397D01*
X178509124Y-87155394D01*
X178504477Y-87152271D01*
X178424404Y-87117121D01*
X178370070Y-87071427D01*
X178349065Y-87003608D01*
X178368059Y-86935200D01*
X178421023Y-86887920D01*
X178430513Y-86883883D01*
X178439890Y-86880340D01*
X178439893Y-86880338D01*
X178445137Y-86878357D01*
X178639720Y-86761901D01*
X178643940Y-86758219D01*
X178643945Y-86758216D01*
X178806375Y-86616519D01*
X178810605Y-86612829D01*
X178922166Y-86473578D01*
X178948885Y-86440228D01*
X178948888Y-86440223D01*
X178952391Y-86435851D01*
X179060596Y-86236562D01*
X179131800Y-86021262D01*
X179163752Y-85796755D01*
X179165500Y-85730000D01*
X179145341Y-85504128D01*
X179106279Y-85361340D01*
X179086985Y-85290812D01*
X179086984Y-85290808D01*
X179085503Y-85285396D01*
X178987876Y-85080718D01*
X178855547Y-84896562D01*
X178692698Y-84738750D01*
X178565178Y-84653060D01*
X178509130Y-84615397D01*
X178509124Y-84615394D01*
X178504477Y-84612271D01*
X178424404Y-84577121D01*
X178370070Y-84531427D01*
X178349065Y-84463608D01*
X178368059Y-84395200D01*
X178421023Y-84347920D01*
X178430513Y-84343883D01*
X178439890Y-84340340D01*
X178439893Y-84340338D01*
X178445137Y-84338357D01*
X178639720Y-84221901D01*
X178643940Y-84218219D01*
X178643945Y-84218216D01*
X178806375Y-84076519D01*
X178810605Y-84072829D01*
X178922166Y-83933578D01*
X178948885Y-83900228D01*
X178948888Y-83900223D01*
X178952391Y-83895851D01*
X179060596Y-83696562D01*
X179131800Y-83481262D01*
X179163752Y-83256755D01*
X179165500Y-83190000D01*
X179145341Y-82964128D01*
X179105161Y-82817254D01*
X179086985Y-82750812D01*
X179086984Y-82750808D01*
X179085503Y-82745396D01*
X178987876Y-82540718D01*
X178855547Y-82356562D01*
X178751011Y-82255259D01*
X178696726Y-82202653D01*
X178696723Y-82202651D01*
X178692698Y-82198750D01*
X178565178Y-82113060D01*
X178509130Y-82075397D01*
X178509124Y-82075394D01*
X178504477Y-82072271D01*
X178499345Y-82070018D01*
X178499341Y-82070016D01*
X178423753Y-82036835D01*
X178369417Y-81991139D01*
X178348413Y-81923320D01*
X178367408Y-81854912D01*
X178420372Y-81807633D01*
X178429863Y-81803595D01*
X178439677Y-81799887D01*
X178449734Y-81795025D01*
X178575623Y-81719683D01*
X178585193Y-81709324D01*
X178581650Y-81700861D01*
X177902811Y-81022021D01*
X177888868Y-81014408D01*
X177887034Y-81014539D01*
X177880420Y-81018790D01*
X177201152Y-81698059D01*
X177194395Y-81710434D01*
X177199676Y-81717489D01*
X177342284Y-81800822D01*
X177356544Y-81807532D01*
X177409665Y-81854635D01*
X177428887Y-81922980D01*
X177408108Y-81990868D01*
X177360685Y-82033506D01*
X177289949Y-82070016D01*
X177206553Y-82113060D01*
X177202105Y-82116473D01*
X177041206Y-82239935D01*
X176974986Y-82265535D01*
X176905437Y-82251270D01*
X176884199Y-82237067D01*
X176881678Y-82234982D01*
X176872886Y-82226982D01*
X175370356Y-80724452D01*
X176617663Y-80724452D01*
X176618365Y-80735604D01*
X176650955Y-80948579D01*
X176653622Y-80959440D01*
X176723413Y-81163281D01*
X176727961Y-81173495D01*
X176819031Y-81337117D01*
X176829084Y-81347008D01*
X176836687Y-81344102D01*
X177517979Y-80662811D01*
X177524355Y-80651132D01*
X178254408Y-80651132D01*
X178254539Y-80652966D01*
X178258790Y-80659580D01*
X178940156Y-81340945D01*
X178952531Y-81347702D01*
X178958796Y-81343013D01*
X179057462Y-81161290D01*
X179061896Y-81151044D01*
X179129553Y-80946469D01*
X179132103Y-80935596D01*
X179162742Y-80720319D01*
X179163348Y-80713103D01*
X179164905Y-80653632D01*
X179164677Y-80646379D01*
X179145348Y-80429812D01*
X179143366Y-80418798D01*
X179086517Y-80210987D01*
X179082619Y-80200506D01*
X178989859Y-80006031D01*
X178984173Y-79996416D01*
X178960719Y-79963776D01*
X178949928Y-79955365D01*
X178936894Y-79962317D01*
X178262021Y-80637189D01*
X178254408Y-80651132D01*
X177524355Y-80651132D01*
X177525592Y-80648868D01*
X177525461Y-80647034D01*
X177521210Y-80640420D01*
X176843095Y-79962306D01*
X176830720Y-79955549D01*
X176822747Y-79961517D01*
X176756952Y-80066403D01*
X176751872Y-80076373D01*
X176671511Y-80276278D01*
X176668280Y-80286978D01*
X176624588Y-80497958D01*
X176623303Y-80509065D01*
X176617663Y-80724452D01*
X175370356Y-80724452D01*
X175259383Y-80613479D01*
X175225357Y-80551167D01*
X175230422Y-80480352D01*
X175239359Y-80461384D01*
X175331220Y-80302277D01*
X175331221Y-80302276D01*
X175334524Y-80296554D01*
X175393538Y-80114927D01*
X175413500Y-79925000D01*
X175393538Y-79735073D01*
X175334524Y-79553446D01*
X175239037Y-79388058D01*
X175215620Y-79362050D01*
X175115673Y-79251048D01*
X175115672Y-79251047D01*
X175111251Y-79246137D01*
X175105909Y-79242256D01*
X175105907Y-79242254D01*
X174962092Y-79137767D01*
X174962091Y-79137766D01*
X174956750Y-79133886D01*
X174950722Y-79131202D01*
X174950720Y-79131201D01*
X174788318Y-79058895D01*
X174788317Y-79058895D01*
X174782287Y-79056210D01*
X174688887Y-79036357D01*
X174601944Y-79017876D01*
X174601939Y-79017876D01*
X174595487Y-79016504D01*
X174404513Y-79016504D01*
X174398061Y-79017876D01*
X174398056Y-79017876D01*
X174311113Y-79036357D01*
X174217713Y-79056210D01*
X174211683Y-79058895D01*
X174211682Y-79058895D01*
X174049280Y-79131201D01*
X174049278Y-79131202D01*
X174043250Y-79133886D01*
X174037909Y-79137766D01*
X174037908Y-79137767D01*
X173894093Y-79242254D01*
X173894091Y-79242256D01*
X173888749Y-79246137D01*
X173817910Y-79324812D01*
X173757467Y-79362050D01*
X173724276Y-79366500D01*
X172534500Y-79366500D01*
X172466379Y-79346498D01*
X172419886Y-79292842D01*
X172408500Y-79240500D01*
X172408500Y-78889619D01*
X172428502Y-78821498D01*
X172482158Y-78775005D01*
X172552432Y-78764901D01*
X172586843Y-78775006D01*
X172672133Y-78813957D01*
X172672136Y-78813958D01*
X172680330Y-78817700D01*
X172689245Y-78818982D01*
X172689246Y-78818982D01*
X172820552Y-78837861D01*
X172820559Y-78837862D01*
X172825000Y-78838500D01*
X173825000Y-78838500D01*
X173898079Y-78833273D01*
X173976713Y-78810184D01*
X174029670Y-78794635D01*
X174029672Y-78794634D01*
X174038316Y-78792096D01*
X174092951Y-78756984D01*
X174153691Y-78717949D01*
X174153694Y-78717947D01*
X174161271Y-78713077D01*
X174196556Y-78672356D01*
X174251082Y-78609431D01*
X174251084Y-78609428D01*
X174256984Y-78602619D01*
X174317700Y-78469670D01*
X174325668Y-78414249D01*
X174337861Y-78329448D01*
X174337862Y-78329441D01*
X174338500Y-78325000D01*
X174338500Y-77125000D01*
X174333273Y-77051921D01*
X174292096Y-76911684D01*
X174267574Y-76873528D01*
X174217949Y-76796309D01*
X174217947Y-76796306D01*
X174213077Y-76788729D01*
X174173531Y-76754462D01*
X174109431Y-76698918D01*
X174109428Y-76698916D01*
X174102619Y-76693016D01*
X174025735Y-76657904D01*
X173977864Y-76636042D01*
X173977863Y-76636042D01*
X173969670Y-76632300D01*
X173960755Y-76631018D01*
X173960754Y-76631018D01*
X173829448Y-76612139D01*
X173829441Y-76612138D01*
X173825000Y-76611500D01*
X172825000Y-76611500D01*
X172751921Y-76616727D01*
X172685663Y-76636182D01*
X172620330Y-76655365D01*
X172620328Y-76655366D01*
X172611684Y-76657904D01*
X172604103Y-76662776D01*
X172546770Y-76699622D01*
X172478649Y-76719625D01*
X172410526Y-76699622D01*
X172409429Y-76698917D01*
X172402619Y-76693016D01*
X172325735Y-76657904D01*
X172277864Y-76636042D01*
X172277863Y-76636042D01*
X172269670Y-76632300D01*
X172260755Y-76631018D01*
X172260754Y-76631018D01*
X172129448Y-76612139D01*
X172129441Y-76612138D01*
X172125000Y-76611500D01*
X171425000Y-76611500D01*
X171351921Y-76616727D01*
X171265328Y-76642153D01*
X171194332Y-76642153D01*
X171178266Y-76636161D01*
X171177869Y-76636044D01*
X171169670Y-76632300D01*
X171149947Y-76629464D01*
X171029448Y-76612139D01*
X171029441Y-76612138D01*
X171025000Y-76611500D01*
X170325000Y-76611500D01*
X170251921Y-76616727D01*
X170165328Y-76642153D01*
X170094332Y-76642153D01*
X170078266Y-76636161D01*
X170077869Y-76636044D01*
X170069670Y-76632300D01*
X170049947Y-76629464D01*
X169929448Y-76612139D01*
X169929441Y-76612138D01*
X169925000Y-76611500D01*
X169225000Y-76611500D01*
X169151921Y-76616727D01*
X169065328Y-76642153D01*
X168994332Y-76642153D01*
X168978266Y-76636161D01*
X168977869Y-76636044D01*
X168969670Y-76632300D01*
X168949947Y-76629464D01*
X168829448Y-76612139D01*
X168829441Y-76612138D01*
X168825000Y-76611500D01*
X168125000Y-76611500D01*
X168051921Y-76616727D01*
X167965328Y-76642153D01*
X167894332Y-76642153D01*
X167878266Y-76636161D01*
X167877869Y-76636044D01*
X167869670Y-76632300D01*
X167849947Y-76629464D01*
X167729448Y-76612139D01*
X167729441Y-76612138D01*
X167725000Y-76611500D01*
X167025000Y-76611500D01*
X166951921Y-76616727D01*
X166864602Y-76642366D01*
X166793607Y-76642366D01*
X166778737Y-76636820D01*
X166760612Y-76631498D01*
X166629446Y-76612639D01*
X166620505Y-76612000D01*
X166547115Y-76612000D01*
X166531876Y-76616475D01*
X166530671Y-76617865D01*
X166529000Y-76625548D01*
X166529000Y-76994268D01*
X166527718Y-77012199D01*
X166512139Y-77120552D01*
X166512138Y-77120559D01*
X166511500Y-77125000D01*
X166511500Y-77853000D01*
X166491498Y-77921121D01*
X166437842Y-77967614D01*
X166385500Y-77979000D01*
X166164500Y-77979000D01*
X166096379Y-77958998D01*
X166049886Y-77905342D01*
X166038500Y-77853000D01*
X166038500Y-77125000D01*
X166033273Y-77051921D01*
X166026104Y-77027504D01*
X166021000Y-76992008D01*
X166021000Y-76630115D01*
X166016525Y-76614876D01*
X166015135Y-76613671D01*
X166007452Y-76612000D01*
X165927257Y-76612000D01*
X165922750Y-76612161D01*
X165858731Y-76616740D01*
X165845512Y-76619125D01*
X165766017Y-76642467D01*
X165695020Y-76642467D01*
X165678171Y-76636182D01*
X165677866Y-76636043D01*
X165669670Y-76632300D01*
X165660755Y-76631018D01*
X165660754Y-76631018D01*
X165529448Y-76612139D01*
X165529441Y-76612138D01*
X165525000Y-76611500D01*
X164825000Y-76611500D01*
X164751921Y-76616727D01*
X164665328Y-76642153D01*
X164594332Y-76642153D01*
X164578266Y-76636161D01*
X164577869Y-76636044D01*
X164569670Y-76632300D01*
X164549947Y-76629464D01*
X164429448Y-76612139D01*
X164429441Y-76612138D01*
X164425000Y-76611500D01*
X163725000Y-76611500D01*
X163709076Y-76612639D01*
X163658658Y-76616245D01*
X163658657Y-76616245D01*
X163651921Y-76616727D01*
X163630870Y-76622908D01*
X163577440Y-76626729D01*
X163479463Y-76612642D01*
X163470494Y-76612000D01*
X163397115Y-76612000D01*
X163381876Y-76616475D01*
X163380671Y-76617865D01*
X163379000Y-76625548D01*
X163379000Y-76701155D01*
X163358998Y-76769276D01*
X163348224Y-76783668D01*
X163298918Y-76840569D01*
X163298916Y-76840572D01*
X163293016Y-76847381D01*
X163232300Y-76980330D01*
X163231018Y-76989245D01*
X163231018Y-76989246D01*
X163212139Y-77120552D01*
X163212138Y-77120559D01*
X163211500Y-77125000D01*
X163211500Y-78325000D01*
X163216727Y-78398079D01*
X163257904Y-78538316D01*
X163336923Y-78661271D01*
X163343733Y-78667172D01*
X163348225Y-78672356D01*
X163377718Y-78736937D01*
X163379000Y-78754868D01*
X163379000Y-78819885D01*
X163383475Y-78835124D01*
X163384865Y-78836329D01*
X163392548Y-78838000D01*
X163472743Y-78838000D01*
X163477250Y-78837839D01*
X163541267Y-78833260D01*
X163554491Y-78830874D01*
X163566803Y-78827259D01*
X163620232Y-78823437D01*
X163720552Y-78837861D01*
X163720559Y-78837862D01*
X163725000Y-78838500D01*
X163890406Y-78838500D01*
X163958527Y-78858502D01*
X163979501Y-78875405D01*
X165696629Y-80592533D01*
X165703989Y-80600621D01*
X165708047Y-80607015D01*
X165713824Y-80612440D01*
X165756898Y-80652889D01*
X165759740Y-80655644D01*
X165780053Y-80675957D01*
X165783184Y-80678386D01*
X165783460Y-80678600D01*
X165792483Y-80686306D01*
X165818943Y-80711154D01*
X165818947Y-80711157D01*
X165824719Y-80716577D01*
X165831659Y-80720393D01*
X165831664Y-80720396D01*
X165842474Y-80726339D01*
X165858994Y-80737191D01*
X165874996Y-80749603D01*
X165915566Y-80767159D01*
X165926227Y-80772382D01*
X165964972Y-80793682D01*
X165972654Y-80795654D01*
X165972655Y-80795655D01*
X165984597Y-80798722D01*
X166003292Y-80805122D01*
X166021884Y-80813167D01*
X166029713Y-80814407D01*
X166065548Y-80820083D01*
X166077169Y-80822490D01*
X166114238Y-80832007D01*
X166119995Y-80833485D01*
X166120551Y-80833520D01*
X166140473Y-80833520D01*
X166160182Y-80835071D01*
X166179964Y-80838204D01*
X166187856Y-80837458D01*
X166223602Y-80834079D01*
X166235460Y-80833520D01*
X166589561Y-80833520D01*
X166657682Y-80853522D01*
X166678656Y-80870425D01*
X168650824Y-82842593D01*
X168658184Y-82850681D01*
X168662242Y-82857075D01*
X168668019Y-82862500D01*
X168711093Y-82902949D01*
X168713935Y-82905704D01*
X168734248Y-82926017D01*
X168737659Y-82928662D01*
X168746679Y-82936366D01*
X168778914Y-82966637D01*
X168785859Y-82970455D01*
X168785862Y-82970457D01*
X168796667Y-82976397D01*
X168813194Y-82987253D01*
X168829191Y-82999662D01*
X168869770Y-83017223D01*
X168880402Y-83022431D01*
X168919167Y-83043742D01*
X168926844Y-83045713D01*
X168926849Y-83045715D01*
X168938781Y-83048778D01*
X168957489Y-83055183D01*
X168961828Y-83057060D01*
X168968807Y-83060081D01*
X168968811Y-83060082D01*
X168976078Y-83063227D01*
X168983902Y-83064466D01*
X168983905Y-83064467D01*
X169004716Y-83067763D01*
X169019752Y-83070144D01*
X169031360Y-83072548D01*
X169074190Y-83083545D01*
X169074746Y-83083580D01*
X169094668Y-83083580D01*
X169114377Y-83085131D01*
X169134159Y-83088264D01*
X169142051Y-83087518D01*
X169177797Y-83084139D01*
X169189655Y-83083580D01*
X173339790Y-83083580D01*
X173407911Y-83103582D01*
X173428885Y-83120485D01*
X173929555Y-83621155D01*
X173963581Y-83683467D01*
X173966460Y-83710250D01*
X173966461Y-86083325D01*
X173946459Y-86151446D01*
X173891712Y-86198431D01*
X173868230Y-86208886D01*
X173862889Y-86212766D01*
X173862888Y-86212767D01*
X173719073Y-86317254D01*
X173719071Y-86317256D01*
X173713729Y-86321137D01*
X173709308Y-86326047D01*
X173709307Y-86326048D01*
X173604877Y-86442030D01*
X173585943Y-86463058D01*
X173547506Y-86529633D01*
X173493935Y-86622421D01*
X173490456Y-86628446D01*
X173488414Y-86634731D01*
X173446159Y-86764780D01*
X173431442Y-86810073D01*
X173430752Y-86816636D01*
X173430752Y-86816637D01*
X173423260Y-86887920D01*
X173411480Y-87000000D01*
X173412170Y-87006565D01*
X173427248Y-87150019D01*
X173431442Y-87189927D01*
X173490456Y-87371554D01*
X173493759Y-87377276D01*
X173493760Y-87377277D01*
X173498573Y-87385613D01*
X173585943Y-87536942D01*
X173590361Y-87541849D01*
X173590362Y-87541850D01*
X173661375Y-87620718D01*
X173713729Y-87678863D01*
X173719069Y-87682742D01*
X173719077Y-87682750D01*
X173790407Y-87734573D01*
X173817921Y-87762096D01*
X173820467Y-87766401D01*
X173820835Y-87766819D01*
X173834918Y-87780902D01*
X173847759Y-87795935D01*
X173859535Y-87812143D01*
X173882102Y-87830812D01*
X173893307Y-87840081D01*
X173902088Y-87848072D01*
X173929555Y-87875539D01*
X173963581Y-87937851D01*
X173966460Y-87964634D01*
X173966461Y-91014796D01*
X173966461Y-94049942D01*
X173946459Y-94118063D01*
X173891711Y-94165048D01*
X173851961Y-94182746D01*
X173799280Y-94206201D01*
X173799278Y-94206202D01*
X173793250Y-94208886D01*
X173787909Y-94212766D01*
X173787908Y-94212767D01*
X173644093Y-94317254D01*
X173644091Y-94317256D01*
X173638749Y-94321137D01*
X173510963Y-94463058D01*
X173489160Y-94500822D01*
X173423165Y-94615129D01*
X173415476Y-94628446D01*
X173413434Y-94634731D01*
X173368745Y-94772271D01*
X173356462Y-94810073D01*
X173355772Y-94816636D01*
X173355772Y-94816637D01*
X173341998Y-94947693D01*
X173336500Y-95000000D01*
X173337190Y-95006565D01*
X173349490Y-95123588D01*
X173356462Y-95189927D01*
X173358502Y-95196205D01*
X173358502Y-95196206D01*
X173372965Y-95240718D01*
X173415476Y-95371554D01*
X173510963Y-95536942D01*
X173515381Y-95541849D01*
X173515382Y-95541850D01*
X173630520Y-95669724D01*
X173638749Y-95678863D01*
X173644091Y-95682744D01*
X173644093Y-95682746D01*
X173787908Y-95787233D01*
X173793250Y-95791114D01*
X173799278Y-95793798D01*
X173799280Y-95793799D01*
X173879035Y-95829308D01*
X173967713Y-95868790D01*
X174044845Y-95885185D01*
X174148056Y-95907124D01*
X174148061Y-95907124D01*
X174154513Y-95908496D01*
X174290481Y-95908496D01*
X174358602Y-95928498D01*
X174405095Y-95982154D01*
X174416481Y-96034496D01*
X174416481Y-96572194D01*
X174396479Y-96640315D01*
X174341730Y-96687300D01*
X174299288Y-96706197D01*
X174299283Y-96706200D01*
X174293250Y-96708886D01*
X174287909Y-96712766D01*
X174287908Y-96712767D01*
X174144093Y-96817254D01*
X174144091Y-96817256D01*
X174138749Y-96821137D01*
X174134328Y-96826047D01*
X174134327Y-96826048D01*
X174045429Y-96924780D01*
X174010963Y-96963058D01*
X173996404Y-96988275D01*
X173919176Y-97122038D01*
X173915476Y-97128446D01*
X173856462Y-97310073D01*
X173855772Y-97316636D01*
X173855772Y-97316637D01*
X173850847Y-97363500D01*
X173836500Y-97500000D01*
X173837190Y-97506565D01*
X173852758Y-97654681D01*
X173856462Y-97689927D01*
X173915476Y-97871554D01*
X174010963Y-98036942D01*
X174138749Y-98178863D01*
X174144091Y-98182744D01*
X174144093Y-98182746D01*
X174191408Y-98217122D01*
X174293250Y-98291114D01*
X174299278Y-98293798D01*
X174299280Y-98293799D01*
X174461682Y-98366105D01*
X174467713Y-98368790D01*
X174561113Y-98388643D01*
X174648056Y-98407124D01*
X174648061Y-98407124D01*
X174654513Y-98408496D01*
X174740501Y-98408496D01*
X174808622Y-98428498D01*
X174855115Y-98482154D01*
X174866501Y-98534496D01*
X174866501Y-102813948D01*
X174846499Y-102882069D01*
X174792843Y-102928562D01*
X174722569Y-102938666D01*
X174657989Y-102909172D01*
X174619081Y-102846288D01*
X174618440Y-102841212D01*
X174615523Y-102833844D01*
X174615521Y-102833837D01*
X174602163Y-102800099D01*
X174598318Y-102788869D01*
X174588197Y-102754031D01*
X174588196Y-102754030D01*
X174585986Y-102746421D01*
X174575676Y-102728988D01*
X174566982Y-102711241D01*
X174559522Y-102692400D01*
X174533533Y-102656629D01*
X174527017Y-102646710D01*
X174515524Y-102627277D01*
X174504513Y-102608658D01*
X174504145Y-102608240D01*
X174490063Y-102594158D01*
X174477222Y-102579125D01*
X174470103Y-102569327D01*
X174465446Y-102562917D01*
X174431664Y-102534970D01*
X174422885Y-102526980D01*
X174197118Y-102301213D01*
X174163092Y-102238901D01*
X174160903Y-102225289D01*
X174144228Y-102066637D01*
X174144228Y-102066636D01*
X174143538Y-102060073D01*
X174084524Y-101878446D01*
X174071865Y-101856519D01*
X173992338Y-101718776D01*
X173989037Y-101713058D01*
X173982895Y-101706236D01*
X173865673Y-101576048D01*
X173865672Y-101576047D01*
X173861251Y-101571137D01*
X173855909Y-101567256D01*
X173855907Y-101567254D01*
X173712092Y-101462767D01*
X173712091Y-101462766D01*
X173706750Y-101458886D01*
X173700722Y-101456202D01*
X173700720Y-101456201D01*
X173538318Y-101383895D01*
X173538317Y-101383895D01*
X173532287Y-101381210D01*
X173438887Y-101361357D01*
X173351944Y-101342876D01*
X173351939Y-101342876D01*
X173345487Y-101341504D01*
X173289598Y-101341504D01*
X173221477Y-101321502D01*
X173200503Y-101304599D01*
X172420405Y-100524501D01*
X172386379Y-100462189D01*
X172383500Y-100435406D01*
X172383500Y-100139565D01*
X172388605Y-100104064D01*
X172388956Y-100102867D01*
X172392700Y-100094670D01*
X172401839Y-100031108D01*
X172412861Y-99954448D01*
X172412862Y-99954441D01*
X172413500Y-99950000D01*
X172413500Y-99150000D01*
X172408273Y-99076921D01*
X172372092Y-98953699D01*
X172369635Y-98945330D01*
X172369634Y-98945328D01*
X172367096Y-98936684D01*
X172321393Y-98865569D01*
X172292949Y-98821309D01*
X172292947Y-98821306D01*
X172288077Y-98813729D01*
X172281267Y-98807828D01*
X172184431Y-98723918D01*
X172184428Y-98723916D01*
X172177619Y-98718016D01*
X172044670Y-98657300D01*
X172035755Y-98656018D01*
X172035754Y-98656018D01*
X171904448Y-98637139D01*
X171904441Y-98637138D01*
X171900000Y-98636500D01*
X171600000Y-98636500D01*
X171526921Y-98641727D01*
X171520438Y-98643631D01*
X171513796Y-98644829D01*
X171513548Y-98643452D01*
X171470022Y-98646567D01*
X171404459Y-98637140D01*
X171404444Y-98637139D01*
X171400000Y-98636500D01*
X171100000Y-98636500D01*
X171026921Y-98641727D01*
X171020438Y-98643631D01*
X171013796Y-98644829D01*
X171013548Y-98643452D01*
X170970022Y-98646567D01*
X170904459Y-98637140D01*
X170904444Y-98637139D01*
X170900000Y-98636500D01*
X170600000Y-98636500D01*
X170526921Y-98641727D01*
X170520438Y-98643631D01*
X170513796Y-98644829D01*
X170513548Y-98643452D01*
X170470022Y-98646567D01*
X170404459Y-98637140D01*
X170404444Y-98637139D01*
X170400000Y-98636500D01*
X170100000Y-98636500D01*
X170026921Y-98641727D01*
X169973884Y-98657300D01*
X169895330Y-98680365D01*
X169895328Y-98680366D01*
X169886684Y-98682904D01*
X169879105Y-98687775D01*
X169771309Y-98757051D01*
X169771306Y-98757053D01*
X169763729Y-98761923D01*
X169757828Y-98768733D01*
X169673918Y-98865569D01*
X169673916Y-98865572D01*
X169668016Y-98872381D01*
X169607300Y-99005330D01*
X169606018Y-99014245D01*
X169606018Y-99014246D01*
X169587139Y-99145552D01*
X169587138Y-99145559D01*
X169586500Y-99150000D01*
X169586500Y-99950000D01*
X169586661Y-99952250D01*
X169588836Y-99982653D01*
X169591727Y-100023079D01*
X169606772Y-100074316D01*
X169611397Y-100090068D01*
X169616501Y-100125567D01*
X169616500Y-100690453D01*
X169614949Y-100710163D01*
X169611816Y-100729945D01*
X169612562Y-100737837D01*
X169615941Y-100773583D01*
X169616500Y-100785441D01*
X169616500Y-100789563D01*
X169616501Y-100789591D01*
X169616500Y-101935405D01*
X169596498Y-102003526D01*
X169579600Y-102024495D01*
X168607468Y-102996628D01*
X168599400Y-103003969D01*
X168593006Y-103008027D01*
X168587579Y-103013806D01*
X168587578Y-103013807D01*
X168547148Y-103056861D01*
X168544393Y-103059703D01*
X168524062Y-103080034D01*
X168521628Y-103083171D01*
X168521626Y-103083174D01*
X168521403Y-103083461D01*
X168513707Y-103092471D01*
X168513222Y-103092988D01*
X168483444Y-103124699D01*
X168479628Y-103131640D01*
X168479626Y-103131643D01*
X168473688Y-103142445D01*
X168462834Y-103158968D01*
X168457273Y-103166138D01*
X168450417Y-103174977D01*
X168447269Y-103182252D01*
X168432859Y-103215551D01*
X168427637Y-103226211D01*
X168413645Y-103251663D01*
X168406339Y-103264952D01*
X168401301Y-103284572D01*
X168394902Y-103303264D01*
X168386853Y-103321865D01*
X168385614Y-103329691D01*
X168385612Y-103329696D01*
X168384933Y-103333983D01*
X168383471Y-103337068D01*
X168383401Y-103337307D01*
X168383362Y-103337296D01*
X168354518Y-103398135D01*
X168303477Y-103432706D01*
X168263886Y-103447077D01*
X168208137Y-103467313D01*
X168060254Y-103564269D01*
X167938643Y-103692645D01*
X167849826Y-103845555D01*
X167847703Y-103852563D01*
X167847703Y-103852564D01*
X167840300Y-103877006D01*
X167798567Y-104014796D01*
X167797993Y-104021232D01*
X167797992Y-104021235D01*
X167791749Y-104091185D01*
X167791500Y-104093978D01*
X167791500Y-104892885D01*
X167801599Y-104979502D01*
X167804377Y-105003329D01*
X167806978Y-105025642D01*
X167809474Y-105032520D01*
X167809475Y-105032522D01*
X167842315Y-105122994D01*
X167867313Y-105191863D01*
X167964269Y-105339746D01*
X167969581Y-105344778D01*
X168035481Y-105407206D01*
X168071179Y-105468576D01*
X168068031Y-105539502D01*
X168040301Y-105585332D01*
X167938643Y-105692645D01*
X167849826Y-105845555D01*
X167847703Y-105852563D01*
X167847703Y-105852564D01*
X167840300Y-105877006D01*
X167798567Y-106014796D01*
X167797993Y-106021232D01*
X167797992Y-106021235D01*
X167791749Y-106091185D01*
X167791500Y-106093978D01*
X167791500Y-106892885D01*
X167806978Y-107025642D01*
X167809474Y-107032520D01*
X167809475Y-107032522D01*
X167833264Y-107098059D01*
X167867313Y-107191863D01*
X167964269Y-107339746D01*
X168092645Y-107461357D01*
X168245555Y-107550174D01*
X168252562Y-107552296D01*
X168252566Y-107552298D01*
X168277023Y-107559705D01*
X168336421Y-107598594D01*
X168365365Y-107663423D01*
X168366500Y-107680295D01*
X168366500Y-107685406D01*
X168346498Y-107753527D01*
X168329595Y-107774501D01*
X168274501Y-107829595D01*
X168212189Y-107863621D01*
X168185406Y-107866500D01*
X167059546Y-107866500D01*
X167039837Y-107864949D01*
X167020055Y-107861816D01*
X167012163Y-107862562D01*
X166976418Y-107865941D01*
X166964560Y-107866500D01*
X164814595Y-107866500D01*
X164746474Y-107846498D01*
X164725500Y-107829595D01*
X164067758Y-107171853D01*
X163399749Y-106503845D01*
X163365724Y-106441533D01*
X163370788Y-106370718D01*
X163413335Y-106313882D01*
X163437592Y-106299645D01*
X163450713Y-106293803D01*
X163450722Y-106293798D01*
X163456750Y-106291114D01*
X163462092Y-106287233D01*
X163605907Y-106182746D01*
X163605909Y-106182744D01*
X163611251Y-106178863D01*
X163656366Y-106128758D01*
X163716810Y-106091520D01*
X163787794Y-106092872D01*
X163843634Y-106128758D01*
X163888749Y-106178863D01*
X163894091Y-106182744D01*
X163894093Y-106182746D01*
X164037908Y-106287233D01*
X164043250Y-106291114D01*
X164049278Y-106293798D01*
X164049280Y-106293799D01*
X164211682Y-106366105D01*
X164217713Y-106368790D01*
X164311113Y-106388643D01*
X164398056Y-106407124D01*
X164398061Y-106407124D01*
X164404513Y-106408496D01*
X164595487Y-106408496D01*
X164601939Y-106407124D01*
X164601944Y-106407124D01*
X164688887Y-106388643D01*
X164782287Y-106368790D01*
X164788318Y-106366105D01*
X164950720Y-106293799D01*
X164950722Y-106293798D01*
X164956750Y-106291114D01*
X164962092Y-106287233D01*
X165105907Y-106182746D01*
X165105909Y-106182744D01*
X165111251Y-106178863D01*
X165163964Y-106120319D01*
X165234618Y-106041850D01*
X165234619Y-106041849D01*
X165239037Y-106036942D01*
X165334524Y-105871554D01*
X165393538Y-105689927D01*
X165402937Y-105600506D01*
X165412810Y-105506565D01*
X165413500Y-105500000D01*
X165409439Y-105461358D01*
X165394228Y-105316637D01*
X165394228Y-105316636D01*
X165393538Y-105310073D01*
X165334524Y-105128446D01*
X165239037Y-104963058D01*
X165179132Y-104896526D01*
X165115673Y-104826048D01*
X165115672Y-104826047D01*
X165111251Y-104821137D01*
X165105909Y-104817256D01*
X165105907Y-104817254D01*
X164962092Y-104712767D01*
X164962091Y-104712766D01*
X164956750Y-104708886D01*
X164950722Y-104706202D01*
X164950720Y-104706201D01*
X164788318Y-104633895D01*
X164788317Y-104633895D01*
X164782287Y-104631210D01*
X164733303Y-104620798D01*
X164670829Y-104587069D01*
X164636508Y-104524920D01*
X164633500Y-104497551D01*
X164633500Y-97814594D01*
X164653502Y-97746473D01*
X164670405Y-97725499D01*
X165725499Y-96670405D01*
X165787811Y-96636379D01*
X165814594Y-96633500D01*
X166791806Y-96633500D01*
X166859927Y-96653502D01*
X166879151Y-96669842D01*
X166879425Y-96669538D01*
X166884327Y-96673952D01*
X166888749Y-96678863D01*
X166894091Y-96682744D01*
X166894093Y-96682746D01*
X167025310Y-96778080D01*
X167043250Y-96791114D01*
X167049278Y-96793798D01*
X167049280Y-96793799D01*
X167198406Y-96860194D01*
X167217713Y-96868790D01*
X167311113Y-96888643D01*
X167398056Y-96907124D01*
X167398061Y-96907124D01*
X167404513Y-96908496D01*
X167595487Y-96908496D01*
X167601939Y-96907124D01*
X167601944Y-96907124D01*
X167688887Y-96888643D01*
X167782287Y-96868790D01*
X167801594Y-96860194D01*
X167950720Y-96793799D01*
X167950722Y-96793798D01*
X167956750Y-96791114D01*
X167974690Y-96778080D01*
X168105907Y-96682746D01*
X168105909Y-96682744D01*
X168111251Y-96678863D01*
X168152096Y-96633500D01*
X168234618Y-96541850D01*
X168234619Y-96541849D01*
X168239037Y-96536942D01*
X168334524Y-96371554D01*
X168362175Y-96286452D01*
X168391498Y-96196206D01*
X168391498Y-96196205D01*
X168393538Y-96189927D01*
X168413500Y-96000000D01*
X168393538Y-95810073D01*
X168334524Y-95628446D01*
X168239037Y-95463058D01*
X168123112Y-95334310D01*
X168092394Y-95270303D01*
X168101159Y-95199849D01*
X168123112Y-95165690D01*
X168234618Y-95041850D01*
X168234619Y-95041849D01*
X168239037Y-95036942D01*
X168334524Y-94871554D01*
X168393538Y-94689927D01*
X168398536Y-94642373D01*
X168404015Y-94590249D01*
X168431029Y-94524592D01*
X168489250Y-94483963D01*
X168560195Y-94481260D01*
X168618420Y-94514325D01*
X169579595Y-95475500D01*
X169613621Y-95537812D01*
X169616500Y-95564595D01*
X169616500Y-95860435D01*
X169611395Y-95895936D01*
X169611044Y-95897133D01*
X169607300Y-95905330D01*
X169606018Y-95914247D01*
X169587139Y-96045552D01*
X169587138Y-96045559D01*
X169586500Y-96050000D01*
X169586500Y-96850000D01*
X169591727Y-96923079D01*
X169598762Y-96947037D01*
X169626158Y-97040340D01*
X169632904Y-97063316D01*
X169637775Y-97070895D01*
X169707051Y-97178691D01*
X169707053Y-97178694D01*
X169711923Y-97186271D01*
X169718733Y-97192172D01*
X169815569Y-97276082D01*
X169815572Y-97276084D01*
X169822381Y-97281984D01*
X169830579Y-97285728D01*
X169852575Y-97295773D01*
X169955330Y-97342700D01*
X169964245Y-97343982D01*
X169964246Y-97343982D01*
X170095552Y-97362861D01*
X170095559Y-97362862D01*
X170100000Y-97363500D01*
X170400000Y-97363500D01*
X170473079Y-97358273D01*
X170479562Y-97356369D01*
X170486204Y-97355171D01*
X170486452Y-97356548D01*
X170529978Y-97353433D01*
X170595541Y-97362860D01*
X170595556Y-97362861D01*
X170600000Y-97363500D01*
X170900000Y-97363500D01*
X170973079Y-97358273D01*
X170979562Y-97356369D01*
X170986204Y-97355171D01*
X170986452Y-97356548D01*
X171029978Y-97353433D01*
X171095541Y-97362860D01*
X171095556Y-97362861D01*
X171100000Y-97363500D01*
X171400000Y-97363500D01*
X171423844Y-97361795D01*
X171466342Y-97358755D01*
X171466343Y-97358755D01*
X171473079Y-97358273D01*
X171479559Y-97356370D01*
X171486206Y-97355171D01*
X171486409Y-97356295D01*
X171531124Y-97353097D01*
X171582066Y-97360422D01*
X171597791Y-97358161D01*
X171600368Y-97355928D01*
X171632104Y-97306546D01*
X171646495Y-97295773D01*
X171706029Y-97257513D01*
X171774150Y-97237511D01*
X171842271Y-97257513D01*
X171888764Y-97311169D01*
X171895046Y-97328013D01*
X171904384Y-97359814D01*
X171915785Y-97361871D01*
X171966269Y-97358260D01*
X171979491Y-97355874D01*
X172104458Y-97319181D01*
X172120692Y-97311767D01*
X172228360Y-97242574D01*
X172241847Y-97230888D01*
X172325662Y-97134160D01*
X172335307Y-97119152D01*
X172388477Y-97002725D01*
X172393502Y-96985612D01*
X172412361Y-96854446D01*
X172413000Y-96845503D01*
X172413000Y-96618115D01*
X172408525Y-96602876D01*
X172407135Y-96601671D01*
X172399452Y-96600000D01*
X172039500Y-96600000D01*
X171971379Y-96579998D01*
X171924886Y-96526342D01*
X171913500Y-96474000D01*
X171913500Y-96426000D01*
X171933502Y-96357879D01*
X171987158Y-96311386D01*
X172039500Y-96300000D01*
X172394885Y-96300000D01*
X172410124Y-96295525D01*
X172411329Y-96294135D01*
X172413000Y-96286452D01*
X172413000Y-96052257D01*
X172412839Y-96047750D01*
X172408260Y-95983731D01*
X172405874Y-95970509D01*
X172369181Y-95845542D01*
X172361767Y-95829308D01*
X172292574Y-95721640D01*
X172280888Y-95708153D01*
X172184160Y-95624338D01*
X172169152Y-95614693D01*
X172052725Y-95561523D01*
X172035605Y-95556496D01*
X171991568Y-95550164D01*
X171926987Y-95520671D01*
X171888604Y-95460945D01*
X171883500Y-95425447D01*
X171883500Y-94564594D01*
X171903502Y-94496473D01*
X171920405Y-94475499D01*
X171950503Y-94445401D01*
X172012815Y-94411375D01*
X172039598Y-94408496D01*
X172095487Y-94408496D01*
X172101939Y-94407124D01*
X172101944Y-94407124D01*
X172188887Y-94388643D01*
X172282287Y-94368790D01*
X172288318Y-94366105D01*
X172450720Y-94293799D01*
X172450722Y-94293798D01*
X172456750Y-94291114D01*
X172462092Y-94287233D01*
X172605907Y-94182746D01*
X172605909Y-94182744D01*
X172611251Y-94178863D01*
X172653656Y-94131767D01*
X172734618Y-94041850D01*
X172734619Y-94041849D01*
X172739037Y-94036942D01*
X172818087Y-93900023D01*
X172831220Y-93877277D01*
X172831221Y-93877276D01*
X172834524Y-93871554D01*
X172893538Y-93689927D01*
X172898106Y-93646469D01*
X172910838Y-93525332D01*
X172937851Y-93459675D01*
X172944294Y-93452254D01*
X172952850Y-93443142D01*
X172955609Y-93440296D01*
X172975938Y-93419967D01*
X172978590Y-93416547D01*
X172986297Y-93407524D01*
X173011130Y-93381080D01*
X173016557Y-93375301D01*
X173020374Y-93368357D01*
X173020378Y-93368352D01*
X173026316Y-93357550D01*
X173037172Y-93341023D01*
X173044724Y-93331287D01*
X173049583Y-93325023D01*
X173067142Y-93284447D01*
X173072363Y-93273790D01*
X173075040Y-93268921D01*
X173093662Y-93235048D01*
X173095765Y-93226858D01*
X173098699Y-93215432D01*
X173105103Y-93196728D01*
X173109999Y-93185415D01*
X173110001Y-93185408D01*
X173113148Y-93178136D01*
X173120065Y-93134465D01*
X173122472Y-93122844D01*
X173131987Y-93085782D01*
X173131987Y-93085781D01*
X173133465Y-93080025D01*
X173133500Y-93079469D01*
X173133500Y-93059548D01*
X173135051Y-93039838D01*
X173136944Y-93027886D01*
X173136944Y-93027885D01*
X173138184Y-93020056D01*
X173134059Y-92976417D01*
X173133500Y-92964560D01*
X173133500Y-92678478D01*
X173153502Y-92610357D01*
X173207158Y-92563864D01*
X173216505Y-92560041D01*
X173291863Y-92532687D01*
X173439746Y-92435731D01*
X173561357Y-92307355D01*
X173650174Y-92154445D01*
X173659700Y-92122995D01*
X173699559Y-91991391D01*
X173701433Y-91985204D01*
X173702954Y-91968171D01*
X173708251Y-91908815D01*
X173708251Y-91908809D01*
X173708500Y-91906022D01*
X173708500Y-91107115D01*
X173693022Y-90974358D01*
X173658898Y-90880346D01*
X173635184Y-90815016D01*
X173632687Y-90808137D01*
X173553483Y-90687331D01*
X173539743Y-90666373D01*
X173539742Y-90666372D01*
X173535731Y-90660254D01*
X173523545Y-90648710D01*
X173464519Y-90592794D01*
X173428821Y-90531424D01*
X173431969Y-90460498D01*
X173459699Y-90414668D01*
X173556323Y-90312669D01*
X173561357Y-90307355D01*
X173650174Y-90154445D01*
X173659700Y-90122995D01*
X173699559Y-89991391D01*
X173701433Y-89985204D01*
X173702205Y-89976562D01*
X173708251Y-89908815D01*
X173708251Y-89908809D01*
X173708500Y-89906022D01*
X173708500Y-89107115D01*
X173694489Y-88986937D01*
X173693870Y-88981630D01*
X173693870Y-88981629D01*
X173693022Y-88974358D01*
X173662497Y-88890261D01*
X173635184Y-88815016D01*
X173632687Y-88808137D01*
X173535731Y-88660254D01*
X173407355Y-88538643D01*
X173254445Y-88449826D01*
X173203974Y-88434540D01*
X173144580Y-88395653D01*
X173119114Y-88346547D01*
X173118440Y-88341212D01*
X173115521Y-88333838D01*
X173115519Y-88333832D01*
X173102164Y-88300101D01*
X173098319Y-88288872D01*
X173088197Y-88254031D01*
X173088197Y-88254030D01*
X173085986Y-88246421D01*
X173075676Y-88228988D01*
X173066982Y-88211241D01*
X173059522Y-88192400D01*
X173033533Y-88156629D01*
X173027017Y-88146710D01*
X173007543Y-88113782D01*
X173004513Y-88108658D01*
X173004145Y-88108241D01*
X172990062Y-88094158D01*
X172977228Y-88079133D01*
X172965446Y-88062917D01*
X172931665Y-88034971D01*
X172922886Y-88026982D01*
X172503391Y-87607487D01*
X172496031Y-87599399D01*
X172491973Y-87593005D01*
X172443121Y-87547130D01*
X172440280Y-87544376D01*
X172419966Y-87524062D01*
X172416555Y-87521417D01*
X172407533Y-87513711D01*
X172396758Y-87503592D01*
X172375301Y-87483443D01*
X172368357Y-87479626D01*
X172368355Y-87479624D01*
X172357547Y-87473682D01*
X172341023Y-87462828D01*
X172331286Y-87455275D01*
X172331285Y-87455275D01*
X172325023Y-87450417D01*
X172317750Y-87447270D01*
X172317747Y-87447268D01*
X172293006Y-87436562D01*
X172284458Y-87432863D01*
X172273800Y-87427642D01*
X172241994Y-87410156D01*
X172241990Y-87410154D01*
X172235048Y-87406338D01*
X172227373Y-87404368D01*
X172227372Y-87404367D01*
X172215426Y-87401300D01*
X172196719Y-87394895D01*
X172185410Y-87390001D01*
X172185408Y-87390001D01*
X172178135Y-87386853D01*
X172170307Y-87385613D01*
X172170306Y-87385613D01*
X172134473Y-87379938D01*
X172122848Y-87377530D01*
X172085782Y-87368013D01*
X172085780Y-87368013D01*
X172080025Y-87366535D01*
X172079469Y-87366500D01*
X172059546Y-87366500D01*
X172039837Y-87364949D01*
X172020055Y-87361816D01*
X171983527Y-87365269D01*
X171976418Y-87365941D01*
X171964560Y-87366500D01*
X170814594Y-87366500D01*
X170746473Y-87346498D01*
X170725499Y-87329595D01*
X170490062Y-87094158D01*
X170477228Y-87079133D01*
X170465446Y-87062917D01*
X170431665Y-87034971D01*
X170422886Y-87026982D01*
X168990062Y-85594158D01*
X168977228Y-85579133D01*
X168965446Y-85562917D01*
X168931665Y-85534971D01*
X168922886Y-85526982D01*
X168280404Y-84884500D01*
X168246378Y-84822188D01*
X168243499Y-84795405D01*
X168243499Y-84202519D01*
X168263501Y-84134398D01*
X168275863Y-84118209D01*
X168344617Y-84041850D01*
X168344618Y-84041849D01*
X168349036Y-84036942D01*
X168444523Y-83871554D01*
X168503537Y-83689927D01*
X168523499Y-83500000D01*
X168503537Y-83310073D01*
X168492348Y-83275635D01*
X168464523Y-83190000D01*
X168444523Y-83128446D01*
X168349036Y-82963058D01*
X168318061Y-82928656D01*
X168225672Y-82826048D01*
X168225671Y-82826047D01*
X168221250Y-82821137D01*
X168215908Y-82817256D01*
X168215906Y-82817254D01*
X168072091Y-82712767D01*
X168072090Y-82712766D01*
X168066749Y-82708886D01*
X168060721Y-82706202D01*
X168060719Y-82706201D01*
X167898317Y-82633895D01*
X167898316Y-82633895D01*
X167892286Y-82631210D01*
X167774526Y-82606179D01*
X167711943Y-82592876D01*
X167711938Y-82592876D01*
X167705486Y-82591504D01*
X167514512Y-82591504D01*
X167508060Y-82592876D01*
X167508055Y-82592876D01*
X167445472Y-82606179D01*
X167327712Y-82631210D01*
X167321682Y-82633895D01*
X167321681Y-82633895D01*
X167159279Y-82706201D01*
X167159277Y-82706202D01*
X167153249Y-82708886D01*
X167147908Y-82712766D01*
X167147907Y-82712767D01*
X167004092Y-82817254D01*
X167004090Y-82817256D01*
X166998748Y-82821137D01*
X166994327Y-82826047D01*
X166994326Y-82826048D01*
X166901938Y-82928656D01*
X166870962Y-82963058D01*
X166775475Y-83128446D01*
X166755475Y-83190000D01*
X166727651Y-83275635D01*
X166716461Y-83310073D01*
X166696499Y-83500000D01*
X166716461Y-83689927D01*
X166775475Y-83871554D01*
X166870962Y-84036942D01*
X166875380Y-84041849D01*
X166875381Y-84041850D01*
X166944135Y-84118209D01*
X166974853Y-84182216D01*
X166976499Y-84202519D01*
X166976500Y-85031604D01*
X166975986Y-85042518D01*
X166974333Y-85049911D01*
X166974582Y-85057836D01*
X166974582Y-85057837D01*
X166976438Y-85116883D01*
X166976500Y-85120841D01*
X166976500Y-85149577D01*
X166976995Y-85153494D01*
X166977039Y-85153843D01*
X166977971Y-85165677D01*
X166979361Y-85209882D01*
X166981574Y-85217498D01*
X166981574Y-85217500D01*
X166985013Y-85229338D01*
X166989022Y-85248697D01*
X166991560Y-85268787D01*
X166994480Y-85276162D01*
X167007832Y-85309888D01*
X167011677Y-85321117D01*
X167024013Y-85363577D01*
X167028048Y-85370400D01*
X167034326Y-85381016D01*
X167043022Y-85398768D01*
X167050478Y-85417599D01*
X167055140Y-85424015D01*
X167076467Y-85453370D01*
X167082982Y-85463288D01*
X167105486Y-85501340D01*
X167105854Y-85501758D01*
X167119937Y-85515841D01*
X167132778Y-85530874D01*
X167144554Y-85547082D01*
X167150661Y-85552134D01*
X167178329Y-85575023D01*
X167187109Y-85583013D01*
X167829595Y-86225499D01*
X167863621Y-86287811D01*
X167866500Y-86314594D01*
X167866501Y-93421600D01*
X167865986Y-93432520D01*
X167864334Y-93439912D01*
X167864583Y-93447834D01*
X167865891Y-93489437D01*
X167848039Y-93558152D01*
X167795871Y-93606308D01*
X167725949Y-93618615D01*
X167713756Y-93616643D01*
X167601944Y-93592876D01*
X167601939Y-93592876D01*
X167595487Y-93591504D01*
X167404513Y-93591504D01*
X167398061Y-93592876D01*
X167398056Y-93592876D01*
X167334866Y-93606308D01*
X167217713Y-93631210D01*
X167211683Y-93633895D01*
X167211682Y-93633895D01*
X167049280Y-93706201D01*
X167049278Y-93706202D01*
X167043250Y-93708886D01*
X167037909Y-93712766D01*
X167037908Y-93712767D01*
X166894093Y-93817254D01*
X166894091Y-93817256D01*
X166888749Y-93821137D01*
X166884328Y-93826047D01*
X166879425Y-93830462D01*
X166878299Y-93829211D01*
X166825000Y-93862049D01*
X166791806Y-93866500D01*
X166441959Y-93866500D01*
X166431055Y-93865986D01*
X166423664Y-93864334D01*
X166415739Y-93864583D01*
X166415738Y-93864583D01*
X166356723Y-93866438D01*
X166352765Y-93866500D01*
X166323998Y-93866500D01*
X166319713Y-93867041D01*
X166307879Y-93867973D01*
X166281862Y-93868791D01*
X166271612Y-93869113D01*
X166271611Y-93869113D01*
X166263692Y-93869362D01*
X166256084Y-93871572D01*
X166256079Y-93871573D01*
X166244237Y-93875013D01*
X166224883Y-93879021D01*
X166212655Y-93880566D01*
X166204788Y-93881560D01*
X166197420Y-93884477D01*
X166197413Y-93884479D01*
X166163675Y-93897837D01*
X166152445Y-93901682D01*
X166117607Y-93911803D01*
X166117606Y-93911804D01*
X166109997Y-93914014D01*
X166092564Y-93924324D01*
X166074817Y-93933018D01*
X166055976Y-93940478D01*
X166049561Y-93945139D01*
X166020205Y-93966467D01*
X166010288Y-93972982D01*
X165972234Y-93995487D01*
X165971816Y-93995855D01*
X165957734Y-94009937D01*
X165942701Y-94022778D01*
X165926493Y-94034554D01*
X165914910Y-94048556D01*
X165898552Y-94068329D01*
X165890562Y-94077109D01*
X164498896Y-95468776D01*
X163107478Y-96860194D01*
X163099400Y-96867545D01*
X163093006Y-96871603D01*
X163087579Y-96877382D01*
X163087578Y-96877383D01*
X163047148Y-96920437D01*
X163044393Y-96923279D01*
X163024062Y-96943610D01*
X163021628Y-96946747D01*
X163021626Y-96946750D01*
X163021403Y-96947037D01*
X163013707Y-96956047D01*
X162990251Y-96981026D01*
X162983444Y-96988275D01*
X162979628Y-96995216D01*
X162979626Y-96995219D01*
X162973688Y-97006021D01*
X162962834Y-97022544D01*
X162955278Y-97032286D01*
X162950417Y-97038553D01*
X162947269Y-97045828D01*
X162932859Y-97079127D01*
X162927637Y-97089787D01*
X162911494Y-97119152D01*
X162906339Y-97128528D01*
X162901301Y-97148148D01*
X162894902Y-97166840D01*
X162886853Y-97185441D01*
X162885614Y-97193265D01*
X162885613Y-97193268D01*
X162883949Y-97203776D01*
X162853536Y-97267929D01*
X162793268Y-97305456D01*
X162722279Y-97304442D01*
X162663107Y-97265209D01*
X162634539Y-97200214D01*
X162633500Y-97184065D01*
X162633500Y-78962892D01*
X162653502Y-78894771D01*
X162707158Y-78848278D01*
X162768484Y-78837213D01*
X162779493Y-78838000D01*
X162852885Y-78838000D01*
X162868124Y-78833525D01*
X162869329Y-78832135D01*
X162871000Y-78824452D01*
X162871000Y-76630117D01*
X162868181Y-76620516D01*
X162868181Y-76549519D01*
X162899982Y-76495922D01*
X163966897Y-75429008D01*
X165225500Y-74170405D01*
X165287812Y-74136379D01*
X165314595Y-74133500D01*
X175421617Y-74133500D01*
X175432521Y-74134014D01*
X175439912Y-74135666D01*
X175447837Y-74135417D01*
X175447838Y-74135417D01*
X175506853Y-74133562D01*
X175510811Y-74133500D01*
X175539578Y-74133500D01*
X175543502Y-74133004D01*
X175543504Y-74133004D01*
X175543852Y-74132960D01*
X175555698Y-74132027D01*
X175599883Y-74130638D01*
X175619339Y-74124986D01*
X175638679Y-74120981D01*
X175658788Y-74118440D01*
X175666158Y-74115522D01*
X175666162Y-74115521D01*
X175699900Y-74102163D01*
X175711130Y-74098318D01*
X175745968Y-74088197D01*
X175745969Y-74088197D01*
X175753578Y-74085986D01*
X175771012Y-74075676D01*
X175788764Y-74066980D01*
X175800225Y-74062442D01*
X175800224Y-74062442D01*
X175807600Y-74059522D01*
X175843375Y-74033530D01*
X175853294Y-74027014D01*
X175891341Y-74004513D01*
X175891759Y-74004145D01*
X175905842Y-73990062D01*
X175920876Y-73977221D01*
X175930669Y-73970106D01*
X175937083Y-73965446D01*
X175965024Y-73931671D01*
X175973014Y-73922890D01*
X176392528Y-73503377D01*
X176400606Y-73496028D01*
X176406995Y-73491973D01*
X176452855Y-73443137D01*
X176455609Y-73440296D01*
X176475938Y-73419967D01*
X176478373Y-73416828D01*
X176479851Y-73415151D01*
X176539904Y-73377281D01*
X176610898Y-73377890D01*
X176670293Y-73416784D01*
X176693572Y-73457663D01*
X176724773Y-73548793D01*
X176835059Y-73746937D01*
X176978690Y-73922421D01*
X176982953Y-73926062D01*
X176982958Y-73926067D01*
X177104693Y-74030038D01*
X177151127Y-74069696D01*
X177251632Y-74128426D01*
X177340473Y-74180340D01*
X177346919Y-74184107D01*
X177352196Y-74186038D01*
X177355983Y-74187820D01*
X177409104Y-74234923D01*
X177428327Y-74303268D01*
X177407548Y-74371156D01*
X177360125Y-74413795D01*
X177269195Y-74460728D01*
X177206553Y-74493060D01*
X177026645Y-74631108D01*
X177022872Y-74635254D01*
X177022867Y-74635259D01*
X176886891Y-74784695D01*
X176874026Y-74798834D01*
X176753521Y-74990935D01*
X176668939Y-75201340D01*
X176622953Y-75423398D01*
X176617017Y-75650089D01*
X176651318Y-75874249D01*
X176724773Y-76088793D01*
X176835059Y-76286937D01*
X176838612Y-76291277D01*
X176838614Y-76291281D01*
X176904187Y-76371396D01*
X176978690Y-76462421D01*
X176982953Y-76466062D01*
X176982958Y-76466067D01*
X177132028Y-76593384D01*
X177151127Y-76609696D01*
X177233626Y-76657904D01*
X177340473Y-76720340D01*
X177346919Y-76724107D01*
X177352196Y-76726038D01*
X177355983Y-76727820D01*
X177409104Y-76774923D01*
X177428327Y-76843268D01*
X177407548Y-76911156D01*
X177360125Y-76953795D01*
X177289943Y-76990019D01*
X177206553Y-77033060D01*
X177026645Y-77171108D01*
X177022872Y-77175254D01*
X177022867Y-77175259D01*
X176934244Y-77272655D01*
X176874026Y-77338834D01*
X176871043Y-77343590D01*
X176871041Y-77343592D01*
X176826302Y-77414913D01*
X176753521Y-77530935D01*
X176668939Y-77741340D01*
X176667800Y-77746841D01*
X176636680Y-77897115D01*
X176622953Y-77963398D01*
X176617017Y-78190089D01*
X176651318Y-78414249D01*
X176724773Y-78628793D01*
X176835059Y-78826937D01*
X176838612Y-78831277D01*
X176838614Y-78831281D01*
X176852526Y-78848278D01*
X176978690Y-79002421D01*
X176982953Y-79006062D01*
X176982958Y-79006067D01*
X177129472Y-79131201D01*
X177151127Y-79149696D01*
X177279359Y-79224628D01*
X177340466Y-79260336D01*
X177346919Y-79264107D01*
X177352185Y-79266034D01*
X177356554Y-79268090D01*
X177409674Y-79315194D01*
X177428895Y-79383539D01*
X177408114Y-79451427D01*
X177360693Y-79494063D01*
X177211803Y-79570910D01*
X177202372Y-79576895D01*
X177201883Y-79577271D01*
X177193418Y-79588863D01*
X177200050Y-79600839D01*
X177877189Y-80277979D01*
X177891132Y-80285592D01*
X177892966Y-80285461D01*
X177899580Y-80281210D01*
X178577460Y-79603329D01*
X178583682Y-79591935D01*
X178573870Y-79579502D01*
X178508892Y-79535838D01*
X178499098Y-79530454D01*
X178423739Y-79497373D01*
X178369404Y-79451677D01*
X178348399Y-79383859D01*
X178367394Y-79315450D01*
X178420358Y-79268171D01*
X178429828Y-79264142D01*
X178445137Y-79258357D01*
X178457350Y-79251048D01*
X178501950Y-79224355D01*
X178639720Y-79141901D01*
X178643940Y-79138219D01*
X178643945Y-79138216D01*
X178806375Y-78996519D01*
X178810605Y-78992829D01*
X178877258Y-78909633D01*
X178948885Y-78820228D01*
X178948888Y-78820223D01*
X178952391Y-78815851D01*
X179060596Y-78616562D01*
X179131800Y-78401262D01*
X179146500Y-78297974D01*
X179163241Y-78180346D01*
X179163241Y-78180345D01*
X179163752Y-78176755D01*
X179165500Y-78110000D01*
X179145341Y-77884128D01*
X179106279Y-77741340D01*
X179086985Y-77670812D01*
X179086984Y-77670808D01*
X179085503Y-77665396D01*
X178987876Y-77460718D01*
X178855547Y-77276562D01*
X178701477Y-77127257D01*
X178696726Y-77122653D01*
X178696723Y-77122651D01*
X178692698Y-77118750D01*
X178627037Y-77074628D01*
X178509130Y-76995397D01*
X178509124Y-76995394D01*
X178504477Y-76992271D01*
X178424404Y-76957121D01*
X178370070Y-76911427D01*
X178349065Y-76843608D01*
X178368059Y-76775200D01*
X178421023Y-76727920D01*
X178430513Y-76723883D01*
X178439890Y-76720340D01*
X178439893Y-76720338D01*
X178445137Y-76718357D01*
X178639720Y-76601901D01*
X178643940Y-76598219D01*
X178643945Y-76598216D01*
X178806375Y-76456519D01*
X178810605Y-76452829D01*
X178915527Y-76321865D01*
X178948885Y-76280228D01*
X178948888Y-76280223D01*
X178952391Y-76275851D01*
X179060596Y-76076562D01*
X179131800Y-75861262D01*
X179163752Y-75636755D01*
X179165500Y-75570000D01*
X179145341Y-75344128D01*
X179106279Y-75201340D01*
X179086985Y-75130812D01*
X179086984Y-75130808D01*
X179085503Y-75125396D01*
X178987876Y-74920718D01*
X178855547Y-74736562D01*
X178692698Y-74578750D01*
X178565178Y-74493060D01*
X178509130Y-74455397D01*
X178509124Y-74455394D01*
X178504477Y-74452271D01*
X178424404Y-74417121D01*
X178370070Y-74371427D01*
X178349065Y-74303608D01*
X178368059Y-74235200D01*
X178421023Y-74187920D01*
X178430513Y-74183883D01*
X178439890Y-74180340D01*
X178439893Y-74180338D01*
X178445137Y-74178357D01*
X178639720Y-74061901D01*
X178643940Y-74058219D01*
X178643945Y-74058216D01*
X178806375Y-73916519D01*
X178810605Y-73912829D01*
X178821882Y-73898753D01*
X178948885Y-73740228D01*
X178948888Y-73740223D01*
X178952391Y-73735851D01*
X179060596Y-73536562D01*
X179131800Y-73321262D01*
X179163752Y-73096755D01*
X179165500Y-73030000D01*
X179164336Y-73016951D01*
X179157250Y-72937558D01*
X179145341Y-72804128D01*
X179106279Y-72661340D01*
X179086985Y-72590812D01*
X179086984Y-72590808D01*
X179085503Y-72585396D01*
X178987876Y-72380718D01*
X178855547Y-72196562D01*
X178692698Y-72038750D01*
X178565178Y-71953060D01*
X178509130Y-71915397D01*
X178509124Y-71915394D01*
X178504477Y-71912271D01*
X178424404Y-71877121D01*
X178370070Y-71831427D01*
X178349065Y-71763608D01*
X178368059Y-71695200D01*
X178421023Y-71647920D01*
X178430513Y-71643883D01*
X178439890Y-71640340D01*
X178439893Y-71640338D01*
X178445137Y-71638357D01*
X178639720Y-71521901D01*
X178643940Y-71518219D01*
X178643945Y-71518216D01*
X178806375Y-71376519D01*
X178810605Y-71372829D01*
X178821882Y-71358753D01*
X178948885Y-71200228D01*
X178948888Y-71200223D01*
X178952391Y-71195851D01*
X179060596Y-70996562D01*
X179131800Y-70781262D01*
X179163752Y-70556755D01*
X179165500Y-70490000D01*
X179145341Y-70264128D01*
X179106279Y-70121340D01*
X179086985Y-70050812D01*
X179086984Y-70050808D01*
X179085503Y-70045396D01*
X178987876Y-69840718D01*
X178855547Y-69656562D01*
X178692698Y-69498750D01*
X178565178Y-69413060D01*
X178509130Y-69375397D01*
X178509124Y-69375394D01*
X178504477Y-69372271D01*
X178499345Y-69370018D01*
X178499341Y-69370016D01*
X178423753Y-69336835D01*
X178369417Y-69291139D01*
X178348413Y-69223320D01*
X178367408Y-69154912D01*
X178420372Y-69107633D01*
X178429863Y-69103595D01*
X178439677Y-69099887D01*
X178449734Y-69095025D01*
X178575623Y-69019683D01*
X178585193Y-69009324D01*
X178581650Y-69000861D01*
X177902811Y-68322021D01*
X177888868Y-68314408D01*
X177887034Y-68314539D01*
X177880420Y-68318790D01*
X177201152Y-68998059D01*
X177194395Y-69010434D01*
X177199676Y-69017489D01*
X177342284Y-69100822D01*
X177356544Y-69107532D01*
X177409665Y-69154635D01*
X177428887Y-69222980D01*
X177408108Y-69290868D01*
X177360685Y-69333506D01*
X177289949Y-69370016D01*
X177206553Y-69413060D01*
X177026645Y-69551108D01*
X177022872Y-69555254D01*
X177022867Y-69555259D01*
X176890148Y-69701116D01*
X176874026Y-69718834D01*
X176866237Y-69731251D01*
X176813095Y-69778328D01*
X176742936Y-69789202D01*
X176678036Y-69760418D01*
X176639000Y-69701116D01*
X176633500Y-69664295D01*
X176633500Y-68755308D01*
X176653502Y-68687187D01*
X176707158Y-68640694D01*
X176777432Y-68630590D01*
X176804096Y-68642768D01*
X176827419Y-68647644D01*
X176836687Y-68644102D01*
X177517979Y-67962811D01*
X177524355Y-67951132D01*
X178254408Y-67951132D01*
X178254539Y-67952966D01*
X178258790Y-67959580D01*
X178940156Y-68640945D01*
X178952531Y-68647702D01*
X178958796Y-68643013D01*
X179057462Y-68461290D01*
X179061896Y-68451044D01*
X179129553Y-68246469D01*
X179132103Y-68235596D01*
X179162742Y-68020319D01*
X179163348Y-68013103D01*
X179164905Y-67953632D01*
X179164677Y-67946379D01*
X179145348Y-67729812D01*
X179143366Y-67718798D01*
X179086517Y-67510987D01*
X179082619Y-67500506D01*
X178989859Y-67306031D01*
X178984173Y-67296416D01*
X178960719Y-67263776D01*
X178949928Y-67255365D01*
X178936894Y-67262317D01*
X178262021Y-67937189D01*
X178254408Y-67951132D01*
X177524355Y-67951132D01*
X177525592Y-67948868D01*
X177525461Y-67947034D01*
X177521210Y-67940420D01*
X176843095Y-67262306D01*
X176829157Y-67254695D01*
X176828578Y-67254737D01*
X176768489Y-67277149D01*
X176699115Y-67262058D01*
X176648913Y-67211856D01*
X176633500Y-67151470D01*
X176633500Y-66233555D01*
X176653502Y-66165434D01*
X176707158Y-66118941D01*
X176777432Y-66108837D01*
X176842012Y-66138331D01*
X176857004Y-66153749D01*
X176978690Y-66302421D01*
X176982953Y-66306062D01*
X176982958Y-66306067D01*
X177130467Y-66432051D01*
X177151127Y-66449696D01*
X177230896Y-66496309D01*
X177340466Y-66560336D01*
X177346919Y-66564107D01*
X177352185Y-66566034D01*
X177356554Y-66568090D01*
X177409674Y-66615194D01*
X177428895Y-66683539D01*
X177408114Y-66751427D01*
X177360693Y-66794063D01*
X177211803Y-66870910D01*
X177202372Y-66876895D01*
X177201883Y-66877271D01*
X177193418Y-66888863D01*
X177200050Y-66900839D01*
X177877189Y-67577979D01*
X177891132Y-67585592D01*
X177892966Y-67585461D01*
X177899580Y-67581210D01*
X178577460Y-66903329D01*
X178583682Y-66891935D01*
X178573870Y-66879502D01*
X178508892Y-66835838D01*
X178499098Y-66830454D01*
X178423739Y-66797373D01*
X178369404Y-66751677D01*
X178348399Y-66683859D01*
X178367394Y-66615450D01*
X178420358Y-66568171D01*
X178429828Y-66564142D01*
X178445137Y-66558357D01*
X178463477Y-66547381D01*
X178571336Y-66482828D01*
X178639720Y-66441901D01*
X178643940Y-66438219D01*
X178643945Y-66438216D01*
X178806375Y-66296519D01*
X178810605Y-66292829D01*
X178821882Y-66278753D01*
X178948885Y-66120228D01*
X178948888Y-66120223D01*
X178952391Y-66115851D01*
X179060596Y-65916562D01*
X179131800Y-65701262D01*
X179163752Y-65476755D01*
X179165500Y-65410000D01*
X179145341Y-65184128D01*
X179106279Y-65041340D01*
X179086985Y-64970812D01*
X179086984Y-64970808D01*
X179085503Y-64965396D01*
X178987876Y-64760718D01*
X178855547Y-64576562D01*
X178755333Y-64479448D01*
X178696726Y-64422653D01*
X178696723Y-64422651D01*
X178692698Y-64418750D01*
X178594073Y-64352477D01*
X178509130Y-64295397D01*
X178509124Y-64295394D01*
X178504477Y-64292271D01*
X178424404Y-64257121D01*
X178370070Y-64211427D01*
X178349065Y-64143608D01*
X178368059Y-64075200D01*
X178421023Y-64027920D01*
X178430513Y-64023883D01*
X178439890Y-64020340D01*
X178439893Y-64020338D01*
X178445137Y-64018357D01*
X178639720Y-63901901D01*
X178643940Y-63898219D01*
X178643945Y-63898216D01*
X178806375Y-63756519D01*
X178810605Y-63752829D01*
X178894526Y-63648079D01*
X178948885Y-63580228D01*
X178948888Y-63580223D01*
X178952391Y-63575851D01*
X179060596Y-63376562D01*
X179131800Y-63161262D01*
X179163752Y-62936755D01*
X179165500Y-62870000D01*
X179145341Y-62644128D01*
X179085503Y-62425396D01*
X178987876Y-62220718D01*
X178855547Y-62036562D01*
X178761617Y-61945537D01*
X178696726Y-61882653D01*
X178696723Y-61882651D01*
X178692698Y-61878750D01*
X178605230Y-61819974D01*
X178509130Y-61755397D01*
X178509124Y-61755394D01*
X178504477Y-61752271D01*
X178499345Y-61750018D01*
X178499341Y-61750016D01*
X178301975Y-61663378D01*
X178301973Y-61663377D01*
X178296833Y-61661121D01*
X178076329Y-61608183D01*
X177977389Y-61602478D01*
X177855542Y-61595452D01*
X177855539Y-61595452D01*
X177849936Y-61595129D01*
X177624809Y-61622373D01*
X177619447Y-61624023D01*
X177619445Y-61624023D01*
X177548739Y-61645775D01*
X177408064Y-61689052D01*
X177206553Y-61793060D01*
X177202101Y-61796476D01*
X177202098Y-61796478D01*
X177041204Y-61919936D01*
X176974984Y-61945537D01*
X176905435Y-61931272D01*
X176854639Y-61881671D01*
X176838500Y-61819974D01*
X176838500Y-61675000D01*
X176833273Y-61601921D01*
X176792096Y-61461684D01*
X176746393Y-61390569D01*
X176717949Y-61346309D01*
X176717947Y-61346306D01*
X176713077Y-61338729D01*
X176607197Y-61246983D01*
X176568814Y-61187257D01*
X176568814Y-61116260D01*
X176607198Y-61056534D01*
X176671779Y-61027041D01*
X176689810Y-61025759D01*
X181051241Y-61029237D01*
G37*
%TD.AperFunction*%
%TA.AperFunction,Conductor*%
G36*
X165755650Y-114553502D02*
G01*
X165802143Y-114607158D01*
X165812247Y-114677432D01*
X165782753Y-114742012D01*
X165750591Y-114768568D01*
X165745750Y-114770825D01*
X165741250Y-114773976D01*
X165666877Y-114826053D01*
X165554629Y-114904650D01*
X165389650Y-115069629D01*
X165386493Y-115074137D01*
X165386491Y-115074140D01*
X165343184Y-115135989D01*
X165287727Y-115180317D01*
X165235289Y-115187857D01*
X165216451Y-115197759D01*
X164214095Y-116200115D01*
X164151783Y-116234141D01*
X164080968Y-116229076D01*
X164035905Y-116200115D01*
X163854885Y-116019095D01*
X163820859Y-115956783D01*
X163825924Y-115885968D01*
X163854885Y-115840905D01*
X164857962Y-114837828D01*
X164864392Y-114826053D01*
X164855096Y-114814038D01*
X164798508Y-114774415D01*
X164788470Y-114768619D01*
X164739477Y-114717235D01*
X164726042Y-114647522D01*
X164752429Y-114581611D01*
X164810262Y-114540429D01*
X164851471Y-114533500D01*
X165687529Y-114533500D01*
X165755650Y-114553502D01*
G37*
%TD.AperFunction*%
%TD*%
M02*
