%FSLAX45Y45*%
G04 Gerber Fmt 4.5, Leading zero omitted, Abs format (unit mm)*
G04 Created by KiCad (PCBNEW (5.99.0-8075-g8416c1fc37)) date 2021-06-30 13:11:51*
%MOMM*%
%LPD*%
G01*
G04 APERTURE LIST*
%TA.AperFunction,Profile*%
%ADD10C,0.100000*%
%TD*%
%ADD11C,0.200000*%
G04 APERTURE END LIST*
D10*
X18350000Y-6052319D02*
G75*
G02*
X18450000Y-6150000I-21J-100049D01*
G01*
X15340000Y-12395000D02*
X15342340Y-6150000D01*
X15442340Y-6050000D02*
X18350000Y-6052319D01*
X18450000Y-12395000D02*
X18450000Y-6150000D01*
X15342340Y-6150000D02*
G75*
G02*
X15442340Y-6050000I99956J44D01*
G01*
X15340000Y-12395000D02*
X18450000Y-12395000D01*
D11*
X15592619Y-12710476D02*
X15592619Y-12510476D01*
X15640238Y-12510476D01*
X15668809Y-12520000D01*
X15687857Y-12539048D01*
X15697381Y-12558095D01*
X15706905Y-12596190D01*
X15706905Y-12624762D01*
X15697381Y-12662857D01*
X15687857Y-12681905D01*
X15668809Y-12700952D01*
X15640238Y-12710476D01*
X15592619Y-12710476D01*
X15792619Y-12710476D02*
X15792619Y-12577143D01*
X15792619Y-12615238D02*
X15802143Y-12596190D01*
X15811667Y-12586667D01*
X15830714Y-12577143D01*
X15849762Y-12577143D01*
X15916428Y-12710476D02*
X15916428Y-12577143D01*
X15916428Y-12510476D02*
X15906905Y-12520000D01*
X15916428Y-12529524D01*
X15925952Y-12520000D01*
X15916428Y-12510476D01*
X15916428Y-12529524D01*
X16040238Y-12710476D02*
X16021190Y-12700952D01*
X16011667Y-12681905D01*
X16011667Y-12510476D01*
X16145000Y-12710476D02*
X16125952Y-12700952D01*
X16116428Y-12681905D01*
X16116428Y-12510476D01*
X16373571Y-12710476D02*
X16373571Y-12510476D01*
X16440238Y-12653333D01*
X16506905Y-12510476D01*
X16506905Y-12710476D01*
X16687857Y-12710476D02*
X16687857Y-12605714D01*
X16678333Y-12586667D01*
X16659286Y-12577143D01*
X16621190Y-12577143D01*
X16602143Y-12586667D01*
X16687857Y-12700952D02*
X16668809Y-12710476D01*
X16621190Y-12710476D01*
X16602143Y-12700952D01*
X16592619Y-12681905D01*
X16592619Y-12662857D01*
X16602143Y-12643809D01*
X16621190Y-12634286D01*
X16668809Y-12634286D01*
X16687857Y-12624762D01*
X16783095Y-12577143D02*
X16783095Y-12777143D01*
X16783095Y-12586667D02*
X16802143Y-12577143D01*
X16840238Y-12577143D01*
X16859286Y-12586667D01*
X16868810Y-12596190D01*
X16878333Y-12615238D01*
X16878333Y-12672381D01*
X16868810Y-12691428D01*
X16859286Y-12700952D01*
X16840238Y-12710476D01*
X16802143Y-12710476D01*
X16783095Y-12700952D01*
X16964048Y-12691428D02*
X16973571Y-12700952D01*
X16964048Y-12710476D01*
X16954524Y-12700952D01*
X16964048Y-12691428D01*
X16964048Y-12710476D01*
X16964048Y-12586667D02*
X16973571Y-12596190D01*
X16964048Y-12605714D01*
X16954524Y-12596190D01*
X16964048Y-12586667D01*
X16964048Y-12605714D01*
M02*
