%TF.GenerationSoftware,KiCad,Pcbnew,(5.99.0-8075-g8416c1fc37)*%
%TF.CreationDate,2021-06-30T13:11:38+01:00*%
%TF.ProjectId,picovga,7069636f-7667-4612-9e6b-696361645f70,rev?*%
%TF.SameCoordinates,Original*%
%TF.FileFunction,Copper,L1,Top*%
%TF.FilePolarity,Positive*%
%FSLAX46Y46*%
G04 Gerber Fmt 4.6, Leading zero omitted, Abs format (unit mm)*
G04 Created by KiCad (PCBNEW (5.99.0-8075-g8416c1fc37)) date 2021-06-30 13:11:38*
%MOMM*%
%LPD*%
G01*
G04 APERTURE LIST*
G04 Aperture macros list*
%AMRoundRect*
0 Rectangle with rounded corners*
0 $1 Rounding radius*
0 $2 $3 $4 $5 $6 $7 $8 $9 X,Y pos of 4 corners*
0 Add a 4 corners polygon primitive as box body*
4,1,4,$2,$3,$4,$5,$6,$7,$8,$9,$2,$3,0*
0 Add four circle primitives for the rounded corners*
1,1,$1+$1,$2,$3,0*
1,1,$1+$1,$4,$5,0*
1,1,$1+$1,$6,$7,0*
1,1,$1+$1,$8,$9,0*
0 Add four rect primitives between the rounded corners*
20,1,$1+$1,$2,$3,$4,$5,0*
20,1,$1+$1,$4,$5,$6,$7,0*
20,1,$1+$1,$6,$7,$8,$9,0*
20,1,$1+$1,$8,$9,$2,$3,0*%
G04 Aperture macros list end*
%TA.AperFunction,SMDPad,CuDef*%
%ADD10RoundRect,0.250000X-0.350000X-0.450000X0.350000X-0.450000X0.350000X0.450000X-0.350000X0.450000X0*%
%TD*%
%TA.AperFunction,SMDPad,CuDef*%
%ADD11RoundRect,0.250000X0.350000X0.450000X-0.350000X0.450000X-0.350000X-0.450000X0.350000X-0.450000X0*%
%TD*%
%TA.AperFunction,SMDPad,CuDef*%
%ADD12RoundRect,0.250000X-0.475000X0.337500X-0.475000X-0.337500X0.475000X-0.337500X0.475000X0.337500X0*%
%TD*%
%TA.AperFunction,ComponentPad*%
%ADD13R,1.524000X1.524000*%
%TD*%
%TA.AperFunction,ComponentPad*%
%ADD14C,1.524000*%
%TD*%
%TA.AperFunction,SMDPad,CuDef*%
%ADD15RoundRect,0.250000X-0.450000X0.350000X-0.450000X-0.350000X0.450000X-0.350000X0.450000X0.350000X0*%
%TD*%
%TA.AperFunction,SMDPad,CuDef*%
%ADD16RoundRect,0.250000X0.450000X-0.350000X0.450000X0.350000X-0.450000X0.350000X-0.450000X-0.350000X0*%
%TD*%
%TA.AperFunction,ComponentPad*%
%ADD17C,1.650000*%
%TD*%
%TA.AperFunction,ComponentPad*%
%ADD18C,4.725000*%
%TD*%
%TA.AperFunction,ViaPad*%
%ADD19C,0.800000*%
%TD*%
%TA.AperFunction,Conductor*%
%ADD20C,0.250000*%
%TD*%
G04 APERTURE END LIST*
D10*
%TO.P,R12,1*%
%TO.N,B3*%
X162380343Y-98426662D03*
%TO.P,R12,2*%
%TO.N,VGA_B*%
X164380343Y-98426662D03*
%TD*%
D11*
%TO.P,R13,1*%
%TO.N,HSYNC*%
X164383744Y-100964363D03*
%TO.P,R13,2*%
%TO.N,Net-(R13-Pad2)*%
X162383744Y-100964363D03*
%TD*%
D10*
%TO.P,R6,1*%
%TO.N,G1*%
X162375390Y-78108531D03*
%TO.P,R6,2*%
%TO.N,VGA_G*%
X164375390Y-78108531D03*
%TD*%
%TO.P,R8,1*%
%TO.N,G3*%
X162383299Y-85730358D03*
%TO.P,R8,2*%
%TO.N,VGA_G*%
X164383299Y-85730358D03*
%TD*%
%TO.P,R4,1*%
%TO.N,R3*%
X162378463Y-73019919D03*
%TO.P,R4,2*%
%TO.N,VGA_R*%
X164378463Y-73019919D03*
%TD*%
%TO.P,R11,1*%
%TO.N,B2*%
X162379298Y-95886606D03*
%TO.P,R11,2*%
%TO.N,VGA_B*%
X164379298Y-95886606D03*
%TD*%
D12*
%TO.P,C1,1*%
%TO.N,+3V3*%
X171500000Y-82462500D03*
%TO.P,C1,2*%
%TO.N,GND*%
X171500000Y-84537500D03*
%TD*%
D13*
%TO.P,U0,1,GP0*%
%TO.N,R0*%
X160110000Y-62870000D03*
D14*
%TO.P,U0,2,GP1*%
%TO.N,R1*%
X160110000Y-65410000D03*
%TO.P,U0,3,GND*%
%TO.N,GND*%
X160110000Y-67950000D03*
%TO.P,U0,4,GP2*%
%TO.N,R2*%
X160110000Y-70490000D03*
%TO.P,U0,5,GP3*%
%TO.N,R3*%
X160110000Y-73030000D03*
%TO.P,U0,6,GP4*%
%TO.N,G0*%
X160110000Y-75570000D03*
%TO.P,U0,7,GP5*%
%TO.N,G1*%
X160110000Y-78110000D03*
%TO.P,U0,8,GND*%
%TO.N,GND*%
X160110000Y-80650000D03*
%TO.P,U0,9,GP6*%
%TO.N,G2*%
X160110000Y-83190000D03*
%TO.P,U0,10,GP7*%
%TO.N,G3*%
X160110000Y-85730000D03*
%TO.P,U0,11,GP8*%
%TO.N,B0*%
X160110000Y-88270000D03*
%TO.P,U0,12,GP9*%
%TO.N,B1*%
X160110000Y-90810000D03*
%TO.P,U0,13,GND*%
%TO.N,GND*%
X160110000Y-93350000D03*
%TO.P,U0,14,GP10*%
%TO.N,B2*%
X160110000Y-95890000D03*
%TO.P,U0,15,GP11*%
%TO.N,B3*%
X160110000Y-98430000D03*
%TO.P,U0,16,GP12*%
%TO.N,Net-(R13-Pad2)*%
X160110000Y-100970000D03*
%TO.P,U0,17,GP13*%
%TO.N,Net-(R14-Pad1)*%
X160110000Y-103510000D03*
%TO.P,U0,18,GND*%
%TO.N,GND*%
X160110000Y-106050000D03*
%TO.P,U0,19,GP14*%
%TO.N,DCC3V3DAT*%
X160110000Y-108590000D03*
%TO.P,U0,20,GP15*%
%TO.N,DCC3V3CLK*%
X160110000Y-111130000D03*
%TO.P,U0,21,GP16*%
%TO.N,no_connect_36*%
X177890000Y-111130000D03*
%TO.P,U0,22,GP17*%
%TO.N,GP17*%
X177890000Y-108590000D03*
%TO.P,U0,23,GND*%
%TO.N,GND*%
X177890000Y-106050000D03*
%TO.P,U0,24,GP18*%
%TO.N,GP18*%
X177890000Y-103510000D03*
%TO.P,U0,25,GP19*%
%TO.N,GP19*%
X177890000Y-100970000D03*
%TO.P,U0,26,GP20*%
%TO.N,GP20*%
X177890000Y-98430000D03*
%TO.P,U0,27,GP21*%
%TO.N,GP21*%
X177890000Y-95890000D03*
%TO.P,U0,28,GND*%
%TO.N,GND*%
X177890000Y-93350000D03*
%TO.P,U0,29,GP22*%
%TO.N,GP22*%
X177890000Y-90810000D03*
%TO.P,U0,30,RUN*%
%TO.N,no_connect_37*%
X177890000Y-88270000D03*
%TO.P,U0,31,GP26*%
%TO.N,no_connect_38*%
X177890000Y-85730000D03*
%TO.P,U0,32,GP27*%
%TO.N,no_connect_39*%
X177890000Y-83190000D03*
%TO.P,U0,33,GND*%
%TO.N,GND*%
X177890000Y-80650000D03*
%TO.P,U0,34,GP28*%
%TO.N,no_connect_40*%
X177890000Y-78110000D03*
%TO.P,U0,35,ADC_VREF*%
%TO.N,no_connect_41*%
X177890000Y-75570000D03*
%TO.P,U0,36,3V3*%
%TO.N,+3V3*%
X177890000Y-73030000D03*
%TO.P,U0,37,3V3_EN*%
%TO.N,no_connect_42*%
X177890000Y-70490000D03*
%TO.P,U0,38,GND*%
%TO.N,GND*%
X177890000Y-67950000D03*
%TO.P,U0,39,VSYS*%
%TO.N,no_connect_43*%
X177890000Y-65410000D03*
%TO.P,U0,40,VBUS*%
%TO.N,+5V*%
X177890000Y-62870000D03*
%TD*%
D15*
%TO.P,R16,1*%
%TO.N,+3V3*%
X169250000Y-82500000D03*
%TO.P,R16,2*%
%TO.N,GP20*%
X169250000Y-84500000D03*
%TD*%
D10*
%TO.P,R2,1*%
%TO.N,R1*%
X162382505Y-65410218D03*
%TO.P,R2,2*%
%TO.N,VGA_R*%
X164382505Y-65410218D03*
%TD*%
%TO.P,R14,1*%
%TO.N,Net-(R14-Pad1)*%
X162390090Y-103521542D03*
%TO.P,R14,2*%
%TO.N,VSYNC*%
X164390090Y-103521542D03*
%TD*%
%TO.P,R3,1*%
%TO.N,R2*%
X162382505Y-70515877D03*
%TO.P,R3,2*%
%TO.N,VGA_R*%
X164382505Y-70515877D03*
%TD*%
%TO.P,R10,1*%
%TO.N,B1*%
X162381824Y-90808651D03*
%TO.P,R10,2*%
%TO.N,VGA_B*%
X164381824Y-90808651D03*
%TD*%
%TO.P,R1,1*%
%TO.N,R0*%
X162382505Y-62880196D03*
%TO.P,R1,2*%
%TO.N,VGA_R*%
X164382505Y-62880196D03*
%TD*%
%TO.P,R5,1*%
%TO.N,G0*%
X162386041Y-75569627D03*
%TO.P,R5,2*%
%TO.N,VGA_G*%
X164386041Y-75569627D03*
%TD*%
%TO.P,R7,1*%
%TO.N,G2*%
X162379871Y-83198224D03*
%TO.P,R7,2*%
%TO.N,VGA_G*%
X164379871Y-83198224D03*
%TD*%
%TO.P,R9,1*%
%TO.N,B0*%
X162380037Y-88273194D03*
%TO.P,R9,2*%
%TO.N,VGA_B*%
X164380037Y-88273194D03*
%TD*%
D16*
%TO.P,R15,1*%
%TO.N,+3V3*%
X174500000Y-84000000D03*
%TO.P,R15,2*%
%TO.N,GP21*%
X174500000Y-82000000D03*
%TD*%
D17*
%TO.P,J0,1*%
%TO.N,VGA_R*%
X173285000Y-115930000D03*
%TO.P,J0,2*%
%TO.N,VGA_G*%
X170995000Y-115930000D03*
%TO.P,J0,3*%
%TO.N,VGA_B*%
X168705000Y-115930000D03*
%TO.P,J0,4*%
%TO.N,no_connect_35*%
X166415000Y-115930000D03*
%TO.P,J0,5*%
%TO.N,GND*%
X164125000Y-115930000D03*
%TO.P,J0,6*%
X174431000Y-118470000D03*
%TO.P,J0,7*%
X172140000Y-118470000D03*
%TO.P,J0,8*%
X169850000Y-118470000D03*
%TO.P,J0,9*%
%TO.N,+5V*%
X167561000Y-118470000D03*
%TO.P,J0,10*%
%TO.N,GND*%
X165270000Y-118470000D03*
%TO.P,J0,11*%
%TO.N,no_connect_34*%
X173285000Y-121010000D03*
%TO.P,J0,12*%
%TO.N,DCC5VDAT*%
X170995000Y-121010000D03*
%TO.P,J0,13*%
%TO.N,HSYNC*%
X168705000Y-121010000D03*
%TO.P,J0,14*%
%TO.N,VSYNC*%
X166415000Y-121010000D03*
%TO.P,J0,15*%
%TO.N,DCC5VCLK*%
X164125000Y-121010000D03*
D18*
%TO.P,J0,MH1*%
%TO.N,N/C*%
X156460000Y-118470000D03*
%TO.P,J0,MH2*%
X181450000Y-118470000D03*
%TD*%
D19*
%TO.N,GND*%
X175000000Y-116700000D03*
X163119460Y-81178525D03*
X173197119Y-85211151D03*
X172750000Y-94650000D03*
%TO.N,+3V3*%
X168500000Y-79450000D03*
X167609999Y-83500000D03*
%TO.N,VSYNC*%
X162400000Y-122200000D03*
%TO.N,GP19*%
X174750000Y-97500000D03*
%TO.N,DCC5VDAT*%
X171250000Y-102250000D03*
%TO.N,DCC5VCLK*%
X173250000Y-102250000D03*
%TO.N,DCC3V3DAT*%
X167500000Y-94500000D03*
X163000000Y-105500000D03*
X170000000Y-93500000D03*
%TO.N,DCC3V3CLK*%
X172000000Y-93500000D03*
X167500000Y-96000000D03*
X164500000Y-105500000D03*
%TO.N,GP21*%
X174500000Y-79925000D03*
%TO.N,GP20*%
X174250000Y-95000000D03*
X174324980Y-87000000D03*
%TD*%
D20*
%TO.N,GND*%
X169850000Y-118470000D02*
X172140000Y-118470000D01*
X174431000Y-118470000D02*
X172140000Y-118470000D01*
X171500000Y-84537500D02*
X172523468Y-84537500D01*
X174431000Y-118470000D02*
X174431000Y-117269000D01*
X165270000Y-118470000D02*
X164125000Y-117325000D01*
X172523468Y-84537500D02*
X173197119Y-85211151D01*
X174431000Y-117269000D02*
X175000000Y-116700000D01*
X164125000Y-117325000D02*
X164125000Y-115930000D01*
%TO.N,+3V3*%
X173000000Y-79000000D02*
X175500000Y-79000000D01*
X175500000Y-79000000D02*
X176000000Y-78500000D01*
X171750000Y-80250000D02*
X173000000Y-79000000D01*
X171500000Y-81750000D02*
X171500000Y-82462500D01*
X168750000Y-80250000D02*
X170000000Y-80250000D01*
X168500000Y-80000000D02*
X168750000Y-80250000D01*
X176000000Y-74000000D02*
X176970000Y-73030000D01*
X167150040Y-81849960D02*
X168750000Y-80250000D01*
X170000000Y-80250000D02*
X171500000Y-81750000D01*
X167609999Y-83500000D02*
X167609999Y-83109999D01*
X172000000Y-80500000D02*
X172500000Y-81000000D01*
X170000000Y-80250000D02*
X171750000Y-80250000D01*
X174000000Y-84000000D02*
X174500000Y-84000000D01*
X169250000Y-80750000D02*
X169250000Y-82500000D01*
X176970000Y-73030000D02*
X177890000Y-73030000D01*
X173000000Y-83000000D02*
X174000000Y-84000000D01*
X167609999Y-83109999D02*
X167150040Y-82650040D01*
X168750000Y-80250000D02*
X169250000Y-80750000D01*
X167150040Y-82650040D02*
X167150040Y-81849960D01*
X168500000Y-79450000D02*
X168500000Y-80000000D01*
X171750000Y-80250000D02*
X172000000Y-80500000D01*
X176000000Y-78500000D02*
X176000000Y-74000000D01*
X173000000Y-81500000D02*
X173000000Y-83000000D01*
X172000000Y-80500000D02*
X173000000Y-81500000D01*
%TO.N,VSYNC*%
X165271542Y-103521542D02*
X164390090Y-103521542D01*
X166000000Y-104250000D02*
X165271542Y-103521542D01*
X165750020Y-113449980D02*
X166000000Y-113200000D01*
X162350000Y-122150000D02*
X162350000Y-119886424D01*
X162713596Y-113449980D02*
X165750020Y-113449980D01*
X161999980Y-114163596D02*
X162713596Y-113449980D01*
X162350000Y-119886424D02*
X161999980Y-119536404D01*
X161999980Y-119536404D02*
X161999980Y-114163596D01*
X166000000Y-113200000D02*
X166000000Y-104250000D01*
X162400000Y-122200000D02*
X162350000Y-122150000D01*
%TO.N,HSYNC*%
X164383744Y-100964363D02*
X166000000Y-102580619D01*
X166450019Y-113459291D02*
X166450021Y-113459293D01*
X162850000Y-119750000D02*
X167445000Y-119750000D01*
X166009314Y-113900000D02*
X162900000Y-113900000D01*
X166000000Y-103613576D02*
X166450019Y-104063595D01*
X166450019Y-104063595D02*
X166450019Y-113459291D01*
X162450000Y-119350000D02*
X162850000Y-119750000D01*
X162450000Y-114350000D02*
X162450000Y-119350000D01*
X162900000Y-113900000D02*
X162450000Y-114350000D01*
X166450021Y-113459293D02*
X166009314Y-113900000D01*
X166000000Y-102580619D02*
X166000000Y-103613576D01*
X167445000Y-119750000D02*
X168705000Y-121010000D01*
%TO.N,GP19*%
X174750000Y-97500000D02*
X174750000Y-97830000D01*
X174750000Y-97830000D02*
X177890000Y-100970000D01*
%TO.N,VGA_B*%
X164379298Y-95886606D02*
X164379298Y-98425617D01*
X165426662Y-98426662D02*
X166500000Y-99500000D01*
X164381824Y-95884080D02*
X164379298Y-95886606D01*
X166500000Y-99500000D02*
X166500000Y-103477152D01*
X164380037Y-88273194D02*
X164380037Y-90806864D01*
X164380343Y-98426662D02*
X165426662Y-98426662D01*
X166900041Y-113272889D02*
X168327191Y-114700039D01*
X166500000Y-103477152D02*
X166900039Y-103877191D01*
X166900039Y-103877191D02*
X166900041Y-113272889D01*
X168705000Y-114905000D02*
X168705000Y-115930000D01*
X164381824Y-90808651D02*
X164381824Y-95884080D01*
X164380037Y-90806864D02*
X164381824Y-90808651D01*
X164379298Y-98425617D02*
X164380343Y-98426662D01*
X168500039Y-114700039D02*
X168705000Y-114905000D01*
X168327191Y-114700039D02*
X168500039Y-114700039D01*
%TO.N,VGA_G*%
X166950020Y-103290748D02*
X167350059Y-103690787D01*
X167350060Y-113086484D02*
X168513596Y-114250020D01*
X168513596Y-114250020D02*
X170550020Y-114250020D01*
X167350059Y-103690787D02*
X167350060Y-113086484D01*
X164375390Y-78108531D02*
X164375390Y-83193743D01*
X164980358Y-85730358D02*
X166250000Y-87000000D01*
X170995000Y-114695000D02*
X170995000Y-115930000D01*
X164379871Y-83198224D02*
X164379871Y-85726930D01*
X164386041Y-75569627D02*
X164386041Y-78097880D01*
X164379871Y-85726930D02*
X164383299Y-85730358D01*
X166250000Y-87000000D02*
X166250000Y-98613576D01*
X164383299Y-85730358D02*
X164980358Y-85730358D01*
X166950020Y-99313596D02*
X166950020Y-103290748D01*
X166250000Y-98613576D02*
X166950020Y-99313596D01*
X164375390Y-83193743D02*
X164379871Y-83198224D01*
X164386041Y-78097880D02*
X164375390Y-78108531D01*
X170550020Y-114250020D02*
X170995000Y-114695000D01*
%TO.N,VGA_R*%
X172800000Y-113800000D02*
X173285000Y-114285000D01*
X164382505Y-62880196D02*
X164382505Y-65410218D01*
X167800079Y-112900079D02*
X168700000Y-113800000D01*
X167800079Y-103504383D02*
X167800079Y-112900079D01*
X164378463Y-73019919D02*
X164378463Y-70519919D01*
X173285000Y-114285000D02*
X173285000Y-115930000D01*
X164378463Y-70519919D02*
X164382505Y-70515877D01*
X166700020Y-98427172D02*
X167400039Y-99127191D01*
X167400040Y-103104344D02*
X167800079Y-103504383D01*
X166700020Y-75341476D02*
X166700020Y-98427172D01*
X167400039Y-99127191D02*
X167400040Y-103104344D01*
X164382505Y-70515877D02*
X164382505Y-65410218D01*
X168700000Y-113800000D02*
X172800000Y-113800000D01*
X164378463Y-73019919D02*
X166700020Y-75341476D01*
%TO.N,R0*%
X160110000Y-62870000D02*
X162372309Y-62870000D01*
X162372309Y-62870000D02*
X162382505Y-62880196D01*
%TO.N,R1*%
X162382287Y-65410000D02*
X162382505Y-65410218D01*
X160110000Y-65410000D02*
X162382287Y-65410000D01*
%TO.N,R2*%
X160110000Y-70490000D02*
X162356628Y-70490000D01*
X162356628Y-70490000D02*
X162382505Y-70515877D01*
%TO.N,R3*%
X162368382Y-73030000D02*
X162378463Y-73019919D01*
X160110000Y-73030000D02*
X162368382Y-73030000D01*
%TO.N,G0*%
X160110000Y-75570000D02*
X162385668Y-75570000D01*
X162385668Y-75570000D02*
X162386041Y-75569627D01*
%TO.N,G1*%
X162373921Y-78110000D02*
X162375390Y-78108531D01*
X160110000Y-78110000D02*
X162373921Y-78110000D01*
%TO.N,G2*%
X160110000Y-83190000D02*
X162371647Y-83190000D01*
X162371647Y-83190000D02*
X162379871Y-83198224D01*
%TO.N,G3*%
X160110000Y-85730000D02*
X162382941Y-85730000D01*
X162382941Y-85730000D02*
X162383299Y-85730358D01*
%TO.N,B0*%
X162376843Y-88270000D02*
X162380037Y-88273194D01*
X160110000Y-88270000D02*
X162376843Y-88270000D01*
%TO.N,B1*%
X162380475Y-90810000D02*
X162381824Y-90808651D01*
X160110000Y-90810000D02*
X162380475Y-90810000D01*
%TO.N,B2*%
X160110000Y-95890000D02*
X162375904Y-95890000D01*
X162375904Y-95890000D02*
X162379298Y-95886606D01*
%TO.N,B3*%
X160110000Y-98430000D02*
X162377005Y-98430000D01*
X162377005Y-98430000D02*
X162380343Y-98426662D01*
%TO.N,DCC5VDAT*%
X171500000Y-121500000D02*
X171010000Y-121010000D01*
X168250099Y-105249901D02*
X168250099Y-112713675D01*
X170995000Y-122195000D02*
X170995000Y-121010000D01*
X168250099Y-112713675D02*
X168886404Y-113349980D01*
X176000000Y-121900000D02*
X175400000Y-122500000D01*
X171300000Y-122500000D02*
X170995000Y-122195000D01*
X171250000Y-102250000D02*
X168250099Y-105249901D01*
X168886404Y-113349980D02*
X172999980Y-113349980D01*
X175400000Y-122500000D02*
X171300000Y-122500000D01*
X176000000Y-116350000D02*
X176000000Y-121900000D01*
X172999980Y-113349980D02*
X176000000Y-116350000D01*
%TO.N,DCC5VCLK*%
X173250000Y-102250000D02*
X168700119Y-106799881D01*
X171313536Y-122950000D02*
X164450000Y-122950000D01*
X169072808Y-112899960D02*
X173186384Y-112899960D01*
X164125000Y-122625000D02*
X164125000Y-121010000D01*
X176450020Y-122086404D02*
X175586404Y-122950020D01*
X168700119Y-112527271D02*
X169072808Y-112899960D01*
X173186384Y-112899960D02*
X176450020Y-116163596D01*
X171313556Y-122950020D02*
X171313536Y-122950000D01*
X168700119Y-106799881D02*
X168700119Y-112527271D01*
X176450020Y-116163596D02*
X176450020Y-122086404D01*
X164450000Y-122950000D02*
X164125000Y-122625000D01*
X175586404Y-122950020D02*
X171313556Y-122950020D01*
%TO.N,Net-(R13-Pad2)*%
X160110000Y-100970000D02*
X162378107Y-100970000D01*
X162378107Y-100970000D02*
X162383744Y-100964363D01*
%TO.N,Net-(R14-Pad1)*%
X160110000Y-103510000D02*
X162378548Y-103510000D01*
X162378548Y-103510000D02*
X162390090Y-103521542D01*
%TO.N,DCC3V3DAT*%
X163500000Y-107500000D02*
X163500000Y-106000000D01*
X162410000Y-108590000D02*
X163500000Y-107500000D01*
X167500000Y-94500000D02*
X169000000Y-94500000D01*
X160110000Y-108590000D02*
X162410000Y-108590000D01*
X163500000Y-106000000D02*
X163000000Y-105500000D01*
X169000000Y-94500000D02*
X170000000Y-93500000D01*
%TO.N,DCC3V3CLK*%
X161370000Y-111130000D02*
X164000000Y-108500000D01*
X169000000Y-96000000D02*
X171500000Y-93500000D01*
X164000000Y-108500000D02*
X164000000Y-106000000D01*
X167500000Y-96000000D02*
X169000000Y-96000000D01*
X160110000Y-111130000D02*
X161370000Y-111130000D01*
X164000000Y-106000000D02*
X164500000Y-105500000D01*
X160110000Y-111130000D02*
X160870000Y-111130000D01*
X171500000Y-93500000D02*
X172000000Y-93500000D01*
%TO.N,GP21*%
X175500000Y-80000000D02*
X176000000Y-80500000D01*
X174500000Y-79925000D02*
X174575000Y-80000000D01*
X174575000Y-80000000D02*
X175500000Y-80000000D01*
X174500000Y-79925000D02*
X174500000Y-82000000D01*
X176000000Y-94000000D02*
X177890000Y-95890000D01*
X176000000Y-80500000D02*
X176000000Y-94000000D01*
%TO.N,GP20*%
X174025000Y-86025000D02*
X174324980Y-86324980D01*
X174250000Y-95000000D02*
X177680000Y-98430000D01*
X174324980Y-86324980D02*
X174324980Y-87000000D01*
X177680000Y-98430000D02*
X177890000Y-98430000D01*
X169250000Y-84500000D02*
X170775000Y-86025000D01*
X170775000Y-86025000D02*
X174025000Y-86025000D01*
%TD*%
%TA.AperFunction,Conductor*%
%TO.N,GND*%
G36*
X179089712Y-61027672D02*
G01*
X183416360Y-61031123D01*
X183438473Y-61033097D01*
X183445339Y-61034327D01*
X183445349Y-61034328D01*
X183450134Y-61035185D01*
X183455000Y-61035296D01*
X183455001Y-61035296D01*
X183479854Y-61035862D01*
X183530445Y-61037015D01*
X183551810Y-61039335D01*
X183580644Y-61044987D01*
X183627348Y-61054142D01*
X183650653Y-61061103D01*
X183715194Y-61087403D01*
X183736727Y-61098713D01*
X183795015Y-61136927D01*
X183813976Y-61152166D01*
X183863834Y-61200868D01*
X183879514Y-61219467D01*
X183919079Y-61276835D01*
X183930892Y-61298098D01*
X183958700Y-61362007D01*
X183966206Y-61385144D01*
X183981467Y-61454345D01*
X183982781Y-61460306D01*
X183985601Y-61481613D01*
X183989162Y-61558585D01*
X183990002Y-61562988D01*
X183990527Y-61567445D01*
X183990308Y-61567471D01*
X183992000Y-61585374D01*
X183992000Y-116696208D01*
X183971998Y-116764329D01*
X183918342Y-116810822D01*
X183848068Y-116820926D01*
X183783488Y-116791432D01*
X183765174Y-116771773D01*
X183648884Y-116616608D01*
X183648879Y-116616602D01*
X183646677Y-116613664D01*
X183431960Y-116387794D01*
X183417627Y-116372716D01*
X183417623Y-116372712D01*
X183415095Y-116370053D01*
X183156673Y-116155125D01*
X183153586Y-116153117D01*
X183153580Y-116153112D01*
X182878033Y-115973829D01*
X182878032Y-115973828D01*
X182874939Y-115971816D01*
X182679126Y-115874826D01*
X182577049Y-115824265D01*
X182577042Y-115824262D01*
X182573743Y-115822628D01*
X182570271Y-115821388D01*
X182570268Y-115821387D01*
X182322515Y-115732923D01*
X182257197Y-115709600D01*
X182153607Y-115685779D01*
X181933216Y-115635100D01*
X181933211Y-115635099D01*
X181929627Y-115634275D01*
X181925970Y-115633874D01*
X181925967Y-115633874D01*
X181599176Y-115598085D01*
X181599175Y-115598085D01*
X181595505Y-115597683D01*
X181591812Y-115597712D01*
X181263083Y-115600294D01*
X181263082Y-115600294D01*
X181259396Y-115600323D01*
X181255737Y-115600782D01*
X180929548Y-115641700D01*
X180929544Y-115641701D01*
X180925891Y-115642159D01*
X180922320Y-115643040D01*
X180922317Y-115643040D01*
X180832083Y-115665287D01*
X180599544Y-115722619D01*
X180596093Y-115723913D01*
X180596092Y-115723913D01*
X180328403Y-115824265D01*
X180284813Y-115840606D01*
X180281537Y-115842293D01*
X180281533Y-115842295D01*
X180092643Y-115939580D01*
X179985997Y-115994506D01*
X179707177Y-116182218D01*
X179452163Y-116401179D01*
X179224436Y-116648397D01*
X179027107Y-116920495D01*
X179025312Y-116923701D01*
X179025309Y-116923705D01*
X178936234Y-117082761D01*
X178862872Y-117213758D01*
X178861464Y-117217148D01*
X178861460Y-117217157D01*
X178751640Y-117481635D01*
X178733974Y-117524180D01*
X178732967Y-117527728D01*
X178732966Y-117527730D01*
X178653645Y-117807115D01*
X178642173Y-117847520D01*
X178588723Y-118179362D01*
X178574355Y-118515174D01*
X178574627Y-118518833D01*
X178598404Y-118838790D01*
X178599264Y-118850369D01*
X178599963Y-118853983D01*
X178599964Y-118853989D01*
X178642194Y-119072256D01*
X178663111Y-119180369D01*
X178664224Y-119183867D01*
X178664226Y-119183875D01*
X178763907Y-119497159D01*
X178765023Y-119500666D01*
X178766536Y-119504009D01*
X178766539Y-119504017D01*
X178843964Y-119675096D01*
X178903608Y-119806886D01*
X178905504Y-119810036D01*
X178905506Y-119810039D01*
X179075075Y-120091691D01*
X179076974Y-120094845D01*
X179159183Y-120201019D01*
X179280495Y-120357697D01*
X179280502Y-120357705D01*
X179282752Y-120360611D01*
X179518132Y-120600554D01*
X179779898Y-120811396D01*
X180064476Y-120990258D01*
X180367979Y-121134696D01*
X180686261Y-121242738D01*
X181014974Y-121312908D01*
X181128155Y-121323507D01*
X181345963Y-121343905D01*
X181345968Y-121343905D01*
X181349629Y-121344248D01*
X181555588Y-121339394D01*
X181681970Y-121336416D01*
X181681973Y-121336416D01*
X181685655Y-121336329D01*
X182018463Y-121289260D01*
X182343505Y-121203683D01*
X182656344Y-121080768D01*
X182659588Y-121079032D01*
X182659595Y-121079029D01*
X182949450Y-120923935D01*
X182952706Y-120922193D01*
X183111826Y-120811396D01*
X183225520Y-120732229D01*
X183228543Y-120730124D01*
X183231293Y-120727687D01*
X183231299Y-120727682D01*
X183477335Y-120509624D01*
X183480087Y-120507185D01*
X183703902Y-120256421D01*
X183719639Y-120233989D01*
X183762850Y-120172391D01*
X183818346Y-120128111D01*
X183888972Y-120120864D01*
X183952304Y-120152950D01*
X183988236Y-120214183D01*
X183992000Y-120244752D01*
X183992000Y-123316000D01*
X183971998Y-123384121D01*
X183918342Y-123430614D01*
X183866000Y-123442000D01*
X176294518Y-123442000D01*
X176226397Y-123421998D01*
X176179904Y-123368342D01*
X176169800Y-123298068D01*
X176199294Y-123233488D01*
X176205423Y-123226905D01*
X176842533Y-122589795D01*
X176850621Y-122582435D01*
X176857015Y-122578377D01*
X176902890Y-122529525D01*
X176905644Y-122526684D01*
X176925957Y-122506371D01*
X176928602Y-122502960D01*
X176936308Y-122493938D01*
X176961151Y-122467483D01*
X176966577Y-122461705D01*
X176970397Y-122454757D01*
X176976337Y-122443952D01*
X176987193Y-122427425D01*
X176994742Y-122417693D01*
X176999602Y-122411428D01*
X177017163Y-122370849D01*
X177022371Y-122360217D01*
X177043682Y-122321452D01*
X177045653Y-122313775D01*
X177045655Y-122313770D01*
X177048718Y-122301838D01*
X177055124Y-122283126D01*
X177060021Y-122271812D01*
X177060022Y-122271808D01*
X177063167Y-122264541D01*
X177070084Y-122220867D01*
X177072488Y-122209259D01*
X177083485Y-122166429D01*
X177083520Y-122165873D01*
X177083520Y-122145951D01*
X177085071Y-122126240D01*
X177086964Y-122114288D01*
X177088204Y-122106460D01*
X177084079Y-122062825D01*
X177083520Y-122050967D01*
X177083520Y-116241979D01*
X177084034Y-116231075D01*
X177085686Y-116223684D01*
X177083582Y-116156742D01*
X177083520Y-116152785D01*
X177083520Y-116124018D01*
X177082979Y-116119733D01*
X177082046Y-116107892D01*
X177080907Y-116071632D01*
X177080907Y-116071631D01*
X177080658Y-116063712D01*
X177078448Y-116056104D01*
X177078447Y-116056099D01*
X177075007Y-116044257D01*
X177070999Y-116024903D01*
X177069454Y-116012675D01*
X177068460Y-116004808D01*
X177065543Y-115997440D01*
X177065541Y-115997433D01*
X177052183Y-115963695D01*
X177048338Y-115952465D01*
X177038217Y-115917627D01*
X177038216Y-115917626D01*
X177036006Y-115910017D01*
X177025696Y-115892584D01*
X177017002Y-115874837D01*
X177009542Y-115855996D01*
X176983553Y-115820225D01*
X176977037Y-115810306D01*
X176954533Y-115772254D01*
X176954165Y-115771836D01*
X176940083Y-115757754D01*
X176927242Y-115742721D01*
X176920123Y-115732923D01*
X176915466Y-115726513D01*
X176881691Y-115698572D01*
X176872912Y-115690583D01*
X173689775Y-112507447D01*
X173682415Y-112499359D01*
X173678357Y-112492965D01*
X173629505Y-112447090D01*
X173626664Y-112444336D01*
X173606350Y-112424022D01*
X173602939Y-112421377D01*
X173593917Y-112413671D01*
X173567461Y-112388827D01*
X173561685Y-112383403D01*
X173554741Y-112379586D01*
X173554739Y-112379584D01*
X173543931Y-112373642D01*
X173527407Y-112362788D01*
X173517670Y-112355235D01*
X173517669Y-112355235D01*
X173511407Y-112350377D01*
X173504134Y-112347230D01*
X173504131Y-112347228D01*
X173483719Y-112338395D01*
X173470842Y-112332823D01*
X173460184Y-112327602D01*
X173428378Y-112310116D01*
X173428374Y-112310114D01*
X173421432Y-112306298D01*
X173413757Y-112304328D01*
X173413756Y-112304327D01*
X173401810Y-112301260D01*
X173383103Y-112294855D01*
X173371794Y-112289961D01*
X173371792Y-112289961D01*
X173364519Y-112286813D01*
X173356691Y-112285573D01*
X173356690Y-112285573D01*
X173320857Y-112279898D01*
X173309232Y-112277490D01*
X173272166Y-112267973D01*
X173272164Y-112267973D01*
X173266409Y-112266495D01*
X173265853Y-112266460D01*
X173245930Y-112266460D01*
X173226221Y-112264909D01*
X173206439Y-112261776D01*
X173198547Y-112262522D01*
X173162802Y-112265901D01*
X173150944Y-112266460D01*
X169459619Y-112266460D01*
X169391498Y-112246458D01*
X169345005Y-112192802D01*
X169333619Y-112140460D01*
X169333619Y-108670089D01*
X176617017Y-108670089D01*
X176651318Y-108894249D01*
X176724773Y-109108793D01*
X176835059Y-109306937D01*
X176978690Y-109482421D01*
X176982953Y-109486062D01*
X176982958Y-109486067D01*
X177132028Y-109613384D01*
X177151127Y-109629696D01*
X177260998Y-109693899D01*
X177340473Y-109740340D01*
X177346919Y-109744107D01*
X177352196Y-109746038D01*
X177355983Y-109747820D01*
X177409104Y-109794923D01*
X177428327Y-109863268D01*
X177407548Y-109931156D01*
X177360125Y-109973795D01*
X177289943Y-110010019D01*
X177206553Y-110053060D01*
X177026645Y-110191108D01*
X177022872Y-110195254D01*
X177022867Y-110195259D01*
X176926541Y-110301121D01*
X176874026Y-110358834D01*
X176753521Y-110550935D01*
X176668939Y-110761340D01*
X176622953Y-110983398D01*
X176617017Y-111210089D01*
X176651318Y-111434249D01*
X176724773Y-111648793D01*
X176835059Y-111846937D01*
X176978690Y-112022421D01*
X176982953Y-112026062D01*
X176982958Y-112026067D01*
X177116896Y-112140460D01*
X177151127Y-112169696D01*
X177249023Y-112226902D01*
X177342072Y-112281275D01*
X177342075Y-112281276D01*
X177346919Y-112284107D01*
X177352189Y-112286036D01*
X177352190Y-112286036D01*
X177554612Y-112360112D01*
X177554616Y-112360113D01*
X177559876Y-112362038D01*
X177565393Y-112363001D01*
X177565397Y-112363002D01*
X177713367Y-112388827D01*
X177783269Y-112401027D01*
X177788875Y-112400998D01*
X177788879Y-112400998D01*
X177892475Y-112400455D01*
X178010035Y-112399839D01*
X178015553Y-112398816D01*
X178015556Y-112398816D01*
X178227488Y-112359537D01*
X178227489Y-112359537D01*
X178233007Y-112358514D01*
X178238252Y-112356532D01*
X178238256Y-112356531D01*
X178401476Y-112294855D01*
X178445137Y-112278357D01*
X178465016Y-112266460D01*
X178588088Y-112192802D01*
X178639720Y-112161901D01*
X178643940Y-112158219D01*
X178643945Y-112158216D01*
X178806375Y-112016519D01*
X178810605Y-112012829D01*
X178821882Y-111998753D01*
X178948885Y-111840228D01*
X178948888Y-111840223D01*
X178952391Y-111835851D01*
X179060596Y-111636562D01*
X179131800Y-111421262D01*
X179163752Y-111196755D01*
X179165500Y-111130000D01*
X179145341Y-110904128D01*
X179106279Y-110761340D01*
X179086985Y-110690812D01*
X179086984Y-110690808D01*
X179085503Y-110685396D01*
X178987876Y-110480718D01*
X178855547Y-110296562D01*
X178692698Y-110138750D01*
X178565178Y-110053060D01*
X178509130Y-110015397D01*
X178509124Y-110015394D01*
X178504477Y-110012271D01*
X178424404Y-109977121D01*
X178370070Y-109931427D01*
X178349065Y-109863608D01*
X178368059Y-109795200D01*
X178421023Y-109747920D01*
X178430513Y-109743883D01*
X178439890Y-109740340D01*
X178439893Y-109740338D01*
X178445137Y-109738357D01*
X178639720Y-109621901D01*
X178643940Y-109618219D01*
X178643945Y-109618216D01*
X178806375Y-109476519D01*
X178810605Y-109472829D01*
X178895044Y-109367432D01*
X178948885Y-109300228D01*
X178948888Y-109300223D01*
X178952391Y-109295851D01*
X179060596Y-109096562D01*
X179131800Y-108881262D01*
X179140839Y-108817751D01*
X179163241Y-108660346D01*
X179163241Y-108660345D01*
X179163752Y-108656755D01*
X179165500Y-108590000D01*
X179145341Y-108364128D01*
X179106279Y-108221340D01*
X179086985Y-108150812D01*
X179086984Y-108150808D01*
X179085503Y-108145396D01*
X178987876Y-107940718D01*
X178855547Y-107756562D01*
X178692698Y-107598750D01*
X178565178Y-107513060D01*
X178509130Y-107475397D01*
X178509124Y-107475394D01*
X178504477Y-107472271D01*
X178499345Y-107470018D01*
X178499341Y-107470016D01*
X178423753Y-107436835D01*
X178369417Y-107391139D01*
X178348413Y-107323320D01*
X178367408Y-107254912D01*
X178420372Y-107207633D01*
X178429863Y-107203595D01*
X178439677Y-107199887D01*
X178449734Y-107195025D01*
X178575623Y-107119683D01*
X178585193Y-107109324D01*
X178581650Y-107100861D01*
X177902811Y-106422021D01*
X177888868Y-106414408D01*
X177887034Y-106414539D01*
X177880420Y-106418790D01*
X177201152Y-107098059D01*
X177194395Y-107110434D01*
X177199676Y-107117489D01*
X177342284Y-107200822D01*
X177356544Y-107207532D01*
X177409665Y-107254635D01*
X177428887Y-107322980D01*
X177408108Y-107390868D01*
X177360685Y-107433506D01*
X177289949Y-107470016D01*
X177206553Y-107513060D01*
X177026645Y-107651108D01*
X177022872Y-107655254D01*
X177022867Y-107655259D01*
X176934244Y-107752655D01*
X176874026Y-107818834D01*
X176871043Y-107823590D01*
X176871041Y-107823592D01*
X176810819Y-107919595D01*
X176753521Y-108010935D01*
X176668939Y-108221340D01*
X176622953Y-108443398D01*
X176617017Y-108670089D01*
X169333619Y-108670089D01*
X169333619Y-107114475D01*
X169353621Y-107046354D01*
X169370524Y-107025380D01*
X170271452Y-106124452D01*
X176617663Y-106124452D01*
X176618365Y-106135604D01*
X176650955Y-106348579D01*
X176653622Y-106359440D01*
X176723413Y-106563281D01*
X176727961Y-106573495D01*
X176819031Y-106737117D01*
X176829084Y-106747008D01*
X176836687Y-106744102D01*
X177517979Y-106062811D01*
X177524355Y-106051132D01*
X178254408Y-106051132D01*
X178254539Y-106052966D01*
X178258790Y-106059580D01*
X178940156Y-106740945D01*
X178952531Y-106747702D01*
X178958796Y-106743013D01*
X179057462Y-106561290D01*
X179061896Y-106551044D01*
X179129553Y-106346469D01*
X179132103Y-106335596D01*
X179162742Y-106120319D01*
X179163348Y-106113103D01*
X179164905Y-106053632D01*
X179164677Y-106046379D01*
X179145348Y-105829812D01*
X179143366Y-105818798D01*
X179086517Y-105610987D01*
X179082619Y-105600506D01*
X178989859Y-105406031D01*
X178984173Y-105396416D01*
X178960719Y-105363776D01*
X178949928Y-105355365D01*
X178936894Y-105362317D01*
X178262021Y-106037189D01*
X178254408Y-106051132D01*
X177524355Y-106051132D01*
X177525592Y-106048868D01*
X177525461Y-106047034D01*
X177521210Y-106040420D01*
X176843095Y-105362306D01*
X176830720Y-105355549D01*
X176822747Y-105361517D01*
X176756952Y-105466403D01*
X176751872Y-105476373D01*
X176671511Y-105676278D01*
X176668280Y-105686978D01*
X176624588Y-105897958D01*
X176623303Y-105909065D01*
X176617663Y-106124452D01*
X170271452Y-106124452D01*
X173200503Y-103195401D01*
X173262815Y-103161375D01*
X173289598Y-103158496D01*
X173345487Y-103158496D01*
X173351939Y-103157124D01*
X173351944Y-103157124D01*
X173450728Y-103136126D01*
X173532287Y-103118790D01*
X173538318Y-103116105D01*
X173700720Y-103043799D01*
X173700722Y-103043798D01*
X173706750Y-103041114D01*
X173712092Y-103037233D01*
X173855907Y-102932746D01*
X173855909Y-102932744D01*
X173861251Y-102928863D01*
X173922609Y-102860718D01*
X173984618Y-102791850D01*
X173984619Y-102791849D01*
X173989037Y-102786942D01*
X174084524Y-102621554D01*
X174118943Y-102515623D01*
X174141498Y-102446206D01*
X174141498Y-102446205D01*
X174143538Y-102439927D01*
X174150358Y-102375044D01*
X174162810Y-102256565D01*
X174163500Y-102250000D01*
X174150669Y-102127920D01*
X174144228Y-102066637D01*
X174144228Y-102066636D01*
X174143538Y-102060073D01*
X174132377Y-102025721D01*
X174086566Y-101884731D01*
X174084524Y-101878446D01*
X174071865Y-101856519D01*
X173992338Y-101718776D01*
X173989037Y-101713058D01*
X173958260Y-101678876D01*
X173865673Y-101576048D01*
X173865672Y-101576047D01*
X173861251Y-101571137D01*
X173855909Y-101567256D01*
X173855907Y-101567254D01*
X173712092Y-101462767D01*
X173712091Y-101462766D01*
X173706750Y-101458886D01*
X173700722Y-101456202D01*
X173700720Y-101456201D01*
X173538318Y-101383895D01*
X173538317Y-101383895D01*
X173532287Y-101381210D01*
X173438887Y-101361357D01*
X173351944Y-101342876D01*
X173351939Y-101342876D01*
X173345487Y-101341504D01*
X173154513Y-101341504D01*
X173148061Y-101342876D01*
X173148056Y-101342876D01*
X173061113Y-101361357D01*
X172967713Y-101381210D01*
X172961683Y-101383895D01*
X172961682Y-101383895D01*
X172799280Y-101456201D01*
X172799278Y-101456202D01*
X172793250Y-101458886D01*
X172787909Y-101462766D01*
X172787908Y-101462767D01*
X172644093Y-101567254D01*
X172644091Y-101567256D01*
X172638749Y-101571137D01*
X172634328Y-101576047D01*
X172634327Y-101576048D01*
X172541741Y-101678876D01*
X172510963Y-101713058D01*
X172507662Y-101718776D01*
X172428136Y-101856519D01*
X172415476Y-101878446D01*
X172413434Y-101884731D01*
X172369833Y-102018921D01*
X172329760Y-102077527D01*
X172264363Y-102105164D01*
X172194406Y-102093057D01*
X172142100Y-102045051D01*
X172130167Y-102018921D01*
X172086566Y-101884731D01*
X172084524Y-101878446D01*
X172071865Y-101856519D01*
X171992338Y-101718776D01*
X171989037Y-101713058D01*
X171958260Y-101678876D01*
X171865673Y-101576048D01*
X171865672Y-101576047D01*
X171861251Y-101571137D01*
X171855909Y-101567256D01*
X171855907Y-101567254D01*
X171712092Y-101462767D01*
X171712091Y-101462766D01*
X171706750Y-101458886D01*
X171700722Y-101456202D01*
X171700720Y-101456201D01*
X171538318Y-101383895D01*
X171538317Y-101383895D01*
X171532287Y-101381210D01*
X171438887Y-101361357D01*
X171351944Y-101342876D01*
X171351939Y-101342876D01*
X171345487Y-101341504D01*
X171154513Y-101341504D01*
X171148061Y-101342876D01*
X171148056Y-101342876D01*
X171061113Y-101361357D01*
X170967713Y-101381210D01*
X170961683Y-101383895D01*
X170961682Y-101383895D01*
X170799280Y-101456201D01*
X170799278Y-101456202D01*
X170793250Y-101458886D01*
X170787909Y-101462766D01*
X170787908Y-101462767D01*
X170644093Y-101567254D01*
X170644091Y-101567256D01*
X170638749Y-101571137D01*
X170634328Y-101576047D01*
X170634327Y-101576048D01*
X170541741Y-101678876D01*
X170510963Y-101713058D01*
X170507662Y-101718776D01*
X170428136Y-101856519D01*
X170415476Y-101878446D01*
X170413434Y-101884731D01*
X170367624Y-102025721D01*
X170356462Y-102060073D01*
X170355772Y-102066636D01*
X170355772Y-102066637D01*
X170339097Y-102225290D01*
X170312084Y-102290946D01*
X170302882Y-102301214D01*
X168648674Y-103955422D01*
X168586362Y-103989448D01*
X168515547Y-103984383D01*
X168458711Y-103941836D01*
X168433900Y-103875316D01*
X168433579Y-103866327D01*
X168433579Y-103582766D01*
X168434093Y-103571862D01*
X168435745Y-103564471D01*
X168433641Y-103497517D01*
X168433579Y-103493559D01*
X168433579Y-103464805D01*
X168433040Y-103460538D01*
X168432106Y-103448688D01*
X168430967Y-103412423D01*
X168430718Y-103404500D01*
X168425067Y-103385049D01*
X168421057Y-103365687D01*
X168420074Y-103357901D01*
X168418519Y-103345595D01*
X168402245Y-103304491D01*
X168398400Y-103293261D01*
X168388277Y-103258417D01*
X168388276Y-103258415D01*
X168386065Y-103250804D01*
X168375756Y-103233372D01*
X168367059Y-103215619D01*
X168362521Y-103204158D01*
X168359601Y-103196783D01*
X168333610Y-103161009D01*
X168327095Y-103151090D01*
X168307608Y-103118141D01*
X168307606Y-103118138D01*
X168304592Y-103113042D01*
X168304224Y-103112624D01*
X168290141Y-103098541D01*
X168277307Y-103083516D01*
X168265525Y-103067300D01*
X168231744Y-103039354D01*
X168222965Y-103031365D01*
X168070445Y-102878845D01*
X168036419Y-102816533D01*
X168033540Y-102789750D01*
X168033538Y-99205586D01*
X168034052Y-99194672D01*
X168035705Y-99187279D01*
X168033600Y-99120306D01*
X168033538Y-99116349D01*
X168033538Y-99087613D01*
X168032999Y-99083345D01*
X168032066Y-99071502D01*
X168030926Y-99035226D01*
X168030677Y-99027307D01*
X168025024Y-99007847D01*
X168021017Y-98988504D01*
X168018478Y-98968403D01*
X168015560Y-98961033D01*
X168015559Y-98961029D01*
X168002207Y-98927306D01*
X167998362Y-98916076D01*
X167988237Y-98881225D01*
X167988236Y-98881223D01*
X167986025Y-98873612D01*
X167975712Y-98856173D01*
X167967018Y-98838428D01*
X167959560Y-98819591D01*
X167933571Y-98783821D01*
X167927059Y-98773907D01*
X167907586Y-98740980D01*
X167904552Y-98735849D01*
X167904183Y-98735431D01*
X167890101Y-98721349D01*
X167877260Y-98706316D01*
X167870141Y-98696518D01*
X167865484Y-98690108D01*
X167831708Y-98662166D01*
X167822929Y-98654177D01*
X167370425Y-98201673D01*
X167336399Y-98139361D01*
X167333520Y-98112578D01*
X167333520Y-97034496D01*
X167353522Y-96966375D01*
X167407178Y-96919882D01*
X167459520Y-96908496D01*
X167595487Y-96908496D01*
X167601939Y-96907124D01*
X167601944Y-96907124D01*
X167688887Y-96888643D01*
X167782287Y-96868790D01*
X167877602Y-96826353D01*
X167950720Y-96793799D01*
X167950722Y-96793798D01*
X167956750Y-96791114D01*
X167974690Y-96778080D01*
X168105907Y-96682746D01*
X168105909Y-96682744D01*
X168111251Y-96678863D01*
X168115672Y-96673953D01*
X168120575Y-96669538D01*
X168121701Y-96670789D01*
X168175000Y-96637951D01*
X168208194Y-96633500D01*
X168921617Y-96633500D01*
X168932521Y-96634014D01*
X168939912Y-96635666D01*
X168947837Y-96635417D01*
X168947838Y-96635417D01*
X169006853Y-96633562D01*
X169010811Y-96633500D01*
X169039578Y-96633500D01*
X169043502Y-96633004D01*
X169043504Y-96633004D01*
X169043852Y-96632960D01*
X169055698Y-96632027D01*
X169099883Y-96630638D01*
X169119339Y-96624986D01*
X169138679Y-96620981D01*
X169158788Y-96618440D01*
X169166158Y-96615522D01*
X169166162Y-96615521D01*
X169199900Y-96602163D01*
X169211130Y-96598318D01*
X169245968Y-96588197D01*
X169245969Y-96588197D01*
X169253578Y-96585986D01*
X169271012Y-96575676D01*
X169288764Y-96566980D01*
X169300225Y-96562442D01*
X169300224Y-96562442D01*
X169307600Y-96559522D01*
X169343375Y-96533530D01*
X169353294Y-96527014D01*
X169359236Y-96523500D01*
X169391341Y-96504513D01*
X169391759Y-96504145D01*
X169405842Y-96490062D01*
X169420867Y-96477228D01*
X169437083Y-96465446D01*
X169465030Y-96431664D01*
X169473019Y-96422885D01*
X171524598Y-94371307D01*
X171586910Y-94337281D01*
X171657726Y-94342346D01*
X171664942Y-94345295D01*
X171671409Y-94348174D01*
X171717713Y-94368790D01*
X171811113Y-94388643D01*
X171898056Y-94407124D01*
X171898061Y-94407124D01*
X171904513Y-94408496D01*
X172095487Y-94408496D01*
X172101939Y-94407124D01*
X172101944Y-94407124D01*
X172188887Y-94388643D01*
X172282287Y-94368790D01*
X172317096Y-94353292D01*
X172450720Y-94293799D01*
X172450722Y-94293798D01*
X172456750Y-94291114D01*
X172462092Y-94287233D01*
X172605907Y-94182746D01*
X172605909Y-94182744D01*
X172611251Y-94178863D01*
X172688674Y-94092876D01*
X172734618Y-94041850D01*
X172734619Y-94041849D01*
X172739037Y-94036942D01*
X172834524Y-93871554D01*
X172859043Y-93796093D01*
X172891498Y-93696206D01*
X172891498Y-93696205D01*
X172893538Y-93689927D01*
X172913500Y-93500000D01*
X172898046Y-93352966D01*
X172894228Y-93316637D01*
X172894228Y-93316636D01*
X172893538Y-93310073D01*
X172834524Y-93128446D01*
X172739037Y-92963058D01*
X172716081Y-92937562D01*
X172615673Y-92826048D01*
X172615672Y-92826047D01*
X172611251Y-92821137D01*
X172605909Y-92817256D01*
X172605907Y-92817254D01*
X172462092Y-92712767D01*
X172462091Y-92712766D01*
X172456750Y-92708886D01*
X172450722Y-92706202D01*
X172450720Y-92706201D01*
X172288318Y-92633895D01*
X172288317Y-92633895D01*
X172282287Y-92631210D01*
X172188887Y-92611357D01*
X172101944Y-92592876D01*
X172101939Y-92592876D01*
X172095487Y-92591504D01*
X171904513Y-92591504D01*
X171898061Y-92592876D01*
X171898056Y-92592876D01*
X171811113Y-92611357D01*
X171717713Y-92631210D01*
X171711683Y-92633895D01*
X171711682Y-92633895D01*
X171549280Y-92706201D01*
X171549278Y-92706202D01*
X171543250Y-92708886D01*
X171537909Y-92712766D01*
X171537908Y-92712767D01*
X171394093Y-92817254D01*
X171394091Y-92817256D01*
X171388749Y-92821137D01*
X171350312Y-92863826D01*
X171303044Y-92896672D01*
X171300085Y-92897843D01*
X171288872Y-92901681D01*
X171275120Y-92905676D01*
X171246421Y-92914014D01*
X171228988Y-92924324D01*
X171211241Y-92933018D01*
X171192400Y-92940478D01*
X171185985Y-92945139D01*
X171156629Y-92966467D01*
X171146712Y-92972982D01*
X171108658Y-92995487D01*
X171108240Y-92995855D01*
X171094158Y-93009937D01*
X171079125Y-93022778D01*
X171062917Y-93034554D01*
X171057865Y-93040661D01*
X171034976Y-93068329D01*
X171026986Y-93077109D01*
X171002291Y-93101804D01*
X170939979Y-93135830D01*
X170869164Y-93130765D01*
X170812328Y-93088218D01*
X170804077Y-93075710D01*
X170780315Y-93034554D01*
X170739037Y-92963058D01*
X170716081Y-92937562D01*
X170615673Y-92826048D01*
X170615672Y-92826047D01*
X170611251Y-92821137D01*
X170605909Y-92817256D01*
X170605907Y-92817254D01*
X170462092Y-92712767D01*
X170462091Y-92712766D01*
X170456750Y-92708886D01*
X170450722Y-92706202D01*
X170450720Y-92706201D01*
X170288318Y-92633895D01*
X170288317Y-92633895D01*
X170282287Y-92631210D01*
X170188887Y-92611357D01*
X170101944Y-92592876D01*
X170101939Y-92592876D01*
X170095487Y-92591504D01*
X169904513Y-92591504D01*
X169898061Y-92592876D01*
X169898056Y-92592876D01*
X169811113Y-92611357D01*
X169717713Y-92631210D01*
X169711683Y-92633895D01*
X169711682Y-92633895D01*
X169549280Y-92706201D01*
X169549278Y-92706202D01*
X169543250Y-92708886D01*
X169537909Y-92712766D01*
X169537908Y-92712767D01*
X169394093Y-92817254D01*
X169394091Y-92817256D01*
X169388749Y-92821137D01*
X169384328Y-92826047D01*
X169384327Y-92826048D01*
X169283920Y-92937562D01*
X169260963Y-92963058D01*
X169165476Y-93128446D01*
X169106462Y-93310073D01*
X169105772Y-93316636D01*
X169105772Y-93316637D01*
X169089097Y-93475290D01*
X169062084Y-93540946D01*
X169052882Y-93551214D01*
X168774501Y-93829595D01*
X168712189Y-93863621D01*
X168685406Y-93866500D01*
X168208194Y-93866500D01*
X168140073Y-93846498D01*
X168120849Y-93830158D01*
X168120575Y-93830462D01*
X168115672Y-93826047D01*
X168111251Y-93821137D01*
X168105909Y-93817256D01*
X168105907Y-93817254D01*
X167962092Y-93712767D01*
X167962091Y-93712766D01*
X167956750Y-93708886D01*
X167950722Y-93706202D01*
X167950720Y-93706201D01*
X167788318Y-93633895D01*
X167788317Y-93633895D01*
X167782287Y-93631210D01*
X167688887Y-93611357D01*
X167601944Y-93592876D01*
X167601939Y-93592876D01*
X167595487Y-93591504D01*
X167459520Y-93591504D01*
X167391399Y-93571502D01*
X167344906Y-93517846D01*
X167333520Y-93465504D01*
X167333520Y-84525622D01*
X167353522Y-84457501D01*
X167407178Y-84411008D01*
X167477452Y-84400904D01*
X167485719Y-84402376D01*
X167508051Y-84407123D01*
X167508054Y-84407123D01*
X167514512Y-84408496D01*
X167705486Y-84408496D01*
X167711938Y-84407124D01*
X167711943Y-84407124D01*
X167889303Y-84369424D01*
X167960094Y-84374826D01*
X168016726Y-84417643D01*
X168041220Y-84484280D01*
X168041500Y-84492671D01*
X168041500Y-84892885D01*
X168056978Y-85025642D01*
X168059474Y-85032520D01*
X168059475Y-85032522D01*
X168102457Y-85150935D01*
X168117313Y-85191863D01*
X168214269Y-85339746D01*
X168342645Y-85461357D01*
X168495555Y-85550174D01*
X168502563Y-85552297D01*
X168502564Y-85552297D01*
X168563619Y-85570789D01*
X168664796Y-85601433D01*
X168671232Y-85602007D01*
X168671235Y-85602008D01*
X168741185Y-85608251D01*
X168741191Y-85608251D01*
X168743978Y-85608500D01*
X169410405Y-85608500D01*
X169478526Y-85628502D01*
X169499501Y-85645405D01*
X169888344Y-86034249D01*
X170271623Y-86417528D01*
X170278972Y-86425606D01*
X170283027Y-86431995D01*
X170288802Y-86437418D01*
X170331862Y-86477854D01*
X170334704Y-86480609D01*
X170355033Y-86500938D01*
X170358453Y-86503590D01*
X170367476Y-86511297D01*
X170399699Y-86541557D01*
X170406643Y-86545374D01*
X170406648Y-86545378D01*
X170417450Y-86551316D01*
X170433977Y-86562172D01*
X170449977Y-86574583D01*
X170457248Y-86577730D01*
X170457249Y-86577730D01*
X170490551Y-86592141D01*
X170501207Y-86597362D01*
X170539952Y-86618662D01*
X170547635Y-86620634D01*
X170547636Y-86620635D01*
X170559568Y-86623699D01*
X170578272Y-86630103D01*
X170589585Y-86634999D01*
X170589592Y-86635001D01*
X170596864Y-86638148D01*
X170604688Y-86639387D01*
X170604691Y-86639388D01*
X170640535Y-86645065D01*
X170652156Y-86647472D01*
X170689218Y-86656987D01*
X170694975Y-86658465D01*
X170695531Y-86658500D01*
X170715452Y-86658500D01*
X170735162Y-86660051D01*
X170747114Y-86661944D01*
X170747115Y-86661944D01*
X170754944Y-86663184D01*
X170762836Y-86662438D01*
X170798582Y-86659059D01*
X170810440Y-86658500D01*
X173308768Y-86658500D01*
X173376889Y-86678502D01*
X173423382Y-86732158D01*
X173433486Y-86802432D01*
X173432954Y-86805418D01*
X173431442Y-86810073D01*
X173411480Y-87000000D01*
X173412170Y-87006565D01*
X173427248Y-87150019D01*
X173431442Y-87189927D01*
X173490456Y-87371554D01*
X173585943Y-87536942D01*
X173590361Y-87541849D01*
X173590362Y-87541850D01*
X173709307Y-87673952D01*
X173713729Y-87678863D01*
X173719071Y-87682744D01*
X173719073Y-87682746D01*
X173862888Y-87787233D01*
X173868230Y-87791114D01*
X173874258Y-87793798D01*
X173874260Y-87793799D01*
X173957393Y-87830812D01*
X174042693Y-87868790D01*
X174136093Y-87888643D01*
X174223036Y-87907124D01*
X174223041Y-87907124D01*
X174229493Y-87908496D01*
X174420467Y-87908496D01*
X174426919Y-87907124D01*
X174426924Y-87907124D01*
X174513867Y-87888643D01*
X174607267Y-87868790D01*
X174692567Y-87830812D01*
X174775700Y-87793799D01*
X174775702Y-87793798D01*
X174781730Y-87791114D01*
X174787072Y-87787233D01*
X174930887Y-87682746D01*
X174930889Y-87682744D01*
X174936231Y-87678863D01*
X174940653Y-87673952D01*
X175059598Y-87541850D01*
X175059599Y-87541849D01*
X175064017Y-87536942D01*
X175131381Y-87420264D01*
X175182763Y-87371271D01*
X175252477Y-87357835D01*
X175318388Y-87384221D01*
X175359570Y-87442053D01*
X175366500Y-87483264D01*
X175366501Y-93921600D01*
X175365986Y-93932520D01*
X175364334Y-93939912D01*
X175364583Y-93947835D01*
X175366439Y-94006884D01*
X175366501Y-94010842D01*
X175366501Y-94039578D01*
X175366996Y-94043495D01*
X175367040Y-94043844D01*
X175367972Y-94055678D01*
X175369362Y-94099883D01*
X175371575Y-94107499D01*
X175371575Y-94107501D01*
X175375014Y-94119339D01*
X175379023Y-94138698D01*
X175381561Y-94158788D01*
X175384481Y-94166163D01*
X175397833Y-94199889D01*
X175401678Y-94211118D01*
X175414014Y-94253578D01*
X175418049Y-94260401D01*
X175424327Y-94271017D01*
X175433023Y-94288769D01*
X175440479Y-94307600D01*
X175453882Y-94326048D01*
X175466468Y-94343371D01*
X175472983Y-94353289D01*
X175495487Y-94391341D01*
X175495855Y-94391759D01*
X175509938Y-94405842D01*
X175522779Y-94420875D01*
X175534555Y-94437083D01*
X175568330Y-94465024D01*
X175577110Y-94473014D01*
X176613402Y-95509307D01*
X176647428Y-95571619D01*
X176647689Y-95623951D01*
X176622953Y-95743398D01*
X176622806Y-95749007D01*
X176622806Y-95749008D01*
X176621633Y-95793799D01*
X176617017Y-95970089D01*
X176617866Y-95975635D01*
X176649397Y-96181694D01*
X176639929Y-96252057D01*
X176593924Y-96306131D01*
X176525986Y-96326748D01*
X176457688Y-96307363D01*
X176435752Y-96289848D01*
X175197118Y-95051214D01*
X175163092Y-94988902D01*
X175160903Y-94975290D01*
X175144228Y-94816637D01*
X175144228Y-94816636D01*
X175143538Y-94810073D01*
X175131256Y-94772271D01*
X175086566Y-94634731D01*
X175084524Y-94628446D01*
X175076836Y-94615129D01*
X174994785Y-94473014D01*
X174989037Y-94463058D01*
X174959878Y-94430673D01*
X174865673Y-94326048D01*
X174865672Y-94326047D01*
X174861251Y-94321137D01*
X174855909Y-94317256D01*
X174855907Y-94317254D01*
X174712092Y-94212767D01*
X174712091Y-94212766D01*
X174706750Y-94208886D01*
X174700722Y-94206202D01*
X174700720Y-94206201D01*
X174538318Y-94133895D01*
X174538317Y-94133895D01*
X174532287Y-94131210D01*
X174438887Y-94111357D01*
X174351944Y-94092876D01*
X174351939Y-94092876D01*
X174345487Y-94091504D01*
X174154513Y-94091504D01*
X174148061Y-94092876D01*
X174148056Y-94092876D01*
X174061113Y-94111357D01*
X173967713Y-94131210D01*
X173961683Y-94133895D01*
X173961682Y-94133895D01*
X173799280Y-94206201D01*
X173799278Y-94206202D01*
X173793250Y-94208886D01*
X173787909Y-94212766D01*
X173787908Y-94212767D01*
X173644093Y-94317254D01*
X173644091Y-94317256D01*
X173638749Y-94321137D01*
X173634328Y-94326047D01*
X173634327Y-94326048D01*
X173540123Y-94430673D01*
X173510963Y-94463058D01*
X173505215Y-94473014D01*
X173423165Y-94615129D01*
X173415476Y-94628446D01*
X173413434Y-94634731D01*
X173368745Y-94772271D01*
X173356462Y-94810073D01*
X173355772Y-94816636D01*
X173355772Y-94816637D01*
X173344689Y-94922086D01*
X173336500Y-95000000D01*
X173337190Y-95006565D01*
X173352560Y-95152797D01*
X173356462Y-95189927D01*
X173358502Y-95196205D01*
X173358502Y-95196206D01*
X173372965Y-95240718D01*
X173415476Y-95371554D01*
X173418779Y-95377276D01*
X173418780Y-95377277D01*
X173452689Y-95436008D01*
X173510963Y-95536942D01*
X173515381Y-95541849D01*
X173515382Y-95541850D01*
X173630520Y-95669724D01*
X173638749Y-95678863D01*
X173644091Y-95682744D01*
X173644093Y-95682746D01*
X173787908Y-95787233D01*
X173793250Y-95791114D01*
X173799278Y-95793798D01*
X173799280Y-95793799D01*
X173961682Y-95866105D01*
X173967713Y-95868790D01*
X174050462Y-95886379D01*
X174148056Y-95907124D01*
X174148061Y-95907124D01*
X174154513Y-95908496D01*
X174210402Y-95908496D01*
X174278523Y-95928498D01*
X174299497Y-95945401D01*
X174731751Y-96377655D01*
X174765777Y-96439967D01*
X174760712Y-96510782D01*
X174718165Y-96567618D01*
X174657243Y-96591504D01*
X174654513Y-96591504D01*
X174648061Y-96592876D01*
X174648056Y-96592876D01*
X174586828Y-96605891D01*
X174467713Y-96631210D01*
X174461683Y-96633895D01*
X174461682Y-96633895D01*
X174299280Y-96706201D01*
X174299278Y-96706202D01*
X174293250Y-96708886D01*
X174287909Y-96712766D01*
X174287908Y-96712767D01*
X174144093Y-96817254D01*
X174144091Y-96817256D01*
X174138749Y-96821137D01*
X174134328Y-96826047D01*
X174134327Y-96826048D01*
X174045429Y-96924780D01*
X174010963Y-96963058D01*
X173965806Y-97041272D01*
X173919176Y-97122038D01*
X173915476Y-97128446D01*
X173895090Y-97191188D01*
X173860389Y-97297988D01*
X173856462Y-97310073D01*
X173855772Y-97316636D01*
X173855772Y-97316637D01*
X173847405Y-97396243D01*
X173836500Y-97500000D01*
X173837190Y-97506565D01*
X173852758Y-97654681D01*
X173856462Y-97689927D01*
X173915476Y-97871554D01*
X174010963Y-98036942D01*
X174138749Y-98178863D01*
X174144091Y-98182744D01*
X174144093Y-98182746D01*
X174266050Y-98271352D01*
X174293250Y-98291114D01*
X174299277Y-98293797D01*
X174299285Y-98293802D01*
X174311504Y-98299242D01*
X174349349Y-98325253D01*
X176613402Y-100589306D01*
X176647428Y-100651618D01*
X176647689Y-100703952D01*
X176624091Y-100817900D01*
X176624091Y-100817901D01*
X176622953Y-100823398D01*
X176617017Y-101050089D01*
X176651318Y-101274249D01*
X176724773Y-101488793D01*
X176835059Y-101686937D01*
X176838612Y-101691277D01*
X176838614Y-101691281D01*
X176932234Y-101805663D01*
X176978690Y-101862421D01*
X176982953Y-101866062D01*
X176982958Y-101866067D01*
X177132028Y-101993384D01*
X177151127Y-102009696D01*
X177211630Y-102045051D01*
X177340473Y-102120340D01*
X177346919Y-102124107D01*
X177352196Y-102126038D01*
X177355983Y-102127820D01*
X177409104Y-102174923D01*
X177428327Y-102243268D01*
X177407548Y-102311156D01*
X177360125Y-102353795D01*
X177318956Y-102375044D01*
X177206553Y-102433060D01*
X177026645Y-102571108D01*
X177022872Y-102575254D01*
X177022867Y-102575259D01*
X176926541Y-102681121D01*
X176874026Y-102738834D01*
X176871043Y-102743590D01*
X176871041Y-102743592D01*
X176809348Y-102841940D01*
X176753521Y-102930935D01*
X176668939Y-103141340D01*
X176667800Y-103146841D01*
X176626640Y-103345595D01*
X176622953Y-103363398D01*
X176617017Y-103590089D01*
X176651318Y-103814249D01*
X176724773Y-104028793D01*
X176835059Y-104226937D01*
X176838612Y-104231277D01*
X176838614Y-104231281D01*
X176946296Y-104362843D01*
X176978690Y-104402421D01*
X176982953Y-104406062D01*
X176982958Y-104406067D01*
X177053507Y-104466321D01*
X177151127Y-104549696D01*
X177207949Y-104582900D01*
X177340466Y-104660336D01*
X177346919Y-104664107D01*
X177352185Y-104666034D01*
X177356554Y-104668090D01*
X177409674Y-104715194D01*
X177428895Y-104783539D01*
X177408114Y-104851427D01*
X177360693Y-104894063D01*
X177211803Y-104970910D01*
X177202372Y-104976895D01*
X177201883Y-104977271D01*
X177193418Y-104988863D01*
X177200050Y-105000839D01*
X177877189Y-105677979D01*
X177891132Y-105685592D01*
X177892966Y-105685461D01*
X177899580Y-105681210D01*
X178577460Y-105003329D01*
X178583682Y-104991935D01*
X178573870Y-104979502D01*
X178508892Y-104935838D01*
X178499098Y-104930454D01*
X178423739Y-104897373D01*
X178369404Y-104851677D01*
X178348399Y-104783859D01*
X178367394Y-104715450D01*
X178420358Y-104668171D01*
X178429828Y-104664142D01*
X178445137Y-104658357D01*
X178452035Y-104654229D01*
X178534809Y-104604689D01*
X178639720Y-104541901D01*
X178643940Y-104538219D01*
X178643945Y-104538216D01*
X178806375Y-104396519D01*
X178810605Y-104392829D01*
X178874235Y-104313406D01*
X178948885Y-104220228D01*
X178948888Y-104220223D01*
X178952391Y-104215851D01*
X179060596Y-104016562D01*
X179131800Y-103801262D01*
X179163752Y-103576755D01*
X179165500Y-103510000D01*
X179145341Y-103284128D01*
X179106279Y-103141340D01*
X179086985Y-103070812D01*
X179086984Y-103070808D01*
X179085503Y-103065396D01*
X178987876Y-102860718D01*
X178855547Y-102676562D01*
X178769029Y-102592720D01*
X178696726Y-102522653D01*
X178696723Y-102522651D01*
X178692698Y-102518750D01*
X178613034Y-102465218D01*
X178509130Y-102395397D01*
X178509124Y-102395394D01*
X178504477Y-102392271D01*
X178424404Y-102357121D01*
X178370070Y-102311427D01*
X178349065Y-102243608D01*
X178368059Y-102175200D01*
X178421023Y-102127920D01*
X178430513Y-102123883D01*
X178439890Y-102120340D01*
X178439893Y-102120338D01*
X178445137Y-102118357D01*
X178487444Y-102093037D01*
X178593776Y-102029398D01*
X178639720Y-102001901D01*
X178643940Y-101998219D01*
X178643945Y-101998216D01*
X178806375Y-101856519D01*
X178810605Y-101852829D01*
X178926515Y-101708150D01*
X178948885Y-101680228D01*
X178948888Y-101680223D01*
X178952391Y-101675851D01*
X179060596Y-101476562D01*
X179131800Y-101261262D01*
X179163752Y-101036755D01*
X179165500Y-100970000D01*
X179145341Y-100744128D01*
X179106279Y-100601340D01*
X179086985Y-100530812D01*
X179086984Y-100530808D01*
X179085503Y-100525396D01*
X178987876Y-100320718D01*
X178855547Y-100136562D01*
X178740029Y-100024617D01*
X178696726Y-99982653D01*
X178696723Y-99982651D01*
X178692698Y-99978750D01*
X178627037Y-99934628D01*
X178509130Y-99855397D01*
X178509124Y-99855394D01*
X178504477Y-99852271D01*
X178424404Y-99817121D01*
X178370070Y-99771427D01*
X178349065Y-99703608D01*
X178368059Y-99635200D01*
X178421023Y-99587920D01*
X178430513Y-99583883D01*
X178439890Y-99580340D01*
X178439893Y-99580338D01*
X178445137Y-99578357D01*
X178639720Y-99461901D01*
X178643940Y-99458219D01*
X178643945Y-99458216D01*
X178806375Y-99316519D01*
X178810605Y-99312829D01*
X178842491Y-99273029D01*
X178948885Y-99140228D01*
X178948888Y-99140223D01*
X178952391Y-99135851D01*
X179060596Y-98936562D01*
X179131800Y-98721262D01*
X179163752Y-98496755D01*
X179165500Y-98430000D01*
X179145341Y-98204128D01*
X179106279Y-98061340D01*
X179086985Y-97990812D01*
X179086984Y-97990808D01*
X179085503Y-97985396D01*
X178987876Y-97780718D01*
X178855547Y-97596562D01*
X178750426Y-97494692D01*
X178696726Y-97442653D01*
X178696723Y-97442651D01*
X178692698Y-97438750D01*
X178565178Y-97353060D01*
X178509130Y-97315397D01*
X178509124Y-97315394D01*
X178504477Y-97312271D01*
X178424404Y-97277121D01*
X178370070Y-97231427D01*
X178349065Y-97163608D01*
X178368059Y-97095200D01*
X178421023Y-97047920D01*
X178430513Y-97043883D01*
X178439890Y-97040340D01*
X178439893Y-97040338D01*
X178445137Y-97038357D01*
X178476991Y-97019293D01*
X178561398Y-96968776D01*
X178639720Y-96921901D01*
X178643940Y-96918219D01*
X178643945Y-96918216D01*
X178806375Y-96776519D01*
X178810605Y-96772829D01*
X178889219Y-96674703D01*
X178948885Y-96600228D01*
X178948888Y-96600223D01*
X178952391Y-96595851D01*
X179060596Y-96396562D01*
X179131800Y-96181262D01*
X179163752Y-95956755D01*
X179165500Y-95890000D01*
X179163730Y-95870162D01*
X179156328Y-95787233D01*
X179145341Y-95664128D01*
X179106279Y-95521340D01*
X179086985Y-95450812D01*
X179086984Y-95450808D01*
X179085503Y-95445396D01*
X178987876Y-95240718D01*
X178855547Y-95056562D01*
X178692698Y-94898750D01*
X178590807Y-94830282D01*
X178509130Y-94775397D01*
X178509124Y-94775394D01*
X178504477Y-94772271D01*
X178499345Y-94770018D01*
X178499341Y-94770016D01*
X178423753Y-94736835D01*
X178369417Y-94691139D01*
X178348413Y-94623320D01*
X178367408Y-94554912D01*
X178420372Y-94507633D01*
X178429863Y-94503595D01*
X178439677Y-94499887D01*
X178449734Y-94495025D01*
X178575623Y-94419683D01*
X178585193Y-94409324D01*
X178581650Y-94400861D01*
X177531922Y-93351132D01*
X178254408Y-93351132D01*
X178254539Y-93352966D01*
X178258790Y-93359580D01*
X178940156Y-94040945D01*
X178952531Y-94047702D01*
X178958796Y-94043013D01*
X179057462Y-93861290D01*
X179061896Y-93851044D01*
X179129553Y-93646469D01*
X179132103Y-93635596D01*
X179162742Y-93420319D01*
X179163348Y-93413103D01*
X179164905Y-93353632D01*
X179164677Y-93346379D01*
X179145348Y-93129812D01*
X179143366Y-93118798D01*
X179086517Y-92910987D01*
X179082619Y-92900506D01*
X178989859Y-92706031D01*
X178984173Y-92696416D01*
X178960719Y-92663776D01*
X178949928Y-92655365D01*
X178936894Y-92662317D01*
X178262021Y-93337189D01*
X178254408Y-93351132D01*
X177531922Y-93351132D01*
X177530790Y-93350000D01*
X176843097Y-92662308D01*
X176829156Y-92654696D01*
X176828578Y-92654737D01*
X176768490Y-92677150D01*
X176699116Y-92662059D01*
X176648913Y-92611858D01*
X176633500Y-92551471D01*
X176633500Y-91633555D01*
X176653502Y-91565434D01*
X176707158Y-91518941D01*
X176777432Y-91508837D01*
X176842012Y-91538331D01*
X176857004Y-91553749D01*
X176922324Y-91633555D01*
X176978690Y-91702421D01*
X176982953Y-91706062D01*
X176982958Y-91706067D01*
X177132028Y-91833384D01*
X177151127Y-91849696D01*
X177279359Y-91924628D01*
X177340466Y-91960336D01*
X177346919Y-91964107D01*
X177352185Y-91966034D01*
X177356554Y-91968090D01*
X177409674Y-92015194D01*
X177428895Y-92083539D01*
X177408114Y-92151427D01*
X177360693Y-92194063D01*
X177211803Y-92270910D01*
X177202372Y-92276895D01*
X177201883Y-92277271D01*
X177193418Y-92288863D01*
X177200050Y-92300839D01*
X177877189Y-92977979D01*
X177891132Y-92985592D01*
X177892966Y-92985461D01*
X177899580Y-92981210D01*
X178577460Y-92303329D01*
X178583682Y-92291935D01*
X178573870Y-92279502D01*
X178508892Y-92235838D01*
X178499098Y-92230454D01*
X178423739Y-92197373D01*
X178369404Y-92151677D01*
X178348399Y-92083859D01*
X178367394Y-92015450D01*
X178420358Y-91968171D01*
X178429828Y-91964142D01*
X178445137Y-91958357D01*
X178469402Y-91943835D01*
X178601166Y-91864975D01*
X178639720Y-91841901D01*
X178643940Y-91838219D01*
X178643945Y-91838216D01*
X178806375Y-91696519D01*
X178810605Y-91692829D01*
X178844956Y-91649952D01*
X178948885Y-91520228D01*
X178948888Y-91520223D01*
X178952391Y-91515851D01*
X179060596Y-91316562D01*
X179131800Y-91101262D01*
X179163752Y-90876755D01*
X179165500Y-90810000D01*
X179145341Y-90584128D01*
X179106279Y-90441340D01*
X179086985Y-90370812D01*
X179086984Y-90370808D01*
X179085503Y-90365396D01*
X178987876Y-90160718D01*
X178855547Y-89976562D01*
X178692698Y-89818750D01*
X178565178Y-89733060D01*
X178509130Y-89695397D01*
X178509124Y-89695394D01*
X178504477Y-89692271D01*
X178424404Y-89657121D01*
X178370070Y-89611427D01*
X178349065Y-89543608D01*
X178368059Y-89475200D01*
X178421023Y-89427920D01*
X178430513Y-89423883D01*
X178439890Y-89420340D01*
X178439893Y-89420338D01*
X178445137Y-89418357D01*
X178639720Y-89301901D01*
X178643940Y-89298219D01*
X178643945Y-89298216D01*
X178806375Y-89156519D01*
X178810605Y-89152829D01*
X178843777Y-89111424D01*
X178948885Y-88980228D01*
X178948888Y-88980223D01*
X178952391Y-88975851D01*
X179060596Y-88776562D01*
X179131800Y-88561262D01*
X179163752Y-88336755D01*
X179165500Y-88270000D01*
X179145341Y-88044128D01*
X179106279Y-87901340D01*
X179086985Y-87830812D01*
X179086984Y-87830808D01*
X179085503Y-87825396D01*
X178987876Y-87620718D01*
X178855547Y-87436562D01*
X178782567Y-87365839D01*
X178696726Y-87282653D01*
X178696723Y-87282651D01*
X178692698Y-87278750D01*
X178600611Y-87216870D01*
X178509130Y-87155397D01*
X178509124Y-87155394D01*
X178504477Y-87152271D01*
X178424404Y-87117121D01*
X178370070Y-87071427D01*
X178349065Y-87003608D01*
X178368059Y-86935200D01*
X178421023Y-86887920D01*
X178430513Y-86883883D01*
X178439890Y-86880340D01*
X178439893Y-86880338D01*
X178445137Y-86878357D01*
X178470722Y-86863045D01*
X178598314Y-86786682D01*
X178639720Y-86761901D01*
X178643940Y-86758219D01*
X178643945Y-86758216D01*
X178806375Y-86616519D01*
X178810605Y-86612829D01*
X178833015Y-86584857D01*
X178948885Y-86440228D01*
X178948888Y-86440223D01*
X178952391Y-86435851D01*
X179060596Y-86236562D01*
X179131800Y-86021262D01*
X179163752Y-85796755D01*
X179165500Y-85730000D01*
X179145341Y-85504128D01*
X179106279Y-85361340D01*
X179086985Y-85290812D01*
X179086984Y-85290808D01*
X179085503Y-85285396D01*
X178987876Y-85080718D01*
X178855547Y-84896562D01*
X178751011Y-84795259D01*
X178696726Y-84742653D01*
X178696723Y-84742651D01*
X178692698Y-84738750D01*
X178565178Y-84653060D01*
X178509130Y-84615397D01*
X178509124Y-84615394D01*
X178504477Y-84612271D01*
X178424404Y-84577121D01*
X178370070Y-84531427D01*
X178349065Y-84463608D01*
X178368059Y-84395200D01*
X178421023Y-84347920D01*
X178430513Y-84343883D01*
X178439890Y-84340340D01*
X178439893Y-84340338D01*
X178445137Y-84338357D01*
X178453405Y-84333409D01*
X178610157Y-84239594D01*
X178639720Y-84221901D01*
X178643940Y-84218219D01*
X178643945Y-84218216D01*
X178806375Y-84076519D01*
X178810605Y-84072829D01*
X178854859Y-84017591D01*
X178948885Y-83900228D01*
X178948888Y-83900223D01*
X178952391Y-83895851D01*
X179060596Y-83696562D01*
X179131800Y-83481262D01*
X179146524Y-83377807D01*
X179163241Y-83260346D01*
X179163241Y-83260345D01*
X179163752Y-83256755D01*
X179165500Y-83190000D01*
X179145341Y-82964128D01*
X179106279Y-82821340D01*
X179086985Y-82750812D01*
X179086984Y-82750808D01*
X179085503Y-82745396D01*
X178987876Y-82540718D01*
X178855547Y-82356562D01*
X178760646Y-82264596D01*
X178696726Y-82202653D01*
X178696723Y-82202651D01*
X178692698Y-82198750D01*
X178595133Y-82133189D01*
X178509130Y-82075397D01*
X178509124Y-82075394D01*
X178504477Y-82072271D01*
X178499345Y-82070018D01*
X178499341Y-82070016D01*
X178423753Y-82036835D01*
X178369417Y-81991139D01*
X178348413Y-81923320D01*
X178367408Y-81854912D01*
X178420372Y-81807633D01*
X178429863Y-81803595D01*
X178439677Y-81799887D01*
X178449734Y-81795025D01*
X178575623Y-81719683D01*
X178585193Y-81709324D01*
X178581650Y-81700861D01*
X177902811Y-81022021D01*
X177888868Y-81014408D01*
X177887034Y-81014539D01*
X177880420Y-81018790D01*
X177201152Y-81698059D01*
X177194395Y-81710434D01*
X177199676Y-81717489D01*
X177342284Y-81800822D01*
X177356544Y-81807532D01*
X177409665Y-81854635D01*
X177428887Y-81922980D01*
X177408108Y-81990868D01*
X177360685Y-82033506D01*
X177238767Y-82096433D01*
X177206553Y-82113060D01*
X177026645Y-82251108D01*
X177022872Y-82255254D01*
X177022867Y-82255259D01*
X176902414Y-82387636D01*
X176874026Y-82418834D01*
X176866237Y-82431251D01*
X176813095Y-82478328D01*
X176742936Y-82489202D01*
X176678036Y-82460418D01*
X176639000Y-82401116D01*
X176633500Y-82364295D01*
X176633500Y-81455308D01*
X176653502Y-81387187D01*
X176707158Y-81340694D01*
X176777432Y-81330590D01*
X176804096Y-81342768D01*
X176827419Y-81347644D01*
X176836687Y-81344102D01*
X177517979Y-80662811D01*
X177524355Y-80651132D01*
X178254408Y-80651132D01*
X178254539Y-80652966D01*
X178258790Y-80659580D01*
X178940156Y-81340945D01*
X178952531Y-81347702D01*
X178958796Y-81343013D01*
X179057462Y-81161290D01*
X179061896Y-81151044D01*
X179129553Y-80946469D01*
X179132103Y-80935596D01*
X179162742Y-80720319D01*
X179163348Y-80713103D01*
X179164905Y-80653632D01*
X179164677Y-80646379D01*
X179145348Y-80429812D01*
X179143366Y-80418798D01*
X179086517Y-80210987D01*
X179082619Y-80200506D01*
X178989859Y-80006031D01*
X178984173Y-79996416D01*
X178960719Y-79963776D01*
X178949928Y-79955365D01*
X178936894Y-79962317D01*
X178262021Y-80637189D01*
X178254408Y-80651132D01*
X177524355Y-80651132D01*
X177525592Y-80648868D01*
X177525461Y-80647034D01*
X177521210Y-80640420D01*
X176843095Y-79962306D01*
X176830720Y-79955549D01*
X176822747Y-79961517D01*
X176756952Y-80066403D01*
X176751870Y-80076377D01*
X176739346Y-80107532D01*
X176695380Y-80163277D01*
X176628255Y-80186402D01*
X176559283Y-80169565D01*
X176513986Y-80124676D01*
X176504513Y-80108658D01*
X176504145Y-80108241D01*
X176490062Y-80094158D01*
X176477228Y-80079133D01*
X176465446Y-80062917D01*
X176431665Y-80034971D01*
X176422886Y-80026982D01*
X176003391Y-79607487D01*
X175996031Y-79599399D01*
X175991973Y-79593005D01*
X175986196Y-79587580D01*
X175981142Y-79581471D01*
X175983050Y-79579892D01*
X175953285Y-79529252D01*
X175956112Y-79458312D01*
X175986404Y-79409500D01*
X176392525Y-79003379D01*
X176400604Y-78996028D01*
X176406994Y-78991973D01*
X176452845Y-78943147D01*
X176455600Y-78940305D01*
X176475938Y-78919967D01*
X176478588Y-78916551D01*
X176486298Y-78907523D01*
X176511130Y-78881080D01*
X176516557Y-78875301D01*
X176520374Y-78868357D01*
X176520378Y-78868352D01*
X176526316Y-78857550D01*
X176537172Y-78841023D01*
X176544724Y-78831287D01*
X176549583Y-78825023D01*
X176567142Y-78784447D01*
X176572364Y-78773789D01*
X176578468Y-78762686D01*
X176628813Y-78712628D01*
X176698230Y-78697735D01*
X176764679Y-78722736D01*
X176798976Y-78762109D01*
X176835059Y-78826937D01*
X176838612Y-78831277D01*
X176838614Y-78831281D01*
X176913503Y-78922778D01*
X176978690Y-79002421D01*
X176982953Y-79006062D01*
X176982958Y-79006067D01*
X177132028Y-79133384D01*
X177151127Y-79149696D01*
X177191976Y-79173566D01*
X177341308Y-79260828D01*
X177346919Y-79264107D01*
X177352185Y-79266034D01*
X177356554Y-79268090D01*
X177409674Y-79315194D01*
X177428895Y-79383539D01*
X177408114Y-79451427D01*
X177360693Y-79494063D01*
X177211803Y-79570910D01*
X177202372Y-79576895D01*
X177201883Y-79577271D01*
X177193418Y-79588863D01*
X177200050Y-79600839D01*
X177877189Y-80277979D01*
X177891132Y-80285592D01*
X177892966Y-80285461D01*
X177899580Y-80281210D01*
X178577460Y-79603329D01*
X178583682Y-79591935D01*
X178573870Y-79579502D01*
X178508892Y-79535838D01*
X178499098Y-79530454D01*
X178423739Y-79497373D01*
X178369404Y-79451677D01*
X178348399Y-79383859D01*
X178367394Y-79315450D01*
X178420358Y-79268171D01*
X178429828Y-79264142D01*
X178445137Y-79258357D01*
X178639720Y-79141901D01*
X178643940Y-79138219D01*
X178643945Y-79138216D01*
X178806375Y-78996519D01*
X178810605Y-78992829D01*
X178852685Y-78940305D01*
X178948885Y-78820228D01*
X178948888Y-78820223D01*
X178952391Y-78815851D01*
X179060596Y-78616562D01*
X179131800Y-78401262D01*
X179163752Y-78176755D01*
X179165500Y-78110000D01*
X179145341Y-77884128D01*
X179106279Y-77741340D01*
X179086985Y-77670812D01*
X179086984Y-77670808D01*
X179085503Y-77665396D01*
X178987876Y-77460718D01*
X178855547Y-77276562D01*
X178743203Y-77167693D01*
X178696726Y-77122653D01*
X178696723Y-77122651D01*
X178692698Y-77118750D01*
X178618347Y-77068788D01*
X178509130Y-76995397D01*
X178509124Y-76995394D01*
X178504477Y-76992271D01*
X178424404Y-76957121D01*
X178370070Y-76911427D01*
X178349065Y-76843608D01*
X178368059Y-76775200D01*
X178421023Y-76727920D01*
X178430513Y-76723883D01*
X178439890Y-76720340D01*
X178439893Y-76720338D01*
X178445137Y-76718357D01*
X178639720Y-76601901D01*
X178643940Y-76598219D01*
X178643945Y-76598216D01*
X178806375Y-76456519D01*
X178810605Y-76452829D01*
X178844174Y-76410928D01*
X178948885Y-76280228D01*
X178948888Y-76280223D01*
X178952391Y-76275851D01*
X179060596Y-76076562D01*
X179131800Y-75861262D01*
X179163752Y-75636755D01*
X179165500Y-75570000D01*
X179145341Y-75344128D01*
X179106279Y-75201340D01*
X179086985Y-75130812D01*
X179086984Y-75130808D01*
X179085503Y-75125396D01*
X178987876Y-74920718D01*
X178855547Y-74736562D01*
X178724870Y-74609927D01*
X178696726Y-74582653D01*
X178696723Y-74582651D01*
X178692698Y-74578750D01*
X178619978Y-74529884D01*
X178509130Y-74455397D01*
X178509124Y-74455394D01*
X178504477Y-74452271D01*
X178424404Y-74417121D01*
X178370070Y-74371427D01*
X178349065Y-74303608D01*
X178368059Y-74235200D01*
X178421023Y-74187920D01*
X178430513Y-74183883D01*
X178439890Y-74180340D01*
X178439893Y-74180338D01*
X178445137Y-74178357D01*
X178458944Y-74170094D01*
X178615756Y-74076243D01*
X178639720Y-74061901D01*
X178643940Y-74058219D01*
X178643945Y-74058216D01*
X178806375Y-73916519D01*
X178810605Y-73912829D01*
X178821882Y-73898753D01*
X178948885Y-73740228D01*
X178948888Y-73740223D01*
X178952391Y-73735851D01*
X179060596Y-73536562D01*
X179131800Y-73321262D01*
X179144431Y-73232515D01*
X179163241Y-73100346D01*
X179163241Y-73100345D01*
X179163752Y-73096755D01*
X179165500Y-73030000D01*
X179145341Y-72804128D01*
X179106279Y-72661340D01*
X179086985Y-72590812D01*
X179086984Y-72590808D01*
X179085503Y-72585396D01*
X178987876Y-72380718D01*
X178855547Y-72196562D01*
X178746716Y-72091097D01*
X178696726Y-72042653D01*
X178696723Y-72042651D01*
X178692698Y-72038750D01*
X178605531Y-71980176D01*
X178509130Y-71915397D01*
X178509124Y-71915394D01*
X178504477Y-71912271D01*
X178424404Y-71877121D01*
X178370070Y-71831427D01*
X178349065Y-71763608D01*
X178368059Y-71695200D01*
X178421023Y-71647920D01*
X178430513Y-71643883D01*
X178439890Y-71640340D01*
X178439893Y-71640338D01*
X178445137Y-71638357D01*
X178639720Y-71521901D01*
X178643940Y-71518219D01*
X178643945Y-71518216D01*
X178806375Y-71376519D01*
X178810605Y-71372829D01*
X178877632Y-71289166D01*
X178948885Y-71200228D01*
X178948888Y-71200223D01*
X178952391Y-71195851D01*
X179060596Y-70996562D01*
X179131800Y-70781262D01*
X179163752Y-70556755D01*
X179165500Y-70490000D01*
X179145341Y-70264128D01*
X179106279Y-70121340D01*
X179086985Y-70050812D01*
X179086984Y-70050808D01*
X179085503Y-70045396D01*
X178987876Y-69840718D01*
X178855547Y-69656562D01*
X178787795Y-69590906D01*
X178696726Y-69502653D01*
X178696723Y-69502651D01*
X178692698Y-69498750D01*
X178565178Y-69413060D01*
X178509130Y-69375397D01*
X178509124Y-69375394D01*
X178504477Y-69372271D01*
X178499345Y-69370018D01*
X178499341Y-69370016D01*
X178423753Y-69336835D01*
X178369417Y-69291139D01*
X178348413Y-69223320D01*
X178367408Y-69154912D01*
X178420372Y-69107633D01*
X178429863Y-69103595D01*
X178439677Y-69099887D01*
X178449734Y-69095025D01*
X178575623Y-69019683D01*
X178585193Y-69009324D01*
X178581650Y-69000861D01*
X177902811Y-68322021D01*
X177888868Y-68314408D01*
X177887034Y-68314539D01*
X177880420Y-68318790D01*
X177201152Y-68998059D01*
X177194395Y-69010434D01*
X177199676Y-69017489D01*
X177342284Y-69100822D01*
X177356544Y-69107532D01*
X177409665Y-69154635D01*
X177428887Y-69222980D01*
X177408108Y-69290868D01*
X177360685Y-69333506D01*
X177211536Y-69410488D01*
X177206553Y-69413060D01*
X177026645Y-69551108D01*
X177022872Y-69555254D01*
X177022867Y-69555259D01*
X176974402Y-69608522D01*
X176874026Y-69718834D01*
X176871043Y-69723590D01*
X176871041Y-69723592D01*
X176766507Y-69890234D01*
X176753521Y-69910935D01*
X176668939Y-70121340D01*
X176622953Y-70343398D01*
X176617017Y-70570089D01*
X176651318Y-70794249D01*
X176724773Y-71008793D01*
X176835059Y-71206937D01*
X176838612Y-71211277D01*
X176838614Y-71211281D01*
X176922575Y-71313861D01*
X176978690Y-71382421D01*
X176982953Y-71386062D01*
X176982958Y-71386067D01*
X177093405Y-71480397D01*
X177151127Y-71529696D01*
X177179535Y-71546296D01*
X177340473Y-71640340D01*
X177346919Y-71644107D01*
X177352196Y-71646038D01*
X177355983Y-71647820D01*
X177409104Y-71694923D01*
X177428327Y-71763268D01*
X177407548Y-71831156D01*
X177360125Y-71873795D01*
X177289943Y-71910019D01*
X177206553Y-71953060D01*
X177026645Y-72091108D01*
X177022872Y-72095254D01*
X177022867Y-72095259D01*
X176902033Y-72228055D01*
X176874026Y-72258834D01*
X176871043Y-72263590D01*
X176871041Y-72263592D01*
X176792600Y-72388638D01*
X176739457Y-72435716D01*
X176728786Y-72439746D01*
X176724035Y-72441802D01*
X176716421Y-72444014D01*
X176698988Y-72454324D01*
X176681241Y-72463018D01*
X176662400Y-72470478D01*
X176655985Y-72475139D01*
X176626629Y-72496467D01*
X176616712Y-72502982D01*
X176578658Y-72525487D01*
X176578240Y-72525855D01*
X176564158Y-72539937D01*
X176549125Y-72552778D01*
X176532917Y-72564554D01*
X176527868Y-72570657D01*
X176527867Y-72570658D01*
X176504975Y-72598330D01*
X176496986Y-72607109D01*
X175607474Y-73496622D01*
X175599395Y-73503972D01*
X175593006Y-73508027D01*
X175587583Y-73513802D01*
X175547148Y-73556861D01*
X175544393Y-73559703D01*
X175524062Y-73580034D01*
X175521628Y-73583171D01*
X175521626Y-73583174D01*
X175521403Y-73583461D01*
X175513707Y-73592471D01*
X175490251Y-73617450D01*
X175483444Y-73624699D01*
X175479628Y-73631640D01*
X175479626Y-73631643D01*
X175473688Y-73642445D01*
X175462834Y-73658968D01*
X175455278Y-73668710D01*
X175450417Y-73674977D01*
X175447269Y-73682252D01*
X175432859Y-73715551D01*
X175427637Y-73726211D01*
X175413855Y-73751281D01*
X175406339Y-73764952D01*
X175401301Y-73784572D01*
X175394902Y-73803264D01*
X175386853Y-73821865D01*
X175385613Y-73829692D01*
X175385613Y-73829693D01*
X175379937Y-73865531D01*
X175377530Y-73877154D01*
X175366536Y-73919975D01*
X175366501Y-73920531D01*
X175366501Y-73940447D01*
X175364950Y-73960157D01*
X175361816Y-73979945D01*
X175362562Y-73987837D01*
X175365942Y-74023593D01*
X175366501Y-74035451D01*
X175366500Y-78185406D01*
X175346498Y-78253527D01*
X175329595Y-78274501D01*
X175274501Y-78329595D01*
X175212189Y-78363621D01*
X175185406Y-78366500D01*
X173078383Y-78366500D01*
X173067479Y-78365986D01*
X173060088Y-78364334D01*
X173052163Y-78364583D01*
X173052162Y-78364583D01*
X172993147Y-78366438D01*
X172989189Y-78366500D01*
X172960422Y-78366500D01*
X172956137Y-78367041D01*
X172944303Y-78367973D01*
X172918286Y-78368791D01*
X172908036Y-78369113D01*
X172908035Y-78369113D01*
X172900116Y-78369362D01*
X172892508Y-78371572D01*
X172892503Y-78371573D01*
X172880661Y-78375013D01*
X172861307Y-78379021D01*
X172849079Y-78380566D01*
X172841212Y-78381560D01*
X172833844Y-78384477D01*
X172833837Y-78384479D01*
X172800099Y-78397837D01*
X172788869Y-78401682D01*
X172754031Y-78411803D01*
X172754030Y-78411804D01*
X172746421Y-78414014D01*
X172728988Y-78424324D01*
X172711241Y-78433018D01*
X172692400Y-78440478D01*
X172685985Y-78445139D01*
X172656629Y-78466467D01*
X172646712Y-78472982D01*
X172608658Y-78495487D01*
X172608240Y-78495855D01*
X172594158Y-78509937D01*
X172579125Y-78522778D01*
X172562917Y-78534554D01*
X172557868Y-78540657D01*
X172557867Y-78540658D01*
X172534970Y-78568336D01*
X172526980Y-78577115D01*
X172019365Y-79084731D01*
X171524501Y-79579595D01*
X171462189Y-79613620D01*
X171435406Y-79616500D01*
X170059546Y-79616500D01*
X170039837Y-79614949D01*
X170020055Y-79611816D01*
X170012163Y-79612562D01*
X169976418Y-79615941D01*
X169964560Y-79616500D01*
X169535938Y-79616500D01*
X169467817Y-79596498D01*
X169421324Y-79542842D01*
X169410628Y-79477331D01*
X169412810Y-79456568D01*
X169412810Y-79456565D01*
X169413500Y-79450000D01*
X169401782Y-79338514D01*
X169394228Y-79266637D01*
X169394228Y-79266636D01*
X169393538Y-79260073D01*
X169388129Y-79243424D01*
X169336566Y-79084731D01*
X169334524Y-79078446D01*
X169328627Y-79068231D01*
X169281263Y-78986195D01*
X169239037Y-78913058D01*
X169200530Y-78870291D01*
X169115673Y-78776048D01*
X169115672Y-78776047D01*
X169111251Y-78771137D01*
X169105909Y-78767256D01*
X169105907Y-78767254D01*
X168962092Y-78662767D01*
X168962091Y-78662766D01*
X168956750Y-78658886D01*
X168950722Y-78656202D01*
X168950720Y-78656201D01*
X168788318Y-78583895D01*
X168788317Y-78583895D01*
X168782287Y-78581210D01*
X168688887Y-78561357D01*
X168601944Y-78542876D01*
X168601939Y-78542876D01*
X168595487Y-78541504D01*
X168404513Y-78541504D01*
X168398061Y-78542876D01*
X168398056Y-78542876D01*
X168311113Y-78561357D01*
X168217713Y-78581210D01*
X168211683Y-78583895D01*
X168211682Y-78583895D01*
X168049280Y-78656201D01*
X168049278Y-78656202D01*
X168043250Y-78658886D01*
X168037909Y-78662766D01*
X168037908Y-78662767D01*
X167894093Y-78767254D01*
X167894091Y-78767256D01*
X167888749Y-78771137D01*
X167884328Y-78776047D01*
X167884327Y-78776048D01*
X167799471Y-78870291D01*
X167760963Y-78913058D01*
X167718737Y-78986195D01*
X167671374Y-79068231D01*
X167665476Y-79078446D01*
X167663434Y-79084731D01*
X167611872Y-79243424D01*
X167606462Y-79260073D01*
X167605772Y-79266636D01*
X167605772Y-79266637D01*
X167598218Y-79338514D01*
X167586500Y-79450000D01*
X167606462Y-79639927D01*
X167665476Y-79821554D01*
X167760963Y-79986942D01*
X167765381Y-79991849D01*
X167765382Y-79991850D01*
X167849568Y-80085348D01*
X167880952Y-80153974D01*
X167880987Y-80154253D01*
X167869620Y-80224334D01*
X167845063Y-80259032D01*
X167628722Y-80475374D01*
X167548616Y-80555480D01*
X167486303Y-80589505D01*
X167415488Y-80584441D01*
X167358652Y-80541894D01*
X167333841Y-80475374D01*
X167333520Y-80466385D01*
X167333520Y-75419859D01*
X167334034Y-75408955D01*
X167335686Y-75401564D01*
X167334772Y-75372468D01*
X167333582Y-75334623D01*
X167333520Y-75330665D01*
X167333520Y-75301898D01*
X167332979Y-75297613D01*
X167332046Y-75285772D01*
X167330907Y-75249512D01*
X167330907Y-75249511D01*
X167330658Y-75241592D01*
X167328448Y-75233984D01*
X167328447Y-75233979D01*
X167325007Y-75222137D01*
X167320999Y-75202783D01*
X167319454Y-75190555D01*
X167318460Y-75182688D01*
X167315543Y-75175320D01*
X167315541Y-75175313D01*
X167302183Y-75141575D01*
X167298338Y-75130345D01*
X167288217Y-75095507D01*
X167288216Y-75095506D01*
X167286006Y-75087897D01*
X167275696Y-75070464D01*
X167267002Y-75052717D01*
X167259542Y-75033876D01*
X167233553Y-74998105D01*
X167227037Y-74988186D01*
X167207566Y-74955263D01*
X167204533Y-74950134D01*
X167204164Y-74949716D01*
X167190082Y-74935634D01*
X167177248Y-74920609D01*
X167165466Y-74904393D01*
X167131685Y-74876447D01*
X167122906Y-74868458D01*
X165523868Y-73269420D01*
X165489842Y-73207108D01*
X165486963Y-73180325D01*
X165486963Y-72527033D01*
X165471485Y-72394276D01*
X165468401Y-72385778D01*
X165413647Y-72234934D01*
X165411150Y-72228055D01*
X165331947Y-72107250D01*
X165318206Y-72086291D01*
X165318205Y-72086290D01*
X165314194Y-72080172D01*
X165185818Y-71958561D01*
X165074678Y-71894006D01*
X165025819Y-71842495D01*
X165011963Y-71785052D01*
X165011963Y-71756686D01*
X165031965Y-71688565D01*
X165075154Y-71649762D01*
X165074369Y-71648564D01*
X165216133Y-71555620D01*
X165216134Y-71555619D01*
X165222252Y-71551608D01*
X165343863Y-71423232D01*
X165432680Y-71270322D01*
X165483938Y-71101081D01*
X165491005Y-71021899D01*
X165491005Y-70022991D01*
X165475527Y-69890234D01*
X165459391Y-69845778D01*
X165417689Y-69730892D01*
X165415192Y-69724013D01*
X165318236Y-69576130D01*
X165189860Y-69454519D01*
X165078720Y-69389964D01*
X165029861Y-69338453D01*
X165016005Y-69281010D01*
X165016005Y-68024452D01*
X176617663Y-68024452D01*
X176618365Y-68035604D01*
X176650955Y-68248579D01*
X176653622Y-68259440D01*
X176723413Y-68463281D01*
X176727961Y-68473495D01*
X176819031Y-68637117D01*
X176829084Y-68647008D01*
X176836687Y-68644102D01*
X177517979Y-67962811D01*
X177524355Y-67951132D01*
X178254408Y-67951132D01*
X178254539Y-67952966D01*
X178258790Y-67959580D01*
X178940156Y-68640945D01*
X178952531Y-68647702D01*
X178958796Y-68643013D01*
X179057462Y-68461290D01*
X179061896Y-68451044D01*
X179129553Y-68246469D01*
X179132103Y-68235596D01*
X179162742Y-68020319D01*
X179163348Y-68013103D01*
X179164905Y-67953632D01*
X179164677Y-67946379D01*
X179145348Y-67729812D01*
X179143366Y-67718798D01*
X179086517Y-67510987D01*
X179082619Y-67500506D01*
X178989859Y-67306031D01*
X178984173Y-67296416D01*
X178960719Y-67263776D01*
X178949928Y-67255365D01*
X178936894Y-67262317D01*
X178262021Y-67937189D01*
X178254408Y-67951132D01*
X177524355Y-67951132D01*
X177525592Y-67948868D01*
X177525461Y-67947034D01*
X177521210Y-67940420D01*
X176843095Y-67262306D01*
X176830720Y-67255549D01*
X176822747Y-67261517D01*
X176756952Y-67366403D01*
X176751872Y-67376373D01*
X176671511Y-67576278D01*
X176668280Y-67586978D01*
X176624588Y-67797958D01*
X176623303Y-67809065D01*
X176617663Y-68024452D01*
X165016005Y-68024452D01*
X165016005Y-66649003D01*
X165036007Y-66580882D01*
X165075815Y-66545111D01*
X165074369Y-66542905D01*
X165216133Y-66449961D01*
X165216134Y-66449960D01*
X165222252Y-66445949D01*
X165343863Y-66317573D01*
X165432680Y-66164663D01*
X165483938Y-65995422D01*
X165489885Y-65928793D01*
X165490756Y-65919033D01*
X165490756Y-65919027D01*
X165491005Y-65916240D01*
X165491005Y-64917332D01*
X165475527Y-64784575D01*
X165466868Y-64760718D01*
X165417689Y-64625233D01*
X165415192Y-64618354D01*
X165318236Y-64470471D01*
X165189860Y-64348860D01*
X165078720Y-64284305D01*
X165029861Y-64232794D01*
X165016005Y-64175351D01*
X165016005Y-64118981D01*
X165036007Y-64050860D01*
X165075815Y-64015089D01*
X165074369Y-64012883D01*
X165216133Y-63919939D01*
X165216134Y-63919938D01*
X165222252Y-63915927D01*
X165343863Y-63787551D01*
X165432680Y-63634641D01*
X165483938Y-63465400D01*
X165484513Y-63458959D01*
X165490756Y-63389011D01*
X165490756Y-63389005D01*
X165491005Y-63386218D01*
X165491005Y-62950089D01*
X176617017Y-62950089D01*
X176651318Y-63174249D01*
X176724773Y-63388793D01*
X176835059Y-63586937D01*
X176838612Y-63591277D01*
X176838614Y-63591281D01*
X176937063Y-63711562D01*
X176978690Y-63762421D01*
X176982953Y-63766062D01*
X176982958Y-63766067D01*
X177108750Y-63873503D01*
X177151127Y-63909696D01*
X177197031Y-63936520D01*
X177340473Y-64020340D01*
X177346919Y-64024107D01*
X177352196Y-64026038D01*
X177355983Y-64027820D01*
X177409104Y-64074923D01*
X177428327Y-64143268D01*
X177407548Y-64211156D01*
X177360125Y-64253795D01*
X177289943Y-64290019D01*
X177206553Y-64333060D01*
X177026645Y-64471108D01*
X177022872Y-64475254D01*
X177022867Y-64475259D01*
X176934244Y-64572655D01*
X176874026Y-64638834D01*
X176871043Y-64643590D01*
X176871041Y-64643592D01*
X176778041Y-64791847D01*
X176753521Y-64830935D01*
X176668939Y-65041340D01*
X176622953Y-65263398D01*
X176617017Y-65490089D01*
X176651318Y-65714249D01*
X176724773Y-65928793D01*
X176835059Y-66126937D01*
X176838612Y-66131277D01*
X176838614Y-66131281D01*
X176896564Y-66202082D01*
X176978690Y-66302421D01*
X176982953Y-66306062D01*
X176982958Y-66306067D01*
X177063362Y-66374738D01*
X177151127Y-66449696D01*
X177194863Y-66475253D01*
X177340466Y-66560336D01*
X177346919Y-66564107D01*
X177352185Y-66566034D01*
X177356554Y-66568090D01*
X177409674Y-66615194D01*
X177428895Y-66683539D01*
X177408114Y-66751427D01*
X177360693Y-66794063D01*
X177211803Y-66870910D01*
X177202372Y-66876895D01*
X177201883Y-66877271D01*
X177193418Y-66888863D01*
X177200050Y-66900839D01*
X177877189Y-67577979D01*
X177891132Y-67585592D01*
X177892966Y-67585461D01*
X177899580Y-67581210D01*
X178577460Y-66903329D01*
X178583682Y-66891935D01*
X178573870Y-66879502D01*
X178508892Y-66835838D01*
X178499098Y-66830454D01*
X178423739Y-66797373D01*
X178369404Y-66751677D01*
X178348399Y-66683859D01*
X178367394Y-66615450D01*
X178420358Y-66568171D01*
X178429828Y-66564142D01*
X178445137Y-66558357D01*
X178467270Y-66545111D01*
X178598548Y-66466542D01*
X178639720Y-66441901D01*
X178643940Y-66438219D01*
X178643945Y-66438216D01*
X178806375Y-66296519D01*
X178810605Y-66292829D01*
X178883307Y-66202082D01*
X178948885Y-66120228D01*
X178948888Y-66120223D01*
X178952391Y-66115851D01*
X179060596Y-65916562D01*
X179131800Y-65701262D01*
X179163752Y-65476755D01*
X179165500Y-65410000D01*
X179145341Y-65184128D01*
X179106279Y-65041340D01*
X179086985Y-64970812D01*
X179086984Y-64970808D01*
X179085503Y-64965396D01*
X178987876Y-64760718D01*
X178855547Y-64576562D01*
X178692698Y-64418750D01*
X178596182Y-64353894D01*
X178509130Y-64295397D01*
X178509124Y-64295394D01*
X178504477Y-64292271D01*
X178424404Y-64257121D01*
X178370070Y-64211427D01*
X178349065Y-64143608D01*
X178368059Y-64075200D01*
X178421023Y-64027920D01*
X178430513Y-64023883D01*
X178439890Y-64020340D01*
X178439893Y-64020338D01*
X178445137Y-64018357D01*
X178450598Y-64015089D01*
X178581876Y-63936520D01*
X178639720Y-63901901D01*
X178643940Y-63898219D01*
X178643945Y-63898216D01*
X178806375Y-63756519D01*
X178810605Y-63752829D01*
X178900220Y-63640971D01*
X178948885Y-63580228D01*
X178948888Y-63580223D01*
X178952391Y-63575851D01*
X179060596Y-63376562D01*
X179131800Y-63161262D01*
X179163752Y-62936755D01*
X179165500Y-62870000D01*
X179145341Y-62644128D01*
X179106279Y-62501340D01*
X179086985Y-62430812D01*
X179086984Y-62430808D01*
X179085503Y-62425396D01*
X178987876Y-62220718D01*
X178855547Y-62036562D01*
X178743203Y-61927693D01*
X178696726Y-61882653D01*
X178696723Y-61882651D01*
X178692698Y-61878750D01*
X178610580Y-61823569D01*
X178509130Y-61755397D01*
X178509124Y-61755394D01*
X178504477Y-61752271D01*
X178499345Y-61750018D01*
X178499341Y-61750016D01*
X178301975Y-61663378D01*
X178301973Y-61663377D01*
X178296833Y-61661121D01*
X178132628Y-61621699D01*
X178081786Y-61609493D01*
X178081785Y-61609493D01*
X178076329Y-61608183D01*
X177962699Y-61601631D01*
X177855542Y-61595452D01*
X177855539Y-61595452D01*
X177849936Y-61595129D01*
X177624809Y-61622373D01*
X177619447Y-61624023D01*
X177619445Y-61624023D01*
X177548739Y-61645775D01*
X177408064Y-61689052D01*
X177206553Y-61793060D01*
X177026645Y-61931108D01*
X177022872Y-61935254D01*
X177022867Y-61935259D01*
X176934244Y-62032655D01*
X176874026Y-62098834D01*
X176871043Y-62103590D01*
X176871041Y-62103592D01*
X176771782Y-62261825D01*
X176753521Y-62290935D01*
X176668939Y-62501340D01*
X176622953Y-62723398D01*
X176617017Y-62950089D01*
X165491005Y-62950089D01*
X165491005Y-62387310D01*
X165475527Y-62254553D01*
X165465083Y-62225778D01*
X165417689Y-62095211D01*
X165415192Y-62088332D01*
X165339083Y-61972246D01*
X165322248Y-61946568D01*
X165322247Y-61946567D01*
X165318236Y-61940449D01*
X165189860Y-61818838D01*
X165036950Y-61730021D01*
X164867709Y-61678763D01*
X164861269Y-61678188D01*
X164861268Y-61678188D01*
X164791320Y-61671945D01*
X164791314Y-61671945D01*
X164788527Y-61671696D01*
X163989619Y-61671696D01*
X163894399Y-61682798D01*
X163864134Y-61686326D01*
X163864133Y-61686326D01*
X163856862Y-61687174D01*
X163849984Y-61689670D01*
X163849982Y-61689671D01*
X163747878Y-61726733D01*
X163690641Y-61747509D01*
X163642138Y-61779309D01*
X163551736Y-61838579D01*
X163542758Y-61844465D01*
X163537727Y-61849776D01*
X163537726Y-61849777D01*
X163475299Y-61915676D01*
X163413929Y-61951374D01*
X163343003Y-61948226D01*
X163297173Y-61920496D01*
X163195174Y-61823872D01*
X163189860Y-61818838D01*
X163036950Y-61730021D01*
X162867709Y-61678763D01*
X162861269Y-61678188D01*
X162861268Y-61678188D01*
X162791320Y-61671945D01*
X162791314Y-61671945D01*
X162788527Y-61671696D01*
X161989619Y-61671696D01*
X161894399Y-61682798D01*
X161864134Y-61686326D01*
X161864133Y-61686326D01*
X161856862Y-61687174D01*
X161849984Y-61689670D01*
X161849982Y-61689671D01*
X161747878Y-61726733D01*
X161690641Y-61747509D01*
X161642138Y-61779309D01*
X161551736Y-61838579D01*
X161542758Y-61844465D01*
X161537727Y-61849776D01*
X161512746Y-61876147D01*
X161451377Y-61911846D01*
X161380450Y-61908699D01*
X161322484Y-61867706D01*
X161315274Y-61857616D01*
X161264949Y-61779309D01*
X161264947Y-61779306D01*
X161260077Y-61771729D01*
X161241229Y-61755397D01*
X161156431Y-61681918D01*
X161156428Y-61681916D01*
X161149619Y-61676016D01*
X161016670Y-61615300D01*
X161007755Y-61614018D01*
X161007754Y-61614018D01*
X160876448Y-61595139D01*
X160876441Y-61595138D01*
X160872000Y-61594500D01*
X159348000Y-61594500D01*
X159274921Y-61599727D01*
X159221884Y-61615300D01*
X159143330Y-61638365D01*
X159143328Y-61638366D01*
X159134684Y-61640904D01*
X159127105Y-61645775D01*
X159019309Y-61715051D01*
X159019306Y-61715053D01*
X159011729Y-61719923D01*
X159005828Y-61726733D01*
X158921918Y-61823569D01*
X158921916Y-61823572D01*
X158916016Y-61830381D01*
X158912272Y-61838579D01*
X158893927Y-61878750D01*
X158855300Y-61963330D01*
X158854018Y-61972245D01*
X158854018Y-61972246D01*
X158835139Y-62103552D01*
X158835138Y-62103559D01*
X158834500Y-62108000D01*
X158834500Y-63632000D01*
X158839727Y-63705079D01*
X158880904Y-63845316D01*
X158885775Y-63852895D01*
X158955051Y-63960691D01*
X158955053Y-63960694D01*
X158959923Y-63968271D01*
X158966733Y-63974172D01*
X159063569Y-64058082D01*
X159063572Y-64058084D01*
X159070381Y-64063984D01*
X159078579Y-64067728D01*
X159182224Y-64115061D01*
X159203330Y-64124700D01*
X159212245Y-64125982D01*
X159212246Y-64125982D01*
X159238941Y-64129820D01*
X159323917Y-64142037D01*
X159388497Y-64171530D01*
X159426881Y-64231256D01*
X159426881Y-64302253D01*
X159388498Y-64361979D01*
X159382690Y-64366717D01*
X159246645Y-64471108D01*
X159242872Y-64475254D01*
X159242867Y-64475259D01*
X159154244Y-64572655D01*
X159094026Y-64638834D01*
X159091043Y-64643590D01*
X159091041Y-64643592D01*
X158998041Y-64791847D01*
X158973521Y-64830935D01*
X158888939Y-65041340D01*
X158842953Y-65263398D01*
X158837017Y-65490089D01*
X158871318Y-65714249D01*
X158944773Y-65928793D01*
X159055059Y-66126937D01*
X159058612Y-66131277D01*
X159058614Y-66131281D01*
X159116564Y-66202082D01*
X159198690Y-66302421D01*
X159202953Y-66306062D01*
X159202958Y-66306067D01*
X159283362Y-66374738D01*
X159371127Y-66449696D01*
X159414863Y-66475253D01*
X159560466Y-66560336D01*
X159566919Y-66564107D01*
X159572185Y-66566034D01*
X159576554Y-66568090D01*
X159629674Y-66615194D01*
X159648895Y-66683539D01*
X159628114Y-66751427D01*
X159580693Y-66794063D01*
X159431803Y-66870910D01*
X159422372Y-66876895D01*
X159421883Y-66877271D01*
X159413418Y-66888863D01*
X159420050Y-66900839D01*
X160097189Y-67577979D01*
X160111132Y-67585592D01*
X160112966Y-67585461D01*
X160119580Y-67581210D01*
X160797460Y-66903329D01*
X160803682Y-66891935D01*
X160793870Y-66879502D01*
X160728892Y-66835838D01*
X160719098Y-66830454D01*
X160643739Y-66797373D01*
X160589404Y-66751677D01*
X160568399Y-66683859D01*
X160587394Y-66615450D01*
X160640358Y-66568171D01*
X160649828Y-66564142D01*
X160665137Y-66558357D01*
X160687270Y-66545111D01*
X160818548Y-66466542D01*
X160859720Y-66441901D01*
X160863940Y-66438219D01*
X160863945Y-66438216D01*
X161026375Y-66296519D01*
X161030605Y-66292829D01*
X161034114Y-66288449D01*
X161034119Y-66288444D01*
X161132713Y-66165378D01*
X161190915Y-66124720D01*
X161261859Y-66121983D01*
X161323020Y-66158036D01*
X161342331Y-66189512D01*
X161344042Y-66188655D01*
X161347321Y-66195202D01*
X161349818Y-66202082D01*
X161446774Y-66349965D01*
X161575150Y-66471576D01*
X161728060Y-66560393D01*
X161897301Y-66611651D01*
X161903741Y-66612226D01*
X161903742Y-66612226D01*
X161973690Y-66618469D01*
X161973696Y-66618469D01*
X161976483Y-66618718D01*
X162775391Y-66618718D01*
X162870611Y-66607616D01*
X162900876Y-66604088D01*
X162900877Y-66604088D01*
X162908148Y-66603240D01*
X162915026Y-66600744D01*
X162915028Y-66600743D01*
X163067490Y-66545402D01*
X163074369Y-66542905D01*
X163190842Y-66466542D01*
X163216133Y-66449961D01*
X163216134Y-66449960D01*
X163222252Y-66445949D01*
X163234313Y-66433217D01*
X163289711Y-66374738D01*
X163351081Y-66339040D01*
X163422007Y-66342188D01*
X163467837Y-66369918D01*
X163575150Y-66471576D01*
X163686292Y-66536132D01*
X163735150Y-66587643D01*
X163749006Y-66645086D01*
X163749005Y-69277092D01*
X163729003Y-69345213D01*
X163689195Y-69380984D01*
X163690641Y-69383190D01*
X163574168Y-69459553D01*
X163542758Y-69480146D01*
X163537726Y-69485458D01*
X163475299Y-69551357D01*
X163413929Y-69587055D01*
X163343003Y-69583907D01*
X163297173Y-69556177D01*
X163195174Y-69459553D01*
X163189860Y-69454519D01*
X163036950Y-69365702D01*
X162867709Y-69314444D01*
X162861269Y-69313869D01*
X162861268Y-69313869D01*
X162791320Y-69307626D01*
X162791314Y-69307626D01*
X162788527Y-69307377D01*
X161989619Y-69307377D01*
X161894399Y-69318479D01*
X161864134Y-69322007D01*
X161864133Y-69322007D01*
X161856862Y-69322855D01*
X161849984Y-69325351D01*
X161849982Y-69325352D01*
X161795266Y-69345213D01*
X161690641Y-69383190D01*
X161542758Y-69480146D01*
X161421147Y-69608522D01*
X161348962Y-69732798D01*
X161297453Y-69781656D01*
X161227704Y-69794910D01*
X161161862Y-69768351D01*
X161137686Y-69743038D01*
X161078823Y-69661121D01*
X161075547Y-69656562D01*
X161007795Y-69590906D01*
X160916726Y-69502653D01*
X160916723Y-69502651D01*
X160912698Y-69498750D01*
X160785178Y-69413060D01*
X160729130Y-69375397D01*
X160729124Y-69375394D01*
X160724477Y-69372271D01*
X160719345Y-69370018D01*
X160719341Y-69370016D01*
X160643753Y-69336835D01*
X160589417Y-69291139D01*
X160568413Y-69223320D01*
X160587408Y-69154912D01*
X160640372Y-69107633D01*
X160649863Y-69103595D01*
X160659677Y-69099887D01*
X160669734Y-69095025D01*
X160795623Y-69019683D01*
X160805193Y-69009324D01*
X160801650Y-69000861D01*
X160122811Y-68322021D01*
X160108868Y-68314408D01*
X160107034Y-68314539D01*
X160100420Y-68318790D01*
X159421152Y-68998059D01*
X159414395Y-69010434D01*
X159419676Y-69017489D01*
X159562284Y-69100822D01*
X159576544Y-69107532D01*
X159629665Y-69154635D01*
X159648887Y-69222980D01*
X159628108Y-69290868D01*
X159580685Y-69333506D01*
X159431536Y-69410488D01*
X159426553Y-69413060D01*
X159246645Y-69551108D01*
X159242872Y-69555254D01*
X159242867Y-69555259D01*
X159194402Y-69608522D01*
X159094026Y-69718834D01*
X159091043Y-69723590D01*
X159091041Y-69723592D01*
X158986507Y-69890234D01*
X158973521Y-69910935D01*
X158888939Y-70121340D01*
X158842953Y-70343398D01*
X158837017Y-70570089D01*
X158871318Y-70794249D01*
X158944773Y-71008793D01*
X159055059Y-71206937D01*
X159058612Y-71211277D01*
X159058614Y-71211281D01*
X159142575Y-71313861D01*
X159198690Y-71382421D01*
X159202953Y-71386062D01*
X159202958Y-71386067D01*
X159313405Y-71480397D01*
X159371127Y-71529696D01*
X159399535Y-71546296D01*
X159560473Y-71640340D01*
X159566919Y-71644107D01*
X159572196Y-71646038D01*
X159575983Y-71647820D01*
X159629104Y-71694923D01*
X159648327Y-71763268D01*
X159627548Y-71831156D01*
X159580125Y-71873795D01*
X159509943Y-71910019D01*
X159426553Y-71953060D01*
X159246645Y-72091108D01*
X159242872Y-72095254D01*
X159242867Y-72095259D01*
X159122033Y-72228055D01*
X159094026Y-72258834D01*
X159091043Y-72263590D01*
X159091041Y-72263592D01*
X158977863Y-72444014D01*
X158973521Y-72450935D01*
X158888939Y-72661340D01*
X158842953Y-72883398D01*
X158837017Y-73110089D01*
X158871318Y-73334249D01*
X158944773Y-73548793D01*
X159055059Y-73746937D01*
X159058612Y-73751277D01*
X159058614Y-73751281D01*
X159161641Y-73877156D01*
X159198690Y-73922421D01*
X159202953Y-73926062D01*
X159202958Y-73926067D01*
X159292311Y-74002381D01*
X159371127Y-74069696D01*
X159480998Y-74133899D01*
X159560473Y-74180340D01*
X159566919Y-74184107D01*
X159572196Y-74186038D01*
X159575983Y-74187820D01*
X159629104Y-74234923D01*
X159648327Y-74303268D01*
X159627548Y-74371156D01*
X159580125Y-74413795D01*
X159535283Y-74436940D01*
X159426553Y-74493060D01*
X159246645Y-74631108D01*
X159242872Y-74635254D01*
X159242867Y-74635259D01*
X159110148Y-74781116D01*
X159094026Y-74798834D01*
X159091044Y-74803588D01*
X159091041Y-74803592D01*
X158999378Y-74949716D01*
X158973521Y-74990935D01*
X158888939Y-75201340D01*
X158887800Y-75206841D01*
X158847475Y-75401564D01*
X158842953Y-75423398D01*
X158837017Y-75650089D01*
X158871318Y-75874249D01*
X158944773Y-76088793D01*
X159055059Y-76286937D01*
X159058612Y-76291277D01*
X159058614Y-76291281D01*
X159105584Y-76348667D01*
X159198690Y-76462421D01*
X159202953Y-76466062D01*
X159202958Y-76466067D01*
X159282670Y-76534147D01*
X159371127Y-76609696D01*
X159480998Y-76673899D01*
X159560473Y-76720340D01*
X159566919Y-76724107D01*
X159572196Y-76726038D01*
X159575983Y-76727820D01*
X159629104Y-76774923D01*
X159648327Y-76843268D01*
X159627548Y-76911156D01*
X159580125Y-76953795D01*
X159512297Y-76988804D01*
X159426553Y-77033060D01*
X159422105Y-77036473D01*
X159412950Y-77043498D01*
X159246645Y-77171108D01*
X159242872Y-77175254D01*
X159242867Y-77175259D01*
X159119765Y-77310547D01*
X159094026Y-77338834D01*
X159091044Y-77343588D01*
X159091041Y-77343592D01*
X159003661Y-77482888D01*
X158973521Y-77530935D01*
X158888939Y-77741340D01*
X158842953Y-77963398D01*
X158837017Y-78190089D01*
X158871318Y-78414249D01*
X158944773Y-78628793D01*
X159055059Y-78826937D01*
X159058612Y-78831277D01*
X159058614Y-78831281D01*
X159133503Y-78922778D01*
X159198690Y-79002421D01*
X159202953Y-79006062D01*
X159202958Y-79006067D01*
X159352028Y-79133384D01*
X159371127Y-79149696D01*
X159411976Y-79173566D01*
X159561308Y-79260828D01*
X159566919Y-79264107D01*
X159572185Y-79266034D01*
X159576554Y-79268090D01*
X159629674Y-79315194D01*
X159648895Y-79383539D01*
X159628114Y-79451427D01*
X159580693Y-79494063D01*
X159431803Y-79570910D01*
X159422372Y-79576895D01*
X159421883Y-79577271D01*
X159413418Y-79588863D01*
X159420050Y-79600839D01*
X160097189Y-80277979D01*
X160111132Y-80285592D01*
X160112966Y-80285461D01*
X160119580Y-80281210D01*
X160797460Y-79603329D01*
X160803682Y-79591935D01*
X160793870Y-79579502D01*
X160728892Y-79535838D01*
X160719098Y-79530454D01*
X160643739Y-79497373D01*
X160589404Y-79451677D01*
X160568399Y-79383859D01*
X160587394Y-79315450D01*
X160640358Y-79268171D01*
X160649828Y-79264142D01*
X160665137Y-79258357D01*
X160859720Y-79141901D01*
X160863940Y-79138219D01*
X160863945Y-79138216D01*
X161026375Y-78996519D01*
X161030605Y-78992829D01*
X161034114Y-78988449D01*
X161034119Y-78988444D01*
X161128777Y-78870291D01*
X161186979Y-78829633D01*
X161257923Y-78826896D01*
X161319084Y-78862949D01*
X161339775Y-78892654D01*
X161340204Y-78893512D01*
X161342703Y-78900395D01*
X161346718Y-78906519D01*
X161406231Y-78997291D01*
X161439659Y-79048278D01*
X161568035Y-79169889D01*
X161720945Y-79258706D01*
X161890186Y-79309964D01*
X161896626Y-79310539D01*
X161896627Y-79310539D01*
X161966575Y-79316782D01*
X161966581Y-79316782D01*
X161969368Y-79317031D01*
X162768276Y-79317031D01*
X162863496Y-79305929D01*
X162893761Y-79302401D01*
X162893762Y-79302401D01*
X162901033Y-79301553D01*
X162907911Y-79299057D01*
X162907913Y-79299056D01*
X163060375Y-79243715D01*
X163067254Y-79241218D01*
X163215137Y-79144262D01*
X163277485Y-79078446D01*
X163282596Y-79073051D01*
X163343966Y-79037353D01*
X163414892Y-79040501D01*
X163460722Y-79068231D01*
X163568035Y-79169889D01*
X163679175Y-79234444D01*
X163728034Y-79285955D01*
X163741890Y-79343398D01*
X163741891Y-80653632D01*
X163741891Y-81962152D01*
X163721889Y-82030273D01*
X163684976Y-82067524D01*
X163540124Y-82162493D01*
X163535092Y-82167805D01*
X163472665Y-82233704D01*
X163411295Y-82269402D01*
X163340369Y-82266254D01*
X163294539Y-82238524D01*
X163192540Y-82141900D01*
X163187226Y-82136866D01*
X163034316Y-82048049D01*
X162865075Y-81996791D01*
X162858635Y-81996216D01*
X162858634Y-81996216D01*
X162788686Y-81989973D01*
X162788680Y-81989973D01*
X162785893Y-81989724D01*
X161986985Y-81989724D01*
X161891765Y-82000826D01*
X161861500Y-82004354D01*
X161861499Y-82004354D01*
X161854228Y-82005202D01*
X161847350Y-82007698D01*
X161847348Y-82007699D01*
X161756878Y-82040538D01*
X161688007Y-82065537D01*
X161584822Y-82133188D01*
X161559782Y-82149605D01*
X161540124Y-82162493D01*
X161418513Y-82290869D01*
X161344186Y-82418834D01*
X161341836Y-82422879D01*
X161290325Y-82471738D01*
X161220577Y-82484992D01*
X161154735Y-82458433D01*
X161130559Y-82433120D01*
X161129216Y-82431250D01*
X161081104Y-82364295D01*
X161078823Y-82361120D01*
X161078818Y-82361115D01*
X161075547Y-82356562D01*
X160980646Y-82264596D01*
X160916726Y-82202653D01*
X160916723Y-82202651D01*
X160912698Y-82198750D01*
X160815133Y-82133189D01*
X160729130Y-82075397D01*
X160729124Y-82075394D01*
X160724477Y-82072271D01*
X160719345Y-82070018D01*
X160719341Y-82070016D01*
X160643753Y-82036835D01*
X160589417Y-81991139D01*
X160568413Y-81923320D01*
X160587408Y-81854912D01*
X160640372Y-81807633D01*
X160649863Y-81803595D01*
X160659677Y-81799887D01*
X160669734Y-81795025D01*
X160795623Y-81719683D01*
X160805193Y-81709324D01*
X160801650Y-81700861D01*
X160122811Y-81022021D01*
X160108868Y-81014408D01*
X160107034Y-81014539D01*
X160100420Y-81018790D01*
X159421152Y-81698059D01*
X159414395Y-81710434D01*
X159419676Y-81717489D01*
X159562284Y-81800822D01*
X159576544Y-81807532D01*
X159629665Y-81854635D01*
X159648887Y-81922980D01*
X159628108Y-81990868D01*
X159580685Y-82033506D01*
X159458767Y-82096433D01*
X159426553Y-82113060D01*
X159246645Y-82251108D01*
X159242872Y-82255254D01*
X159242867Y-82255259D01*
X159122414Y-82387636D01*
X159094026Y-82418834D01*
X159091044Y-82423588D01*
X159091041Y-82423592D01*
X158993019Y-82579853D01*
X158973521Y-82610935D01*
X158888939Y-82821340D01*
X158842953Y-83043398D01*
X158837017Y-83270089D01*
X158871318Y-83494249D01*
X158944773Y-83708793D01*
X159055059Y-83906937D01*
X159058612Y-83911277D01*
X159058614Y-83911281D01*
X159157213Y-84031746D01*
X159198690Y-84082421D01*
X159202953Y-84086062D01*
X159202958Y-84086067D01*
X159290434Y-84160778D01*
X159371127Y-84229696D01*
X159440019Y-84269953D01*
X159560473Y-84340340D01*
X159566919Y-84344107D01*
X159572196Y-84346038D01*
X159575983Y-84347820D01*
X159629104Y-84394923D01*
X159648327Y-84463268D01*
X159627548Y-84531156D01*
X159580125Y-84573795D01*
X159524600Y-84602454D01*
X159426553Y-84653060D01*
X159422105Y-84656473D01*
X159410342Y-84665499D01*
X159246645Y-84791108D01*
X159242872Y-84795254D01*
X159242867Y-84795259D01*
X159121882Y-84928221D01*
X159094026Y-84958834D01*
X159091044Y-84963588D01*
X159091041Y-84963592D01*
X159000297Y-85108251D01*
X158973521Y-85150935D01*
X158888939Y-85361340D01*
X158882809Y-85390941D01*
X158849394Y-85552297D01*
X158842953Y-85583398D01*
X158837017Y-85810089D01*
X158871318Y-86034249D01*
X158944773Y-86248793D01*
X159055059Y-86446937D01*
X159058612Y-86451277D01*
X159058614Y-86451281D01*
X159142324Y-86553555D01*
X159198690Y-86622421D01*
X159202953Y-86626062D01*
X159202958Y-86626067D01*
X159352028Y-86753384D01*
X159371127Y-86769696D01*
X159451461Y-86816639D01*
X159560803Y-86880533D01*
X159566919Y-86884107D01*
X159572196Y-86886038D01*
X159575983Y-86887820D01*
X159629104Y-86934923D01*
X159648327Y-87003268D01*
X159627548Y-87071156D01*
X159580125Y-87113795D01*
X159432623Y-87189927D01*
X159426553Y-87193060D01*
X159246645Y-87331108D01*
X159242872Y-87335254D01*
X159242867Y-87335259D01*
X159124469Y-87465378D01*
X159094026Y-87498834D01*
X159091044Y-87503588D01*
X159091041Y-87503592D01*
X158981094Y-87678863D01*
X158973521Y-87690935D01*
X158888939Y-87901340D01*
X158842953Y-88123398D01*
X158837017Y-88350089D01*
X158871318Y-88574249D01*
X158944773Y-88788793D01*
X159055059Y-88986937D01*
X159058612Y-88991277D01*
X159058614Y-88991281D01*
X159116959Y-89062565D01*
X159198690Y-89162421D01*
X159202953Y-89166062D01*
X159202958Y-89166067D01*
X159352028Y-89293384D01*
X159371127Y-89309696D01*
X159419956Y-89338229D01*
X159560473Y-89420340D01*
X159566919Y-89424107D01*
X159572196Y-89426038D01*
X159575983Y-89427820D01*
X159629104Y-89474923D01*
X159648327Y-89543268D01*
X159627548Y-89611156D01*
X159580125Y-89653795D01*
X159509943Y-89690019D01*
X159426553Y-89733060D01*
X159246645Y-89871108D01*
X159242872Y-89875254D01*
X159242867Y-89875259D01*
X159131082Y-89998110D01*
X159094026Y-90038834D01*
X159091044Y-90043588D01*
X159091041Y-90043592D01*
X159003586Y-90183008D01*
X158973521Y-90230935D01*
X158888939Y-90441340D01*
X158842953Y-90663398D01*
X158837017Y-90890089D01*
X158871318Y-91114249D01*
X158944773Y-91328793D01*
X159055059Y-91526937D01*
X159058612Y-91531277D01*
X159058614Y-91531281D01*
X159142324Y-91633555D01*
X159198690Y-91702421D01*
X159202953Y-91706062D01*
X159202958Y-91706067D01*
X159352028Y-91833384D01*
X159371127Y-91849696D01*
X159499359Y-91924628D01*
X159560466Y-91960336D01*
X159566919Y-91964107D01*
X159572185Y-91966034D01*
X159576554Y-91968090D01*
X159629674Y-92015194D01*
X159648895Y-92083539D01*
X159628114Y-92151427D01*
X159580693Y-92194063D01*
X159431803Y-92270910D01*
X159422372Y-92276895D01*
X159421883Y-92277271D01*
X159413418Y-92288863D01*
X159420050Y-92300839D01*
X160097189Y-92977979D01*
X160111132Y-92985592D01*
X160112966Y-92985461D01*
X160119580Y-92981210D01*
X160797460Y-92303329D01*
X160803682Y-92291935D01*
X160793870Y-92279502D01*
X160728892Y-92235838D01*
X160719098Y-92230454D01*
X160643739Y-92197373D01*
X160589404Y-92151677D01*
X160568399Y-92083859D01*
X160587394Y-92015450D01*
X160640358Y-91968171D01*
X160649828Y-91964142D01*
X160665137Y-91958357D01*
X160689402Y-91943835D01*
X160821166Y-91864975D01*
X160859720Y-91841901D01*
X160863940Y-91838219D01*
X160863945Y-91838216D01*
X161026375Y-91696519D01*
X161030605Y-91692829D01*
X161034114Y-91688449D01*
X161034119Y-91688444D01*
X161132699Y-91565395D01*
X161190901Y-91524737D01*
X161261844Y-91522000D01*
X161323006Y-91558053D01*
X161343696Y-91587757D01*
X161346640Y-91593635D01*
X161349137Y-91600515D01*
X161446093Y-91748398D01*
X161574469Y-91870009D01*
X161727379Y-91958826D01*
X161896620Y-92010084D01*
X161903060Y-92010659D01*
X161903061Y-92010659D01*
X161973009Y-92016902D01*
X161973015Y-92016902D01*
X161975802Y-92017151D01*
X162774710Y-92017151D01*
X162869930Y-92006049D01*
X162900195Y-92002521D01*
X162900196Y-92002521D01*
X162907467Y-92001673D01*
X162914345Y-91999177D01*
X162914347Y-91999176D01*
X163066809Y-91943835D01*
X163073688Y-91941338D01*
X163190161Y-91864975D01*
X163215452Y-91848394D01*
X163215453Y-91848393D01*
X163221571Y-91844382D01*
X163233632Y-91831650D01*
X163289030Y-91773171D01*
X163350400Y-91737473D01*
X163421326Y-91740621D01*
X163467156Y-91768351D01*
X163574469Y-91870009D01*
X163685609Y-91934564D01*
X163734468Y-91986075D01*
X163748324Y-92043518D01*
X163748325Y-93347034D01*
X163748325Y-94646556D01*
X163728323Y-94714677D01*
X163686399Y-94752341D01*
X163687434Y-94753919D01*
X163570961Y-94830282D01*
X163539551Y-94850875D01*
X163534519Y-94856187D01*
X163472092Y-94922086D01*
X163410722Y-94957784D01*
X163339796Y-94954636D01*
X163293966Y-94926906D01*
X163191967Y-94830282D01*
X163186653Y-94825248D01*
X163033743Y-94736431D01*
X162884200Y-94691139D01*
X162870693Y-94687048D01*
X162870692Y-94687048D01*
X162864502Y-94685173D01*
X162858062Y-94684598D01*
X162858061Y-94684598D01*
X162788113Y-94678355D01*
X162788107Y-94678355D01*
X162785320Y-94678106D01*
X161986412Y-94678106D01*
X161891192Y-94689208D01*
X161860927Y-94692736D01*
X161860926Y-94692736D01*
X161853655Y-94693584D01*
X161846777Y-94696080D01*
X161846775Y-94696081D01*
X161748324Y-94731817D01*
X161687434Y-94753919D01*
X161539551Y-94850875D01*
X161417940Y-94979251D01*
X161342337Y-95109412D01*
X161337787Y-95117245D01*
X161286276Y-95166103D01*
X161216527Y-95179357D01*
X161150686Y-95152797D01*
X161126510Y-95127485D01*
X161078823Y-95061120D01*
X161078818Y-95061115D01*
X161075547Y-95056562D01*
X160912698Y-94898750D01*
X160810807Y-94830282D01*
X160729130Y-94775397D01*
X160729124Y-94775394D01*
X160724477Y-94772271D01*
X160719345Y-94770018D01*
X160719341Y-94770016D01*
X160643753Y-94736835D01*
X160589417Y-94691139D01*
X160568413Y-94623320D01*
X160587408Y-94554912D01*
X160640372Y-94507633D01*
X160649863Y-94503595D01*
X160659677Y-94499887D01*
X160669734Y-94495025D01*
X160795623Y-94419683D01*
X160805193Y-94409324D01*
X160801650Y-94400861D01*
X160122811Y-93722021D01*
X160108868Y-93714408D01*
X160107034Y-93714539D01*
X160100420Y-93718790D01*
X159421152Y-94398059D01*
X159414395Y-94410434D01*
X159419676Y-94417489D01*
X159562284Y-94500822D01*
X159576544Y-94507532D01*
X159629665Y-94554635D01*
X159648887Y-94622980D01*
X159628108Y-94690868D01*
X159580685Y-94733506D01*
X159509949Y-94770016D01*
X159426553Y-94813060D01*
X159422105Y-94816473D01*
X159415461Y-94821571D01*
X159246645Y-94951108D01*
X159242872Y-94955254D01*
X159242867Y-94955259D01*
X159146541Y-95061121D01*
X159094026Y-95118834D01*
X159091043Y-95123590D01*
X159091041Y-95123592D01*
X159011746Y-95250000D01*
X158973521Y-95310935D01*
X158888939Y-95521340D01*
X158878527Y-95571619D01*
X158856318Y-95678863D01*
X158842953Y-95743398D01*
X158842806Y-95749007D01*
X158842806Y-95749008D01*
X158841633Y-95793799D01*
X158837017Y-95970089D01*
X158871318Y-96194249D01*
X158944773Y-96408793D01*
X159055059Y-96606937D01*
X159058612Y-96611277D01*
X159058614Y-96611281D01*
X159118617Y-96684590D01*
X159198690Y-96782421D01*
X159202953Y-96786062D01*
X159202958Y-96786067D01*
X159328637Y-96893406D01*
X159371127Y-96929696D01*
X159428220Y-96963058D01*
X159560709Y-97040478D01*
X159566919Y-97044107D01*
X159572196Y-97046038D01*
X159575983Y-97047820D01*
X159629104Y-97094923D01*
X159648327Y-97163268D01*
X159627548Y-97231156D01*
X159580125Y-97273795D01*
X159509943Y-97310019D01*
X159426553Y-97353060D01*
X159246645Y-97491108D01*
X159242872Y-97495254D01*
X159242867Y-97495259D01*
X159160881Y-97585361D01*
X159094026Y-97658834D01*
X159091043Y-97663590D01*
X159091041Y-97663592D01*
X158996995Y-97813515D01*
X158973521Y-97850935D01*
X158888939Y-98061340D01*
X158887800Y-98066841D01*
X158845448Y-98271352D01*
X158842953Y-98283398D01*
X158842806Y-98289007D01*
X158842806Y-98289008D01*
X158842538Y-98299242D01*
X158837017Y-98510089D01*
X158871318Y-98734249D01*
X158944773Y-98948793D01*
X159055059Y-99146937D01*
X159058612Y-99151277D01*
X159058614Y-99151281D01*
X159118666Y-99224650D01*
X159198690Y-99322421D01*
X159202953Y-99326062D01*
X159202958Y-99326067D01*
X159352028Y-99453384D01*
X159371127Y-99469696D01*
X159480998Y-99533899D01*
X159560473Y-99580340D01*
X159566919Y-99584107D01*
X159572196Y-99586038D01*
X159575983Y-99587820D01*
X159629104Y-99634923D01*
X159648327Y-99703268D01*
X159627548Y-99771156D01*
X159580125Y-99813795D01*
X159509943Y-99850019D01*
X159426553Y-99893060D01*
X159246645Y-100031108D01*
X159242872Y-100035254D01*
X159242867Y-100035259D01*
X159146541Y-100141121D01*
X159094026Y-100198834D01*
X159091043Y-100203590D01*
X159091041Y-100203592D01*
X159006275Y-100338721D01*
X158973521Y-100390935D01*
X158888939Y-100601340D01*
X158878527Y-100651618D01*
X158844092Y-100817900D01*
X158842953Y-100823398D01*
X158837017Y-101050089D01*
X158871318Y-101274249D01*
X158944773Y-101488793D01*
X159055059Y-101686937D01*
X159058612Y-101691277D01*
X159058614Y-101691281D01*
X159152234Y-101805663D01*
X159198690Y-101862421D01*
X159202953Y-101866062D01*
X159202958Y-101866067D01*
X159352028Y-101993384D01*
X159371127Y-102009696D01*
X159431630Y-102045051D01*
X159560473Y-102120340D01*
X159566919Y-102124107D01*
X159572196Y-102126038D01*
X159575983Y-102127820D01*
X159629104Y-102174923D01*
X159648327Y-102243268D01*
X159627548Y-102311156D01*
X159580125Y-102353795D01*
X159538956Y-102375044D01*
X159426553Y-102433060D01*
X159246645Y-102571108D01*
X159242872Y-102575254D01*
X159242867Y-102575259D01*
X159146541Y-102681121D01*
X159094026Y-102738834D01*
X159091043Y-102743590D01*
X159091041Y-102743592D01*
X159029348Y-102841940D01*
X158973521Y-102930935D01*
X158888939Y-103141340D01*
X158887800Y-103146841D01*
X158846640Y-103345595D01*
X158842953Y-103363398D01*
X158837017Y-103590089D01*
X158871318Y-103814249D01*
X158944773Y-104028793D01*
X159055059Y-104226937D01*
X159058612Y-104231277D01*
X159058614Y-104231281D01*
X159166296Y-104362843D01*
X159198690Y-104402421D01*
X159202953Y-104406062D01*
X159202958Y-104406067D01*
X159273507Y-104466321D01*
X159371127Y-104549696D01*
X159427949Y-104582900D01*
X159560466Y-104660336D01*
X159566919Y-104664107D01*
X159572185Y-104666034D01*
X159576554Y-104668090D01*
X159629674Y-104715194D01*
X159648895Y-104783539D01*
X159628114Y-104851427D01*
X159580693Y-104894063D01*
X159431803Y-104970910D01*
X159422372Y-104976895D01*
X159421883Y-104977271D01*
X159413418Y-104988863D01*
X159420050Y-105000839D01*
X160097189Y-105677979D01*
X160111132Y-105685592D01*
X160112966Y-105685461D01*
X160119580Y-105681210D01*
X160797460Y-105003329D01*
X160803682Y-104991935D01*
X160793870Y-104979502D01*
X160728892Y-104935838D01*
X160719098Y-104930454D01*
X160643739Y-104897373D01*
X160589404Y-104851677D01*
X160568399Y-104783859D01*
X160587394Y-104715450D01*
X160640358Y-104668171D01*
X160649828Y-104664142D01*
X160665137Y-104658357D01*
X160672035Y-104654229D01*
X160754809Y-104604689D01*
X160859720Y-104541901D01*
X160863940Y-104538219D01*
X160863945Y-104538216D01*
X161026375Y-104396519D01*
X161030605Y-104392829D01*
X161135104Y-104262393D01*
X161193306Y-104221736D01*
X161264250Y-104218999D01*
X161325411Y-104255052D01*
X161351876Y-104298181D01*
X161354754Y-104306108D01*
X161357403Y-104313406D01*
X161454359Y-104461289D01*
X161582735Y-104582900D01*
X161735645Y-104671717D01*
X161904886Y-104722975D01*
X161911326Y-104723550D01*
X161911327Y-104723550D01*
X161981275Y-104729793D01*
X161981281Y-104729793D01*
X161984068Y-104730042D01*
X162187772Y-104730042D01*
X162255893Y-104750044D01*
X162302386Y-104803700D01*
X162312490Y-104873974D01*
X162281407Y-104940352D01*
X162260963Y-104963058D01*
X162165476Y-105128446D01*
X162106462Y-105310073D01*
X162086500Y-105500000D01*
X162087190Y-105506565D01*
X162097064Y-105600506D01*
X162106462Y-105689927D01*
X162165476Y-105871554D01*
X162260963Y-106036942D01*
X162265381Y-106041849D01*
X162265382Y-106041850D01*
X162336036Y-106120319D01*
X162388749Y-106178863D01*
X162394091Y-106182744D01*
X162394093Y-106182746D01*
X162428945Y-106208067D01*
X162543250Y-106291114D01*
X162549278Y-106293798D01*
X162549280Y-106293799D01*
X162711682Y-106366105D01*
X162717713Y-106368790D01*
X162766698Y-106379202D01*
X162829171Y-106412930D01*
X162863493Y-106475080D01*
X162866501Y-106502449D01*
X162866500Y-107185406D01*
X162846498Y-107253527D01*
X162829595Y-107274501D01*
X162184501Y-107919595D01*
X162122189Y-107953621D01*
X162095406Y-107956500D01*
X161283833Y-107956500D01*
X161215712Y-107936498D01*
X161181510Y-107904026D01*
X161078823Y-107761121D01*
X161075547Y-107756562D01*
X160912698Y-107598750D01*
X160785178Y-107513060D01*
X160729130Y-107475397D01*
X160729124Y-107475394D01*
X160724477Y-107472271D01*
X160719345Y-107470018D01*
X160719341Y-107470016D01*
X160643753Y-107436835D01*
X160589417Y-107391139D01*
X160568413Y-107323320D01*
X160587408Y-107254912D01*
X160640372Y-107207633D01*
X160649863Y-107203595D01*
X160659677Y-107199887D01*
X160669734Y-107195025D01*
X160795623Y-107119683D01*
X160805193Y-107109324D01*
X160801650Y-107100861D01*
X160122811Y-106422021D01*
X160108868Y-106414408D01*
X160107034Y-106414539D01*
X160100420Y-106418790D01*
X159421152Y-107098059D01*
X159414395Y-107110434D01*
X159419676Y-107117489D01*
X159562284Y-107200822D01*
X159576544Y-107207532D01*
X159629665Y-107254635D01*
X159648887Y-107322980D01*
X159628108Y-107390868D01*
X159580685Y-107433506D01*
X159509949Y-107470016D01*
X159426553Y-107513060D01*
X159246645Y-107651108D01*
X159242872Y-107655254D01*
X159242867Y-107655259D01*
X159154244Y-107752655D01*
X159094026Y-107818834D01*
X159091043Y-107823590D01*
X159091041Y-107823592D01*
X159030819Y-107919595D01*
X158973521Y-108010935D01*
X158888939Y-108221340D01*
X158842953Y-108443398D01*
X158837017Y-108670089D01*
X158871318Y-108894249D01*
X158944773Y-109108793D01*
X159055059Y-109306937D01*
X159198690Y-109482421D01*
X159202953Y-109486062D01*
X159202958Y-109486067D01*
X159352028Y-109613384D01*
X159371127Y-109629696D01*
X159480998Y-109693899D01*
X159560473Y-109740340D01*
X159566919Y-109744107D01*
X159572196Y-109746038D01*
X159575983Y-109747820D01*
X159629104Y-109794923D01*
X159648327Y-109863268D01*
X159627548Y-109931156D01*
X159580125Y-109973795D01*
X159509943Y-110010019D01*
X159426553Y-110053060D01*
X159246645Y-110191108D01*
X159242872Y-110195254D01*
X159242867Y-110195259D01*
X159146541Y-110301121D01*
X159094026Y-110358834D01*
X158973521Y-110550935D01*
X158888939Y-110761340D01*
X158842953Y-110983398D01*
X158837017Y-111210089D01*
X158871318Y-111434249D01*
X158944773Y-111648793D01*
X159055059Y-111846937D01*
X159198690Y-112022421D01*
X159202953Y-112026062D01*
X159202958Y-112026067D01*
X159336896Y-112140460D01*
X159371127Y-112169696D01*
X159469023Y-112226902D01*
X159562072Y-112281275D01*
X159562075Y-112281276D01*
X159566919Y-112284107D01*
X159572189Y-112286036D01*
X159572190Y-112286036D01*
X159774612Y-112360112D01*
X159774616Y-112360113D01*
X159779876Y-112362038D01*
X159785393Y-112363001D01*
X159785397Y-112363002D01*
X159933367Y-112388827D01*
X160003269Y-112401027D01*
X160008875Y-112400998D01*
X160008879Y-112400998D01*
X160112475Y-112400455D01*
X160230035Y-112399839D01*
X160235553Y-112398816D01*
X160235556Y-112398816D01*
X160447488Y-112359537D01*
X160447489Y-112359537D01*
X160453007Y-112358514D01*
X160458252Y-112356532D01*
X160458256Y-112356531D01*
X160621476Y-112294855D01*
X160665137Y-112278357D01*
X160685016Y-112266460D01*
X160808088Y-112192802D01*
X160859720Y-112161901D01*
X160863940Y-112158219D01*
X160863945Y-112158216D01*
X161026375Y-112016519D01*
X161030605Y-112012829D01*
X161041882Y-111998753D01*
X161168885Y-111840228D01*
X161168888Y-111840223D01*
X161172391Y-111835851D01*
X161175909Y-111829372D01*
X161176475Y-111828804D01*
X161178174Y-111826246D01*
X161178684Y-111826585D01*
X161225995Y-111779053D01*
X161286637Y-111763500D01*
X161291617Y-111763500D01*
X161302521Y-111764014D01*
X161309912Y-111765666D01*
X161317837Y-111765417D01*
X161317838Y-111765417D01*
X161376853Y-111763562D01*
X161380811Y-111763500D01*
X161409578Y-111763500D01*
X161413502Y-111763004D01*
X161413504Y-111763004D01*
X161413852Y-111762960D01*
X161425698Y-111762027D01*
X161469883Y-111760638D01*
X161489339Y-111754986D01*
X161508679Y-111750981D01*
X161528788Y-111748440D01*
X161536158Y-111745522D01*
X161536162Y-111745521D01*
X161569900Y-111732163D01*
X161581130Y-111728318D01*
X161615968Y-111718197D01*
X161615969Y-111718197D01*
X161623578Y-111715986D01*
X161641012Y-111705676D01*
X161658764Y-111696980D01*
X161670225Y-111692442D01*
X161670224Y-111692442D01*
X161677600Y-111689522D01*
X161713375Y-111663530D01*
X161723294Y-111657014D01*
X161761341Y-111634513D01*
X161761759Y-111634145D01*
X161775842Y-111620062D01*
X161790867Y-111607228D01*
X161807083Y-111595446D01*
X161835030Y-111561664D01*
X161843019Y-111552885D01*
X164392527Y-109003378D01*
X164400606Y-108996027D01*
X164406994Y-108991973D01*
X164452844Y-108943148D01*
X164455599Y-108940306D01*
X164475938Y-108919967D01*
X164478588Y-108916551D01*
X164486298Y-108907523D01*
X164511130Y-108881080D01*
X164516557Y-108875301D01*
X164520374Y-108868357D01*
X164520378Y-108868352D01*
X164526316Y-108857550D01*
X164537172Y-108841023D01*
X164544724Y-108831287D01*
X164549583Y-108825023D01*
X164567142Y-108784447D01*
X164572363Y-108773790D01*
X164593662Y-108735048D01*
X164595635Y-108727364D01*
X164598699Y-108715432D01*
X164605103Y-108696728D01*
X164609999Y-108685415D01*
X164610001Y-108685408D01*
X164613148Y-108678136D01*
X164615311Y-108664483D01*
X164620065Y-108634465D01*
X164622472Y-108622844D01*
X164631987Y-108585782D01*
X164631987Y-108585781D01*
X164633465Y-108580025D01*
X164633500Y-108579469D01*
X164633500Y-108559548D01*
X164635051Y-108539838D01*
X164636944Y-108527886D01*
X164636944Y-108527885D01*
X164638184Y-108520056D01*
X164634059Y-108476417D01*
X164633500Y-108464560D01*
X164633500Y-106502449D01*
X164653502Y-106434328D01*
X164707158Y-106387835D01*
X164733303Y-106379202D01*
X164734575Y-106378932D01*
X164782287Y-106368790D01*
X164788318Y-106366105D01*
X164950720Y-106293799D01*
X164950722Y-106293798D01*
X164956750Y-106291114D01*
X165071055Y-106208067D01*
X165105907Y-106182746D01*
X165105909Y-106182744D01*
X165111251Y-106178863D01*
X165146866Y-106139308D01*
X165207311Y-106102070D01*
X165278295Y-106103422D01*
X165337279Y-106142936D01*
X165365537Y-106208067D01*
X165366501Y-106223619D01*
X165366500Y-109468449D01*
X165366500Y-112690480D01*
X165346498Y-112758601D01*
X165292842Y-112805094D01*
X165240500Y-112816480D01*
X162791979Y-112816480D01*
X162781075Y-112815966D01*
X162773684Y-112814314D01*
X162765759Y-112814563D01*
X162765758Y-112814563D01*
X162706743Y-112816418D01*
X162702785Y-112816480D01*
X162674018Y-112816480D01*
X162669733Y-112817021D01*
X162657899Y-112817953D01*
X162631882Y-112818771D01*
X162621632Y-112819093D01*
X162621631Y-112819093D01*
X162613712Y-112819342D01*
X162606104Y-112821552D01*
X162606099Y-112821553D01*
X162594257Y-112824993D01*
X162574903Y-112829001D01*
X162562675Y-112830546D01*
X162554808Y-112831540D01*
X162547440Y-112834457D01*
X162547433Y-112834459D01*
X162513695Y-112847817D01*
X162502465Y-112851662D01*
X162467627Y-112861783D01*
X162467626Y-112861784D01*
X162460017Y-112863994D01*
X162442584Y-112874304D01*
X162424837Y-112882998D01*
X162405996Y-112890458D01*
X162399581Y-112895119D01*
X162370225Y-112916447D01*
X162360308Y-112922962D01*
X162322254Y-112945467D01*
X162321836Y-112945836D01*
X162307754Y-112959918D01*
X162292729Y-112972752D01*
X162276513Y-112984534D01*
X162248567Y-113018315D01*
X162240577Y-113027095D01*
X161607458Y-113660214D01*
X161599380Y-113667565D01*
X161592986Y-113671623D01*
X161587559Y-113677402D01*
X161587558Y-113677403D01*
X161547128Y-113720457D01*
X161544373Y-113723299D01*
X161524042Y-113743630D01*
X161521608Y-113746767D01*
X161521606Y-113746770D01*
X161521383Y-113747057D01*
X161513687Y-113756067D01*
X161490231Y-113781046D01*
X161483424Y-113788295D01*
X161479608Y-113795236D01*
X161479606Y-113795239D01*
X161473668Y-113806041D01*
X161462814Y-113822564D01*
X161455258Y-113832306D01*
X161450397Y-113838573D01*
X161447249Y-113845848D01*
X161432839Y-113879147D01*
X161427617Y-113889807D01*
X161406319Y-113928548D01*
X161401281Y-113948168D01*
X161394882Y-113966860D01*
X161386833Y-113985461D01*
X161385593Y-113993288D01*
X161385593Y-113993289D01*
X161379917Y-114029127D01*
X161377510Y-114040750D01*
X161366516Y-114083571D01*
X161366481Y-114084127D01*
X161366481Y-114104043D01*
X161364930Y-114123753D01*
X161361796Y-114143541D01*
X161362542Y-114151433D01*
X161365922Y-114187189D01*
X161366481Y-114199047D01*
X161366480Y-119458021D01*
X161365966Y-119468925D01*
X161364314Y-119476316D01*
X161364563Y-119484241D01*
X161364563Y-119484242D01*
X161366418Y-119543257D01*
X161366480Y-119547215D01*
X161366480Y-119575981D01*
X161367021Y-119580260D01*
X161367953Y-119592100D01*
X161369342Y-119636287D01*
X161371552Y-119643895D01*
X161371553Y-119643900D01*
X161374993Y-119655742D01*
X161379001Y-119675096D01*
X161380147Y-119684167D01*
X161381540Y-119695191D01*
X161384457Y-119702559D01*
X161384459Y-119702566D01*
X161397817Y-119736304D01*
X161401662Y-119747534D01*
X161413994Y-119789982D01*
X161418029Y-119796804D01*
X161424304Y-119807415D01*
X161432998Y-119825162D01*
X161440458Y-119844003D01*
X161445117Y-119850415D01*
X161445120Y-119850421D01*
X161466448Y-119879776D01*
X161472965Y-119889698D01*
X161492451Y-119922646D01*
X161495467Y-119927745D01*
X161495835Y-119928163D01*
X161509918Y-119942246D01*
X161522758Y-119957279D01*
X161534534Y-119973487D01*
X161565414Y-119999033D01*
X161568311Y-120001430D01*
X161577090Y-120009418D01*
X161679596Y-120111923D01*
X161713621Y-120174235D01*
X161716501Y-120201019D01*
X161716500Y-121553011D01*
X161696498Y-121621132D01*
X161684137Y-121637321D01*
X161660963Y-121663058D01*
X161565476Y-121828446D01*
X161506462Y-122010073D01*
X161505772Y-122016636D01*
X161505772Y-122016637D01*
X161497161Y-122098569D01*
X161486500Y-122200000D01*
X161487190Y-122206565D01*
X161498745Y-122316500D01*
X161506462Y-122389927D01*
X161508502Y-122396205D01*
X161508502Y-122396206D01*
X161524016Y-122443952D01*
X161565476Y-122571554D01*
X161568779Y-122577276D01*
X161568780Y-122577277D01*
X161569415Y-122578377D01*
X161660963Y-122736942D01*
X161665381Y-122741849D01*
X161665382Y-122741850D01*
X161745130Y-122830419D01*
X161788749Y-122878863D01*
X161794091Y-122882744D01*
X161794093Y-122882746D01*
X161937908Y-122987233D01*
X161943250Y-122991114D01*
X161949278Y-122993798D01*
X161949280Y-122993799D01*
X162111682Y-123066105D01*
X162117713Y-123068790D01*
X162211113Y-123088643D01*
X162298056Y-123107124D01*
X162298061Y-123107124D01*
X162304513Y-123108496D01*
X162495487Y-123108496D01*
X162501939Y-123107124D01*
X162501944Y-123107124D01*
X162588887Y-123088643D01*
X162682287Y-123068790D01*
X162688318Y-123066105D01*
X162850720Y-122993799D01*
X162850722Y-122993798D01*
X162856750Y-122991114D01*
X162862092Y-122987233D01*
X163005907Y-122882746D01*
X163005909Y-122882744D01*
X163011251Y-122878863D01*
X163054870Y-122830419D01*
X163134618Y-122741850D01*
X163134619Y-122741849D01*
X163139037Y-122736942D01*
X163230585Y-122578377D01*
X163231220Y-122577277D01*
X163231221Y-122577276D01*
X163234524Y-122571554D01*
X163243959Y-122542516D01*
X163284033Y-122483910D01*
X163349430Y-122456274D01*
X163419387Y-122468381D01*
X163471693Y-122516388D01*
X163489729Y-122577494D01*
X163490116Y-122589795D01*
X163491438Y-122631854D01*
X163491500Y-122635811D01*
X163491500Y-122664577D01*
X163492041Y-122668856D01*
X163492973Y-122680696D01*
X163494362Y-122724883D01*
X163496572Y-122732491D01*
X163496573Y-122732496D01*
X163500013Y-122744338D01*
X163504021Y-122763692D01*
X163506560Y-122783787D01*
X163509477Y-122791155D01*
X163509479Y-122791162D01*
X163522837Y-122824900D01*
X163526682Y-122836130D01*
X163539014Y-122878578D01*
X163543049Y-122885400D01*
X163549324Y-122896011D01*
X163558018Y-122913758D01*
X163565478Y-122932599D01*
X163570137Y-122939011D01*
X163570140Y-122939017D01*
X163591468Y-122968372D01*
X163597985Y-122978294D01*
X163617471Y-123011242D01*
X163620487Y-123016341D01*
X163620855Y-123016759D01*
X163634938Y-123030842D01*
X163647778Y-123045875D01*
X163659554Y-123062083D01*
X163690434Y-123087629D01*
X163693331Y-123090026D01*
X163702110Y-123098014D01*
X163831001Y-123226904D01*
X163865026Y-123289216D01*
X163859962Y-123360032D01*
X163817415Y-123416868D01*
X163750895Y-123441679D01*
X163741906Y-123442000D01*
X154034237Y-123442000D01*
X153966116Y-123421998D01*
X153919623Y-123368342D01*
X153908237Y-123315953D01*
X153908271Y-123226905D01*
X153908634Y-122256714D01*
X153909393Y-120233989D01*
X153929421Y-120165876D01*
X153983094Y-120119403D01*
X154053371Y-120109325D01*
X154117941Y-120138843D01*
X154135020Y-120156897D01*
X154290495Y-120357697D01*
X154290502Y-120357705D01*
X154292752Y-120360611D01*
X154528132Y-120600554D01*
X154789898Y-120811396D01*
X155074476Y-120990258D01*
X155377979Y-121134696D01*
X155696261Y-121242738D01*
X156024974Y-121312908D01*
X156138155Y-121323507D01*
X156355963Y-121343905D01*
X156355968Y-121343905D01*
X156359629Y-121344248D01*
X156565588Y-121339394D01*
X156691970Y-121336416D01*
X156691973Y-121336416D01*
X156695655Y-121336329D01*
X157028463Y-121289260D01*
X157353505Y-121203683D01*
X157666344Y-121080768D01*
X157669588Y-121079032D01*
X157669595Y-121079029D01*
X157959450Y-120923935D01*
X157962706Y-120922193D01*
X158121826Y-120811396D01*
X158235520Y-120732229D01*
X158238543Y-120730124D01*
X158241293Y-120727687D01*
X158241299Y-120727682D01*
X158487335Y-120509624D01*
X158490087Y-120507185D01*
X158713902Y-120256421D01*
X158729639Y-120233989D01*
X158887177Y-120009418D01*
X158906933Y-119981256D01*
X158925822Y-119946250D01*
X159043187Y-119728732D01*
X159066541Y-119685450D01*
X159071889Y-119671979D01*
X159189187Y-119376471D01*
X159189188Y-119376469D01*
X159190548Y-119373042D01*
X159264389Y-119096498D01*
X159276305Y-119051870D01*
X159276306Y-119051866D01*
X159277258Y-119048300D01*
X159308271Y-118834408D01*
X159325031Y-118718819D01*
X159325031Y-118718815D01*
X159325489Y-118715659D01*
X159336000Y-118470000D01*
X159316359Y-118134455D01*
X159311221Y-118105461D01*
X159258345Y-117807115D01*
X159258345Y-117807114D01*
X159257703Y-117803493D01*
X159160835Y-117481635D01*
X159155444Y-117469205D01*
X159028549Y-117176669D01*
X159028548Y-117176666D01*
X159027077Y-117173276D01*
X158858256Y-116882629D01*
X158656677Y-116613664D01*
X158441960Y-116387794D01*
X158427627Y-116372716D01*
X158427623Y-116372712D01*
X158425095Y-116370053D01*
X158166673Y-116155125D01*
X158163586Y-116153117D01*
X158163580Y-116153112D01*
X157888033Y-115973829D01*
X157888032Y-115973828D01*
X157884939Y-115971816D01*
X157689126Y-115874826D01*
X157587049Y-115824265D01*
X157587042Y-115824262D01*
X157583743Y-115822628D01*
X157580271Y-115821388D01*
X157580268Y-115821387D01*
X157332515Y-115732923D01*
X157267197Y-115709600D01*
X157163607Y-115685779D01*
X156943216Y-115635100D01*
X156943211Y-115635099D01*
X156939627Y-115634275D01*
X156935970Y-115633874D01*
X156935967Y-115633874D01*
X156609176Y-115598085D01*
X156609175Y-115598085D01*
X156605505Y-115597683D01*
X156601812Y-115597712D01*
X156273083Y-115600294D01*
X156273082Y-115600294D01*
X156269396Y-115600323D01*
X156265737Y-115600782D01*
X155939548Y-115641700D01*
X155939544Y-115641701D01*
X155935891Y-115642159D01*
X155932320Y-115643040D01*
X155932317Y-115643040D01*
X155842083Y-115665287D01*
X155609544Y-115722619D01*
X155606093Y-115723913D01*
X155606092Y-115723913D01*
X155338403Y-115824265D01*
X155294813Y-115840606D01*
X155291537Y-115842293D01*
X155291533Y-115842295D01*
X155102643Y-115939580D01*
X154995997Y-115994506D01*
X154717177Y-116182218D01*
X154462163Y-116401179D01*
X154234436Y-116648397D01*
X154171587Y-116735060D01*
X154138716Y-116780386D01*
X154082531Y-116823789D01*
X154011800Y-116829926D01*
X153948980Y-116796849D01*
X153914014Y-116735060D01*
X153910715Y-116706367D01*
X153914680Y-106124452D01*
X158837663Y-106124452D01*
X158838365Y-106135604D01*
X158870955Y-106348579D01*
X158873622Y-106359440D01*
X158943413Y-106563281D01*
X158947961Y-106573495D01*
X159039031Y-106737117D01*
X159049084Y-106747008D01*
X159056687Y-106744102D01*
X159737979Y-106062811D01*
X159744355Y-106051132D01*
X160474408Y-106051132D01*
X160474539Y-106052966D01*
X160478790Y-106059580D01*
X161160156Y-106740945D01*
X161172531Y-106747702D01*
X161178796Y-106743013D01*
X161277462Y-106561290D01*
X161281896Y-106551044D01*
X161349553Y-106346469D01*
X161352103Y-106335596D01*
X161382742Y-106120319D01*
X161383348Y-106113103D01*
X161384905Y-106053632D01*
X161384677Y-106046379D01*
X161365348Y-105829812D01*
X161363366Y-105818798D01*
X161306517Y-105610987D01*
X161302619Y-105600506D01*
X161209859Y-105406031D01*
X161204173Y-105396416D01*
X161180719Y-105363776D01*
X161169928Y-105355365D01*
X161156894Y-105362317D01*
X160482021Y-106037189D01*
X160474408Y-106051132D01*
X159744355Y-106051132D01*
X159745592Y-106048868D01*
X159745461Y-106047034D01*
X159741210Y-106040420D01*
X159063095Y-105362306D01*
X159050720Y-105355549D01*
X159042747Y-105361517D01*
X158976952Y-105466403D01*
X158971872Y-105476373D01*
X158891511Y-105676278D01*
X158888280Y-105686978D01*
X158844588Y-105897958D01*
X158843303Y-105909065D01*
X158837663Y-106124452D01*
X153914680Y-106124452D01*
X153919439Y-93424452D01*
X158837663Y-93424452D01*
X158838365Y-93435604D01*
X158870955Y-93648579D01*
X158873622Y-93659440D01*
X158943413Y-93863281D01*
X158947961Y-93873495D01*
X159039031Y-94037117D01*
X159049084Y-94047008D01*
X159056687Y-94044102D01*
X159737979Y-93362811D01*
X159744355Y-93351132D01*
X160474408Y-93351132D01*
X160474539Y-93352966D01*
X160478790Y-93359580D01*
X161160156Y-94040945D01*
X161172531Y-94047702D01*
X161178796Y-94043013D01*
X161277462Y-93861290D01*
X161281896Y-93851044D01*
X161349553Y-93646469D01*
X161352103Y-93635596D01*
X161382742Y-93420319D01*
X161383348Y-93413103D01*
X161384905Y-93353632D01*
X161384677Y-93346379D01*
X161365348Y-93129812D01*
X161363366Y-93118798D01*
X161306517Y-92910987D01*
X161302619Y-92900506D01*
X161209859Y-92706031D01*
X161204173Y-92696416D01*
X161180719Y-92663776D01*
X161169928Y-92655365D01*
X161156894Y-92662317D01*
X160482021Y-93337189D01*
X160474408Y-93351132D01*
X159744355Y-93351132D01*
X159745592Y-93348868D01*
X159745461Y-93347034D01*
X159741210Y-93340420D01*
X159063095Y-92662306D01*
X159050720Y-92655549D01*
X159042747Y-92661517D01*
X158976952Y-92766403D01*
X158971872Y-92776373D01*
X158891511Y-92976278D01*
X158888280Y-92986978D01*
X158844588Y-93197958D01*
X158843303Y-93209065D01*
X158837663Y-93424452D01*
X153919439Y-93424452D01*
X153924198Y-80724452D01*
X158837663Y-80724452D01*
X158838365Y-80735604D01*
X158870955Y-80948579D01*
X158873622Y-80959440D01*
X158943413Y-81163281D01*
X158947961Y-81173495D01*
X159039031Y-81337117D01*
X159049084Y-81347008D01*
X159056687Y-81344102D01*
X159737979Y-80662811D01*
X159744355Y-80651132D01*
X160474408Y-80651132D01*
X160474539Y-80652966D01*
X160478790Y-80659580D01*
X161160156Y-81340945D01*
X161172531Y-81347702D01*
X161178796Y-81343013D01*
X161277462Y-81161290D01*
X161281896Y-81151044D01*
X161349553Y-80946469D01*
X161352103Y-80935596D01*
X161382742Y-80720319D01*
X161383348Y-80713103D01*
X161384905Y-80653632D01*
X161384677Y-80646379D01*
X161365348Y-80429812D01*
X161363366Y-80418798D01*
X161306517Y-80210987D01*
X161302619Y-80200506D01*
X161209859Y-80006031D01*
X161204173Y-79996416D01*
X161180719Y-79963776D01*
X161169928Y-79955365D01*
X161156894Y-79962317D01*
X160482021Y-80637189D01*
X160474408Y-80651132D01*
X159744355Y-80651132D01*
X159745592Y-80648868D01*
X159745461Y-80647034D01*
X159741210Y-80640420D01*
X159063095Y-79962306D01*
X159050720Y-79955549D01*
X159042747Y-79961517D01*
X158976952Y-80066403D01*
X158971872Y-80076373D01*
X158891511Y-80276278D01*
X158888280Y-80286978D01*
X158844588Y-80497958D01*
X158843303Y-80509065D01*
X158837663Y-80724452D01*
X153924198Y-80724452D01*
X153928958Y-68024452D01*
X158837663Y-68024452D01*
X158838365Y-68035604D01*
X158870955Y-68248579D01*
X158873622Y-68259440D01*
X158943413Y-68463281D01*
X158947961Y-68473495D01*
X159039031Y-68637117D01*
X159049084Y-68647008D01*
X159056687Y-68644102D01*
X159737979Y-67962811D01*
X159744355Y-67951132D01*
X160474408Y-67951132D01*
X160474539Y-67952966D01*
X160478790Y-67959580D01*
X161160156Y-68640945D01*
X161172531Y-68647702D01*
X161178796Y-68643013D01*
X161277462Y-68461290D01*
X161281896Y-68451044D01*
X161349553Y-68246469D01*
X161352103Y-68235596D01*
X161382742Y-68020319D01*
X161383348Y-68013103D01*
X161384905Y-67953632D01*
X161384677Y-67946379D01*
X161365348Y-67729812D01*
X161363366Y-67718798D01*
X161306517Y-67510987D01*
X161302619Y-67500506D01*
X161209859Y-67306031D01*
X161204173Y-67296416D01*
X161180719Y-67263776D01*
X161169928Y-67255365D01*
X161156894Y-67262317D01*
X160482021Y-67937189D01*
X160474408Y-67951132D01*
X159744355Y-67951132D01*
X159745592Y-67948868D01*
X159745461Y-67947034D01*
X159741210Y-67940420D01*
X159063095Y-67262306D01*
X159050720Y-67255549D01*
X159042747Y-67261517D01*
X158976952Y-67366403D01*
X158971872Y-67376373D01*
X158891511Y-67576278D01*
X158888280Y-67586978D01*
X158844588Y-67797958D01*
X158843303Y-67809065D01*
X158837663Y-68024452D01*
X153928958Y-68024452D01*
X153931031Y-62496126D01*
X153931373Y-61583579D01*
X153933356Y-61561359D01*
X153935376Y-61550115D01*
X153936206Y-61514439D01*
X153937265Y-61468972D01*
X153939644Y-61447363D01*
X153954883Y-61370620D01*
X153962051Y-61346968D01*
X153989056Y-61281733D01*
X154000702Y-61259936D01*
X154039925Y-61201220D01*
X154055603Y-61182115D01*
X154105520Y-61132198D01*
X154124624Y-61116521D01*
X154183334Y-61077301D01*
X154205132Y-61065654D01*
X154270375Y-61038646D01*
X154294023Y-61031479D01*
X154370775Y-61016238D01*
X154392377Y-61013860D01*
X154470242Y-61012048D01*
X154483782Y-61009786D01*
X154504633Y-61008065D01*
X179089712Y-61027672D01*
G37*
%TD.AperFunction*%
%TA.AperFunction,Conductor*%
G36*
X173039687Y-117244713D02*
G01*
X173045421Y-117246249D01*
X173052572Y-117248165D01*
X173285000Y-117268500D01*
X173517428Y-117248165D01*
X173524579Y-117246249D01*
X173530947Y-117244543D01*
X173601923Y-117246233D01*
X173660719Y-117286028D01*
X173688666Y-117351293D01*
X173688731Y-117359471D01*
X173698759Y-117378549D01*
X174701115Y-118380905D01*
X174735141Y-118443217D01*
X174730076Y-118514032D01*
X174701115Y-118559095D01*
X173698038Y-119562172D01*
X173685018Y-119586016D01*
X173674528Y-119634237D01*
X173624327Y-119684440D01*
X173554953Y-119699532D01*
X173531327Y-119695559D01*
X173522747Y-119693260D01*
X173522745Y-119693260D01*
X173517428Y-119691835D01*
X173285000Y-119671500D01*
X173052572Y-119691835D01*
X173047253Y-119693260D01*
X173047254Y-119693260D01*
X173040079Y-119695182D01*
X172969103Y-119693490D01*
X172910308Y-119653694D01*
X172882363Y-119588429D01*
X172882301Y-119580589D01*
X172872241Y-119561451D01*
X172152812Y-118842022D01*
X172138868Y-118834408D01*
X172137035Y-118834539D01*
X172130420Y-118838790D01*
X171407038Y-119562172D01*
X171393885Y-119586258D01*
X171383507Y-119633965D01*
X171333305Y-119684167D01*
X171263931Y-119699258D01*
X171240313Y-119695287D01*
X171232746Y-119693260D01*
X171232747Y-119693260D01*
X171227428Y-119691835D01*
X170995000Y-119671500D01*
X170762572Y-119691835D01*
X170757253Y-119693260D01*
X170757254Y-119693260D01*
X170750079Y-119695182D01*
X170679103Y-119693490D01*
X170620308Y-119653694D01*
X170592363Y-119588429D01*
X170592301Y-119580589D01*
X170582241Y-119561451D01*
X169862812Y-118842022D01*
X169848868Y-118834408D01*
X169847035Y-118834539D01*
X169840420Y-118838790D01*
X169117038Y-119562172D01*
X169103885Y-119586258D01*
X169093507Y-119633965D01*
X169043305Y-119684167D01*
X168973931Y-119699258D01*
X168950313Y-119695287D01*
X168942746Y-119693260D01*
X168942747Y-119693260D01*
X168937428Y-119691835D01*
X168705000Y-119671500D01*
X168699525Y-119671979D01*
X168699514Y-119671979D01*
X168546003Y-119685410D01*
X168476398Y-119671422D01*
X168425406Y-119622023D01*
X168409215Y-119552897D01*
X168432967Y-119485991D01*
X168445926Y-119470795D01*
X168586350Y-119330371D01*
X168632749Y-119264106D01*
X168688204Y-119219779D01*
X168739106Y-119212461D01*
X168758549Y-119202241D01*
X169477978Y-118482812D01*
X169484355Y-118471132D01*
X170214408Y-118471132D01*
X170214539Y-118472965D01*
X170218790Y-118479580D01*
X170942172Y-119202962D01*
X170956116Y-119210576D01*
X170987752Y-119208314D01*
X170988303Y-119208098D01*
X171012262Y-119208287D01*
X171032969Y-119210430D01*
X171048549Y-119202241D01*
X171767978Y-118482812D01*
X171774355Y-118471132D01*
X172504408Y-118471132D01*
X172504539Y-118472965D01*
X172508790Y-118479580D01*
X173232172Y-119202962D01*
X173246116Y-119210576D01*
X173277668Y-119208320D01*
X173278481Y-119208002D01*
X173302379Y-119208196D01*
X173323968Y-119210430D01*
X173339550Y-119202240D01*
X174058978Y-118482812D01*
X174066592Y-118468868D01*
X174066461Y-118467035D01*
X174062210Y-118460420D01*
X173338828Y-117737038D01*
X173324884Y-117729424D01*
X173293332Y-117731680D01*
X173292519Y-117731998D01*
X173268621Y-117731804D01*
X173247032Y-117729570D01*
X173231450Y-117737760D01*
X172512022Y-118457188D01*
X172504408Y-118471132D01*
X171774355Y-118471132D01*
X171775592Y-118468868D01*
X171775461Y-118467035D01*
X171771210Y-118460420D01*
X171047828Y-117737038D01*
X171033884Y-117729424D01*
X171002248Y-117731686D01*
X171001697Y-117731902D01*
X170977738Y-117731713D01*
X170957031Y-117729570D01*
X170941451Y-117737759D01*
X170222022Y-118457188D01*
X170214408Y-118471132D01*
X169484355Y-118471132D01*
X169485592Y-118468868D01*
X169485461Y-118467035D01*
X169481210Y-118460420D01*
X168757828Y-117737038D01*
X168742918Y-117728896D01*
X168675608Y-117714254D01*
X168632780Y-117675937D01*
X168589509Y-117614140D01*
X168589507Y-117614137D01*
X168586350Y-117609629D01*
X168445926Y-117469205D01*
X168411900Y-117406893D01*
X168416965Y-117336078D01*
X168459512Y-117279242D01*
X168526032Y-117254431D01*
X168546003Y-117254590D01*
X168699514Y-117268021D01*
X168699525Y-117268021D01*
X168705000Y-117268500D01*
X168937428Y-117248165D01*
X168944579Y-117246249D01*
X168949921Y-117244818D01*
X169020897Y-117246510D01*
X169079692Y-117286306D01*
X169107637Y-117351571D01*
X169107699Y-117359411D01*
X169117759Y-117378549D01*
X169837188Y-118097978D01*
X169851132Y-118105592D01*
X169852965Y-118105461D01*
X169859580Y-118101210D01*
X170582962Y-117377828D01*
X170596115Y-117353742D01*
X170606493Y-117306035D01*
X170656695Y-117255833D01*
X170726069Y-117240742D01*
X170749687Y-117244713D01*
X170755421Y-117246249D01*
X170762572Y-117248165D01*
X170995000Y-117268500D01*
X171227428Y-117248165D01*
X171234579Y-117246249D01*
X171239921Y-117244818D01*
X171310897Y-117246510D01*
X171369692Y-117286306D01*
X171397637Y-117351571D01*
X171397699Y-117359411D01*
X171407759Y-117378549D01*
X172127188Y-118097978D01*
X172141132Y-118105592D01*
X172142965Y-118105461D01*
X172149580Y-118101210D01*
X172872962Y-117377828D01*
X172886115Y-117353742D01*
X172896493Y-117306035D01*
X172946695Y-117255833D01*
X173016069Y-117240742D01*
X173039687Y-117244713D01*
G37*
%TD.AperFunction*%
%TA.AperFunction,Conductor*%
G36*
X163281771Y-116966745D02*
G01*
X163451492Y-117085585D01*
X163460987Y-117091068D01*
X163662395Y-117184986D01*
X163672687Y-117188732D01*
X163887344Y-117246249D01*
X163898139Y-117248152D01*
X164119525Y-117267521D01*
X164130475Y-117267521D01*
X164351861Y-117248152D01*
X164362659Y-117246248D01*
X164369976Y-117244288D01*
X164440952Y-117245980D01*
X164499747Y-117285776D01*
X164527692Y-117351042D01*
X164527759Y-117359525D01*
X164537759Y-117378549D01*
X165257188Y-118097978D01*
X165271132Y-118105592D01*
X165272965Y-118105461D01*
X165279580Y-118101210D01*
X166002962Y-117377828D01*
X166016115Y-117353742D01*
X166026493Y-117306035D01*
X166076695Y-117255833D01*
X166146069Y-117240742D01*
X166169687Y-117244713D01*
X166175421Y-117246249D01*
X166182572Y-117248165D01*
X166415000Y-117268500D01*
X166420475Y-117268021D01*
X166576188Y-117254398D01*
X166645793Y-117268387D01*
X166696786Y-117317787D01*
X166712976Y-117386913D01*
X166689223Y-117453818D01*
X166676265Y-117469014D01*
X166535650Y-117609629D01*
X166532493Y-117614137D01*
X166532491Y-117614140D01*
X166489116Y-117676086D01*
X166433659Y-117720414D01*
X166379687Y-117728174D01*
X166361451Y-117737759D01*
X165359095Y-118740115D01*
X165296783Y-118774141D01*
X165225968Y-118769076D01*
X165180905Y-118740115D01*
X164177828Y-117737038D01*
X164166053Y-117730608D01*
X164154038Y-117739904D01*
X164114415Y-117796492D01*
X164108932Y-117805987D01*
X164015014Y-118007395D01*
X164011268Y-118017687D01*
X163953751Y-118232344D01*
X163951848Y-118243139D01*
X163932479Y-118464525D01*
X163932479Y-118475475D01*
X163951848Y-118696861D01*
X163953751Y-118707656D01*
X164011268Y-118922313D01*
X164015018Y-118932615D01*
X164017180Y-118937252D01*
X164027841Y-119007443D01*
X163998860Y-119072256D01*
X163939440Y-119111111D01*
X163902985Y-119116500D01*
X163209500Y-119116500D01*
X163141379Y-119096498D01*
X163094886Y-119042842D01*
X163083500Y-118990500D01*
X163083500Y-117069958D01*
X163103502Y-117001837D01*
X163157158Y-116955344D01*
X163227432Y-116945240D01*
X163281771Y-116966745D01*
G37*
%TD.AperFunction*%
%TA.AperFunction,Conductor*%
G36*
X174819441Y-116065346D02*
G01*
X175329595Y-116575500D01*
X175363621Y-116637812D01*
X175366500Y-116664595D01*
X175366500Y-117255820D01*
X175346498Y-117323941D01*
X175292842Y-117370434D01*
X175222568Y-117380538D01*
X175168229Y-117359033D01*
X175104508Y-117314415D01*
X175095013Y-117308932D01*
X174893605Y-117215014D01*
X174883313Y-117211268D01*
X174668656Y-117153751D01*
X174657861Y-117151848D01*
X174436475Y-117132479D01*
X174425525Y-117132479D01*
X174269264Y-117146150D01*
X174199659Y-117132161D01*
X174148666Y-117082761D01*
X174132476Y-117013635D01*
X174156229Y-116946730D01*
X174169187Y-116931534D01*
X174310350Y-116790371D01*
X174326788Y-116766896D01*
X174407669Y-116651386D01*
X174444175Y-116599250D01*
X174446498Y-116594268D01*
X174446501Y-116594263D01*
X174540456Y-116392776D01*
X174540457Y-116392774D01*
X174542779Y-116387794D01*
X174585028Y-116230119D01*
X174601741Y-116167743D01*
X174601741Y-116167742D01*
X174603165Y-116162428D01*
X174603645Y-116156944D01*
X174603646Y-116156937D01*
X174604826Y-116143457D01*
X174630690Y-116077339D01*
X174688195Y-116035701D01*
X174759082Y-116031762D01*
X174819441Y-116065346D01*
G37*
%TD.AperFunction*%
%TA.AperFunction,Conductor*%
G36*
X165755650Y-114553502D02*
G01*
X165802143Y-114607158D01*
X165812247Y-114677432D01*
X165782753Y-114742012D01*
X165750591Y-114768568D01*
X165745750Y-114770825D01*
X165741250Y-114773976D01*
X165570903Y-114893255D01*
X165554629Y-114904650D01*
X165389650Y-115069629D01*
X165386493Y-115074137D01*
X165386491Y-115074140D01*
X165343184Y-115135989D01*
X165287727Y-115180317D01*
X165235289Y-115187857D01*
X165216451Y-115197759D01*
X164497022Y-115917188D01*
X164489408Y-115931132D01*
X164489539Y-115932965D01*
X164493790Y-115939580D01*
X165217172Y-116662962D01*
X165231244Y-116670646D01*
X165300346Y-116685679D01*
X165343173Y-116723995D01*
X165373213Y-116766896D01*
X165389650Y-116790371D01*
X165530717Y-116931438D01*
X165564743Y-116993750D01*
X165559678Y-117064565D01*
X165517131Y-117121401D01*
X165450611Y-117146212D01*
X165430641Y-117146054D01*
X165275476Y-117132479D01*
X165264525Y-117132479D01*
X165043139Y-117151848D01*
X165032341Y-117153752D01*
X165025024Y-117155712D01*
X164954048Y-117154020D01*
X164895253Y-117114224D01*
X164867308Y-117048958D01*
X164867241Y-117040475D01*
X164857241Y-117021451D01*
X163854885Y-116019095D01*
X163820859Y-115956783D01*
X163825924Y-115885968D01*
X163854885Y-115840905D01*
X164857962Y-114837828D01*
X164864392Y-114826053D01*
X164855096Y-114814038D01*
X164798508Y-114774415D01*
X164788470Y-114768619D01*
X164739477Y-114717235D01*
X164726042Y-114647522D01*
X164752429Y-114581611D01*
X164810262Y-114540429D01*
X164851471Y-114533500D01*
X165687529Y-114533500D01*
X165755650Y-114553502D01*
G37*
%TD.AperFunction*%
%TA.AperFunction,Conductor*%
G36*
X172840353Y-83751713D02*
G01*
X172884377Y-83780281D01*
X173254595Y-84150499D01*
X173288621Y-84212811D01*
X173291500Y-84239594D01*
X173291500Y-84392885D01*
X173291924Y-84396518D01*
X173291924Y-84396525D01*
X173306130Y-84518370D01*
X173306978Y-84525642D01*
X173309474Y-84532520D01*
X173309475Y-84532522D01*
X173339557Y-84615397D01*
X173367313Y-84691863D01*
X173415813Y-84765838D01*
X173457441Y-84829331D01*
X173464269Y-84839746D01*
X173592645Y-84961358D01*
X173745555Y-85050175D01*
X173914796Y-85101433D01*
X173921236Y-85102008D01*
X173921237Y-85102008D01*
X173991185Y-85108251D01*
X173991191Y-85108251D01*
X173993978Y-85108500D01*
X174992885Y-85108500D01*
X175095811Y-85096500D01*
X175118370Y-85093870D01*
X175118371Y-85093870D01*
X175125642Y-85093022D01*
X175165160Y-85078678D01*
X175197509Y-85066936D01*
X175268367Y-85062495D01*
X175330377Y-85097068D01*
X175363852Y-85159678D01*
X175366500Y-85185375D01*
X175366500Y-86516736D01*
X175346498Y-86584857D01*
X175292842Y-86631350D01*
X175222568Y-86641454D01*
X175157988Y-86611960D01*
X175131381Y-86579736D01*
X175125601Y-86569724D01*
X175064017Y-86463058D01*
X174990844Y-86381791D01*
X174960126Y-86317784D01*
X174958480Y-86297481D01*
X174958480Y-86285402D01*
X174957940Y-86281128D01*
X174957006Y-86269276D01*
X174956363Y-86248793D01*
X174955618Y-86225097D01*
X174949966Y-86205641D01*
X174945961Y-86186301D01*
X174943420Y-86166192D01*
X174940501Y-86158820D01*
X174940500Y-86158815D01*
X174927144Y-86125081D01*
X174923299Y-86113852D01*
X174913178Y-86079015D01*
X174910966Y-86071401D01*
X174900657Y-86053969D01*
X174891960Y-86036216D01*
X174887422Y-86024755D01*
X174884502Y-86017380D01*
X174858511Y-85981606D01*
X174851996Y-85971687D01*
X174832528Y-85938771D01*
X174829493Y-85933639D01*
X174829125Y-85933222D01*
X174815045Y-85919142D01*
X174802204Y-85904108D01*
X174795086Y-85894311D01*
X174790426Y-85887897D01*
X174756647Y-85859953D01*
X174747866Y-85851963D01*
X174528385Y-85632481D01*
X174521030Y-85624398D01*
X174516973Y-85618005D01*
X174468120Y-85572129D01*
X174465279Y-85569375D01*
X174444966Y-85549062D01*
X174441555Y-85546417D01*
X174432533Y-85538711D01*
X174406077Y-85513867D01*
X174400301Y-85508443D01*
X174393357Y-85504626D01*
X174393355Y-85504624D01*
X174382547Y-85498682D01*
X174366023Y-85487828D01*
X174356286Y-85480275D01*
X174356285Y-85480275D01*
X174350023Y-85475417D01*
X174342750Y-85472270D01*
X174342747Y-85472268D01*
X174317532Y-85461357D01*
X174309458Y-85457863D01*
X174298800Y-85452642D01*
X174266994Y-85435156D01*
X174266990Y-85435154D01*
X174260048Y-85431338D01*
X174252373Y-85429368D01*
X174252372Y-85429367D01*
X174240426Y-85426300D01*
X174221719Y-85419895D01*
X174210410Y-85415001D01*
X174210408Y-85415001D01*
X174203135Y-85411853D01*
X174195307Y-85410613D01*
X174195306Y-85410613D01*
X174159473Y-85404938D01*
X174147848Y-85402530D01*
X174110782Y-85393013D01*
X174110780Y-85393013D01*
X174105025Y-85391535D01*
X174104469Y-85391500D01*
X174084546Y-85391500D01*
X174064837Y-85389949D01*
X174045055Y-85386816D01*
X174037163Y-85387562D01*
X174001418Y-85390941D01*
X173989560Y-85391500D01*
X172770329Y-85391500D01*
X172702208Y-85371498D01*
X172655715Y-85317842D01*
X172645611Y-85247568D01*
X172661375Y-85202214D01*
X172671041Y-85185573D01*
X172676838Y-85172241D01*
X172724067Y-85016303D01*
X172726516Y-85003677D01*
X172732751Y-84933816D01*
X172733000Y-84928221D01*
X172733000Y-84809615D01*
X172728525Y-84794376D01*
X172727135Y-84793171D01*
X172719452Y-84791500D01*
X171372000Y-84791499D01*
X171303879Y-84771497D01*
X171257386Y-84717841D01*
X171246000Y-84665499D01*
X171246001Y-84409500D01*
X171266003Y-84341379D01*
X171319659Y-84294886D01*
X171372001Y-84283500D01*
X172714885Y-84283501D01*
X172730124Y-84279026D01*
X172731329Y-84277636D01*
X172733000Y-84269953D01*
X172733000Y-84160778D01*
X172732576Y-84153477D01*
X172718383Y-84031746D01*
X172715037Y-84017591D01*
X172676843Y-83912367D01*
X172672402Y-83841509D01*
X172706975Y-83779499D01*
X172769584Y-83746024D01*
X172840353Y-83751713D01*
G37*
%TD.AperFunction*%
%TD*%
M02*
